<svg width="20" height="13" viewBox="0 0 20 13" fill="none" xmlns="http://www.w3.org/2000/svg">
<path d="M13.8536 0.146447C13.6583 -0.0488155 13.3417 -0.0488155 13.1464 0.146447C12.9512 0.341709 12.9512 0.658291 13.1464 0.853553L13.8536 0.146447ZM19.5 6.5L19.8536 6.85355C20.0488 6.65829 20.0488 6.34171 19.8536 6.14645L19.5 6.5ZM13.1464 12.1464C12.9512 12.3417 12.9512 12.6583 13.1464 12.8536C13.3417 13.0488 13.6583 13.0488 13.8536 12.8536L13.1464 12.1464ZM0.5 6C0.223858 6 0 6.22386 0 6.5C0 6.77614 0.223858 7 0.5 7V6ZM13.1464 0.853553L19.1464 6.85355L19.8536 6.14645L13.8536 0.146447L13.1464 0.853553ZM19.1464 6.14645L13.1464 12.1464L13.8536 12.8536L19.8536 6.85355L19.1464 6.14645ZM19.5 6H0.5V7H19.5V6Z" fill="white"/>
</svg>
