<svg width="20" height="20" viewBox="0 0 20 20" fill="none" xmlns="http://www.w3.org/2000/svg">
<path d="M13.8536 4.14645C13.6583 3.95118 13.3417 3.95118 13.1464 4.14645C12.9512 4.34171 12.9512 4.65829 13.1464 4.85355L13.8536 4.14645ZM19.5 10.5L19.8536 10.8536C20.0488 10.6583 20.0488 10.3417 19.8536 10.1464L19.5 10.5ZM13.1464 16.1464C12.9512 16.3417 12.9512 16.6583 13.1464 16.8536C13.3417 17.0488 13.6583 17.0488 13.8536 16.8536L13.1464 16.1464ZM0.5 10C0.223858 10 0 10.2239 0 10.5C0 10.7761 0.223858 11 0.5 11V10ZM13.1464 4.85355L19.1464 10.8536L19.8536 10.1464L13.8536 4.14645L13.1464 4.85355ZM19.1464 10.1464L13.1464 16.1464L13.8536 16.8536L19.8536 10.8536L19.1464 10.1464ZM19.5 10H0.5V11H19.5V10Z" fill="black"/>
</svg>
