<svg width="1053" height="320" viewBox="0 0 1053 320" fill="none" xmlns="http://www.w3.org/2000/svg">
<path d="M189.365 605.713C203.11 621.573 227.109 623.287 242.969 609.542C258.828 595.797 260.543 571.798 246.798 555.938L189.365 605.713ZM-132.311 118.505C-146.056 102.645 -170.055 100.931 -185.915 114.676C-201.774 128.421 -203.488 152.42 -189.744 168.28L-132.311 118.505ZM246.798 555.938L-132.311 118.505L-189.744 168.28L189.365 605.713L246.798 555.938Z" fill="url(#paint0_linear)"/>
<path d="M254.975 571.713C260.008 592.088 247.571 612.684 227.197 617.717C206.822 622.75 186.226 610.314 181.193 589.94L254.975 571.713ZM-8.36012 -177.392C-13.3932 -197.766 -0.956568 -218.363 19.4178 -223.396C39.7922 -228.429 60.389 -215.993 65.422 -195.618L-8.36012 -177.392ZM181.193 589.94L-8.36012 -177.392L65.422 -195.618L254.975 571.713L181.193 589.94Z" fill="url(#paint1_linear)"/>
<path d="M61.4794 -205.436C51.0239 -223.633 27.7965 -229.909 9.59957 -219.453C-8.59738 -208.998 -14.8731 -185.771 -4.41754 -167.574L61.4794 -205.436ZM185.133 162.324C195.589 180.521 218.816 186.797 237.013 176.341C255.21 165.886 261.486 142.658 251.03 124.461L185.133 162.324ZM-4.41754 -167.574L185.133 162.324L251.03 124.461L61.4794 -205.436L-4.41754 -167.574Z" fill="#403DDF"/>
<path d="M218.081 143.391L407.636 34.0345" stroke="url(#paint2_linear)" stroke-width="76" stroke-linecap="round"/>
<path d="M597.191 143.393L976.302 -75.3235" stroke="url(#paint3_linear)" stroke-width="76" stroke-linecap="round"/>
<path d="M408.294 34.5551L597.848 143.913" stroke="url(#paint4_linear)" stroke-width="76" stroke-linecap="round"/>
<defs>
<linearGradient id="paint0_linear" x1="-159.205" y1="145.215" x2="287.823" y2="645.925" gradientUnits="userSpaceOnUse">
<stop stop-color="#403DDF"/>
<stop offset="1" stop-color="#181652"/>
</linearGradient>
<linearGradient id="paint1_linear" x1="-60" y1="-552" x2="219.904" y2="582.648" gradientUnits="userSpaceOnUse">
<stop/>
<stop offset="1" stop-color="#403DDF"/>
</linearGradient>
<linearGradient id="paint2_linear" x1="216.259" y1="145.214" x2="524.302" y2="-33.7668" gradientUnits="userSpaceOnUse">
<stop stop-color="#403DDF"/>
<stop offset="0.641919" stop-color="#1C1B63"/>
</linearGradient>
<linearGradient id="paint3_linear" x1="1006" y1="-99.0002" x2="602" y2="143" gradientUnits="userSpaceOnUse">
<stop/>
<stop offset="0.893615" stop-color="#403DDF"/>
</linearGradient>
<linearGradient id="paint4_linear" x1="408.952" y1="38.1426" x2="597.838" y2="139.278" gradientUnits="userSpaceOnUse">
<stop offset="0.21164" stop-color="#23227B"/>
<stop offset="1" stop-color="#403DDF"/>
</linearGradient>
</defs>
</svg>
