<svg width="202" height="40" viewBox="0 0 202 40" fill="none" xmlns="http://www.w3.org/2000/svg">
<path d="M166.235 25.6471V14.5883H162.588V16.2354C162.471 15.7648 161.412 15.0589 160.235 14.706C159.412 14.4707 158.588 14.353 157.765 14.353C153.294 14.353 149.647 17.8824 149.647 22.353C149.647 26.8236 153.294 30.353 157.765 30.353C160 30.353 162.118 29.4118 163.647 27.8824C164.471 29.1766 166 30.0001 167.647 30.0001V26.706C166.941 26.5883 166.235 26.1177 166.235 25.6471ZM157.765 26.8236C155.294 26.8236 153.294 24.8236 153.294 22.353C153.294 19.8824 155.294 17.8824 157.765 17.8824C160.235 17.8824 162.235 19.8824 162.235 22.353C162.235 24.8236 160.235 26.8236 157.765 26.8236Z" fill="black"/>
<path d="M80.8236 14.353C76.1178 14.353 72.4707 17.8824 72.4707 22.353C72.4707 26.8236 76.0001 30.353 80.8236 30.353C85.5295 30.353 89.1766 26.8236 89.1766 22.353C89.1766 17.8824 85.4119 14.353 80.8236 14.353ZM80.8236 26.706C78.0001 26.706 76.4707 24.706 76.4707 22.353C76.4707 20.0001 78.2354 18.0001 80.8236 18.0001C83.4119 18.0001 85.1766 20.0001 85.1766 22.353C85.0589 24.706 83.2942 26.706 80.8236 26.706Z" fill="black"/>
<path d="M91.5295 14.5881H95.5295V29.9999H91.5295V14.5881Z" fill="black"/>
<path d="M107.647 14.353C104.588 14.353 102.941 16.4707 102.941 16.4707L102.706 14.706H99.0588V30.1177H102.941V19.6471C102.941 19.6471 104.353 17.7648 106.824 17.7648C108.706 17.7648 110 18.8236 110 20.8236V30.0001H113.882V20.706C113.882 16.9413 111.412 14.353 107.647 14.353Z" fill="black"/>
<path d="M120.353 18.9413C120.353 18.1177 121.412 17.6471 122.353 17.6471C124.941 17.6471 126 18.8236 126 18.8236L127.647 16.2354C127.647 16.2354 125.294 14.353 122.353 14.353C119.059 14.353 116.353 16.1177 116.353 19.1766C116.353 24.4707 124.471 23.2942 124.471 25.7648C124.471 26.8236 122.941 27.0589 121.765 27.0589C118.941 27.0589 117.882 25.4118 117.882 25.4118L116.235 28.2354C116.235 28.2354 118.941 30.4707 121.882 30.4707C126.235 30.5883 128.471 28.2354 128.471 25.4118C128.471 20.1177 120.353 20.9413 120.353 18.9413Z" fill="black"/>
<path d="M144.941 18.4706C144.941 18.4706 147.294 16.9412 147.294 14.1177C147.294 10.4706 144.588 8.11768 139.647 8.11768H131.882V30.1177H140.471C145.059 30.1177 148 27.6471 148 23.8824C148 19.8824 144.941 18.4706 144.941 18.4706ZM135.765 11.6471H139.647C142 11.6471 143.294 12.7059 143.294 14.2353C143.294 16.2353 142 17.1765 139.647 17.1765H135.765V11.6471ZM140.118 26.4706H135.765V20.5883H139.882C142.941 20.5883 144 21.7647 144 23.5294C144 25.4118 142.706 26.4706 140.118 26.4706Z" fill="black"/>
<path d="M178.235 14.353C175.177 14.353 173.53 16.4707 173.53 16.4707L173.294 14.706H169.647V30.1177H173.53V19.6471C173.53 19.6471 174.941 17.7648 177.53 17.7648C179.294 17.7648 180.588 18.8236 180.588 20.8236V30.0001H184.471V20.706C184.471 16.9413 182 14.353 178.235 14.353Z" fill="black"/>
<path d="M201.294 14.4707H196.706L190.941 21.8825V14.4707H187.059V30.1178H190.941V22.5884L196.706 30.1178H201.294L195.176 22.1178L201.294 14.4707Z" fill="black"/>
<path d="M93.5294 13.0589C94.9412 13.0589 96 12 96 10.5883C96 9.29415 94.9412 8.11768 93.5294 8.11768C92.1177 8.11768 91.0588 9.1765 91.0588 10.5883C91.0588 12 92.1177 13.0589 93.5294 13.0589Z" fill="black"/>
<path d="M61.8823 30.4706C55.647 30.4706 50.5881 25.4118 50.5881 19.2941C50.5881 13.0589 55.647 8.11768 61.8823 8.11768C65.5293 8.11768 68.9411 9.88238 71.0587 12.8236L67.647 15.1765C66.2352 13.2941 64.1175 12.1177 61.7646 12.1177C57.7646 12.1177 54.5881 15.2941 54.5881 19.1765C54.5881 23.0588 57.7646 26.2353 61.7646 26.2353C64.1175 26.2353 66.3528 25.0588 67.647 23.1765L71.0587 25.5294C69.0587 28.7059 65.5293 30.4706 61.8823 30.4706Z" fill="black"/>
<path d="M0 0V40H40V0H0ZM35.2941 35.2941H4.70588V4.70588H35.2941V35.2941Z" fill="#4845ED"/>
<path d="M14.2353 28.3529L16.5882 26C17.6471 26.5882 18.7059 26.9412 20 26.9412C21.2941 26.9412 22.3529 26.5882 23.4118 26L25.7647 28.3529L28.3529 25.7647L26 23.4118C26.5882 22.3529 26.9412 21.1765 26.9412 20C26.9412 18.8235 26.5882 17.6471 26 16.5882L28.3529 14.2353L25.7647 11.6471L23.4118 14C22.3529 13.4118 21.1765 13.0588 20 13.0588C18.7059 13.0588 17.5294 13.4118 16.5882 14L14.2353 11.6471L11.6471 14.2353L14 16.5882C13.4118 17.6471 13.0588 18.7059 13.0588 20C13.0588 21.2941 13.4118 22.4706 14 23.4118L11.6471 25.7647L14.2353 28.3529ZM20 17.0588C21.6471 17.0588 22.9412 18.3529 22.9412 20C22.9412 21.6471 21.6471 22.9412 20 22.9412C18.3529 22.9412 17.0588 21.6471 17.0588 20C17.0588 18.3529 18.3529 17.0588 20 17.0588Z" fill="#4845ED"/>
</svg>
