<svg width="121" height="24" viewBox="0 0 121 24" fill="none" xmlns="http://www.w3.org/2000/svg">
<g clip-path="url(#clip0)">
<path d="M99.7413 15.3883V8.75299H97.553V9.60005V9.74123C97.4825 9.45888 96.8472 9.03535 96.1413 8.82358C95.6472 8.6824 95.1531 8.61182 94.6589 8.61182C91.9766 8.61182 89.7883 10.7295 89.7883 13.4118C89.7883 16.0942 91.9766 18.2118 94.6589 18.2118C96.0001 18.2118 97.2707 17.6471 98.1883 16.7295C98.6825 17.5059 99.6001 18.0001 100.588 18.0001V16.0236C100.165 15.953 99.7413 15.6706 99.7413 15.3883ZM94.6589 16.0942C93.1766 16.0942 91.9766 14.8942 91.9766 13.4118C91.9766 11.9295 93.1766 10.7295 94.6589 10.7295C96.1413 10.7295 97.3413 11.9295 97.3413 13.4118C97.3413 14.8942 96.1413 16.0942 94.6589 16.0942Z" fill="white"/>
<path d="M48.4941 8.61182C45.6705 8.61182 43.4823 10.7295 43.4823 13.4118C43.4823 16.0942 45.5999 18.2118 48.4941 18.2118C51.3176 18.2118 53.5058 16.0942 53.5058 13.4118C53.5058 10.7295 51.247 8.61182 48.4941 8.61182ZM48.4941 16.0236C46.7999 16.0236 45.8823 14.8236 45.8823 13.4118C45.8823 12.0001 46.9411 10.8001 48.4941 10.8001C50.047 10.8001 51.1058 12.0001 51.1058 13.4118C51.0352 14.8236 49.9764 16.0236 48.4941 16.0236Z" fill="white"/>
<path d="M54.9177 8.75293H57.3177V18H54.9177V8.75293Z" fill="white"/>
<path d="M64.5883 8.61182C62.753 8.61182 61.7648 9.8824 61.7648 9.8824L61.6236 8.82358H59.4354V18.0706H61.7648V11.7883C61.7648 11.7883 62.6118 10.6589 64.0942 10.6589C65.2236 10.6589 66.0001 11.2942 66.0001 12.4942V18.0001H68.3295V12.4236C68.3295 10.1648 66.8471 8.61182 64.5883 8.61182Z" fill="white"/>
<path d="M72.2117 11.3648C72.2117 10.8706 72.847 10.5883 73.4117 10.5883C74.9647 10.5883 75.6 11.2942 75.6 11.2942L76.5882 9.74123C76.5882 9.74123 75.1764 8.61182 73.4117 8.61182C71.4353 8.61182 69.8117 9.67064 69.8117 11.5059C69.8117 14.6824 74.6823 13.9765 74.6823 15.4589C74.6823 16.0942 73.7647 16.2353 73.0588 16.2353C71.3647 16.2353 70.7294 15.2471 70.7294 15.2471L69.7411 16.9412C69.7411 16.9412 71.3647 18.2824 73.1294 18.2824C75.7411 18.353 77.0823 16.9412 77.0823 15.2471C77.0823 12.0706 72.2117 12.5648 72.2117 11.3648Z" fill="white"/>
<path d="M86.9646 11.0824C86.9646 11.0824 88.3764 10.1647 88.3764 8.4706C88.3764 6.28237 86.7529 4.87061 83.7882 4.87061H79.1293V18.0706H84.2823C87.0352 18.0706 88.7999 16.5883 88.7999 14.3294C88.7999 11.9294 86.9646 11.0824 86.9646 11.0824ZM81.4587 6.98825H83.7882C85.1999 6.98825 85.9764 7.62355 85.9764 8.54119C85.9764 9.74119 85.1999 10.3059 83.7882 10.3059H81.4587V6.98825ZM84.0705 15.8824H81.4587V12.353H83.9293C85.7646 12.353 86.3999 13.0588 86.3999 14.1177C86.3999 15.2471 85.6234 15.8824 84.0705 15.8824Z" fill="white"/>
<path d="M106.941 8.61182C105.106 8.61182 104.118 9.8824 104.118 9.8824L103.976 8.82358H101.788V18.0706H104.118V11.7883C104.118 11.7883 104.965 10.6589 106.518 10.6589C107.576 10.6589 108.353 11.2942 108.353 12.4942V18.0001H110.682V12.4236C110.682 10.1648 109.2 8.61182 106.941 8.61182Z" fill="white"/>
<path d="M120.776 8.68237H118.024L114.565 13.1294V8.68237H112.235V18.0706H114.565V13.553L118.024 18.0706H120.776L117.106 13.2706L120.776 8.68237Z" fill="white"/>
<path d="M56.1176 7.83531C56.9647 7.83531 57.6 7.20002 57.6 6.35296C57.6 5.57649 56.9647 4.87061 56.1176 4.87061C55.2705 4.87061 54.6353 5.5059 54.6353 6.35296C54.6353 7.20002 55.2705 7.83531 56.1176 7.83531Z" fill="white"/>
<path d="M37.1294 18.2824C33.3883 18.2824 30.353 15.2471 30.353 11.5765C30.353 7.83531 33.3883 4.87061 37.1294 4.87061C39.3177 4.87061 41.3647 5.92943 42.6353 7.69413L40.5883 9.1059C39.7412 7.97649 38.4706 7.27061 37.0588 7.27061C34.6588 7.27061 32.753 9.17649 32.753 11.5059C32.753 13.8353 34.6588 15.7412 37.0588 15.7412C38.4706 15.7412 39.8118 15.0353 40.5883 13.9059L42.6353 15.3177C41.4353 17.2235 39.3177 18.2824 37.1294 18.2824Z" fill="white"/>
<path d="M0 0V24H24V0H0ZM21.1765 21.1765H2.82353V2.82353H21.1765V21.1765Z" fill="white"/>
<path d="M8.54116 17.0118L9.95293 15.6C10.5882 15.953 11.2235 16.1648 12 16.1648C12.7765 16.1648 13.4117 15.953 14.047 15.6L15.4588 17.0118L17.0117 15.4589L15.6 14.0471C15.9529 13.4118 16.1647 12.7059 16.1647 12C16.1647 11.2942 15.9529 10.5883 15.6 9.95299L17.0117 8.54122L15.4588 6.98828L14.047 8.40005C13.4117 8.0471 12.7059 7.83534 12 7.83534C11.2235 7.83534 10.5176 8.0471 9.95293 8.40005L8.54116 6.98828L6.98822 8.54122L8.39998 9.95299C8.04704 10.5883 7.83528 11.2236 7.83528 12C7.83528 12.7765 8.04704 13.4824 8.39998 14.0471L6.98822 15.4589L8.54116 17.0118ZM12 10.2353C12.9882 10.2353 13.7647 11.0118 13.7647 12C13.7647 12.9883 12.9882 13.7648 12 13.7648C11.0117 13.7648 10.2353 12.9883 10.2353 12C10.2353 11.0118 11.0117 10.2353 12 10.2353Z" fill="white"/>
</g>
<defs>
<clipPath id="clip0">
<rect width="120.706" height="24" fill="white"/>
</clipPath>
</defs>
</svg>
