<svg width="30" height="21" viewBox="0 0 30 21" fill="none" xmlns="http://www.w3.org/2000/svg">
<path d="M19.1464 0.853553C18.9512 0.658291 18.9512 0.341709 19.1464 0.146447C19.3417 -0.0488155 19.6583 -0.0488155 19.8536 0.146447L19.1464 0.853553ZM29.5 10.5L29.8536 10.1464C30.0488 10.3417 30.0488 10.6583 29.8536 10.8536L29.5 10.5ZM19.8536 20.8536C19.6583 21.0488 19.3417 21.0488 19.1464 20.8536C18.9512 20.6583 18.9512 20.3417 19.1464 20.1464L19.8536 20.8536ZM29 10C29.2761 10 29.5 10.2239 29.5 10.5C29.5 10.7761 29.2761 11 29 11V10ZM0.5 11C0.223858 11 0 10.7761 0 10.5C0 10.2239 0.223858 10 0.5 10V11ZM19.8536 0.146447L29.8536 10.1464L29.1464 10.8536L19.1464 0.853553L19.8536 0.146447ZM29.8536 10.8536L19.8536 20.8536L19.1464 20.1464L29.1464 10.1464L29.8536 10.8536ZM29 11H0.5V10H29V11Z" fill="white"/>
</svg>
