<svg width="11" height="10" viewBox="0 0 11 10" fill="none" xmlns="http://www.w3.org/2000/svg">
<path fill-rule="evenodd" clip-rule="evenodd" d="M0.5 0.495361C0.776142 0.495361 1 0.719219 1 0.995361V3.49536H3.5C3.77614 3.49536 4 3.71922 4 3.99536C4 4.2715 3.77614 4.49536 3.5 4.49536H0.5C0.223858 4.49536 0 4.2715 0 3.99536V0.995361C0 0.719219 0.223858 0.495361 0.5 0.495361Z" fill="black"/>
<path fill-rule="evenodd" clip-rule="evenodd" d="M5.30268 0.048771C6.37614 -0.102259 7.46961 0.0996698 8.41832 0.624131C9.36704 1.14859 10.1196 1.96717 10.5627 2.95654C11.0057 3.9459 11.1152 5.05245 10.8746 6.10946C10.6341 7.16647 10.0566 8.11668 9.22904 8.81691C8.40151 9.51714 7.36883 9.92946 6.28659 9.99175C5.20435 10.054 4.13118 9.76291 3.22878 9.16225C2.32638 8.56159 1.64363 7.68392 1.28341 6.66148C1.19165 6.40103 1.3284 6.11551 1.58885 6.02375C1.8493 5.93199 2.13483 6.06874 2.22659 6.32919C2.51476 7.14713 3.06096 7.84927 3.78288 8.3298C4.5048 8.81033 5.36334 9.04323 6.22913 8.9934C7.09492 8.94357 7.92107 8.61371 8.58309 8.05352C9.24511 7.49334 9.70715 6.73318 9.89958 5.88757C10.092 5.04197 10.0044 4.15672 9.64998 3.36523C9.29555 2.57374 8.69349 1.91887 7.93452 1.49931C7.17554 1.07974 6.30077 0.918194 5.442 1.03902C4.58323 1.15984 3.787 1.55649 3.17326 2.16919C3.16969 2.17275 3.16606 2.17626 3.16239 2.17971L0.84239 4.35971C0.64115 4.54881 0.324721 4.53896 0.135625 4.33772C-0.0534708 4.13649 -0.0436264 3.82006 0.157613 3.63096L2.47225 1.456C3.23867 0.693241 4.23178 0.19944 5.30268 0.048771Z" fill="black"/>
</svg>
