<svg width="1280" height="370" viewBox="0 0 1280 370" fill="none" xmlns="http://www.w3.org/2000/svg">
<circle cx="416" cy="180" r="72" fill="url(#paint0_radial)"/>
<path d="M359.312 366.576C356.848 366.576 354.72 366.144 352.928 365.28C351.168 364.416 349.776 363.232 348.752 361.728C347.76 360.192 347.184 358.464 347.024 356.544H353.024C353.312 357.92 354.016 359.072 355.136 360C356.256 360.896 357.648 361.344 359.312 361.344C361.104 361.344 362.56 360.688 363.68 359.376C364.832 358.064 365.408 356.432 365.408 354.48C365.408 352.464 364.832 350.864 363.68 349.68C362.56 348.496 361.136 347.904 359.408 347.904C357.968 347.904 356.72 348.256 355.664 348.96C354.608 349.664 353.856 350.544 353.408 351.6H347.504L350.384 332.4H369.008V337.776H354.992L353.456 345.552C354.16 344.784 355.12 344.16 356.336 343.68C357.552 343.168 358.912 342.912 360.416 342.912C362.816 342.912 364.816 343.456 366.416 344.544C368.016 345.6 369.232 347.008 370.064 348.768C370.896 350.496 371.312 352.384 371.312 354.432C371.312 356.768 370.8 358.848 369.776 360.672C368.784 362.496 367.376 363.936 365.552 364.992C363.76 366.048 361.68 366.576 359.312 366.576ZM376.886 366V331.44H383.03V351.84L391.478 342.192H398.774L389.03 353.04L400.358 366H392.678L383.03 354.048V366H376.886Z" fill="white"/>
<path d="M344.45 291L348.32 280.5H349.655L353.51 291H352.175L351.215 288.3H346.745L345.77 291H344.45ZM347.12 287.28H350.84L348.98 282.09L347.12 287.28ZM359.162 291.18C358.442 291.18 357.787 291.04 357.197 290.76C356.617 290.47 356.152 290.025 355.802 289.425C355.452 288.825 355.277 288.06 355.277 287.13V280.5H356.537V287.145C356.537 288.165 356.782 288.905 357.272 289.365C357.762 289.825 358.402 290.055 359.192 290.055C359.982 290.055 360.617 289.825 361.097 289.365C361.577 288.905 361.817 288.165 361.817 287.145V280.5H363.077V287.13C363.077 288.06 362.902 288.825 362.552 289.425C362.202 290.025 361.732 290.47 361.142 290.76C360.552 291.04 359.892 291.18 359.162 291.18ZM365.961 291V280.5H369.186C371.036 280.5 372.396 280.97 373.266 281.91C374.146 282.85 374.586 284.14 374.586 285.78C374.586 287.39 374.146 288.665 373.266 289.605C372.396 290.535 371.036 291 369.186 291H365.961ZM367.221 289.95H369.156C370.176 289.95 370.986 289.785 371.586 289.455C372.196 289.115 372.631 288.635 372.891 288.015C373.151 287.385 373.281 286.64 373.281 285.78C373.281 284.9 373.151 284.145 372.891 283.515C372.631 282.885 372.196 282.4 371.586 282.06C370.986 281.72 370.176 281.55 369.156 281.55H367.221V289.95ZM377.155 291V280.5H378.415V291H377.155ZM381.391 291V280.5H387.886V281.535H382.651V285.195H387.436V286.215H382.651V289.965H387.886V291H381.391ZM390.608 291V280.5H391.868L397.463 288.915V280.5H398.723V291H397.463L391.868 282.585V291H390.608ZM406.305 291.18C405.275 291.18 404.385 290.955 403.635 290.505C402.895 290.045 402.32 289.41 401.91 288.6C401.5 287.78 401.295 286.83 401.295 285.75C401.295 284.68 401.5 283.74 401.91 282.93C402.32 282.11 402.895 281.47 403.635 281.01C404.385 280.55 405.275 280.32 406.305 280.32C407.505 280.32 408.48 280.61 409.23 281.19C409.99 281.76 410.475 282.56 410.685 283.59H409.29C409.13 282.94 408.8 282.42 408.3 282.03C407.81 281.63 407.145 281.43 406.305 281.43C405.555 281.43 404.9 281.605 404.34 281.955C403.78 282.295 403.345 282.79 403.035 283.44C402.735 284.08 402.585 284.85 402.585 285.75C402.585 286.65 402.735 287.425 403.035 288.075C403.345 288.715 403.78 289.21 404.34 289.56C404.9 289.9 405.555 290.07 406.305 290.07C407.145 290.07 407.81 289.88 408.3 289.5C408.8 289.11 409.13 288.595 409.29 287.955H410.685C410.475 288.965 409.99 289.755 409.23 290.325C408.48 290.895 407.505 291.18 406.305 291.18ZM413.246 291V280.5H419.741V281.535H414.506V285.195H419.291V286.215H414.506V289.965H419.741V291H413.246ZM349.625 307.18C348.645 307.18 347.785 306.955 347.045 306.505C346.305 306.045 345.73 305.41 345.32 304.6C344.91 303.78 344.705 302.835 344.705 301.765C344.705 300.695 344.91 299.75 345.32 298.93C345.74 298.11 346.33 297.47 347.09 297.01C347.86 296.55 348.765 296.32 349.805 296.32C350.985 296.32 351.965 296.605 352.745 297.175C353.535 297.745 354.045 298.53 354.275 299.53H352.82C352.68 298.9 352.345 298.4 351.815 298.03C351.295 297.66 350.625 297.475 349.805 297.475C349.035 297.475 348.365 297.65 347.795 298C347.225 298.34 346.78 298.83 346.46 299.47C346.15 300.11 345.995 300.875 345.995 301.765C345.995 302.655 346.15 303.42 346.46 304.06C346.77 304.7 347.2 305.195 347.75 305.545C348.3 305.885 348.94 306.055 349.67 306.055C350.79 306.055 351.635 305.73 352.205 305.08C352.775 304.42 353.1 303.52 353.18 302.38H350.15V301.39H354.47V307H353.315L353.21 305.275C352.83 305.885 352.365 306.355 351.815 306.685C351.265 307.015 350.535 307.18 349.625 307.18ZM357.213 307V296.5H360.603C361.423 296.5 362.093 296.635 362.613 296.905C363.133 297.175 363.518 297.545 363.768 298.015C364.018 298.485 364.143 299.005 364.143 299.575C364.143 300.235 363.963 300.83 363.603 301.36C363.253 301.89 362.703 302.265 361.953 302.485L364.248 307H362.763L360.633 302.665H360.543H358.473V307H357.213ZM358.473 301.675H360.513C361.323 301.675 361.913 301.48 362.283 301.09C362.653 300.7 362.838 300.2 362.838 299.59C362.838 298.97 362.653 298.48 362.283 298.12C361.923 297.75 361.328 297.565 360.498 297.565H358.473V301.675ZM371.624 307.18C370.594 307.18 369.689 306.955 368.909 306.505C368.139 306.045 367.534 305.405 367.094 304.585C366.664 303.765 366.449 302.82 366.449 301.75C366.449 300.68 366.664 299.74 367.094 298.93C367.534 298.11 368.139 297.47 368.909 297.01C369.689 296.55 370.594 296.32 371.624 296.32C372.664 296.32 373.569 296.55 374.339 297.01C375.119 297.47 375.724 298.11 376.154 298.93C376.584 299.74 376.799 300.68 376.799 301.75C376.799 302.82 376.584 303.765 376.154 304.585C375.724 305.405 375.119 306.045 374.339 306.505C373.569 306.955 372.664 307.18 371.624 307.18ZM371.624 306.07C372.394 306.07 373.069 305.9 373.649 305.56C374.239 305.21 374.694 304.715 375.014 304.075C375.344 303.425 375.509 302.65 375.509 301.75C375.509 300.85 375.344 300.08 375.014 299.44C374.694 298.8 374.239 298.31 373.649 297.97C373.069 297.62 372.394 297.445 371.624 297.445C370.854 297.445 370.174 297.62 369.584 297.97C369.004 298.31 368.549 298.8 368.219 299.44C367.899 300.08 367.739 300.85 367.739 301.75C367.739 302.65 367.899 303.425 368.219 304.075C368.549 304.715 369.004 305.21 369.584 305.56C370.174 305.9 370.854 306.07 371.624 306.07ZM381.146 307.015L378.266 296.5H379.616L381.881 305.515L384.461 296.5H385.856L388.361 305.515L390.656 296.5H392.006L389.066 307H387.626L385.121 298.33L382.556 307L381.146 307.015ZM396.698 307V297.535H393.563V296.5H401.093V297.535H397.958V307H396.698ZM403.381 307V296.5H404.641V301.135H410.086V296.5H411.346V307H410.086V302.17H404.641V307H403.381Z" fill="white"/>
<path d="M345.368 266V264.176C346.456 263.312 347.496 262.44 348.488 261.56C349.48 260.68 350.36 259.816 351.128 258.968C351.912 258.104 352.528 257.264 352.976 256.448C353.424 255.616 353.648 254.816 353.648 254.048C353.648 253.536 353.56 253.056 353.384 252.608C353.208 252.144 352.92 251.776 352.52 251.504C352.12 251.216 351.584 251.072 350.912 251.072C349.904 251.072 349.144 251.392 348.632 252.032C348.136 252.672 347.896 253.44 347.912 254.336H345.44C345.456 253.152 345.704 252.16 346.184 251.36C346.68 250.56 347.336 249.952 348.152 249.536C348.984 249.12 349.92 248.912 350.96 248.912C352.544 248.912 353.808 249.36 354.752 250.256C355.712 251.136 356.192 252.368 356.192 253.952C356.192 254.896 355.96 255.832 355.496 256.76C355.048 257.688 354.456 258.584 353.72 259.448C353 260.296 352.224 261.096 351.392 261.848C350.56 262.6 349.768 263.28 349.016 263.888H356.696V266H345.368ZM367.171 266.288C365.651 266.288 364.339 265.928 363.235 265.208C362.147 264.472 361.307 263.456 360.715 262.16C360.139 260.848 359.851 259.328 359.851 257.6C359.851 255.872 360.139 254.36 360.715 253.064C361.307 251.752 362.147 250.736 363.235 250.016C364.339 249.28 365.651 248.912 367.171 248.912C368.691 248.912 369.995 249.28 371.083 250.016C372.171 250.736 373.003 251.752 373.579 253.064C374.171 254.36 374.467 255.872 374.467 257.6C374.467 259.328 374.171 260.848 373.579 262.16C373.003 263.456 372.171 264.472 371.083 265.208C369.995 265.928 368.691 266.288 367.171 266.288ZM367.171 264.008C368.083 264.008 368.891 263.752 369.595 263.24C370.315 262.728 370.875 261.992 371.275 261.032C371.675 260.072 371.875 258.928 371.875 257.6C371.875 256.272 371.675 255.128 371.275 254.168C370.875 253.208 370.315 252.472 369.595 251.96C368.891 251.448 368.083 251.192 367.171 251.192C366.243 251.192 365.427 251.448 364.723 251.96C364.019 252.472 363.467 253.208 363.067 254.168C362.667 255.128 362.467 256.272 362.467 257.6C362.467 258.928 362.667 260.072 363.067 261.032C363.467 261.992 364.019 262.728 364.723 263.24C365.427 263.752 366.243 264.008 367.171 264.008ZM380.23 266V252.08L377.518 252.704V250.832L381.238 249.2H382.87V266H380.23ZM393.22 266.288C392.1 266.288 391.084 266.088 390.172 265.688C389.276 265.272 388.556 264.696 388.012 263.96C387.484 263.224 387.22 262.36 387.22 261.368C387.22 260.36 387.5 259.456 388.06 258.656C388.636 257.856 389.396 257.312 390.34 257.024C389.492 256.688 388.836 256.2 388.372 255.56C387.908 254.904 387.676 254.184 387.676 253.4C387.676 252.584 387.892 251.84 388.324 251.168C388.756 250.48 389.38 249.936 390.196 249.536C391.028 249.12 392.036 248.912 393.22 248.912C394.404 248.912 395.404 249.12 396.22 249.536C397.052 249.936 397.684 250.48 398.116 251.168C398.548 251.84 398.764 252.584 398.764 253.4C398.764 254.168 398.524 254.888 398.044 255.56C397.58 256.216 396.924 256.704 396.076 257.024C397.02 257.328 397.772 257.88 398.332 258.68C398.908 259.464 399.196 260.36 399.196 261.368C399.196 262.36 398.932 263.224 398.404 263.96C397.876 264.696 397.156 265.272 396.244 265.688C395.348 266.088 394.34 266.288 393.22 266.288ZM393.22 256.208C394.148 256.208 394.876 255.968 395.404 255.488C395.948 255.008 396.22 254.392 396.22 253.64C396.22 252.792 395.956 252.144 395.428 251.696C394.9 251.248 394.164 251.024 393.22 251.024C392.276 251.024 391.54 251.248 391.012 251.696C390.484 252.144 390.22 252.792 390.22 253.64C390.22 254.392 390.484 255.008 391.012 255.488C391.54 255.968 392.276 256.208 393.22 256.208ZM393.22 264.128C394.372 264.128 395.236 263.856 395.812 263.312C396.388 262.752 396.676 262.04 396.676 261.176C396.676 260.216 396.364 259.48 395.74 258.968C395.132 258.44 394.292 258.176 393.22 258.176C392.148 258.176 391.3 258.44 390.676 258.968C390.052 259.48 389.74 260.216 389.74 261.176C389.74 262.04 390.028 262.752 390.604 263.312C391.196 263.856 392.068 264.128 393.22 264.128Z" fill="white"/>
<circle cx="196" cy="180" r="24" fill="url(#paint1_radial)"/>
<path d="M178.912 366V339.408L173.392 340.704V336L181.504 332.4H185.296V366H178.912ZM194.307 366.336C193.187 366.336 192.259 365.984 191.523 365.28C190.819 364.576 190.467 363.728 190.467 362.736C190.467 361.712 190.819 360.848 191.523 360.144C192.259 359.44 193.187 359.088 194.307 359.088C195.427 359.088 196.339 359.44 197.043 360.144C197.779 360.848 198.147 361.712 198.147 362.736C198.147 363.728 197.779 364.576 197.043 365.28C196.339 365.984 195.427 366.336 194.307 366.336ZM215.39 366.576C212.926 366.576 210.798 366.144 209.006 365.28C207.246 364.416 205.854 363.232 204.83 361.728C203.838 360.192 203.262 358.464 203.102 356.544H209.102C209.39 357.92 210.094 359.072 211.214 360C212.334 360.896 213.726 361.344 215.39 361.344C217.182 361.344 218.638 360.688 219.758 359.376C220.91 358.064 221.486 356.432 221.486 354.48C221.486 352.464 220.91 350.864 219.758 349.68C218.638 348.496 217.214 347.904 215.486 347.904C214.046 347.904 212.798 348.256 211.742 348.96C210.686 349.664 209.934 350.544 209.486 351.6H203.582L206.462 332.4H225.086V337.776H211.07L209.534 345.552C210.238 344.784 211.198 344.16 212.414 343.68C213.63 343.168 214.99 342.912 216.494 342.912C218.894 342.912 220.894 343.456 222.494 344.544C224.094 345.6 225.31 347.008 226.142 348.768C226.974 350.496 227.39 352.384 227.39 354.432C227.39 356.768 226.878 358.848 225.854 360.672C224.862 362.496 223.454 363.936 221.63 364.992C219.838 366.048 217.758 366.576 215.39 366.576ZM232.964 366V331.44H239.108V351.84L247.556 342.192H254.852L245.108 353.04L256.436 366H248.756L239.108 354.048V366H232.964Z" fill="white"/>
<path d="M172.45 291L176.32 280.5H177.655L181.51 291H180.175L179.215 288.3H174.745L173.77 291H172.45ZM175.12 287.28H178.84L176.98 282.09L175.12 287.28ZM187.162 291.18C186.442 291.18 185.787 291.04 185.197 290.76C184.617 290.47 184.152 290.025 183.802 289.425C183.452 288.825 183.277 288.06 183.277 287.13V280.5H184.537V287.145C184.537 288.165 184.782 288.905 185.272 289.365C185.762 289.825 186.402 290.055 187.192 290.055C187.982 290.055 188.617 289.825 189.097 289.365C189.577 288.905 189.817 288.165 189.817 287.145V280.5H191.077V287.13C191.077 288.06 190.902 288.825 190.552 289.425C190.202 290.025 189.732 290.47 189.142 290.76C188.552 291.04 187.892 291.18 187.162 291.18ZM193.961 291V280.5H197.186C199.036 280.5 200.396 280.97 201.266 281.91C202.146 282.85 202.586 284.14 202.586 285.78C202.586 287.39 202.146 288.665 201.266 289.605C200.396 290.535 199.036 291 197.186 291H193.961ZM195.221 289.95H197.156C198.176 289.95 198.986 289.785 199.586 289.455C200.196 289.115 200.631 288.635 200.891 288.015C201.151 287.385 201.281 286.64 201.281 285.78C201.281 284.9 201.151 284.145 200.891 283.515C200.631 282.885 200.196 282.4 199.586 282.06C198.986 281.72 198.176 281.55 197.156 281.55H195.221V289.95ZM205.155 291V280.5H206.415V291H205.155ZM209.391 291V280.5H215.886V281.535H210.651V285.195H215.436V286.215H210.651V289.965H215.886V291H209.391ZM218.608 291V280.5H219.868L225.463 288.915V280.5H226.723V291H225.463L219.868 282.585V291H218.608ZM234.305 291.18C233.275 291.18 232.385 290.955 231.635 290.505C230.895 290.045 230.32 289.41 229.91 288.6C229.5 287.78 229.295 286.83 229.295 285.75C229.295 284.68 229.5 283.74 229.91 282.93C230.32 282.11 230.895 281.47 231.635 281.01C232.385 280.55 233.275 280.32 234.305 280.32C235.505 280.32 236.48 280.61 237.23 281.19C237.99 281.76 238.475 282.56 238.685 283.59H237.29C237.13 282.94 236.8 282.42 236.3 282.03C235.81 281.63 235.145 281.43 234.305 281.43C233.555 281.43 232.9 281.605 232.34 281.955C231.78 282.295 231.345 282.79 231.035 283.44C230.735 284.08 230.585 284.85 230.585 285.75C230.585 286.65 230.735 287.425 231.035 288.075C231.345 288.715 231.78 289.21 232.34 289.56C232.9 289.9 233.555 290.07 234.305 290.07C235.145 290.07 235.81 289.88 236.3 289.5C236.8 289.11 237.13 288.595 237.29 287.955H238.685C238.475 288.965 237.99 289.755 237.23 290.325C236.48 290.895 235.505 291.18 234.305 291.18ZM241.246 291V280.5H247.741V281.535H242.506V285.195H247.291V286.215H242.506V289.965H247.741V291H241.246ZM177.625 307.18C176.645 307.18 175.785 306.955 175.045 306.505C174.305 306.045 173.73 305.41 173.32 304.6C172.91 303.78 172.705 302.835 172.705 301.765C172.705 300.695 172.91 299.75 173.32 298.93C173.74 298.11 174.33 297.47 175.09 297.01C175.86 296.55 176.765 296.32 177.805 296.32C178.985 296.32 179.965 296.605 180.745 297.175C181.535 297.745 182.045 298.53 182.275 299.53H180.82C180.68 298.9 180.345 298.4 179.815 298.03C179.295 297.66 178.625 297.475 177.805 297.475C177.035 297.475 176.365 297.65 175.795 298C175.225 298.34 174.78 298.83 174.46 299.47C174.15 300.11 173.995 300.875 173.995 301.765C173.995 302.655 174.15 303.42 174.46 304.06C174.77 304.7 175.2 305.195 175.75 305.545C176.3 305.885 176.94 306.055 177.67 306.055C178.79 306.055 179.635 305.73 180.205 305.08C180.775 304.42 181.1 303.52 181.18 302.38H178.15V301.39H182.47V307H181.315L181.21 305.275C180.83 305.885 180.365 306.355 179.815 306.685C179.265 307.015 178.535 307.18 177.625 307.18ZM185.213 307V296.5H188.603C189.423 296.5 190.093 296.635 190.613 296.905C191.133 297.175 191.518 297.545 191.768 298.015C192.018 298.485 192.143 299.005 192.143 299.575C192.143 300.235 191.963 300.83 191.603 301.36C191.253 301.89 190.703 302.265 189.953 302.485L192.248 307H190.763L188.633 302.665H188.543H186.473V307H185.213ZM186.473 301.675H188.513C189.323 301.675 189.913 301.48 190.283 301.09C190.653 300.7 190.838 300.2 190.838 299.59C190.838 298.97 190.653 298.48 190.283 298.12C189.923 297.75 189.328 297.565 188.498 297.565H186.473V301.675ZM199.624 307.18C198.594 307.18 197.689 306.955 196.909 306.505C196.139 306.045 195.534 305.405 195.094 304.585C194.664 303.765 194.449 302.82 194.449 301.75C194.449 300.68 194.664 299.74 195.094 298.93C195.534 298.11 196.139 297.47 196.909 297.01C197.689 296.55 198.594 296.32 199.624 296.32C200.664 296.32 201.569 296.55 202.339 297.01C203.119 297.47 203.724 298.11 204.154 298.93C204.584 299.74 204.799 300.68 204.799 301.75C204.799 302.82 204.584 303.765 204.154 304.585C203.724 305.405 203.119 306.045 202.339 306.505C201.569 306.955 200.664 307.18 199.624 307.18ZM199.624 306.07C200.394 306.07 201.069 305.9 201.649 305.56C202.239 305.21 202.694 304.715 203.014 304.075C203.344 303.425 203.509 302.65 203.509 301.75C203.509 300.85 203.344 300.08 203.014 299.44C202.694 298.8 202.239 298.31 201.649 297.97C201.069 297.62 200.394 297.445 199.624 297.445C198.854 297.445 198.174 297.62 197.584 297.97C197.004 298.31 196.549 298.8 196.219 299.44C195.899 300.08 195.739 300.85 195.739 301.75C195.739 302.65 195.899 303.425 196.219 304.075C196.549 304.715 197.004 305.21 197.584 305.56C198.174 305.9 198.854 306.07 199.624 306.07ZM209.146 307.015L206.266 296.5H207.616L209.881 305.515L212.461 296.5H213.856L216.361 305.515L218.656 296.5H220.006L217.066 307H215.626L213.121 298.33L210.556 307L209.146 307.015ZM224.698 307V297.535H221.563V296.5H229.093V297.535H225.958V307H224.698ZM231.381 307V296.5H232.641V301.135H238.086V296.5H239.346V307H238.086V302.17H232.641V307H231.381Z" fill="white"/>
<path d="M173.368 266V264.176C174.456 263.312 175.496 262.44 176.488 261.56C177.48 260.68 178.36 259.816 179.128 258.968C179.912 258.104 180.528 257.264 180.976 256.448C181.424 255.616 181.648 254.816 181.648 254.048C181.648 253.536 181.56 253.056 181.384 252.608C181.208 252.144 180.92 251.776 180.52 251.504C180.12 251.216 179.584 251.072 178.912 251.072C177.904 251.072 177.144 251.392 176.632 252.032C176.136 252.672 175.896 253.44 175.912 254.336H173.44C173.456 253.152 173.704 252.16 174.184 251.36C174.68 250.56 175.336 249.952 176.152 249.536C176.984 249.12 177.92 248.912 178.96 248.912C180.544 248.912 181.808 249.36 182.752 250.256C183.712 251.136 184.192 252.368 184.192 253.952C184.192 254.896 183.96 255.832 183.496 256.76C183.048 257.688 182.456 258.584 181.72 259.448C181 260.296 180.224 261.096 179.392 261.848C178.56 262.6 177.768 263.28 177.016 263.888H184.696V266H173.368ZM195.171 266.288C193.651 266.288 192.339 265.928 191.235 265.208C190.147 264.472 189.307 263.456 188.715 262.16C188.139 260.848 187.851 259.328 187.851 257.6C187.851 255.872 188.139 254.36 188.715 253.064C189.307 251.752 190.147 250.736 191.235 250.016C192.339 249.28 193.651 248.912 195.171 248.912C196.691 248.912 197.995 249.28 199.083 250.016C200.171 250.736 201.003 251.752 201.579 253.064C202.171 254.36 202.467 255.872 202.467 257.6C202.467 259.328 202.171 260.848 201.579 262.16C201.003 263.456 200.171 264.472 199.083 265.208C197.995 265.928 196.691 266.288 195.171 266.288ZM195.171 264.008C196.083 264.008 196.891 263.752 197.595 263.24C198.315 262.728 198.875 261.992 199.275 261.032C199.675 260.072 199.875 258.928 199.875 257.6C199.875 256.272 199.675 255.128 199.275 254.168C198.875 253.208 198.315 252.472 197.595 251.96C196.891 251.448 196.083 251.192 195.171 251.192C194.243 251.192 193.427 251.448 192.723 251.96C192.019 252.472 191.467 253.208 191.067 254.168C190.667 255.128 190.467 256.272 190.467 257.6C190.467 258.928 190.667 260.072 191.067 261.032C191.467 261.992 192.019 262.728 192.723 263.24C193.427 263.752 194.243 264.008 195.171 264.008ZM208.23 266V252.08L205.518 252.704V250.832L209.238 249.2H210.87V266H208.23ZM216.66 266L223.164 251.384H214.428V249.2H225.78V251.048L219.324 266H216.66Z" fill="white"/>
<circle cx="8" cy="180" r="8" fill="url(#paint2_radial)"/>
<path d="M17.04 366.576C13.936 366.576 11.28 365.856 9.072 364.416C6.864 362.944 5.152 360.912 3.936 358.32C2.752 355.696 2.16 352.656 2.16 349.2C2.16 345.776 2.752 342.752 3.936 340.128C5.152 337.504 6.864 335.472 9.072 334.032C11.28 332.56 13.936 331.824 17.04 331.824C20.144 331.824 22.8 332.56 25.008 334.032C27.216 335.472 28.912 337.504 30.096 340.128C31.312 342.752 31.92 345.776 31.92 349.2C31.92 352.656 31.312 355.696 30.096 358.32C28.912 360.912 27.216 362.944 25.008 364.416C22.8 365.856 20.144 366.576 17.04 366.576ZM17.04 361.056C19.568 361.056 21.632 360 23.232 357.888C24.832 355.776 25.632 352.88 25.632 349.2C25.632 345.52 24.832 342.624 23.232 340.512C21.632 338.4 19.568 337.344 17.04 337.344C14.48 337.344 12.4 338.4 10.8 340.512C9.232 342.624 8.448 345.52 8.448 349.2C8.448 352.88 9.232 355.776 10.8 357.888C12.4 360 14.48 361.056 17.04 361.056ZM37.9163 366.336C36.7963 366.336 35.8683 365.984 35.1323 365.28C34.4283 364.576 34.0763 363.728 34.0763 362.736C34.0763 361.712 34.4283 360.848 35.1323 360.144C35.8683 359.44 36.7963 359.088 37.9163 359.088C39.0363 359.088 39.9483 359.44 40.6523 360.144C41.3883 360.848 41.7563 361.712 41.7563 362.736C41.7563 363.728 41.3883 364.576 40.6523 365.28C39.9483 365.984 39.0363 366.336 37.9163 366.336ZM58.8075 366.576C56.5035 366.576 54.4235 366.176 52.5675 365.376C50.7115 364.544 49.2235 363.376 48.1035 361.872C47.0155 360.368 46.4715 358.624 46.4715 356.64C46.4715 354.592 46.9995 352.8 48.0555 351.264C49.1435 349.728 50.5675 348.624 52.3275 347.952C50.7915 347.28 49.5755 346.32 48.6795 345.072C47.7835 343.792 47.3355 342.368 47.3355 340.8C47.3355 339.2 47.7675 337.728 48.6315 336.384C49.4955 335.008 50.7755 333.904 52.4715 333.072C54.1995 332.24 56.3115 331.824 58.8075 331.824C61.3035 331.824 63.3995 332.24 65.0955 333.072C66.7915 333.904 68.0715 335.008 68.9355 336.384C69.7995 337.728 70.2315 339.2 70.2315 340.8C70.2315 342.336 69.7675 343.76 68.8395 345.072C67.9435 346.352 66.7435 347.312 65.2395 347.952C67.0315 348.624 68.4555 349.728 69.5115 351.264C70.5675 352.8 71.0955 354.592 71.0955 356.64C71.0955 358.624 70.5515 360.368 69.4635 361.872C68.3755 363.376 66.8875 364.544 64.9995 365.376C63.1435 366.176 61.0795 366.576 58.8075 366.576ZM58.8075 346.128C60.4715 346.128 61.7835 345.696 62.7435 344.832C63.7035 343.968 64.1835 342.864 64.1835 341.52C64.1835 340.048 63.7035 338.896 62.7435 338.064C61.8155 337.232 60.5035 336.816 58.8075 336.816C57.0795 336.816 55.7515 337.232 54.8235 338.064C53.8955 338.896 53.4315 340.048 53.4315 341.52C53.4315 342.896 53.8955 344.016 54.8235 344.88C55.7835 345.712 57.1115 346.128 58.8075 346.128ZM58.8075 361.44C60.8555 361.44 62.4075 360.944 63.4635 359.952C64.5195 358.928 65.0475 357.648 65.0475 356.112C65.0475 354.416 64.4875 353.088 63.3675 352.128C62.2795 351.168 60.7595 350.688 58.8075 350.688C56.8555 350.688 55.3035 351.168 54.1515 352.128C53.0315 353.088 52.4715 354.416 52.4715 356.112C52.4715 357.648 52.9995 358.928 54.0555 359.952C55.1435 360.944 56.7275 361.44 58.8075 361.44ZM76.995 366V331.44H83.139V351.84L91.587 342.192H98.883L89.139 353.04L100.467 366H92.787L83.139 354.048V366H76.995Z" fill="white"/>
<path d="M0.45 291L4.32 280.5H5.655L9.51 291H8.175L7.215 288.3H2.745L1.77 291H0.45ZM3.12 287.28H6.84L4.98 282.09L3.12 287.28ZM15.1618 291.18C14.4418 291.18 13.7868 291.04 13.1968 290.76C12.6168 290.47 12.1518 290.025 11.8018 289.425C11.4518 288.825 11.2768 288.06 11.2768 287.13V280.5H12.5368V287.145C12.5368 288.165 12.7818 288.905 13.2718 289.365C13.7618 289.825 14.4018 290.055 15.1918 290.055C15.9818 290.055 16.6168 289.825 17.0968 289.365C17.5768 288.905 17.8168 288.165 17.8168 287.145V280.5H19.0768V287.13C19.0768 288.06 18.9018 288.825 18.5518 289.425C18.2018 290.025 17.7318 290.47 17.1418 290.76C16.5518 291.04 15.8918 291.18 15.1618 291.18ZM21.9606 291V280.5H25.1856C27.0356 280.5 28.3956 280.97 29.2656 281.91C30.1456 282.85 30.5856 284.14 30.5856 285.78C30.5856 287.39 30.1456 288.665 29.2656 289.605C28.3956 290.535 27.0356 291 25.1856 291H21.9606ZM23.2206 289.95H25.1556C26.1756 289.95 26.9856 289.785 27.5856 289.455C28.1956 289.115 28.6306 288.635 28.8906 288.015C29.1506 287.385 29.2806 286.64 29.2806 285.78C29.2806 284.9 29.1506 284.145 28.8906 283.515C28.6306 282.885 28.1956 282.4 27.5856 282.06C26.9856 281.72 26.1756 281.55 25.1556 281.55H23.2206V289.95ZM33.1549 291V280.5H34.4149V291H33.1549ZM37.3913 291V280.5H43.8863V281.535H38.6513V285.195H43.4363V286.215H38.6513V289.965H43.8863V291H37.3913ZM46.608 291V280.5H47.868L53.463 288.915V280.5H54.723V291H53.463L47.868 282.585V291H46.608ZM62.3048 291.18C61.2748 291.18 60.3848 290.955 59.6348 290.505C58.8948 290.045 58.3198 289.41 57.9098 288.6C57.4998 287.78 57.2948 286.83 57.2948 285.75C57.2948 284.68 57.4998 283.74 57.9098 282.93C58.3198 282.11 58.8948 281.47 59.6348 281.01C60.3848 280.55 61.2748 280.32 62.3048 280.32C63.5048 280.32 64.4798 280.61 65.2298 281.19C65.9898 281.76 66.4748 282.56 66.6848 283.59H65.2898C65.1298 282.94 64.7998 282.42 64.2998 282.03C63.8098 281.63 63.1448 281.43 62.3048 281.43C61.5548 281.43 60.8998 281.605 60.3398 281.955C59.7798 282.295 59.3448 282.79 59.0348 283.44C58.7348 284.08 58.5848 284.85 58.5848 285.75C58.5848 286.65 58.7348 287.425 59.0348 288.075C59.3448 288.715 59.7798 289.21 60.3398 289.56C60.8998 289.9 61.5548 290.07 62.3048 290.07C63.1448 290.07 63.8098 289.88 64.2998 289.5C64.7998 289.11 65.1298 288.595 65.2898 287.955H66.6848C66.4748 288.965 65.9898 289.755 65.2298 290.325C64.4798 290.895 63.5048 291.18 62.3048 291.18ZM69.2457 291V280.5H75.7407V281.535H70.5057V285.195H75.2907V286.215H70.5057V289.965H75.7407V291H69.2457ZM5.625 307.18C4.645 307.18 3.785 306.955 3.045 306.505C2.305 306.045 1.73 305.41 1.32 304.6C0.91 303.78 0.705 302.835 0.705 301.765C0.705 300.695 0.91 299.75 1.32 298.93C1.74 298.11 2.33 297.47 3.09 297.01C3.86 296.55 4.765 296.32 5.805 296.32C6.985 296.32 7.965 296.605 8.745 297.175C9.535 297.745 10.045 298.53 10.275 299.53H8.82C8.68 298.9 8.345 298.4 7.815 298.03C7.295 297.66 6.625 297.475 5.805 297.475C5.035 297.475 4.365 297.65 3.795 298C3.225 298.34 2.78 298.83 2.46 299.47C2.15 300.11 1.995 300.875 1.995 301.765C1.995 302.655 2.15 303.42 2.46 304.06C2.77 304.7 3.2 305.195 3.75 305.545C4.3 305.885 4.94 306.055 5.67 306.055C6.79 306.055 7.635 305.73 8.205 305.08C8.775 304.42 9.1 303.52 9.18 302.38H6.15V301.39H10.47V307H9.315L9.21 305.275C8.83 305.885 8.365 306.355 7.815 306.685C7.265 307.015 6.535 307.18 5.625 307.18ZM13.2125 307V296.5H16.6025C17.4225 296.5 18.0925 296.635 18.6125 296.905C19.1325 297.175 19.5175 297.545 19.7675 298.015C20.0175 298.485 20.1425 299.005 20.1425 299.575C20.1425 300.235 19.9625 300.83 19.6025 301.36C19.2525 301.89 18.7025 302.265 17.9525 302.485L20.2475 307H18.7625L16.6325 302.665H16.5425H14.4725V307H13.2125ZM14.4725 301.675H16.5125C17.3225 301.675 17.9125 301.48 18.2825 301.09C18.6525 300.7 18.8375 300.2 18.8375 299.59C18.8375 298.97 18.6525 298.48 18.2825 298.12C17.9225 297.75 17.3275 297.565 16.4975 297.565H14.4725V301.675ZM27.6241 307.18C26.5941 307.18 25.6891 306.955 24.9091 306.505C24.1391 306.045 23.5341 305.405 23.0941 304.585C22.6641 303.765 22.4491 302.82 22.4491 301.75C22.4491 300.68 22.6641 299.74 23.0941 298.93C23.5341 298.11 24.1391 297.47 24.9091 297.01C25.6891 296.55 26.5941 296.32 27.6241 296.32C28.6641 296.32 29.5691 296.55 30.3391 297.01C31.1191 297.47 31.7241 298.11 32.1541 298.93C32.5841 299.74 32.7991 300.68 32.7991 301.75C32.7991 302.82 32.5841 303.765 32.1541 304.585C31.7241 305.405 31.1191 306.045 30.3391 306.505C29.5691 306.955 28.6641 307.18 27.6241 307.18ZM27.6241 306.07C28.3941 306.07 29.0691 305.9 29.6491 305.56C30.2391 305.21 30.6941 304.715 31.0141 304.075C31.3441 303.425 31.5091 302.65 31.5091 301.75C31.5091 300.85 31.3441 300.08 31.0141 299.44C30.6941 298.8 30.2391 298.31 29.6491 297.97C29.0691 297.62 28.3941 297.445 27.6241 297.445C26.8541 297.445 26.1741 297.62 25.5841 297.97C25.0041 298.31 24.5491 298.8 24.2191 299.44C23.8991 300.08 23.7391 300.85 23.7391 301.75C23.7391 302.65 23.8991 303.425 24.2191 304.075C24.5491 304.715 25.0041 305.21 25.5841 305.56C26.1741 305.9 26.8541 306.07 27.6241 306.07ZM37.146 307.015L34.266 296.5H35.616L37.881 305.515L40.461 296.5H41.856L44.361 305.515L46.656 296.5H48.006L45.066 307H43.626L41.121 298.33L38.556 307L37.146 307.015ZM52.6979 307V297.535H49.5629V296.5H57.0929V297.535H53.9579V307H52.6979ZM59.3815 307V296.5H60.6415V301.135H66.0865V296.5H67.3465V307H66.0865V302.17H60.6415V307H59.3815Z" fill="white"/>
<path d="M1.368 266V264.176C2.456 263.312 3.496 262.44 4.488 261.56C5.48 260.68 6.36 259.816 7.128 258.968C7.912 258.104 8.528 257.264 8.976 256.448C9.424 255.616 9.648 254.816 9.648 254.048C9.648 253.536 9.56 253.056 9.384 252.608C9.208 252.144 8.92 251.776 8.52 251.504C8.12 251.216 7.584 251.072 6.912 251.072C5.904 251.072 5.144 251.392 4.632 252.032C4.136 252.672 3.896 253.44 3.912 254.336H1.44C1.456 253.152 1.704 252.16 2.184 251.36C2.68 250.56 3.336 249.952 4.152 249.536C4.984 249.12 5.92 248.912 6.96 248.912C8.544 248.912 9.808 249.36 10.752 250.256C11.712 251.136 12.192 252.368 12.192 253.952C12.192 254.896 11.96 255.832 11.496 256.76C11.048 257.688 10.456 258.584 9.72 259.448C9 260.296 8.224 261.096 7.392 261.848C6.56 262.6 5.768 263.28 5.016 263.888H12.696V266H1.368ZM23.1709 266.288C21.6509 266.288 20.3389 265.928 19.2349 265.208C18.1469 264.472 17.3069 263.456 16.7149 262.16C16.1389 260.848 15.8509 259.328 15.8509 257.6C15.8509 255.872 16.1389 254.36 16.7149 253.064C17.3069 251.752 18.1469 250.736 19.2349 250.016C20.3389 249.28 21.6509 248.912 23.1709 248.912C24.6909 248.912 25.9949 249.28 27.0829 250.016C28.1709 250.736 29.0029 251.752 29.5789 253.064C30.1709 254.36 30.4669 255.872 30.4669 257.6C30.4669 259.328 30.1709 260.848 29.5789 262.16C29.0029 263.456 28.1709 264.472 27.0829 265.208C25.9949 265.928 24.6909 266.288 23.1709 266.288ZM23.1709 264.008C24.0829 264.008 24.8909 263.752 25.5949 263.24C26.3149 262.728 26.8749 261.992 27.2749 261.032C27.6749 260.072 27.8749 258.928 27.8749 257.6C27.8749 256.272 27.6749 255.128 27.2749 254.168C26.8749 253.208 26.3149 252.472 25.5949 251.96C24.8909 251.448 24.0829 251.192 23.1709 251.192C22.2429 251.192 21.4269 251.448 20.7229 251.96C20.0189 252.472 19.4669 253.208 19.0669 254.168C18.6669 255.128 18.4669 256.272 18.4669 257.6C18.4669 258.928 18.6669 260.072 19.0669 261.032C19.4669 261.992 20.0189 262.728 20.7229 263.24C21.4269 263.752 22.2429 264.008 23.1709 264.008ZM36.2304 266V252.08L33.5184 252.704V250.832L37.2384 249.2H38.8704V266H36.2304ZM49.6517 266.288C48.4197 266.288 47.3797 266.056 46.5317 265.592C45.6837 265.128 44.9957 264.512 44.4677 263.744C43.9557 262.976 43.5877 262.112 43.3637 261.152C43.1397 260.192 43.0277 259.208 43.0277 258.2C43.0277 256.344 43.2837 254.72 43.7957 253.328C44.3237 251.936 45.0757 250.856 46.0517 250.088C47.0277 249.304 48.2117 248.912 49.6037 248.912C50.7077 248.912 51.6517 249.128 52.4357 249.56C53.2197 249.992 53.8277 250.568 54.2597 251.288C54.7077 252.008 54.9797 252.792 55.0757 253.64H52.6997C52.5557 252.808 52.2117 252.168 51.6677 251.72C51.1237 251.272 50.4277 251.048 49.5797 251.048C48.4117 251.048 47.4437 251.6 46.6757 252.704C45.9237 253.792 45.5237 255.472 45.4757 257.744C45.8597 257.04 46.4517 256.44 47.2517 255.944C48.0677 255.448 49.0037 255.2 50.0597 255.2C51.0037 255.2 51.8837 255.424 52.6997 255.872C53.5317 256.32 54.2037 256.952 54.7157 257.768C55.2437 258.568 55.5077 259.52 55.5077 260.624C55.5077 261.6 55.2677 262.52 54.7877 263.384C54.3077 264.248 53.6277 264.952 52.7477 265.496C51.8837 266.024 50.8517 266.288 49.6517 266.288ZM49.5077 264.08C50.1797 264.08 50.7797 263.936 51.3077 263.648C51.8357 263.36 52.2517 262.968 52.5557 262.472C52.8597 261.96 53.0117 261.384 53.0117 260.744C53.0117 259.72 52.6757 258.904 52.0037 258.296C51.3477 257.688 50.5077 257.384 49.4837 257.384C48.8117 257.384 48.2037 257.536 47.6597 257.84C47.1317 258.144 46.7157 258.552 46.4117 259.064C46.1077 259.56 45.9557 260.112 45.9557 260.72C45.9557 261.376 46.1077 261.96 46.4117 262.472C46.7317 262.968 47.1557 263.36 47.6837 263.648C48.2277 263.936 48.8357 264.08 49.5077 264.08Z" fill="white"/>
<circle cx="704" cy="180" r="144" fill="url(#paint3_radial)"/>
<path d="M566.912 366V339.408L561.392 340.704V336L569.504 332.4H573.296V366H566.912ZM593.587 366.576C590.483 366.576 587.827 365.856 585.619 364.416C583.411 362.944 581.699 360.912 580.483 358.32C579.299 355.696 578.707 352.656 578.707 349.2C578.707 345.776 579.299 342.752 580.483 340.128C581.699 337.504 583.411 335.472 585.619 334.032C587.827 332.56 590.483 331.824 593.587 331.824C596.691 331.824 599.347 332.56 601.555 334.032C603.763 335.472 605.459 337.504 606.643 340.128C607.859 342.752 608.467 345.776 608.467 349.2C608.467 352.656 607.859 355.696 606.643 358.32C605.459 360.912 603.763 362.944 601.555 364.416C599.347 365.856 596.691 366.576 593.587 366.576ZM593.587 361.056C596.115 361.056 598.179 360 599.779 357.888C601.379 355.776 602.179 352.88 602.179 349.2C602.179 345.52 601.379 342.624 599.779 340.512C598.179 338.4 596.115 337.344 593.587 337.344C591.027 337.344 588.947 338.4 587.347 340.512C585.779 342.624 584.995 345.52 584.995 349.2C584.995 352.88 585.779 355.776 587.347 357.888C588.947 360 591.027 361.056 593.587 361.056ZM613.745 366V331.44H619.889V351.84L628.337 342.192H635.633L625.889 353.04L637.217 366H629.537L619.889 354.048V366H613.745Z" fill="white"/>
<path d="M560.45 291L564.32 280.5H565.655L569.51 291H568.175L567.215 288.3H562.745L561.77 291H560.45ZM563.12 287.28H566.84L564.98 282.09L563.12 287.28ZM575.162 291.18C574.442 291.18 573.787 291.04 573.197 290.76C572.617 290.47 572.152 290.025 571.802 289.425C571.452 288.825 571.277 288.06 571.277 287.13V280.5H572.537V287.145C572.537 288.165 572.782 288.905 573.272 289.365C573.762 289.825 574.402 290.055 575.192 290.055C575.982 290.055 576.617 289.825 577.097 289.365C577.577 288.905 577.817 288.165 577.817 287.145V280.5H579.077V287.13C579.077 288.06 578.902 288.825 578.552 289.425C578.202 290.025 577.732 290.47 577.142 290.76C576.552 291.04 575.892 291.18 575.162 291.18ZM581.961 291V280.5H585.186C587.036 280.5 588.396 280.97 589.266 281.91C590.146 282.85 590.586 284.14 590.586 285.78C590.586 287.39 590.146 288.665 589.266 289.605C588.396 290.535 587.036 291 585.186 291H581.961ZM583.221 289.95H585.156C586.176 289.95 586.986 289.785 587.586 289.455C588.196 289.115 588.631 288.635 588.891 288.015C589.151 287.385 589.281 286.64 589.281 285.78C589.281 284.9 589.151 284.145 588.891 283.515C588.631 282.885 588.196 282.4 587.586 282.06C586.986 281.72 586.176 281.55 585.156 281.55H583.221V289.95ZM593.155 291V280.5H594.415V291H593.155ZM597.391 291V280.5H603.886V281.535H598.651V285.195H603.436V286.215H598.651V289.965H603.886V291H597.391ZM606.608 291V280.5H607.868L613.463 288.915V280.5H614.723V291H613.463L607.868 282.585V291H606.608ZM622.305 291.18C621.275 291.18 620.385 290.955 619.635 290.505C618.895 290.045 618.32 289.41 617.91 288.6C617.5 287.78 617.295 286.83 617.295 285.75C617.295 284.68 617.5 283.74 617.91 282.93C618.32 282.11 618.895 281.47 619.635 281.01C620.385 280.55 621.275 280.32 622.305 280.32C623.505 280.32 624.48 280.61 625.23 281.19C625.99 281.76 626.475 282.56 626.685 283.59H625.29C625.13 282.94 624.8 282.42 624.3 282.03C623.81 281.63 623.145 281.43 622.305 281.43C621.555 281.43 620.9 281.605 620.34 281.955C619.78 282.295 619.345 282.79 619.035 283.44C618.735 284.08 618.585 284.85 618.585 285.75C618.585 286.65 618.735 287.425 619.035 288.075C619.345 288.715 619.78 289.21 620.34 289.56C620.9 289.9 621.555 290.07 622.305 290.07C623.145 290.07 623.81 289.88 624.3 289.5C624.8 289.11 625.13 288.595 625.29 287.955H626.685C626.475 288.965 625.99 289.755 625.23 290.325C624.48 290.895 623.505 291.18 622.305 291.18ZM629.246 291V280.5H635.741V281.535H630.506V285.195H635.291V286.215H630.506V289.965H635.741V291H629.246ZM565.625 307.18C564.645 307.18 563.785 306.955 563.045 306.505C562.305 306.045 561.73 305.41 561.32 304.6C560.91 303.78 560.705 302.835 560.705 301.765C560.705 300.695 560.91 299.75 561.32 298.93C561.74 298.11 562.33 297.47 563.09 297.01C563.86 296.55 564.765 296.32 565.805 296.32C566.985 296.32 567.965 296.605 568.745 297.175C569.535 297.745 570.045 298.53 570.275 299.53H568.82C568.68 298.9 568.345 298.4 567.815 298.03C567.295 297.66 566.625 297.475 565.805 297.475C565.035 297.475 564.365 297.65 563.795 298C563.225 298.34 562.78 298.83 562.46 299.47C562.15 300.11 561.995 300.875 561.995 301.765C561.995 302.655 562.15 303.42 562.46 304.06C562.77 304.7 563.2 305.195 563.75 305.545C564.3 305.885 564.94 306.055 565.67 306.055C566.79 306.055 567.635 305.73 568.205 305.08C568.775 304.42 569.1 303.52 569.18 302.38H566.15V301.39H570.47V307H569.315L569.21 305.275C568.83 305.885 568.365 306.355 567.815 306.685C567.265 307.015 566.535 307.18 565.625 307.18ZM573.213 307V296.5H576.603C577.423 296.5 578.093 296.635 578.613 296.905C579.133 297.175 579.518 297.545 579.768 298.015C580.018 298.485 580.143 299.005 580.143 299.575C580.143 300.235 579.963 300.83 579.603 301.36C579.253 301.89 578.703 302.265 577.953 302.485L580.248 307H578.763L576.633 302.665H576.543H574.473V307H573.213ZM574.473 301.675H576.513C577.323 301.675 577.913 301.48 578.283 301.09C578.653 300.7 578.838 300.2 578.838 299.59C578.838 298.97 578.653 298.48 578.283 298.12C577.923 297.75 577.328 297.565 576.498 297.565H574.473V301.675ZM587.624 307.18C586.594 307.18 585.689 306.955 584.909 306.505C584.139 306.045 583.534 305.405 583.094 304.585C582.664 303.765 582.449 302.82 582.449 301.75C582.449 300.68 582.664 299.74 583.094 298.93C583.534 298.11 584.139 297.47 584.909 297.01C585.689 296.55 586.594 296.32 587.624 296.32C588.664 296.32 589.569 296.55 590.339 297.01C591.119 297.47 591.724 298.11 592.154 298.93C592.584 299.74 592.799 300.68 592.799 301.75C592.799 302.82 592.584 303.765 592.154 304.585C591.724 305.405 591.119 306.045 590.339 306.505C589.569 306.955 588.664 307.18 587.624 307.18ZM587.624 306.07C588.394 306.07 589.069 305.9 589.649 305.56C590.239 305.21 590.694 304.715 591.014 304.075C591.344 303.425 591.509 302.65 591.509 301.75C591.509 300.85 591.344 300.08 591.014 299.44C590.694 298.8 590.239 298.31 589.649 297.97C589.069 297.62 588.394 297.445 587.624 297.445C586.854 297.445 586.174 297.62 585.584 297.97C585.004 298.31 584.549 298.8 584.219 299.44C583.899 300.08 583.739 300.85 583.739 301.75C583.739 302.65 583.899 303.425 584.219 304.075C584.549 304.715 585.004 305.21 585.584 305.56C586.174 305.9 586.854 306.07 587.624 306.07ZM597.146 307.015L594.266 296.5H595.616L597.881 305.515L600.461 296.5H601.856L604.361 305.515L606.656 296.5H608.006L605.066 307H603.626L601.121 298.33L598.556 307L597.146 307.015ZM612.698 307V297.535H609.563V296.5H617.093V297.535H613.958V307H612.698ZM619.381 307V296.5H620.641V301.135H626.086V296.5H627.346V307H626.086V302.17H620.641V307H619.381Z" fill="white"/>
<path d="M561.368 266V264.176C562.456 263.312 563.496 262.44 564.488 261.56C565.48 260.68 566.36 259.816 567.128 258.968C567.912 258.104 568.528 257.264 568.976 256.448C569.424 255.616 569.648 254.816 569.648 254.048C569.648 253.536 569.56 253.056 569.384 252.608C569.208 252.144 568.92 251.776 568.52 251.504C568.12 251.216 567.584 251.072 566.912 251.072C565.904 251.072 565.144 251.392 564.632 252.032C564.136 252.672 563.896 253.44 563.912 254.336H561.44C561.456 253.152 561.704 252.16 562.184 251.36C562.68 250.56 563.336 249.952 564.152 249.536C564.984 249.12 565.92 248.912 566.96 248.912C568.544 248.912 569.808 249.36 570.752 250.256C571.712 251.136 572.192 252.368 572.192 253.952C572.192 254.896 571.96 255.832 571.496 256.76C571.048 257.688 570.456 258.584 569.72 259.448C569 260.296 568.224 261.096 567.392 261.848C566.56 262.6 565.768 263.28 565.016 263.888H572.696V266H561.368ZM583.171 266.288C581.651 266.288 580.339 265.928 579.235 265.208C578.147 264.472 577.307 263.456 576.715 262.16C576.139 260.848 575.851 259.328 575.851 257.6C575.851 255.872 576.139 254.36 576.715 253.064C577.307 251.752 578.147 250.736 579.235 250.016C580.339 249.28 581.651 248.912 583.171 248.912C584.691 248.912 585.995 249.28 587.083 250.016C588.171 250.736 589.003 251.752 589.579 253.064C590.171 254.36 590.467 255.872 590.467 257.6C590.467 259.328 590.171 260.848 589.579 262.16C589.003 263.456 588.171 264.472 587.083 265.208C585.995 265.928 584.691 266.288 583.171 266.288ZM583.171 264.008C584.083 264.008 584.891 263.752 585.595 263.24C586.315 262.728 586.875 261.992 587.275 261.032C587.675 260.072 587.875 258.928 587.875 257.6C587.875 256.272 587.675 255.128 587.275 254.168C586.875 253.208 586.315 252.472 585.595 251.96C584.891 251.448 584.083 251.192 583.171 251.192C582.243 251.192 581.427 251.448 580.723 251.96C580.019 252.472 579.467 253.208 579.067 254.168C578.667 255.128 578.467 256.272 578.467 257.6C578.467 258.928 578.667 260.072 579.067 261.032C579.467 261.992 580.019 262.728 580.723 263.24C581.427 263.752 582.243 264.008 583.171 264.008ZM596.23 266V252.08L593.518 252.704V250.832L597.238 249.2H598.87V266H596.23ZM609.124 266.288C608.02 266.288 607.076 266.072 606.292 265.64C605.508 265.208 604.892 264.632 604.444 263.912C604.012 263.192 603.748 262.408 603.652 261.56H606.028C606.172 262.392 606.516 263.032 607.06 263.48C607.604 263.928 608.3 264.152 609.148 264.152C610.316 264.152 611.276 263.608 612.028 262.52C612.796 261.416 613.204 259.728 613.252 257.456C612.868 258.16 612.268 258.76 611.452 259.256C610.652 259.752 609.724 260 608.668 260C607.724 260 606.836 259.776 606.004 259.328C605.172 258.88 604.5 258.256 603.988 257.456C603.476 256.64 603.22 255.68 603.22 254.576C603.22 253.6 603.46 252.68 603.94 251.816C604.42 250.952 605.092 250.256 605.956 249.728C606.836 249.184 607.876 248.912 609.076 248.912C610.308 248.912 611.348 249.144 612.196 249.608C613.044 250.072 613.724 250.688 614.236 251.456C614.748 252.224 615.116 253.088 615.34 254.048C615.58 255.008 615.7 255.992 615.7 257C615.7 258.856 615.436 260.48 614.908 261.872C614.396 263.264 613.652 264.352 612.676 265.136C611.7 265.904 610.516 266.288 609.124 266.288ZM609.244 257.816C609.916 257.816 610.516 257.664 611.044 257.36C611.572 257.056 611.988 256.656 612.292 256.16C612.612 255.648 612.772 255.088 612.772 254.48C612.772 253.824 612.612 253.248 612.292 252.752C611.988 252.24 611.564 251.84 611.02 251.552C610.492 251.264 609.892 251.12 609.22 251.12C608.548 251.12 607.948 251.264 607.42 251.552C606.892 251.84 606.468 252.24 606.148 252.752C605.844 253.248 605.692 253.816 605.692 254.456C605.692 255.48 606.028 256.296 606.7 256.904C607.372 257.512 608.22 257.816 609.244 257.816Z" fill="white"/>
<circle cx="1100" cy="180" r="180" fill="url(#paint4_radial)"/>
<path d="M926.912 366V339.408L921.392 340.704V336L929.504 332.4H933.296V366H926.912ZM955.171 366V359.76H938.611V354.864L954.355 332.4H961.315V354.432H965.731V359.76H961.315V366H955.171ZM945.187 354.432H955.555V339.168L945.187 354.432ZM970.417 366V331.44H976.561V351.84L985.009 342.192H992.305L982.561 353.04L993.889 366H986.209L976.561 354.048V366H970.417Z" fill="white"/>
<path d="M920.45 291L924.32 280.5H925.655L929.51 291H928.175L927.215 288.3H922.745L921.77 291H920.45ZM923.12 287.28H926.84L924.98 282.09L923.12 287.28ZM935.162 291.18C934.442 291.18 933.787 291.04 933.197 290.76C932.617 290.47 932.152 290.025 931.802 289.425C931.452 288.825 931.277 288.06 931.277 287.13V280.5H932.537V287.145C932.537 288.165 932.782 288.905 933.272 289.365C933.762 289.825 934.402 290.055 935.192 290.055C935.982 290.055 936.617 289.825 937.097 289.365C937.577 288.905 937.817 288.165 937.817 287.145V280.5H939.077V287.13C939.077 288.06 938.902 288.825 938.552 289.425C938.202 290.025 937.732 290.47 937.142 290.76C936.552 291.04 935.892 291.18 935.162 291.18ZM941.961 291V280.5H945.186C947.036 280.5 948.396 280.97 949.266 281.91C950.146 282.85 950.586 284.14 950.586 285.78C950.586 287.39 950.146 288.665 949.266 289.605C948.396 290.535 947.036 291 945.186 291H941.961ZM943.221 289.95H945.156C946.176 289.95 946.986 289.785 947.586 289.455C948.196 289.115 948.631 288.635 948.891 288.015C949.151 287.385 949.281 286.64 949.281 285.78C949.281 284.9 949.151 284.145 948.891 283.515C948.631 282.885 948.196 282.4 947.586 282.06C946.986 281.72 946.176 281.55 945.156 281.55H943.221V289.95ZM953.155 291V280.5H954.415V291H953.155ZM957.391 291V280.5H963.886V281.535H958.651V285.195H963.436V286.215H958.651V289.965H963.886V291H957.391ZM966.608 291V280.5H967.868L973.463 288.915V280.5H974.723V291H973.463L967.868 282.585V291H966.608ZM982.305 291.18C981.275 291.18 980.385 290.955 979.635 290.505C978.895 290.045 978.32 289.41 977.91 288.6C977.5 287.78 977.295 286.83 977.295 285.75C977.295 284.68 977.5 283.74 977.91 282.93C978.32 282.11 978.895 281.47 979.635 281.01C980.385 280.55 981.275 280.32 982.305 280.32C983.505 280.32 984.48 280.61 985.23 281.19C985.99 281.76 986.475 282.56 986.685 283.59H985.29C985.13 282.94 984.8 282.42 984.3 282.03C983.81 281.63 983.145 281.43 982.305 281.43C981.555 281.43 980.9 281.605 980.34 281.955C979.78 282.295 979.345 282.79 979.035 283.44C978.735 284.08 978.585 284.85 978.585 285.75C978.585 286.65 978.735 287.425 979.035 288.075C979.345 288.715 979.78 289.21 980.34 289.56C980.9 289.9 981.555 290.07 982.305 290.07C983.145 290.07 983.81 289.88 984.3 289.5C984.8 289.11 985.13 288.595 985.29 287.955H986.685C986.475 288.965 985.99 289.755 985.23 290.325C984.48 290.895 983.505 291.18 982.305 291.18ZM989.246 291V280.5H995.741V281.535H990.506V285.195H995.291V286.215H990.506V289.965H995.741V291H989.246ZM925.625 307.18C924.645 307.18 923.785 306.955 923.045 306.505C922.305 306.045 921.73 305.41 921.32 304.6C920.91 303.78 920.705 302.835 920.705 301.765C920.705 300.695 920.91 299.75 921.32 298.93C921.74 298.11 922.33 297.47 923.09 297.01C923.86 296.55 924.765 296.32 925.805 296.32C926.985 296.32 927.965 296.605 928.745 297.175C929.535 297.745 930.045 298.53 930.275 299.53H928.82C928.68 298.9 928.345 298.4 927.815 298.03C927.295 297.66 926.625 297.475 925.805 297.475C925.035 297.475 924.365 297.65 923.795 298C923.225 298.34 922.78 298.83 922.46 299.47C922.15 300.11 921.995 300.875 921.995 301.765C921.995 302.655 922.15 303.42 922.46 304.06C922.77 304.7 923.2 305.195 923.75 305.545C924.3 305.885 924.94 306.055 925.67 306.055C926.79 306.055 927.635 305.73 928.205 305.08C928.775 304.42 929.1 303.52 929.18 302.38H926.15V301.39H930.47V307H929.315L929.21 305.275C928.83 305.885 928.365 306.355 927.815 306.685C927.265 307.015 926.535 307.18 925.625 307.18ZM933.213 307V296.5H936.603C937.423 296.5 938.093 296.635 938.613 296.905C939.133 297.175 939.518 297.545 939.768 298.015C940.018 298.485 940.143 299.005 940.143 299.575C940.143 300.235 939.963 300.83 939.603 301.36C939.253 301.89 938.703 302.265 937.953 302.485L940.248 307H938.763L936.633 302.665H936.543H934.473V307H933.213ZM934.473 301.675H936.513C937.323 301.675 937.913 301.48 938.283 301.09C938.653 300.7 938.838 300.2 938.838 299.59C938.838 298.97 938.653 298.48 938.283 298.12C937.923 297.75 937.328 297.565 936.498 297.565H934.473V301.675ZM947.624 307.18C946.594 307.18 945.689 306.955 944.909 306.505C944.139 306.045 943.534 305.405 943.094 304.585C942.664 303.765 942.449 302.82 942.449 301.75C942.449 300.68 942.664 299.74 943.094 298.93C943.534 298.11 944.139 297.47 944.909 297.01C945.689 296.55 946.594 296.32 947.624 296.32C948.664 296.32 949.569 296.55 950.339 297.01C951.119 297.47 951.724 298.11 952.154 298.93C952.584 299.74 952.799 300.68 952.799 301.75C952.799 302.82 952.584 303.765 952.154 304.585C951.724 305.405 951.119 306.045 950.339 306.505C949.569 306.955 948.664 307.18 947.624 307.18ZM947.624 306.07C948.394 306.07 949.069 305.9 949.649 305.56C950.239 305.21 950.694 304.715 951.014 304.075C951.344 303.425 951.509 302.65 951.509 301.75C951.509 300.85 951.344 300.08 951.014 299.44C950.694 298.8 950.239 298.31 949.649 297.97C949.069 297.62 948.394 297.445 947.624 297.445C946.854 297.445 946.174 297.62 945.584 297.97C945.004 298.31 944.549 298.8 944.219 299.44C943.899 300.08 943.739 300.85 943.739 301.75C943.739 302.65 943.899 303.425 944.219 304.075C944.549 304.715 945.004 305.21 945.584 305.56C946.174 305.9 946.854 306.07 947.624 306.07ZM957.146 307.015L954.266 296.5H955.616L957.881 305.515L960.461 296.5H961.856L964.361 305.515L966.656 296.5H968.006L965.066 307H963.626L961.121 298.33L958.556 307L957.146 307.015ZM972.698 307V297.535H969.563V296.5H977.093V297.535H973.958V307H972.698ZM979.381 307V296.5H980.641V301.135H986.086V296.5H987.346V307H986.086V302.17H980.641V307H979.381Z" fill="white"/>
<path d="M921.368 266V264.176C922.456 263.312 923.496 262.44 924.488 261.56C925.48 260.68 926.36 259.816 927.128 258.968C927.912 258.104 928.528 257.264 928.976 256.448C929.424 255.616 929.648 254.816 929.648 254.048C929.648 253.536 929.56 253.056 929.384 252.608C929.208 252.144 928.92 251.776 928.52 251.504C928.12 251.216 927.584 251.072 926.912 251.072C925.904 251.072 925.144 251.392 924.632 252.032C924.136 252.672 923.896 253.44 923.912 254.336H921.44C921.456 253.152 921.704 252.16 922.184 251.36C922.68 250.56 923.336 249.952 924.152 249.536C924.984 249.12 925.92 248.912 926.96 248.912C928.544 248.912 929.808 249.36 930.752 250.256C931.712 251.136 932.192 252.368 932.192 253.952C932.192 254.896 931.96 255.832 931.496 256.76C931.048 257.688 930.456 258.584 929.72 259.448C929 260.296 928.224 261.096 927.392 261.848C926.56 262.6 925.768 263.28 925.016 263.888H932.696V266H921.368ZM943.171 266.288C941.651 266.288 940.339 265.928 939.235 265.208C938.147 264.472 937.307 263.456 936.715 262.16C936.139 260.848 935.851 259.328 935.851 257.6C935.851 255.872 936.139 254.36 936.715 253.064C937.307 251.752 938.147 250.736 939.235 250.016C940.339 249.28 941.651 248.912 943.171 248.912C944.691 248.912 945.995 249.28 947.083 250.016C948.171 250.736 949.003 251.752 949.579 253.064C950.171 254.36 950.467 255.872 950.467 257.6C950.467 259.328 950.171 260.848 949.579 262.16C949.003 263.456 948.171 264.472 947.083 265.208C945.995 265.928 944.691 266.288 943.171 266.288ZM943.171 264.008C944.083 264.008 944.891 263.752 945.595 263.24C946.315 262.728 946.875 261.992 947.275 261.032C947.675 260.072 947.875 258.928 947.875 257.6C947.875 256.272 947.675 255.128 947.275 254.168C946.875 253.208 946.315 252.472 945.595 251.96C944.891 251.448 944.083 251.192 943.171 251.192C942.243 251.192 941.427 251.448 940.723 251.96C940.019 252.472 939.467 253.208 939.067 254.168C938.667 255.128 938.467 256.272 938.467 257.6C938.467 258.928 938.667 260.072 939.067 261.032C939.467 261.992 940.019 262.728 940.723 263.24C941.427 263.752 942.243 264.008 943.171 264.008ZM953.979 266V264.176C955.067 263.312 956.107 262.44 957.099 261.56C958.091 260.68 958.971 259.816 959.739 258.968C960.523 258.104 961.139 257.264 961.587 256.448C962.035 255.616 962.259 254.816 962.259 254.048C962.259 253.536 962.171 253.056 961.995 252.608C961.819 252.144 961.531 251.776 961.131 251.504C960.731 251.216 960.195 251.072 959.523 251.072C958.515 251.072 957.755 251.392 957.243 252.032C956.747 252.672 956.507 253.44 956.523 254.336H954.051C954.067 253.152 954.315 252.16 954.795 251.36C955.291 250.56 955.947 249.952 956.763 249.536C957.595 249.12 958.531 248.912 959.571 248.912C961.155 248.912 962.419 249.36 963.363 250.256C964.323 251.136 964.803 252.368 964.803 253.952C964.803 254.896 964.571 255.832 964.107 256.76C963.659 257.688 963.067 258.584 962.331 259.448C961.611 260.296 960.835 261.096 960.003 261.848C959.171 262.6 958.379 263.28 957.627 263.888H965.307V266H953.979ZM975.782 266.288C974.262 266.288 972.95 265.928 971.846 265.208C970.758 264.472 969.918 263.456 969.326 262.16C968.75 260.848 968.462 259.328 968.462 257.6C968.462 255.872 968.75 254.36 969.326 253.064C969.918 251.752 970.758 250.736 971.846 250.016C972.95 249.28 974.262 248.912 975.782 248.912C977.302 248.912 978.606 249.28 979.694 250.016C980.782 250.736 981.614 251.752 982.19 253.064C982.782 254.36 983.078 255.872 983.078 257.6C983.078 259.328 982.782 260.848 982.19 262.16C981.614 263.456 980.782 264.472 979.694 265.208C978.606 265.928 977.302 266.288 975.782 266.288ZM975.782 264.008C976.694 264.008 977.502 263.752 978.206 263.24C978.926 262.728 979.486 261.992 979.886 261.032C980.286 260.072 980.486 258.928 980.486 257.6C980.486 256.272 980.286 255.128 979.886 254.168C979.486 253.208 978.926 252.472 978.206 251.96C977.502 251.448 976.694 251.192 975.782 251.192C974.854 251.192 974.038 251.448 973.334 251.96C972.63 252.472 972.078 253.208 971.678 254.168C971.278 255.128 971.078 256.272 971.078 257.6C971.078 258.928 971.278 260.072 971.678 261.032C972.078 261.992 972.63 262.728 973.334 263.24C974.038 263.752 974.854 264.008 975.782 264.008Z" fill="white"/>
<rect x="488" y="180" width="72" height="1" fill="#4845ED"/>
<rect x="219" y="180" width="125" height="1" fill="#4845ED"/>
<rect x="16" y="180" width="156" height="1" fill="#4845ED"/>
<rect x="848" y="180" width="72" height="1" fill="#4845ED"/>
<defs>
<radialGradient id="paint0_radial" cx="0" cy="0" r="1" gradientUnits="userSpaceOnUse" gradientTransform="translate(416 180) rotate(90) scale(72)">
<stop offset="0.213542" stop-opacity="0"/>
<stop offset="1" stop-color="#4845ED"/>
</radialGradient>
<radialGradient id="paint1_radial" cx="0" cy="0" r="1" gradientUnits="userSpaceOnUse" gradientTransform="translate(196 180) rotate(90) scale(24)">
<stop offset="0.213542" stop-opacity="0"/>
<stop offset="1" stop-color="#4845ED"/>
</radialGradient>
<radialGradient id="paint2_radial" cx="0" cy="0" r="1" gradientUnits="userSpaceOnUse" gradientTransform="translate(8 180) rotate(90) scale(8)">
<stop offset="0.213542" stop-opacity="0"/>
<stop offset="1" stop-color="#4845ED"/>
</radialGradient>
<radialGradient id="paint3_radial" cx="0" cy="0" r="1" gradientUnits="userSpaceOnUse" gradientTransform="translate(704 180) rotate(90) scale(144)">
<stop offset="0.213542" stop-opacity="0"/>
<stop offset="1" stop-color="#4845ED"/>
</radialGradient>
<radialGradient id="paint4_radial" cx="0" cy="0" r="1" gradientUnits="userSpaceOnUse" gradientTransform="translate(1100 180) rotate(90) scale(180)">
<stop offset="0.213542" stop-opacity="0"/>
<stop offset="1" stop-color="#4845ED"/>
</radialGradient>
</defs>
</svg>
