<svg width="20" height="20" viewBox="0 0 20 20" fill="none" xmlns="http://www.w3.org/2000/svg">
<path fill-rule="evenodd" clip-rule="evenodd" d="M5 0H15C16.3261 0 17.5978 0.526674 18.5355 1.46436C19.4732 2.40204 20 3.67392 20 5V15C20 16.3261 19.4732 17.598 18.5355 18.5356C17.5978 19.4733 16.3261 20 15 20H5C3.67392 20 2.40216 19.4733 1.46448 18.5356C0.526796 17.598 0 16.3261 0 15V5C0 3.67392 0.526796 2.40204 1.46448 1.46436C2.40216 0.526674 3.67392 0 5 0ZM10 5C9.01109 5 8.04441 5.29337 7.22217 5.84277C6.39992 6.39218 5.75905 7.17304 5.38062 8.08667C5.00218 9.0003 4.90314 10.0054 5.09607 10.9753C5.289 11.9452 5.76521 12.8364 6.46448 13.5356C7.16374 14.2349 8.05463 14.7109 9.02454 14.9038C9.99444 15.0967 10.9998 14.9978 11.9135 14.6194C12.8271 14.2409 13.6079 13.6001 14.1573 12.7778C14.7068 11.9556 15 10.9889 15 10C15 8.67392 14.4732 7.40204 13.5355 6.46436C12.5978 5.52667 11.3261 5 10 5ZM15.5 3C15.2033 3 14.9133 3.08786 14.6666 3.25269C14.42 3.41751 14.2277 3.65194 14.1141 3.92603C14.0006 4.20011 13.9709 4.50175 14.0288 4.79272C14.0867 5.0837 14.2296 5.35077 14.4393 5.56055C14.6491 5.77033 14.9164 5.91331 15.2074 5.97119C15.4984 6.02907 15.7999 5.99927 16.074 5.88574C16.3481 5.77221 16.5824 5.57993 16.7472 5.33325C16.912 5.08658 17 4.79667 17 4.5C17 4.10218 16.842 3.72076 16.5607 3.43945C16.2794 3.15815 15.8978 3 15.5 3ZM10 12.99C9.40863 12.99 8.83057 12.8146 8.33887 12.4861C7.84716 12.1575 7.46385 11.6906 7.23755 11.1443C7.01124 10.5979 6.95214 9.99675 7.0675 9.41675C7.18287 8.83675 7.46758 8.3039 7.88574 7.88574C8.3039 7.46758 8.83662 7.18275 9.41663 7.06738C9.99663 6.95201 10.5978 7.01124 11.1442 7.23755C11.6905 7.46385 12.1575 7.84716 12.4861 8.33887C12.8146 8.83057 12.99 9.40863 12.99 10C12.9895 10.7928 12.6743 11.5532 12.1136 12.1138C11.553 12.6744 10.7928 12.9895 10 12.99Z" fill="#CCCCCC"/>
</svg>
