<svg width="74" height="80" viewBox="0 0 74 80" fill="none" xmlns="http://www.w3.org/2000/svg">
<path d="M5.26767 67.089C7.44893 67.089 8.69536 65.9053 9.40761 64.6924L7.59732 63.8302C7.18184 64.6339 6.29153 65.2477 5.26767 65.2477C3.47221 65.2477 2.16642 63.8887 2.16642 62.0474C2.16642 60.2061 3.47221 58.8471 5.26767 58.8471C6.29153 58.8471 7.18184 59.4755 7.59732 60.2646L9.40761 59.3878C8.7102 58.1749 7.44893 57.0058 5.26767 57.0058C2.29997 57.0058 0 59.0517 0 62.0474C0 65.0431 2.29997 67.089 5.26767 67.089Z" fill="black"/>
<path d="M13.9411 67.089C16.3153 67.089 17.7398 65.3938 17.7398 63.3772C17.7398 61.3752 16.3153 59.6801 13.9411 59.6801C11.5818 59.6801 10.1573 61.3752 10.1573 63.3772C10.1573 65.3938 11.5818 67.089 13.9411 67.089ZM13.9411 65.4377C12.7689 65.4377 12.116 64.4878 12.116 63.3772C12.116 62.2812 12.7689 61.3313 13.9411 61.3313C15.1134 61.3313 15.7811 62.2812 15.7811 63.3772C15.7811 64.4878 15.1134 65.4377 13.9411 65.4377Z" fill="black"/>
<path d="M20.0727 59.0955C20.6959 59.0955 21.2004 58.5987 21.2004 57.9849C21.2004 57.3712 20.6959 56.8889 20.0727 56.8889C19.4643 56.8889 18.9449 57.3712 18.9449 57.9849C18.9449 58.5987 19.4643 59.0955 20.0727 59.0955ZM21.0223 66.9136V59.8554H19.1378V66.9136H21.0223Z" fill="black"/>
<path d="M29.6128 66.9136V61.9305C29.6128 60.5568 28.856 59.6801 27.2831 59.6801C26.1109 59.6801 25.2354 60.2354 24.7754 60.776V59.8554H22.8909V66.9136H24.7754V62.1643C25.087 61.7405 25.6657 61.3313 26.4077 61.3313C27.209 61.3313 27.7283 61.6675 27.7283 62.6465V66.9136H29.6128Z" fill="black"/>
<path d="M34.0658 67.089C36.0542 67.089 37.1671 66.1099 37.1671 64.8239C37.1671 61.9743 32.9233 62.8511 32.9233 61.799C32.9233 61.4044 33.3684 61.0975 34.051 61.0975C34.9265 61.0975 35.7426 61.4629 36.1729 61.9159L36.9297 60.6445C36.2174 60.0892 35.2529 59.6801 34.0362 59.6801C32.1517 59.6801 31.0981 60.7176 31.0981 61.9013C31.0981 64.6778 35.3568 63.7279 35.3568 64.897C35.3568 65.3354 34.971 65.6569 34.1549 65.6569C33.2646 65.6569 32.1962 65.1746 31.6768 64.6924L30.8607 65.993C31.6175 66.6798 32.8194 67.089 34.0658 67.089Z" fill="black"/>
<path d="M43.3928 67.1036C45.1882 67.1036 46.5979 66.3729 47.6069 65.2623V61.5213H42.8883V63.3334H45.4998V64.5024C45.0992 64.8678 44.2682 65.2477 43.3928 65.2477C41.5973 65.2477 40.2915 63.8887 40.2915 62.0474C40.2915 60.2061 41.5973 58.8471 43.3928 58.8471C44.4463 58.8471 45.2921 59.4316 45.7373 60.1184L47.4882 59.1832C46.7463 58.0288 45.4553 57.0058 43.3928 57.0058C40.4993 57.0058 38.1251 58.964 38.1251 62.0474C38.1251 65.1162 40.4993 67.1036 43.3928 67.1036Z" fill="black"/>
<path d="M56.0608 66.9136V59.8554H54.1466V60.7614C53.5828 60.0454 52.7963 59.6801 51.9505 59.6801C50.1254 59.6801 48.7751 61.0829 48.7751 63.3918C48.7751 65.7446 50.1402 67.089 51.9505 67.089C52.8112 67.089 53.5976 66.709 54.1615 66.0076V66.9136H56.0608ZM52.5292 65.4377C51.4609 65.4377 50.7189 64.6047 50.7189 63.3918C50.7189 62.1643 51.4609 61.346 52.5292 61.346C53.1673 61.346 53.8499 61.6821 54.1615 62.1497V64.6339C53.8499 65.1016 53.1673 65.4377 52.5292 65.4377Z" fill="black"/>
<path d="M64.6514 66.9136V61.9305C64.6514 60.5568 63.8946 59.6801 62.3217 59.6801C61.1495 59.6801 60.274 60.2354 59.814 60.776V59.8554H57.9295V66.9136H59.814V62.1643C60.1256 61.7405 60.7043 61.3313 61.4463 61.3313C62.2475 61.3313 62.7669 61.6675 62.7669 62.6465V66.9136H64.6514Z" fill="black"/>
<path d="M69.4606 69.7778C71.2263 69.7778 73.3334 69.1202 73.3334 66.4314V59.8554H71.4341V60.7614C70.8554 60.0454 70.0838 59.6801 69.2231 59.6801C67.4128 59.6801 66.0625 60.966 66.0625 63.2749C66.0625 65.6277 67.4277 66.8698 69.2231 66.8698C70.0986 66.8698 70.8702 66.4606 71.4341 65.7592V66.4752C71.4341 67.8635 70.3657 68.258 69.4606 68.258C68.5554 68.258 67.7986 68.0096 67.2199 67.3812L66.3741 68.7257C67.2793 69.5002 68.229 69.7778 69.4606 69.7778ZM69.8167 65.2185C68.7483 65.2185 68.0064 64.4878 68.0064 63.2749C68.0064 62.062 68.7483 61.3313 69.8167 61.3313C70.4399 61.3313 71.1225 61.6675 71.4341 62.1351V64.4147C71.1225 64.8678 70.4399 65.2185 69.8167 65.2185Z" fill="black"/>
<path d="M7.35036 79.8822L9.21585 73.3333H7.64492L6.50598 78.0658L5.26887 73.3333H4.17903L2.9321 78.0658L1.78335 73.3333H0.222226L2.09754 79.8822H3.58011L4.71904 75.3854L5.86779 79.8822H7.35036Z" fill="black"/>
<path d="M11.6796 80C12.416 80 13.1621 79.7742 13.6334 79.3422L13.0836 78.537C12.7792 78.8316 12.2196 79.0083 11.817 79.0083C11.0119 79.0083 10.5308 78.5076 10.4523 77.9087H13.9771V77.6338C13.9771 76.0825 13.0149 75.0221 11.601 75.0221C10.1577 75.0221 9.14643 76.1315 9.14643 77.5061C9.14643 79.028 10.2363 80 11.6796 80ZM12.7694 77.0643H10.4326C10.4916 76.593 10.8254 76.0137 11.601 76.0137C12.4258 76.0137 12.74 76.6126 12.7694 77.0643Z" fill="black"/>
<path d="M17.1065 80C17.8429 80 18.5891 79.7742 19.0604 79.3422L18.5105 78.537C18.2062 78.8316 17.6465 79.0083 17.244 79.0083C16.4389 79.0083 15.9578 78.5076 15.8792 77.9087H19.404V77.6338C19.404 76.0825 18.4418 75.0221 17.028 75.0221C15.5847 75.0221 14.5734 76.1315 14.5734 77.5061C14.5734 79.028 15.6632 80 17.1065 80ZM18.1964 77.0643H15.8596C15.9185 76.593 16.2523 76.0137 17.028 76.0137C17.8527 76.0137 18.1669 76.6126 18.1964 77.0643Z" fill="black"/>
<path d="M24.939 79.8822L23.0048 77.2901L24.8801 75.1399H23.3484L21.5516 77.2508V73.3333H20.3047V79.8822H21.5516V78.6647L22.1211 78.0559L23.3779 79.8822H24.939Z" fill="black"/>
<path d="M27.7303 80C28.4667 80 29.2129 79.7742 29.6842 79.3422L29.1343 78.537C28.83 78.8316 28.2703 79.0083 27.8678 79.0083C27.0627 79.0083 26.5816 78.5076 26.503 77.9087H30.0278V77.6338C30.0278 76.0825 29.0656 75.0221 27.6518 75.0221C26.2085 75.0221 25.1972 76.1315 25.1972 77.5061C25.1972 79.028 26.287 80 27.7303 80ZM28.8201 77.0643H26.4834C26.5423 76.593 26.8761 76.0137 27.6518 76.0137C28.4765 76.0137 28.7907 76.6126 28.8201 77.0643Z" fill="black"/>
<path d="M35.3762 79.8822V76.5341C35.3762 75.6112 34.8755 75.0221 33.8347 75.0221C33.0591 75.0221 32.4798 75.3952 32.1754 75.7584V75.1399H30.9285V79.8822H32.1754V76.6912C32.3816 76.4065 32.7645 76.1315 33.2554 76.1315C33.7856 76.1315 34.1293 76.3574 34.1293 77.0152V79.8822H35.3762Z" fill="black"/>
<path d="M41.1308 79.8822V73.3333H39.874V75.7486C39.5009 75.2675 38.9707 75.0221 38.4111 75.0221C37.2034 75.0221 36.31 75.9646 36.31 77.5159C36.31 79.0967 37.2132 80 38.4111 80C38.9806 80 39.5009 79.7447 39.874 79.2734V79.8822H41.1308ZM38.794 78.8905C38.0871 78.8905 37.5962 78.3309 37.5962 77.5159C37.5962 76.6912 38.0871 76.1315 38.794 76.1315C39.2162 76.1315 39.6678 76.3574 39.874 76.6716V78.3505C39.6678 78.6647 39.2162 78.8905 38.794 78.8905Z" fill="black"/>
<path fill-rule="evenodd" clip-rule="evenodd" d="M2.21293 0.0856954C3.77416 -0.29926 5.35318 0.648947 5.73977 2.20358L15.8355 42.8024C16.2221 44.3571 15.2699 45.9294 13.7086 46.3144C12.1474 46.6993 10.5684 45.7511 10.1818 44.1965L0.0860593 3.59762C-0.300531 2.04299 0.651702 0.470651 2.21293 0.0856954Z" fill="#4845ED"/>
<path fill-rule="evenodd" clip-rule="evenodd" d="M66.01 13.0509C66.8137 14.4381 66.3359 16.2115 64.9427 17.0119L14.4641 46.0111C13.0709 46.8114 11.29 46.3356 10.4863 44.9483C9.68251 43.5611 10.1603 41.7877 11.5535 40.9873L62.0321 11.9881C63.4253 11.1878 65.2062 11.6636 66.01 13.0509Z" fill="url(#paint0_linear)"/>
<path fill-rule="evenodd" clip-rule="evenodd" d="M64.9441 11.9891C66.3368 12.7903 66.8134 14.564 66.0088 15.9508L55.9131 33.3503C55.1084 34.737 53.3272 35.2117 51.9346 34.4105C50.5419 33.6092 50.0652 31.8355 50.8699 30.4488L60.9656 13.0492C61.7702 11.6625 63.5515 11.1878 64.9441 11.9891Z" fill="url(#paint1_linear)"/>
<path fill-rule="evenodd" clip-rule="evenodd" d="M0.391101 1.4521C1.19484 0.0648374 2.97578 -0.410955 4.36894 0.38939L54.8476 29.3886C56.2407 30.1889 56.7186 31.9623 55.9148 33.3496C55.1111 34.7369 53.3301 35.2127 51.937 34.4123L1.45833 5.41313C0.0651701 4.61278 -0.412643 2.83937 0.391101 1.4521Z" fill="#4845ED"/>
<defs>
<linearGradient id="paint0_linear" x1="63.536" y1="14.5483" x2="13.1644" y2="43.7323" gradientUnits="userSpaceOnUse">
<stop/>
<stop offset="0.826693" stop-color="#4845ED"/>
</linearGradient>
<linearGradient id="paint1_linear" x1="68.5714" y1="5.238" x2="53.5382" y2="32.003" gradientUnits="userSpaceOnUse">
<stop/>
<stop offset="0.618341" stop-color="#4845ED"/>
</linearGradient>
</defs>
</svg>
