<svg width="92" height="100" viewBox="0 0 92 100" fill="none" xmlns="http://www.w3.org/2000/svg">
<path d="M6.58458 83.8611C9.31115 83.8611 10.8692 82.3816 11.7595 80.8654L9.49664 79.7877C8.97729 80.7924 7.8644 81.5596 6.58458 81.5596C4.34026 81.5596 2.70802 79.8608 2.70802 77.5592C2.70802 75.2576 4.34026 73.5588 6.58458 73.5588C7.8644 73.5588 8.97729 74.3443 9.49664 75.3307L11.7595 74.2347C10.8877 72.7185 9.31115 71.2572 6.58458 71.2572C2.87496 71.2572 0 73.8145 0 77.5592C0 81.3038 2.87496 83.8611 6.58458 83.8611Z" fill="white"/>
<path d="M17.4264 83.8611C20.3941 83.8611 22.1747 81.7422 22.1747 79.2214C22.1747 76.7189 20.3941 74.6 17.4264 74.6C14.4772 74.6 12.6966 76.7189 12.6966 79.2214C12.6966 81.7422 14.4772 83.8611 17.4264 83.8611ZM17.4264 81.797C15.9611 81.797 15.145 80.6097 15.145 79.2214C15.145 77.8514 15.9611 76.6641 17.4264 76.6641C18.8917 76.6641 19.7264 77.8514 19.7264 79.2214C19.7264 80.6097 18.8917 81.797 17.4264 81.797Z" fill="white"/>
<path d="M25.0908 73.8693C25.8698 73.8693 26.5005 73.2483 26.5005 72.4811C26.5005 71.7139 25.8698 71.1111 25.0908 71.1111C24.3303 71.1111 23.6812 71.7139 23.6812 72.4811C23.6812 73.2483 24.3303 73.8693 25.0908 73.8693ZM26.2779 83.6419V74.8192H23.9223V83.6419H26.2779Z" fill="white"/>
<path d="M37.016 83.6419V77.413C37.016 75.696 36.07 74.6 34.1039 74.6C32.6386 74.6 31.5443 75.2941 30.9693 75.97V74.8192H28.6137V83.6419H30.9693V77.7053C31.3588 77.1756 32.0822 76.6641 33.0096 76.6641C34.0112 76.6641 34.6603 77.0843 34.6603 78.3081V83.6419H37.016Z" fill="white"/>
<path d="M42.5823 83.8611C45.0677 83.8611 46.4588 82.6373 46.4588 81.0298C46.4588 77.4678 41.1541 78.5638 41.1541 77.2486C41.1541 76.7555 41.7105 76.3719 42.5637 76.3719C43.6581 76.3719 44.6782 76.8285 45.2161 77.3948L46.1621 75.8056C45.2717 75.1115 44.0661 74.6 42.5452 74.6C40.1896 74.6 38.8726 75.8969 38.8726 77.3765C38.8726 80.8472 44.196 79.6598 44.196 81.1212C44.196 81.6692 43.7137 82.071 42.6936 82.071C41.5807 82.071 40.2452 81.4682 39.596 80.8654L38.5759 82.4912C39.5218 83.3497 41.0242 83.8611 42.5823 83.8611Z" fill="white"/>
<path d="M54.2409 83.8794C56.4852 83.8794 58.2473 82.9661 59.5086 81.5778V76.9016H53.6103V79.1666H56.8748V80.628C56.374 81.0846 55.3353 81.5596 54.2409 81.5596C51.9966 81.5596 50.3644 79.8608 50.3644 77.5592C50.3644 75.2576 51.9966 73.5588 54.2409 73.5588C55.5578 73.5588 56.6151 74.2895 57.1715 75.148L59.3602 73.9789C58.4328 72.5359 56.8191 71.2572 54.2409 71.2572C50.624 71.2572 47.6563 73.7049 47.6563 77.5592C47.6563 81.3952 50.624 83.8794 54.2409 83.8794Z" fill="white"/>
<path d="M70.0759 83.6419V74.8192H67.6832V75.9517C66.9784 75.0567 65.9953 74.6 64.9381 74.6C62.6567 74.6 60.9688 76.3536 60.9688 79.2397C60.9688 82.1806 62.6752 83.8611 64.9381 83.8611C66.0139 83.8611 66.9969 83.3862 67.7018 82.5094V83.6419H70.0759ZM65.6615 81.797C64.326 81.797 63.3986 80.7558 63.3986 79.2397C63.3986 77.7053 64.326 76.6824 65.6615 76.6824C66.4591 76.6824 67.3123 77.1025 67.7018 77.687V80.7924C67.3123 81.3769 66.4591 81.797 65.6615 81.797Z" fill="white"/>
<path d="M80.8141 83.6419V77.413C80.8141 75.696 79.8682 74.6 77.9021 74.6C76.4368 74.6 75.3424 75.2941 74.7674 75.97V74.8192H72.4118V83.6419H74.7674V77.7053C75.157 77.1756 75.8803 76.6641 76.8077 76.6641C77.8093 76.6641 78.4585 77.0843 78.4585 78.3081V83.6419H80.8141Z" fill="white"/>
<path d="M86.8256 87.2222C89.0328 87.2222 91.6667 86.4002 91.6667 83.0392V74.8192H89.2925V75.9517C88.5691 75.0567 87.6046 74.6 86.5288 74.6C84.266 74.6 82.5781 76.2075 82.5781 79.0936C82.5781 82.0345 84.2845 83.5871 86.5288 83.5871C87.6232 83.5871 88.5877 83.0757 89.2925 82.1989V83.094C89.2925 84.8293 87.957 85.3225 86.8256 85.3225C85.6942 85.3225 84.7482 85.0119 84.0248 84.2265L82.9676 85.907C84.099 86.8751 85.2861 87.2222 86.8256 87.2222ZM87.2708 81.523C85.9353 81.523 85.0079 80.6097 85.0079 79.0936C85.0079 77.5774 85.9353 76.6641 87.2708 76.6641C88.0498 76.6641 88.903 77.0843 89.2925 77.6688V80.5184C88.903 81.0846 88.0498 81.523 87.2708 81.523Z" fill="white"/>
<path d="M9.18793 99.8528L11.5198 91.6667H9.55612L8.13246 97.5823L6.58607 91.6667H5.22377L3.66511 97.5823L2.22917 91.6667H0.277771L2.6219 99.8528H4.47512L5.89878 94.2318L7.33472 99.8528H9.18793Z" fill="white"/>
<path d="M14.5994 100C15.5199 100 16.4527 99.7178 17.0418 99.1778L16.3545 98.1714C15.974 98.5396 15.2745 98.7605 14.7713 98.7605C13.7649 98.7605 13.1635 98.1346 13.0653 97.3859H17.4713V97.0423C17.4713 95.1032 16.2686 93.7777 14.5013 93.7777C12.6971 93.7777 11.433 95.1645 11.433 96.8828C11.433 98.7851 12.7953 100 14.5994 100ZM15.9617 96.3305H13.0408C13.1144 95.7414 13.5317 95.0173 14.5013 95.0173C15.5322 95.0173 15.9249 95.7659 15.9617 96.3305Z" fill="white"/>
<path d="M21.3831 100C22.3036 100 23.2363 99.7178 23.8254 99.1778L23.1382 98.1714C22.7577 98.5396 22.0581 98.7605 21.5549 98.7605C20.5486 98.7605 19.9472 98.1346 19.849 97.3859H24.255V97.0423C24.255 95.1032 23.0522 93.7777 21.2849 93.7777C19.4808 93.7777 18.2167 95.1645 18.2167 96.8828C18.2167 98.7851 19.579 100 21.3831 100ZM22.7454 96.3305H19.8245C19.8981 95.7414 20.3154 95.0173 21.2849 95.0173C22.3159 95.0173 22.7086 95.7659 22.7454 96.3305Z" fill="white"/>
<path d="M31.1737 99.8528L28.7559 96.6127L31.1 93.925H29.1855L26.9395 96.5637V91.6667H25.3808V99.8528H26.9395V98.331L27.6513 97.57L29.2223 99.8528H31.1737Z" fill="white"/>
<path d="M34.6628 100C35.5833 100 36.5161 99.7178 37.1052 99.1778L36.4179 98.1714C36.0374 98.5396 35.3379 98.7605 34.8347 98.7605C33.8283 98.7605 33.2269 98.1346 33.1287 97.3859H37.5347V97.0423C37.5347 95.1032 36.332 93.7777 34.5647 93.7777C32.7605 93.7777 31.4964 95.1645 31.4964 96.8828C31.4964 98.7851 32.8587 100 34.6628 100ZM36.0251 96.3305H33.1042C33.1778 95.7414 33.5951 95.0173 34.5647 95.0173C35.5956 95.0173 35.9883 95.7659 36.0251 96.3305Z" fill="white"/>
<path d="M44.2202 99.8528V95.6677C44.2202 94.5141 43.5943 93.7777 42.2934 93.7777C41.3238 93.7777 40.5997 94.2441 40.2192 94.6982V93.925H38.6606V99.8528H40.2192V95.8641C40.477 95.5082 40.9556 95.1645 41.5693 95.1645C42.232 95.1645 42.6615 95.4468 42.6615 96.2691V99.8528H44.2202Z" fill="white"/>
<path d="M51.4134 99.8528V91.6667H49.8425V94.6859C49.3761 94.0845 48.7134 93.7777 48.0138 93.7777C46.5042 93.7777 45.3874 94.9559 45.3874 96.895C45.3874 98.871 46.5165 100 48.0138 100C48.7256 100 49.3761 99.681 49.8425 99.0919V99.8528H51.4134ZM48.4924 98.6132C47.6088 98.6132 46.9951 97.9137 46.9951 96.895C46.9951 95.8641 47.6088 95.1645 48.4924 95.1645C49.0202 95.1645 49.5847 95.4468 49.8425 95.8396V97.9382C49.5847 98.331 49.0202 98.6132 48.4924 98.6132Z" fill="white"/>
<path fill-rule="evenodd" clip-rule="evenodd" d="M3.05504 0.107735C5.01442 -0.376225 6.99612 0.815845 7.48129 2.7703L20.1516 53.8105C20.6368 55.7649 19.4417 57.7416 17.4824 58.2256C15.523 58.7096 13.5413 57.5175 13.0561 55.563L0.385777 4.52287C-0.099401 2.56842 1.09567 0.591694 3.05504 0.107735Z" fill="url(#paint0_linear)"/>
<path fill-rule="evenodd" clip-rule="evenodd" d="M83.1219 16.4072C84.1306 18.1513 83.531 20.3808 81.7825 21.387L18.4308 57.8442C16.6824 58.8504 14.4473 58.2523 13.4385 56.5082C12.4298 54.7642 13.0295 52.5347 14.7779 51.5285L78.1296 15.0712C79.8781 14.065 82.1132 14.6632 83.1219 16.4072Z" fill="url(#paint1_linear)"/>
<path fill-rule="evenodd" clip-rule="evenodd" d="M81.7846 15.0724C83.5324 16.0797 84.1306 18.3096 83.1208 20.053L70.4504 41.9273C69.4406 43.6707 67.2051 44.2675 65.4573 43.2602C63.7095 42.2529 63.1113 40.023 64.1211 38.2796L76.7914 16.4052C77.8013 14.6618 80.0368 14.0651 81.7846 15.0724Z" fill="url(#paint2_linear)"/>
<path fill-rule="evenodd" clip-rule="evenodd" d="M0.768377 1.82546C1.77709 0.0814148 4.0122 -0.516743 5.76064 0.489437L69.1124 36.9467C70.8608 37.9529 71.4605 40.1824 70.4517 41.9264C69.443 43.6705 67.2079 44.2686 65.4595 43.2624L2.10777 6.80519C0.359327 5.79901 -0.240337 3.56951 0.768377 1.82546Z" fill="url(#paint3_linear)"/>
<defs>
<linearGradient id="paint0_linear" x1="3.87262" y1="3.70734" x2="16.6044" y2="54.7626" gradientUnits="userSpaceOnUse">
<stop offset="0.0806723" stop-color="white"/>
<stop offset="0.927171" stop-color="white"/>
</linearGradient>
<linearGradient id="paint1_linear" x1="80.017" y1="18.2899" x2="16.745" y2="54.8849" gradientUnits="userSpaceOnUse">
<stop stop-color="#403DDF"/>
<stop offset="0.826693" stop-color="white"/>
</linearGradient>
<linearGradient id="paint2_linear" x1="80.017" y1="18.2899" x2="67.3944" y2="40.1917" gradientUnits="userSpaceOnUse">
<stop stop-color="#403DDF"/>
<stop offset="0.760417" stop-color="white"/>
</linearGradient>
<linearGradient id="paint3_linear" x1="3.87329" y1="3.70808" x2="67.2672" y2="40.3032" gradientUnits="userSpaceOnUse">
<stop offset="0.0572917" stop-color="white"/>
<stop offset="0.967499" stop-color="white"/>
</linearGradient>
</defs>
</svg>
