<svg width="1217" height="783" viewBox="0 0 1217 783" fill="none" xmlns="http://www.w3.org/2000/svg">
<g opacity="0.8">
<path d="M486.3 653.015C508.469 669.48 539.787 664.855 556.252 642.686C572.716 620.517 568.092 589.198 545.923 572.734L486.3 653.015ZM139.236 270.696C117.067 254.232 85.7487 258.856 69.2842 281.025C52.8197 303.194 57.4442 334.513 79.6132 350.978L139.236 270.696ZM545.923 572.734L139.236 270.696L79.6132 350.978L486.3 653.015L545.923 572.734Z" fill="url(#paint0_linear)"/>
<path d="M560.913 590.673C573.175 615.416 563.057 645.414 538.314 657.675C513.571 669.937 483.573 659.819 471.312 635.076L560.913 590.673ZM164.177 15.2965C151.915 -9.44628 162.033 -39.4441 186.776 -51.7055C211.519 -63.9669 241.517 -53.8488 253.778 -29.106L164.177 15.2965ZM471.312 635.076L164.177 15.2965L253.778 -29.106L560.913 590.673L471.312 635.076Z" fill="url(#paint1_linear)"/>
<path d="M245.92 -40.5978C227.312 -61.0008 195.687 -62.4559 175.284 -43.8477C154.881 -25.2396 153.426 6.38519 172.034 26.7882L245.92 -40.5978ZM396.409 272.806C415.017 293.209 446.642 294.664 467.045 276.055C487.448 257.447 488.903 225.823 470.295 205.42L396.409 272.806ZM172.034 26.7882L396.409 272.806L470.295 205.42L245.92 -40.5978L172.034 26.7882Z" fill="#403DDF"/>
<path d="M433.352 239.112L574.626 109.811" stroke="url(#paint2_linear)" stroke-width="100" stroke-linecap="round"/>
<path d="M757.279 167.389L1039.83 -91.2169" stroke="url(#paint3_linear)" stroke-width="100" stroke-linecap="round"/>
<path d="M575.286 110.131L757.939 167.708" stroke="url(#paint4_linear)" stroke-width="100" stroke-linecap="round"/>
</g>
<defs>
<linearGradient id="paint0_linear" x1="111.327" y1="312.049" x2="588.017" y2="655.304" gradientUnits="userSpaceOnUse">
<stop offset="0.0784257"/>
<stop offset="1" stop-color="#403DDF"/>
</linearGradient>
<linearGradient id="paint1_linear" x1="64.1836" y1="-302.45" x2="518.013" y2="614.086" gradientUnits="userSpaceOnUse">
<stop/>
<stop offset="1" stop-color="#403DDF"/>
</linearGradient>
<linearGradient id="paint2_linear" x1="432.14" y1="241.015" x2="661.484" y2="29.806" gradientUnits="userSpaceOnUse">
<stop stop-color="#403DDF"/>
<stop offset="0.615156" stop-color="#1C1B63"/>
</linearGradient>
<linearGradient id="paint3_linear" x1="1060.72" y1="-117.066" x2="761.314" y2="166.143" gradientUnits="userSpaceOnUse">
<stop/>
<stop offset="0.914628" stop-color="#403DDF"/>
</linearGradient>
<linearGradient id="paint4_linear" x1="576.527" y1="113.072" x2="757.054" y2="163.751" gradientUnits="userSpaceOnUse">
<stop stop-color="#23227B"/>
<stop offset="1" stop-color="#403DDF"/>
</linearGradient>
</defs>
</svg>
