<svg width="36" height="40" viewBox="0 0 36 40" fill="none" xmlns="http://www.w3.org/2000/svg">
<path d="M33.3504 32.0043L20.8224 39.2824C19.152 40.2392 17.0784 40.2392 15.408 39.2824L2.7648 32.0043C1.0656 31.0475 0 29.2207 0 27.278V12.722C0 10.7793 1.0944 8.95252 2.7648 7.99565L15.2928 0.717651C16.9632 -0.239217 19.0368 -0.239217 20.7072 0.717651L33.2352 7.99565C34.9344 8.95252 36 10.7793 36 12.722V27.394C36 29.2207 35.0208 31.0475 33.3504 32.0043Z" fill="url(#paint0_radial)"/>
<path d="M2.99525 20.3769C3.20202 20.3769 3.36965 20.2082 3.36965 20C3.36965 19.7918 3.20202 19.623 2.99525 19.623C2.78847 19.623 2.62085 19.7918 2.62085 20C2.62085 20.2082 2.78847 20.3769 2.99525 20.3769Z" fill="url(#paint1_radial)"/>
<path d="M5.41444 20.3769C5.62122 20.3769 5.78884 20.2082 5.78884 20C5.78884 19.7918 5.62122 19.623 5.41444 19.623C5.20766 19.623 5.04004 19.7918 5.04004 20C5.04004 20.2082 5.20766 20.3769 5.41444 20.3769Z" fill="url(#paint2_radial)"/>
<path d="M8.06398 20.3769C8.27075 20.3769 8.43838 20.2082 8.43838 20C8.43838 19.7918 8.27075 19.623 8.06398 19.623C7.8572 19.623 7.68958 19.7918 7.68958 20C7.68958 20.2082 7.8572 20.3769 8.06398 20.3769Z" fill="url(#paint3_radial)"/>
<path d="M10.4544 20.3769C10.6611 20.3769 10.8288 20.2082 10.8288 20C10.8288 19.7918 10.6611 19.623 10.4544 19.623C10.2476 19.623 10.08 19.7918 10.08 20C10.08 20.2082 10.2476 20.3769 10.4544 20.3769Z" fill="url(#paint4_radial)"/>
<path d="M12.9888 20.3769C13.1956 20.3769 13.3632 20.2082 13.3632 20C13.3632 19.7918 13.1956 19.623 12.9888 19.623C12.782 19.623 12.6144 19.7918 12.6144 20C12.6144 20.2082 12.782 20.3769 12.9888 20.3769Z" fill="url(#paint5_radial)"/>
<path d="M15.5232 20.3769C15.73 20.3769 15.8976 20.2082 15.8976 20C15.8976 19.7918 15.73 19.623 15.5232 19.623C15.3164 19.623 15.1488 19.7918 15.1488 20C15.1488 20.2082 15.3164 20.3769 15.5232 20.3769Z" fill="url(#paint6_radial)"/>
<path d="M18.0576 20.3769C18.2644 20.3769 18.432 20.2082 18.432 20C18.432 19.7918 18.2644 19.623 18.0576 19.623C17.8509 19.623 17.6832 19.7918 17.6832 20C17.6832 20.2082 17.8509 20.3769 18.0576 20.3769Z" fill="url(#paint7_radial)"/>
<path d="M20.5919 20.3769C20.7987 20.3769 20.9663 20.2082 20.9663 20C20.9663 19.7918 20.7987 19.623 20.5919 19.623C20.3852 19.623 20.2175 19.7918 20.2175 20C20.2175 20.2082 20.3852 20.3769 20.5919 20.3769Z" fill="url(#paint8_radial)"/>
<path d="M22.9824 20.3769C23.1892 20.3769 23.3568 20.2082 23.3568 20C23.3568 19.7918 23.1892 19.623 22.9824 19.623C22.7757 19.623 22.608 19.7918 22.608 20C22.608 20.2082 22.7757 20.3769 22.9824 20.3769Z" fill="url(#paint9_radial)"/>
<path d="M25.632 20.3769C25.8387 20.3769 26.0064 20.2082 26.0064 20C26.0064 19.7918 25.8387 19.623 25.632 19.623C25.4252 19.623 25.2576 19.7918 25.2576 20C25.2576 20.2082 25.4252 20.3769 25.632 20.3769Z" fill="url(#paint10_radial)"/>
<path d="M28.0512 20.3769C28.2579 20.3769 28.4256 20.2082 28.4256 20C28.4256 19.7918 28.2579 19.623 28.0512 19.623C27.8444 19.623 27.6768 19.7918 27.6768 20C27.6768 20.2082 27.8444 20.3769 28.0512 20.3769Z" fill="url(#paint11_radial)"/>
<path d="M30.5568 20.3769C30.7635 20.3769 30.9312 20.2082 30.9312 20C30.9312 19.7918 30.7635 19.623 30.5568 19.623C30.35 19.623 30.1824 19.7918 30.1824 20C30.1824 20.2082 30.35 20.3769 30.5568 20.3769Z" fill="url(#paint12_radial)"/>
<path d="M33.0912 20.3769C33.298 20.3769 33.4656 20.2082 33.4656 20C33.4656 19.7918 33.298 19.623 33.0912 19.623C32.8844 19.623 32.7168 19.7918 32.7168 20C32.7168 20.2082 32.8844 20.3769 33.0912 20.3769Z" fill="url(#paint13_radial)"/>
<path d="M2.99525 22.9287C3.20202 22.9287 3.36965 22.7599 3.36965 22.5517C3.36965 22.3436 3.20202 22.1748 2.99525 22.1748C2.78847 22.1748 2.62085 22.3436 2.62085 22.5517C2.62085 22.7599 2.78847 22.9287 2.99525 22.9287Z" fill="url(#paint14_radial)"/>
<path d="M5.41444 22.9287C5.62122 22.9287 5.78884 22.7599 5.78884 22.5517C5.78884 22.3436 5.62122 22.1748 5.41444 22.1748C5.20766 22.1748 5.04004 22.3436 5.04004 22.5517C5.04004 22.7599 5.20766 22.9287 5.41444 22.9287Z" fill="url(#paint15_radial)"/>
<path d="M8.06398 22.9287C8.27075 22.9287 8.43838 22.7599 8.43838 22.5517C8.43838 22.3436 8.27075 22.1748 8.06398 22.1748C7.8572 22.1748 7.68958 22.3436 7.68958 22.5517C7.68958 22.7599 7.8572 22.9287 8.06398 22.9287Z" fill="url(#paint16_radial)"/>
<path d="M10.4544 22.9287C10.6611 22.9287 10.8288 22.7599 10.8288 22.5517C10.8288 22.3436 10.6611 22.1748 10.4544 22.1748C10.2476 22.1748 10.08 22.3436 10.08 22.5517C10.08 22.7599 10.2476 22.9287 10.4544 22.9287Z" fill="url(#paint17_radial)"/>
<path d="M12.9888 22.9287C13.1956 22.9287 13.3632 22.7599 13.3632 22.5517C13.3632 22.3436 13.1956 22.1748 12.9888 22.1748C12.782 22.1748 12.6144 22.3436 12.6144 22.5517C12.6144 22.7599 12.782 22.9287 12.9888 22.9287Z" fill="url(#paint18_radial)"/>
<path d="M15.5232 22.9287C15.73 22.9287 15.8976 22.7599 15.8976 22.5517C15.8976 22.3436 15.73 22.1748 15.5232 22.1748C15.3164 22.1748 15.1488 22.3436 15.1488 22.5517C15.1488 22.7599 15.3164 22.9287 15.5232 22.9287Z" fill="url(#paint19_radial)"/>
<path d="M18.0576 22.9287C18.2644 22.9287 18.432 22.7599 18.432 22.5517C18.432 22.3436 18.2644 22.1748 18.0576 22.1748C17.8509 22.1748 17.6832 22.3436 17.6832 22.5517C17.6832 22.7599 17.8509 22.9287 18.0576 22.9287Z" fill="url(#paint20_radial)"/>
<path d="M20.5919 22.9287C20.7987 22.9287 20.9663 22.7599 20.9663 22.5517C20.9663 22.3436 20.7987 22.1748 20.5919 22.1748C20.3852 22.1748 20.2175 22.3436 20.2175 22.5517C20.2175 22.7599 20.3852 22.9287 20.5919 22.9287Z" fill="url(#paint21_radial)"/>
<path d="M22.9824 22.9287C23.1892 22.9287 23.3568 22.7599 23.3568 22.5517C23.3568 22.3436 23.1892 22.1748 22.9824 22.1748C22.7757 22.1748 22.608 22.3436 22.608 22.5517C22.608 22.7599 22.7757 22.9287 22.9824 22.9287Z" fill="url(#paint22_radial)"/>
<path d="M25.632 22.9287C25.8387 22.9287 26.0064 22.7599 26.0064 22.5517C26.0064 22.3436 25.8387 22.1748 25.632 22.1748C25.4252 22.1748 25.2576 22.3436 25.2576 22.5517C25.2576 22.7599 25.4252 22.9287 25.632 22.9287Z" fill="url(#paint23_radial)"/>
<path d="M28.0512 22.9287C28.2579 22.9287 28.4256 22.7599 28.4256 22.5517C28.4256 22.3436 28.2579 22.1748 28.0512 22.1748C27.8444 22.1748 27.6768 22.3436 27.6768 22.5517C27.6768 22.7599 27.8444 22.9287 28.0512 22.9287Z" fill="url(#paint24_radial)"/>
<path d="M30.5568 22.9287C30.7635 22.9287 30.9312 22.7599 30.9312 22.5517C30.9312 22.3436 30.7635 22.1748 30.5568 22.1748C30.35 22.1748 30.1824 22.3436 30.1824 22.5517C30.1824 22.7599 30.35 22.9287 30.5568 22.9287Z" fill="url(#paint25_radial)"/>
<path d="M33.0912 22.9287C33.298 22.9287 33.4656 22.7599 33.4656 22.5517C33.4656 22.3436 33.298 22.1748 33.0912 22.1748C32.8844 22.1748 32.7168 22.3436 32.7168 22.5517C32.7168 22.7599 32.8844 22.9287 33.0912 22.9287Z" fill="url(#paint26_radial)"/>
<path d="M2.99525 25.3643C3.20202 25.3643 3.36965 25.1955 3.36965 24.9873C3.36965 24.7791 3.20202 24.6104 2.99525 24.6104C2.78847 24.6104 2.62085 24.7791 2.62085 24.9873C2.62085 25.1955 2.78847 25.3643 2.99525 25.3643Z" fill="url(#paint27_radial)"/>
<path d="M5.41444 25.3643C5.62122 25.3643 5.78884 25.1955 5.78884 24.9873C5.78884 24.7791 5.62122 24.6104 5.41444 24.6104C5.20766 24.6104 5.04004 24.7791 5.04004 24.9873C5.04004 25.1955 5.20766 25.3643 5.41444 25.3643Z" fill="url(#paint28_radial)"/>
<path d="M8.06398 25.3643C8.27075 25.3643 8.43838 25.1955 8.43838 24.9873C8.43838 24.7791 8.27075 24.6104 8.06398 24.6104C7.8572 24.6104 7.68958 24.7791 7.68958 24.9873C7.68958 25.1955 7.8572 25.3643 8.06398 25.3643Z" fill="url(#paint29_radial)"/>
<path d="M10.4544 25.3643C10.6611 25.3643 10.8288 25.1955 10.8288 24.9873C10.8288 24.7791 10.6611 24.6104 10.4544 24.6104C10.2476 24.6104 10.08 24.7791 10.08 24.9873C10.08 25.1955 10.2476 25.3643 10.4544 25.3643Z" fill="url(#paint30_radial)"/>
<path d="M12.9888 25.3643C13.1956 25.3643 13.3632 25.1955 13.3632 24.9873C13.3632 24.7791 13.1956 24.6104 12.9888 24.6104C12.782 24.6104 12.6144 24.7791 12.6144 24.9873C12.6144 25.1955 12.782 25.3643 12.9888 25.3643Z" fill="url(#paint31_radial)"/>
<path d="M15.5232 25.3643C15.73 25.3643 15.8976 25.1955 15.8976 24.9873C15.8976 24.7791 15.73 24.6104 15.5232 24.6104C15.3164 24.6104 15.1488 24.7791 15.1488 24.9873C15.1488 25.1955 15.3164 25.3643 15.5232 25.3643Z" fill="url(#paint32_radial)"/>
<path d="M18.0576 25.3643C18.2644 25.3643 18.432 25.1955 18.432 24.9873C18.432 24.7791 18.2644 24.6104 18.0576 24.6104C17.8509 24.6104 17.6832 24.7791 17.6832 24.9873C17.6832 25.1955 17.8509 25.3643 18.0576 25.3643Z" fill="url(#paint33_radial)"/>
<path d="M20.5919 25.3643C20.7987 25.3643 20.9663 25.1955 20.9663 24.9873C20.9663 24.7791 20.7987 24.6104 20.5919 24.6104C20.3852 24.6104 20.2175 24.7791 20.2175 24.9873C20.2175 25.1955 20.3852 25.3643 20.5919 25.3643Z" fill="url(#paint34_radial)"/>
<path d="M22.9824 25.3643C23.1892 25.3643 23.3568 25.1955 23.3568 24.9873C23.3568 24.7791 23.1892 24.6104 22.9824 24.6104C22.7757 24.6104 22.608 24.7791 22.608 24.9873C22.608 25.1955 22.7757 25.3643 22.9824 25.3643Z" fill="url(#paint35_radial)"/>
<path d="M25.632 25.3643C25.8387 25.3643 26.0064 25.1955 26.0064 24.9873C26.0064 24.7791 25.8387 24.6104 25.632 24.6104C25.4252 24.6104 25.2576 24.7791 25.2576 24.9873C25.2576 25.1955 25.4252 25.3643 25.632 25.3643Z" fill="url(#paint36_radial)"/>
<path d="M28.0512 25.3643C28.2579 25.3643 28.4256 25.1955 28.4256 24.9873C28.4256 24.7791 28.2579 24.6104 28.0512 24.6104C27.8444 24.6104 27.6768 24.7791 27.6768 24.9873C27.6768 25.1955 27.8444 25.3643 28.0512 25.3643Z" fill="url(#paint37_radial)"/>
<path d="M30.5568 25.3643C30.7635 25.3643 30.9312 25.1955 30.9312 24.9873C30.9312 24.7791 30.7635 24.6104 30.5568 24.6104C30.35 24.6104 30.1824 24.7791 30.1824 24.9873C30.1824 25.1955 30.35 25.3643 30.5568 25.3643Z" fill="url(#paint38_radial)"/>
<path d="M33.0912 25.3643C33.298 25.3643 33.4656 25.1955 33.4656 24.9873C33.4656 24.7791 33.298 24.6104 33.0912 24.6104C32.8844 24.6104 32.7168 24.7791 32.7168 24.9873C32.7168 25.1955 32.8844 25.3643 33.0912 25.3643Z" fill="url(#paint39_radial)"/>
<path d="M2.99525 17.7095C3.20202 17.7095 3.36965 17.5407 3.36965 17.3325C3.36965 17.1243 3.20202 16.9556 2.99525 16.9556C2.78847 16.9556 2.62085 17.1243 2.62085 17.3325C2.62085 17.5407 2.78847 17.7095 2.99525 17.7095Z" fill="url(#paint40_radial)"/>
<path d="M5.41444 17.7095C5.62122 17.7095 5.78884 17.5407 5.78884 17.3325C5.78884 17.1243 5.62122 16.9556 5.41444 16.9556C5.20766 16.9556 5.04004 17.1243 5.04004 17.3325C5.04004 17.5407 5.20766 17.7095 5.41444 17.7095Z" fill="url(#paint41_radial)"/>
<path d="M8.06398 17.7095C8.27075 17.7095 8.43838 17.5407 8.43838 17.3325C8.43838 17.1243 8.27075 16.9556 8.06398 16.9556C7.8572 16.9556 7.68958 17.1243 7.68958 17.3325C7.68958 17.5407 7.8572 17.7095 8.06398 17.7095Z" fill="url(#paint42_radial)"/>
<path d="M10.4544 17.7095C10.6611 17.7095 10.8288 17.5407 10.8288 17.3325C10.8288 17.1243 10.6611 16.9556 10.4544 16.9556C10.2476 16.9556 10.08 17.1243 10.08 17.3325C10.08 17.5407 10.2476 17.7095 10.4544 17.7095Z" fill="url(#paint43_radial)"/>
<path d="M12.9888 17.7095C13.1956 17.7095 13.3632 17.5407 13.3632 17.3325C13.3632 17.1243 13.1956 16.9556 12.9888 16.9556C12.782 16.9556 12.6144 17.1243 12.6144 17.3325C12.6144 17.5407 12.782 17.7095 12.9888 17.7095Z" fill="url(#paint44_radial)"/>
<path d="M15.5232 17.7095C15.73 17.7095 15.8976 17.5407 15.8976 17.3325C15.8976 17.1243 15.73 16.9556 15.5232 16.9556C15.3164 16.9556 15.1488 17.1243 15.1488 17.3325C15.1488 17.5407 15.3164 17.7095 15.5232 17.7095Z" fill="url(#paint45_radial)"/>
<path d="M18.0576 17.7095C18.2644 17.7095 18.432 17.5407 18.432 17.3325C18.432 17.1243 18.2644 16.9556 18.0576 16.9556C17.8509 16.9556 17.6832 17.1243 17.6832 17.3325C17.6832 17.5407 17.8509 17.7095 18.0576 17.7095Z" fill="url(#paint46_radial)"/>
<path d="M20.5919 17.7095C20.7987 17.7095 20.9663 17.5407 20.9663 17.3325C20.9663 17.1243 20.7987 16.9556 20.5919 16.9556C20.3852 16.9556 20.2175 17.1243 20.2175 17.3325C20.2175 17.5407 20.3852 17.7095 20.5919 17.7095Z" fill="url(#paint47_radial)"/>
<path d="M22.9824 17.7095C23.1892 17.7095 23.3568 17.5407 23.3568 17.3325C23.3568 17.1243 23.1892 16.9556 22.9824 16.9556C22.7757 16.9556 22.608 17.1243 22.608 17.3325C22.608 17.5407 22.7757 17.7095 22.9824 17.7095Z" fill="url(#paint48_radial)"/>
<path d="M25.632 17.7095C25.8387 17.7095 26.0064 17.5407 26.0064 17.3325C26.0064 17.1243 25.8387 16.9556 25.632 16.9556C25.4252 16.9556 25.2576 17.1243 25.2576 17.3325C25.2576 17.5407 25.4252 17.7095 25.632 17.7095Z" fill="url(#paint49_radial)"/>
<path d="M28.0512 17.7095C28.2579 17.7095 28.4256 17.5407 28.4256 17.3325C28.4256 17.1243 28.2579 16.9556 28.0512 16.9556C27.8444 16.9556 27.6768 17.1243 27.6768 17.3325C27.6768 17.5407 27.8444 17.7095 28.0512 17.7095Z" fill="url(#paint50_radial)"/>
<path d="M30.5568 17.7095C30.7635 17.7095 30.9312 17.5407 30.9312 17.3325C30.9312 17.1243 30.7635 16.9556 30.5568 16.9556C30.35 16.9556 30.1824 17.1243 30.1824 17.3325C30.1824 17.5407 30.35 17.7095 30.5568 17.7095Z" fill="url(#paint51_radial)"/>
<path d="M33.0912 17.7095C33.298 17.7095 33.4656 17.5407 33.4656 17.3325C33.4656 17.1243 33.298 16.9556 33.0912 16.9556C32.8844 16.9556 32.7168 17.1243 32.7168 17.3325C32.7168 17.5407 32.8844 17.7095 33.0912 17.7095Z" fill="url(#paint52_radial)"/>
<path d="M2.99525 15.3027C3.20202 15.3027 3.36965 15.134 3.36965 14.9258C3.36965 14.7176 3.20202 14.5488 2.99525 14.5488C2.78847 14.5488 2.62085 14.7176 2.62085 14.9258C2.62085 15.134 2.78847 15.3027 2.99525 15.3027Z" fill="url(#paint53_radial)"/>
<path d="M5.41444 15.3027C5.62122 15.3027 5.78884 15.134 5.78884 14.9258C5.78884 14.7176 5.62122 14.5488 5.41444 14.5488C5.20766 14.5488 5.04004 14.7176 5.04004 14.9258C5.04004 15.134 5.20766 15.3027 5.41444 15.3027Z" fill="url(#paint54_radial)"/>
<path d="M5.41444 12.751C5.62122 12.751 5.78884 12.5822 5.78884 12.374C5.78884 12.1658 5.62122 11.9971 5.41444 11.9971C5.20766 11.9971 5.04004 12.1658 5.04004 12.374C5.04004 12.5822 5.20766 12.751 5.41444 12.751Z" fill="url(#paint55_radial)"/>
<path d="M5.41444 10.3154C5.62122 10.3154 5.78884 10.1467 5.78884 9.93847C5.78884 9.73029 5.62122 9.56152 5.41444 9.56152C5.20766 9.56152 5.04004 9.73029 5.04004 9.93847C5.04004 10.1467 5.20766 10.3154 5.41444 10.3154Z" fill="url(#paint56_radial)"/>
<path d="M8.06398 12.751C8.27075 12.751 8.43838 12.5822 8.43838 12.374C8.43838 12.1658 8.27075 11.9971 8.06398 11.9971C7.8572 11.9971 7.68958 12.1658 7.68958 12.374C7.68958 12.5822 7.8572 12.751 8.06398 12.751Z" fill="url(#paint57_radial)"/>
<path d="M8.06398 10.3154C8.27075 10.3154 8.43838 10.1467 8.43838 9.93847C8.43838 9.73029 8.27075 9.56152 8.06398 9.56152C7.8572 9.56152 7.68958 9.73029 7.68958 9.93847C7.68958 10.1467 7.8572 10.3154 8.06398 10.3154Z" fill="url(#paint58_radial)"/>
<path d="M10.4544 12.751C10.6611 12.751 10.8288 12.5822 10.8288 12.374C10.8288 12.1658 10.6611 11.9971 10.4544 11.9971C10.2476 11.9971 10.08 12.1658 10.08 12.374C10.08 12.5822 10.2476 12.751 10.4544 12.751Z" fill="url(#paint59_radial)"/>
<path d="M10.4544 10.3154C10.6611 10.3154 10.8288 10.1467 10.8288 9.93847C10.8288 9.73029 10.6611 9.56152 10.4544 9.56152C10.2476 9.56152 10.08 9.73029 10.08 9.93847C10.08 10.1467 10.2476 10.3154 10.4544 10.3154Z" fill="url(#paint60_radial)"/>
<path d="M12.9888 12.751C13.1956 12.751 13.3632 12.5822 13.3632 12.374C13.3632 12.1658 13.1956 11.9971 12.9888 11.9971C12.782 11.9971 12.6144 12.1658 12.6144 12.374C12.6144 12.5822 12.782 12.751 12.9888 12.751Z" fill="url(#paint61_radial)"/>
<path d="M12.9888 10.3154C13.1956 10.3154 13.3632 10.1467 13.3632 9.93847C13.3632 9.73029 13.1956 9.56152 12.9888 9.56152C12.782 9.56152 12.6144 9.73029 12.6144 9.93847C12.6144 10.1467 12.782 10.3154 12.9888 10.3154Z" fill="url(#paint62_radial)"/>
<path d="M15.5232 12.751C15.73 12.751 15.8976 12.5822 15.8976 12.374C15.8976 12.1658 15.73 11.9971 15.5232 11.9971C15.3164 11.9971 15.1488 12.1658 15.1488 12.374C15.1488 12.5822 15.3164 12.751 15.5232 12.751Z" fill="url(#paint63_radial)"/>
<path d="M15.5232 10.3154C15.73 10.3154 15.8976 10.1467 15.8976 9.93847C15.8976 9.73029 15.73 9.56152 15.5232 9.56152C15.3164 9.56152 15.1488 9.73029 15.1488 9.93847C15.1488 10.1467 15.3164 10.3154 15.5232 10.3154Z" fill="url(#paint64_radial)"/>
<path d="M18.0576 12.751C18.2644 12.751 18.432 12.5822 18.432 12.374C18.432 12.1658 18.2644 11.9971 18.0576 11.9971C17.8509 11.9971 17.6832 12.1658 17.6832 12.374C17.6832 12.5822 17.8509 12.751 18.0576 12.751Z" fill="url(#paint65_radial)"/>
<path d="M18.0576 10.3154C18.2644 10.3154 18.432 10.1467 18.432 9.93847C18.432 9.73029 18.2644 9.56152 18.0576 9.56152C17.8509 9.56152 17.6832 9.73029 17.6832 9.93847C17.6832 10.1467 17.8509 10.3154 18.0576 10.3154Z" fill="url(#paint66_radial)"/>
<path d="M20.5919 12.751C20.7987 12.751 20.9663 12.5822 20.9663 12.374C20.9663 12.1658 20.7987 11.9971 20.5919 11.9971C20.3852 11.9971 20.2175 12.1658 20.2175 12.374C20.2175 12.5822 20.3852 12.751 20.5919 12.751Z" fill="url(#paint67_radial)"/>
<path d="M20.5919 10.3154C20.7987 10.3154 20.9663 10.1467 20.9663 9.93847C20.9663 9.73029 20.7987 9.56152 20.5919 9.56152C20.3852 9.56152 20.2175 9.73029 20.2175 9.93847C20.2175 10.1467 20.3852 10.3154 20.5919 10.3154Z" fill="url(#paint68_radial)"/>
<path d="M22.9824 12.751C23.1892 12.751 23.3568 12.5822 23.3568 12.374C23.3568 12.1658 23.1892 11.9971 22.9824 11.9971C22.7757 11.9971 22.608 12.1658 22.608 12.374C22.608 12.5822 22.7757 12.751 22.9824 12.751Z" fill="url(#paint69_radial)"/>
<path d="M22.9824 10.3154C23.1892 10.3154 23.3568 10.1467 23.3568 9.93847C23.3568 9.73029 23.1892 9.56152 22.9824 9.56152C22.7757 9.56152 22.608 9.73029 22.608 9.93847C22.608 10.1467 22.7757 10.3154 22.9824 10.3154Z" fill="url(#paint70_radial)"/>
<path d="M25.632 12.751C25.8387 12.751 26.0064 12.5822 26.0064 12.374C26.0064 12.1658 25.8387 11.9971 25.632 11.9971C25.4252 11.9971 25.2576 12.1658 25.2576 12.374C25.2576 12.5822 25.4252 12.751 25.632 12.751Z" fill="url(#paint71_radial)"/>
<path d="M25.632 10.3154C25.8387 10.3154 26.0064 10.1467 26.0064 9.93847C26.0064 9.73029 25.8387 9.56152 25.632 9.56152C25.4252 9.56152 25.2576 9.73029 25.2576 9.93847C25.2576 10.1467 25.4252 10.3154 25.632 10.3154Z" fill="url(#paint72_radial)"/>
<path d="M28.0512 12.751C28.2579 12.751 28.4256 12.5822 28.4256 12.374C28.4256 12.1658 28.2579 11.9971 28.0512 11.9971C27.8444 11.9971 27.6768 12.1658 27.6768 12.374C27.6768 12.5822 27.8444 12.751 28.0512 12.751Z" fill="url(#paint73_radial)"/>
<path d="M28.0512 10.3154C28.2579 10.3154 28.4256 10.1467 28.4256 9.93847C28.4256 9.73029 28.2579 9.56152 28.0512 9.56152C27.8444 9.56152 27.6768 9.73029 27.6768 9.93847C27.6768 10.1467 27.8444 10.3154 28.0512 10.3154Z" fill="url(#paint74_radial)"/>
<path d="M8.06398 7.67675C8.27075 7.67675 8.43838 7.50799 8.43838 7.2998C8.43838 7.09162 8.27075 6.92285 8.06398 6.92285C7.8572 6.92285 7.68958 7.09162 7.68958 7.2998C7.68958 7.50799 7.8572 7.67675 8.06398 7.67675Z" fill="url(#paint75_radial)"/>
<path d="M10.4544 7.67675C10.6611 7.67675 10.8288 7.50799 10.8288 7.2998C10.8288 7.09162 10.6611 6.92285 10.4544 6.92285C10.2476 6.92285 10.08 7.09162 10.08 7.2998C10.08 7.50799 10.2476 7.67675 10.4544 7.67675Z" fill="url(#paint76_radial)"/>
<path d="M12.9888 7.67675C13.1956 7.67675 13.3632 7.50799 13.3632 7.2998C13.3632 7.09162 13.1956 6.92285 12.9888 6.92285C12.782 6.92285 12.6144 7.09162 12.6144 7.2998C12.6144 7.50799 12.782 7.67675 12.9888 7.67675Z" fill="url(#paint77_radial)"/>
<path d="M15.5232 7.67675C15.73 7.67675 15.8976 7.50799 15.8976 7.2998C15.8976 7.09162 15.73 6.92285 15.5232 6.92285C15.3164 6.92285 15.1488 7.09162 15.1488 7.2998C15.1488 7.50799 15.3164 7.67675 15.5232 7.67675Z" fill="url(#paint78_radial)"/>
<path d="M18.0576 7.67675C18.2644 7.67675 18.432 7.50799 18.432 7.2998C18.432 7.09162 18.2644 6.92285 18.0576 6.92285C17.8509 6.92285 17.6832 7.09162 17.6832 7.2998C17.6832 7.50799 17.8509 7.67675 18.0576 7.67675Z" fill="url(#paint79_radial)"/>
<path d="M20.5919 7.67675C20.7987 7.67675 20.9663 7.50799 20.9663 7.2998C20.9663 7.09162 20.7987 6.92285 20.5919 6.92285C20.3852 6.92285 20.2175 7.09162 20.2175 7.2998C20.2175 7.50799 20.3852 7.67675 20.5919 7.67675Z" fill="url(#paint80_radial)"/>
<path d="M22.9824 7.67675C23.1892 7.67675 23.3568 7.50799 23.3568 7.2998C23.3568 7.09162 23.1892 6.92285 22.9824 6.92285C22.7757 6.92285 22.608 7.09162 22.608 7.2998C22.608 7.50799 22.7757 7.67675 22.9824 7.67675Z" fill="url(#paint81_radial)"/>
<path d="M12.9888 5.24096C13.1956 5.24096 13.3632 5.07219 13.3632 4.86401C13.3632 4.65583 13.1956 4.48706 12.9888 4.48706C12.782 4.48706 12.6144 4.65583 12.6144 4.86401C12.6144 5.07219 12.782 5.24096 12.9888 5.24096Z" fill="url(#paint82_radial)"/>
<path d="M15.5232 5.24096C15.73 5.24096 15.8976 5.07219 15.8976 4.86401C15.8976 4.65583 15.73 4.48706 15.5232 4.48706C15.3164 4.48706 15.1488 4.65583 15.1488 4.86401C15.1488 5.07219 15.3164 5.24096 15.5232 5.24096Z" fill="url(#paint83_radial)"/>
<path d="M18.0576 5.24096C18.2644 5.24096 18.432 5.07219 18.432 4.86401C18.432 4.65583 18.2644 4.48706 18.0576 4.48706C17.8509 4.48706 17.6832 4.65583 17.6832 4.86401C17.6832 5.07219 17.8509 5.24096 18.0576 5.24096Z" fill="url(#paint84_radial)"/>
<path d="M20.5919 5.24096C20.7987 5.24096 20.9663 5.07219 20.9663 4.86401C20.9663 4.65583 20.7987 4.48706 20.5919 4.48706C20.3852 4.48706 20.2175 4.65583 20.2175 4.86401C20.2175 5.07219 20.3852 5.24096 20.5919 5.24096Z" fill="url(#paint85_radial)"/>
<path d="M22.9824 5.24096C23.1892 5.24096 23.3568 5.07219 23.3568 4.86401C23.3568 4.65583 23.1892 4.48706 22.9824 4.48706C22.7757 4.48706 22.608 4.65583 22.608 4.86401C22.608 5.07219 22.7757 5.24096 22.9824 5.24096Z" fill="url(#paint86_radial)"/>
<path d="M25.632 7.67675C25.8387 7.67675 26.0064 7.50799 26.0064 7.2998C26.0064 7.09162 25.8387 6.92285 25.632 6.92285C25.4252 6.92285 25.2576 7.09162 25.2576 7.2998C25.2576 7.50799 25.4252 7.67675 25.632 7.67675Z" fill="url(#paint87_radial)"/>
<path d="M28.0512 7.67675C28.2579 7.67675 28.4256 7.50799 28.4256 7.2998C28.4256 7.09162 28.2579 6.92285 28.0512 6.92285C27.8444 6.92285 27.6768 7.09162 27.6768 7.2998C27.6768 7.50799 27.8444 7.67675 28.0512 7.67675Z" fill="url(#paint88_radial)"/>
<path d="M30.5568 12.751C30.7635 12.751 30.9312 12.5822 30.9312 12.374C30.9312 12.1658 30.7635 11.9971 30.5568 11.9971C30.35 11.9971 30.1824 12.1658 30.1824 12.374C30.1824 12.5822 30.35 12.751 30.5568 12.751Z" fill="url(#paint89_radial)"/>
<path d="M30.5568 10.3154C30.7635 10.3154 30.9312 10.1467 30.9312 9.93847C30.9312 9.73029 30.7635 9.56152 30.5568 9.56152C30.35 9.56152 30.1824 9.73029 30.1824 9.93847C30.1824 10.1467 30.35 10.3154 30.5568 10.3154Z" fill="url(#paint90_radial)"/>
<path d="M30.5568 28.032C30.7635 28.032 30.9312 27.8632 30.9312 27.655C30.9312 27.4468 30.7635 27.2781 30.5568 27.2781C30.35 27.2781 30.1824 27.4468 30.1824 27.655C30.1824 27.8632 30.35 28.032 30.5568 28.032Z" fill="url(#paint91_radial)"/>
<path d="M30.5568 30.4385C30.7635 30.4385 30.9312 30.2697 30.9312 30.0615C30.9312 29.8533 30.7635 29.6846 30.5568 29.6846C30.35 29.6846 30.1824 29.8533 30.1824 30.0615C30.1824 30.2697 30.35 30.4385 30.5568 30.4385Z" fill="url(#paint92_radial)"/>
<path d="M27.936 28.032C28.1428 28.032 28.3104 27.8632 28.3104 27.655C28.3104 27.4468 28.1428 27.2781 27.936 27.2781C27.7293 27.2781 27.5616 27.4468 27.5616 27.655C27.5616 27.8632 27.7293 28.032 27.936 28.032Z" fill="url(#paint93_radial)"/>
<path d="M27.936 30.4385C28.1428 30.4385 28.3104 30.2697 28.3104 30.0615C28.3104 29.8533 28.1428 29.6846 27.936 29.6846C27.7293 29.6846 27.5616 29.8533 27.5616 30.0615C27.5616 30.2697 27.7293 30.4385 27.936 30.4385Z" fill="url(#paint94_radial)"/>
<path d="M25.5167 28.032C25.7235 28.032 25.8911 27.8632 25.8911 27.655C25.8911 27.4468 25.7235 27.2781 25.5167 27.2781C25.31 27.2781 25.1423 27.4468 25.1423 27.655C25.1423 27.8632 25.31 28.032 25.5167 28.032Z" fill="url(#paint95_radial)"/>
<path d="M25.5167 30.4385C25.7235 30.4385 25.8911 30.2697 25.8911 30.0615C25.8911 29.8533 25.7235 29.6846 25.5167 29.6846C25.31 29.6846 25.1423 29.8533 25.1423 30.0615C25.1423 30.2697 25.31 30.4385 25.5167 30.4385Z" fill="url(#paint96_radial)"/>
<path d="M22.9824 28.032C23.1892 28.032 23.3568 27.8632 23.3568 27.655C23.3568 27.4468 23.1892 27.2781 22.9824 27.2781C22.7757 27.2781 22.608 27.4468 22.608 27.655C22.608 27.8632 22.7757 28.032 22.9824 28.032Z" fill="url(#paint97_radial)"/>
<path d="M22.9824 30.4385C23.1892 30.4385 23.3568 30.2697 23.3568 30.0615C23.3568 29.8533 23.1892 29.6846 22.9824 29.6846C22.7757 29.6846 22.608 29.8533 22.608 30.0615C22.608 30.2697 22.7757 30.4385 22.9824 30.4385Z" fill="url(#paint98_radial)"/>
<path d="M20.448 28.032C20.6548 28.032 20.8224 27.8632 20.8224 27.655C20.8224 27.4468 20.6548 27.2781 20.448 27.2781C20.2412 27.2781 20.0736 27.4468 20.0736 27.655C20.0736 27.8632 20.2412 28.032 20.448 28.032Z" fill="url(#paint99_radial)"/>
<path d="M20.448 30.4385C20.6548 30.4385 20.8224 30.2697 20.8224 30.0615C20.8224 29.8533 20.6548 29.6846 20.448 29.6846C20.2412 29.6846 20.0736 29.8533 20.0736 30.0615C20.0736 30.2697 20.2412 30.4385 20.448 30.4385Z" fill="url(#paint100_radial)"/>
<path d="M17.9424 28.032C18.1492 28.032 18.3168 27.8632 18.3168 27.655C18.3168 27.4468 18.1492 27.2781 17.9424 27.2781C17.7356 27.2781 17.568 27.4468 17.568 27.655C17.568 27.8632 17.7356 28.032 17.9424 28.032Z" fill="url(#paint101_radial)"/>
<path d="M17.9424 30.4385C18.1492 30.4385 18.3168 30.2697 18.3168 30.0615C18.3168 29.8533 18.1492 29.6846 17.9424 29.6846C17.7356 29.6846 17.568 29.8533 17.568 30.0615C17.568 30.2697 17.7356 30.4385 17.9424 30.4385Z" fill="url(#paint102_radial)"/>
<path d="M15.5232 28.032C15.73 28.032 15.8976 27.8632 15.8976 27.655C15.8976 27.4468 15.73 27.2781 15.5232 27.2781C15.3164 27.2781 15.1488 27.4468 15.1488 27.655C15.1488 27.8632 15.3164 28.032 15.5232 28.032Z" fill="url(#paint103_radial)"/>
<path d="M15.5232 30.4385C15.73 30.4385 15.8976 30.2697 15.8976 30.0615C15.8976 29.8533 15.73 29.6846 15.5232 29.6846C15.3164 29.6846 15.1488 29.8533 15.1488 30.0615C15.1488 30.2697 15.3164 30.4385 15.5232 30.4385Z" fill="url(#paint104_radial)"/>
<path d="M12.9888 28.032C13.1956 28.032 13.3632 27.8632 13.3632 27.655C13.3632 27.4468 13.1956 27.2781 12.9888 27.2781C12.782 27.2781 12.6144 27.4468 12.6144 27.655C12.6144 27.8632 12.782 28.032 12.9888 28.032Z" fill="url(#paint105_radial)"/>
<path d="M12.9888 30.4385C13.1956 30.4385 13.3632 30.2697 13.3632 30.0615C13.3632 29.8533 13.1956 29.6846 12.9888 29.6846C12.782 29.6846 12.6144 29.8533 12.6144 30.0615C12.6144 30.2697 12.782 30.4385 12.9888 30.4385Z" fill="url(#paint106_radial)"/>
<path d="M10.4544 28.032C10.6611 28.032 10.8288 27.8632 10.8288 27.655C10.8288 27.4468 10.6611 27.2781 10.4544 27.2781C10.2476 27.2781 10.08 27.4468 10.08 27.655C10.08 27.8632 10.2476 28.032 10.4544 28.032Z" fill="url(#paint107_radial)"/>
<path d="M10.4544 30.4385C10.6611 30.4385 10.8288 30.2697 10.8288 30.0615C10.8288 29.8533 10.6611 29.6846 10.4544 29.6846C10.2476 29.6846 10.08 29.8533 10.08 30.0615C10.08 30.2697 10.2476 30.4385 10.4544 30.4385Z" fill="url(#paint108_radial)"/>
<path d="M7.94886 28.032C8.15564 28.032 8.32326 27.8632 8.32326 27.655C8.32326 27.4468 8.15564 27.2781 7.94886 27.2781C7.74209 27.2781 7.57446 27.4468 7.57446 27.655C7.57446 27.8632 7.74209 28.032 7.94886 28.032Z" fill="url(#paint109_radial)"/>
<path d="M7.94886 30.4385C8.15564 30.4385 8.32326 30.2697 8.32326 30.0615C8.32326 29.8533 8.15564 29.6846 7.94886 29.6846C7.74209 29.6846 7.57446 29.8533 7.57446 30.0615C7.57446 30.2697 7.74209 30.4385 7.94886 30.4385Z" fill="url(#paint110_radial)"/>
<path d="M27.936 33.1062C28.1428 33.1062 28.3104 32.9374 28.3104 32.7292C28.3104 32.5211 28.1428 32.3523 27.936 32.3523C27.7293 32.3523 27.5616 32.5211 27.5616 32.7292C27.5616 32.9374 27.7293 33.1062 27.936 33.1062Z" fill="url(#paint111_radial)"/>
<path d="M25.5167 33.1062C25.7235 33.1062 25.8911 32.9374 25.8911 32.7292C25.8911 32.5211 25.7235 32.3523 25.5167 32.3523C25.31 32.3523 25.1423 32.5211 25.1423 32.7292C25.1423 32.9374 25.31 33.1062 25.5167 33.1062Z" fill="url(#paint112_radial)"/>
<path d="M22.9824 33.1062C23.1892 33.1062 23.3568 32.9374 23.3568 32.7292C23.3568 32.5211 23.1892 32.3523 22.9824 32.3523C22.7757 32.3523 22.608 32.5211 22.608 32.7292C22.608 32.9374 22.7757 33.1062 22.9824 33.1062Z" fill="url(#paint113_radial)"/>
<path d="M20.448 33.1062C20.6548 33.1062 20.8224 32.9374 20.8224 32.7292C20.8224 32.5211 20.6548 32.3523 20.448 32.3523C20.2412 32.3523 20.0736 32.5211 20.0736 32.7292C20.0736 32.9374 20.2412 33.1062 20.448 33.1062Z" fill="url(#paint114_radial)"/>
<path d="M17.9424 33.1062C18.1492 33.1062 18.3168 32.9374 18.3168 32.7292C18.3168 32.5211 18.1492 32.3523 17.9424 32.3523C17.7356 32.3523 17.568 32.5211 17.568 32.7292C17.568 32.9374 17.7356 33.1062 17.9424 33.1062Z" fill="url(#paint115_radial)"/>
<path d="M15.5232 33.1062C15.73 33.1062 15.8976 32.9374 15.8976 32.7292C15.8976 32.5211 15.73 32.3523 15.5232 32.3523C15.3164 32.3523 15.1488 32.5211 15.1488 32.7292C15.1488 32.9374 15.3164 33.1062 15.5232 33.1062Z" fill="url(#paint116_radial)"/>
<path d="M12.9888 33.1062C13.1956 33.1062 13.3632 32.9374 13.3632 32.7292C13.3632 32.5211 13.1956 32.3523 12.9888 32.3523C12.782 32.3523 12.6144 32.5211 12.6144 32.7292C12.6144 32.9374 12.782 33.1062 12.9888 33.1062Z" fill="url(#paint117_radial)"/>
<path d="M22.9824 35.542C23.1892 35.542 23.3568 35.3732 23.3568 35.165C23.3568 34.9568 23.1892 34.7881 22.9824 34.7881C22.7757 34.7881 22.608 34.9568 22.608 35.165C22.608 35.3732 22.7757 35.542 22.9824 35.542Z" fill="url(#paint118_radial)"/>
<path d="M20.448 35.542C20.6548 35.542 20.8224 35.3732 20.8224 35.165C20.8224 34.9568 20.6548 34.7881 20.448 34.7881C20.2412 34.7881 20.0736 34.9568 20.0736 35.165C20.0736 35.3732 20.2412 35.542 20.448 35.542Z" fill="url(#paint119_radial)"/>
<path d="M17.9424 35.542C18.1492 35.542 18.3168 35.3732 18.3168 35.165C18.3168 34.9568 18.1492 34.7881 17.9424 34.7881C17.7356 34.7881 17.568 34.9568 17.568 35.165C17.568 35.3732 17.7356 35.542 17.9424 35.542Z" fill="url(#paint120_radial)"/>
<path d="M15.5232 35.542C15.73 35.542 15.8976 35.3732 15.8976 35.165C15.8976 34.9568 15.73 34.7881 15.5232 34.7881C15.3164 34.7881 15.1488 34.9568 15.1488 35.165C15.1488 35.3732 15.3164 35.542 15.5232 35.542Z" fill="url(#paint121_radial)"/>
<path d="M12.9888 35.542C13.1956 35.542 13.3632 35.3732 13.3632 35.165C13.3632 34.9568 13.1956 34.7881 12.9888 34.7881C12.782 34.7881 12.6144 34.9568 12.6144 35.165C12.6144 35.3732 12.782 35.542 12.9888 35.542Z" fill="url(#paint122_radial)"/>
<path d="M10.4544 33.1062C10.6611 33.1062 10.8288 32.9374 10.8288 32.7292C10.8288 32.5211 10.6611 32.3523 10.4544 32.3523C10.2476 32.3523 10.08 32.5211 10.08 32.7292C10.08 32.9374 10.2476 33.1062 10.4544 33.1062Z" fill="url(#paint123_radial)"/>
<path d="M7.94886 33.1062C8.15564 33.1062 8.32326 32.9374 8.32326 32.7292C8.32326 32.5211 8.15564 32.3523 7.94886 32.3523C7.74209 32.3523 7.57446 32.5211 7.57446 32.7292C7.57446 32.9374 7.74209 33.1062 7.94886 33.1062Z" fill="url(#paint124_radial)"/>
<path d="M5.41444 28.032C5.62122 28.032 5.78884 27.8632 5.78884 27.655C5.78884 27.4468 5.62122 27.2781 5.41444 27.2781C5.20766 27.2781 5.04004 27.4468 5.04004 27.655C5.04004 27.8632 5.20766 28.032 5.41444 28.032Z" fill="url(#paint125_radial)"/>
<path d="M5.41444 30.4385C5.62122 30.4385 5.78884 30.2697 5.78884 30.0615C5.78884 29.8533 5.62122 29.6846 5.41444 29.6846C5.20766 29.6846 5.04004 29.8533 5.04004 30.0615C5.04004 30.2697 5.20766 30.4385 5.41444 30.4385Z" fill="url(#paint126_radial)"/>
<path d="M8.06398 15.3027C8.27075 15.3027 8.43838 15.134 8.43838 14.9258C8.43838 14.7176 8.27075 14.5488 8.06398 14.5488C7.8572 14.5488 7.68958 14.7176 7.68958 14.9258C7.68958 15.134 7.8572 15.3027 8.06398 15.3027Z" fill="url(#paint127_radial)"/>
<path d="M10.4544 15.3027C10.6611 15.3027 10.8288 15.134 10.8288 14.9258C10.8288 14.7176 10.6611 14.5488 10.4544 14.5488C10.2476 14.5488 10.08 14.7176 10.08 14.9258C10.08 15.134 10.2476 15.3027 10.4544 15.3027Z" fill="url(#paint128_radial)"/>
<path d="M12.9888 15.3027C13.1956 15.3027 13.3632 15.134 13.3632 14.9258C13.3632 14.7176 13.1956 14.5488 12.9888 14.5488C12.782 14.5488 12.6144 14.7176 12.6144 14.9258C12.6144 15.134 12.782 15.3027 12.9888 15.3027Z" fill="url(#paint129_radial)"/>
<path d="M15.5232 15.3027C15.73 15.3027 15.8976 15.134 15.8976 14.9258C15.8976 14.7176 15.73 14.5488 15.5232 14.5488C15.3164 14.5488 15.1488 14.7176 15.1488 14.9258C15.1488 15.134 15.3164 15.3027 15.5232 15.3027Z" fill="url(#paint130_radial)"/>
<path d="M18.0576 15.3027C18.2644 15.3027 18.432 15.134 18.432 14.9258C18.432 14.7176 18.2644 14.5488 18.0576 14.5488C17.8509 14.5488 17.6832 14.7176 17.6832 14.9258C17.6832 15.134 17.8509 15.3027 18.0576 15.3027Z" fill="url(#paint131_radial)"/>
<path d="M20.5919 15.3027C20.7987 15.3027 20.9663 15.134 20.9663 14.9258C20.9663 14.7176 20.7987 14.5488 20.5919 14.5488C20.3852 14.5488 20.2175 14.7176 20.2175 14.9258C20.2175 15.134 20.3852 15.3027 20.5919 15.3027Z" fill="url(#paint132_radial)"/>
<path d="M22.9824 15.3027C23.1892 15.3027 23.3568 15.134 23.3568 14.9258C23.3568 14.7176 23.1892 14.5488 22.9824 14.5488C22.7757 14.5488 22.608 14.7176 22.608 14.9258C22.608 15.134 22.7757 15.3027 22.9824 15.3027Z" fill="url(#paint133_radial)"/>
<path d="M25.632 15.3027C25.8387 15.3027 26.0064 15.134 26.0064 14.9258C26.0064 14.7176 25.8387 14.5488 25.632 14.5488C25.4252 14.5488 25.2576 14.7176 25.2576 14.9258C25.2576 15.134 25.4252 15.3027 25.632 15.3027Z" fill="url(#paint134_radial)"/>
<path d="M28.0512 15.3027C28.2579 15.3027 28.4256 15.134 28.4256 14.9258C28.4256 14.7176 28.2579 14.5488 28.0512 14.5488C27.8444 14.5488 27.6768 14.7176 27.6768 14.9258C27.6768 15.134 27.8444 15.3027 28.0512 15.3027Z" fill="url(#paint135_radial)"/>
<path d="M30.5568 15.3027C30.7635 15.3027 30.9312 15.134 30.9312 14.9258C30.9312 14.7176 30.7635 14.5488 30.5568 14.5488C30.35 14.5488 30.1824 14.7176 30.1824 14.9258C30.1824 15.134 30.35 15.3027 30.5568 15.3027Z" fill="url(#paint136_radial)"/>
<path d="M33.0912 15.3027C33.298 15.3027 33.4656 15.134 33.4656 14.9258C33.4656 14.7176 33.298 14.5488 33.0912 14.5488C32.8844 14.5488 32.7168 14.7176 32.7168 14.9258C32.7168 15.134 32.8844 15.3027 33.0912 15.3027Z" fill="url(#paint137_radial)"/>
<path d="M30.3265 10.6924H25.6321V11.9102C28.0513 12.2872 28.2817 14.8098 28.2817 14.8098V21.3629L21.5713 12.7511L20.1313 10.6924H14.9473C15.0625 10.8084 16.1569 12.2582 17.5969 14.2009L24.3361 23.1607C25.0561 24.0016 28.1953 28.38 28.8001 29.3368H30.9601V12.1422C30.9313 12.1422 31.1617 10.6924 30.3265 10.6924ZM17.5681 20.493V16.6076H14.9185V22.0588C14.9185 22.7837 14.9185 23.3926 15.7537 23.3926H20.2177V22.1748C19.2673 22.0588 18.5185 22.1748 18.1729 21.7979C17.6833 21.5949 17.5681 21.102 17.5681 20.493Z" fill="white"/>
<path d="M14.3136 10.6924C11.8944 10.6924 9.3888 11.0693 7.20001 13.476C5.15521 15.7667 4.9248 18.4343 4.9248 20.0291C4.9248 26.3212 9.7344 29.2498 12.7584 29.2498H18.288V26.6982H14.1984C10.5984 26.6982 8.1792 22.8127 8.1792 19.7971C8.1792 16.7815 10.3392 14.2299 11.7792 14.2299H17.424L14.7744 10.7214C14.8032 10.6924 14.3136 10.6924 14.3136 10.6924Z" fill="#9D9D9D"/>
<defs>
<radialGradient id="paint0_radial" cx="0" cy="0" r="1" gradientUnits="userSpaceOnUse" gradientTransform="translate(18.0144 19.9999) scale(19.0239 19.1534)">
<stop stop-color="#0088FF"/>
<stop offset="0.354167" stop-color="#0087FD"/>
<stop offset="0.507" stop-color="#0083F6"/>
<stop offset="0.603" stop-color="#007CEB"/>
<stop offset="0.68" stop-color="#0073DA"/>
<stop offset="0.746" stop-color="#0066C4"/>
<stop offset="0.804" stop-color="#0057A9"/>
<stop offset="0.82" stop-color="#0052A0"/>
<stop offset="0.851" stop-color="#004F9A" stop-opacity="0.99"/>
<stop offset="0.893" stop-color="#004688" stop-opacity="0.98"/>
<stop offset="0.942" stop-color="#00386B" stop-opacity="0.966"/>
<stop offset="0.996" stop-color="#002444" stop-opacity="0.95"/>
<stop offset="1" stop-color="#002240" stop-opacity="0.95"/>
</radialGradient>
<radialGradient id="paint1_radial" cx="0" cy="0" r="1" gradientUnits="userSpaceOnUse" gradientTransform="translate(18.3259 20.3721) scale(18.5409 18.667)">
<stop stop-color="white"/>
<stop offset="1" stop-color="white" stop-opacity="0.5"/>
</radialGradient>
<radialGradient id="paint2_radial" cx="0" cy="0" r="1" gradientUnits="userSpaceOnUse" gradientTransform="translate(18.3259 20.3721) scale(18.5415 18.6675)">
<stop stop-color="white"/>
<stop offset="1" stop-color="white" stop-opacity="0.5"/>
</radialGradient>
<radialGradient id="paint3_radial" cx="0" cy="0" r="1" gradientUnits="userSpaceOnUse" gradientTransform="translate(18.3258 20.3721) scale(18.5415 18.6675)">
<stop stop-color="white"/>
<stop offset="1" stop-color="white" stop-opacity="0.5"/>
</radialGradient>
<radialGradient id="paint4_radial" cx="0" cy="0" r="1" gradientUnits="userSpaceOnUse" gradientTransform="translate(18.3263 20.3721) scale(18.5409 18.667)">
<stop stop-color="white"/>
<stop offset="1" stop-color="white" stop-opacity="0.5"/>
</radialGradient>
<radialGradient id="paint5_radial" cx="0" cy="0" r="1" gradientUnits="userSpaceOnUse" gradientTransform="translate(18.3269 20.3721) scale(18.5437 18.6698)">
<stop stop-color="white"/>
<stop offset="1" stop-color="white" stop-opacity="0.5"/>
</radialGradient>
<radialGradient id="paint6_radial" cx="0" cy="0" r="1" gradientUnits="userSpaceOnUse" gradientTransform="translate(18.3264 20.3721) scale(18.5415 18.6675)">
<stop stop-color="white"/>
<stop offset="1" stop-color="white" stop-opacity="0.5"/>
</radialGradient>
<radialGradient id="paint7_radial" cx="0" cy="0" r="1" gradientUnits="userSpaceOnUse" gradientTransform="translate(18.3264 20.3721) scale(18.5409 18.667)">
<stop stop-color="white"/>
<stop offset="1" stop-color="white" stop-opacity="0.5"/>
</radialGradient>
<radialGradient id="paint8_radial" cx="0" cy="0" r="1" gradientUnits="userSpaceOnUse" gradientTransform="translate(18.3269 20.3721) scale(18.541 18.667)">
<stop stop-color="white"/>
<stop offset="1" stop-color="white" stop-opacity="0.5"/>
</radialGradient>
<radialGradient id="paint9_radial" cx="0" cy="0" r="1" gradientUnits="userSpaceOnUse" gradientTransform="translate(18.327 20.3721) scale(18.541 18.667)">
<stop stop-color="white"/>
<stop offset="1" stop-color="white" stop-opacity="0.5"/>
</radialGradient>
<radialGradient id="paint10_radial" cx="0" cy="0" r="1" gradientUnits="userSpaceOnUse" gradientTransform="translate(18.3269 20.3721) scale(18.541 18.667)">
<stop stop-color="white"/>
<stop offset="1" stop-color="white" stop-opacity="0.5"/>
</radialGradient>
<radialGradient id="paint11_radial" cx="0" cy="0" r="1" gradientUnits="userSpaceOnUse" gradientTransform="translate(18.3258 20.3721) scale(18.5438 18.6698)">
<stop stop-color="white"/>
<stop offset="1" stop-color="white" stop-opacity="0.5"/>
</radialGradient>
<radialGradient id="paint12_radial" cx="0" cy="0" r="1" gradientUnits="userSpaceOnUse" gradientTransform="translate(18.327 20.3721) scale(18.5409 18.667)">
<stop stop-color="white"/>
<stop offset="1" stop-color="white" stop-opacity="0.5"/>
</radialGradient>
<radialGradient id="paint13_radial" cx="0" cy="0" r="1" gradientUnits="userSpaceOnUse" gradientTransform="translate(18.3253 20.3721) scale(18.5443 18.6704)">
<stop stop-color="white"/>
<stop offset="1" stop-color="white" stop-opacity="0.5"/>
</radialGradient>
<radialGradient id="paint14_radial" cx="0" cy="0" r="1" gradientUnits="userSpaceOnUse" gradientTransform="translate(18.3259 20.3722) scale(18.5409 18.6672)">
<stop stop-color="white"/>
<stop offset="1" stop-color="white" stop-opacity="0.5"/>
</radialGradient>
<radialGradient id="paint15_radial" cx="0" cy="0" r="1" gradientUnits="userSpaceOnUse" gradientTransform="translate(18.3259 20.3722) scale(18.5415 18.6678)">
<stop stop-color="white"/>
<stop offset="1" stop-color="white" stop-opacity="0.5"/>
</radialGradient>
<radialGradient id="paint16_radial" cx="0" cy="0" r="1" gradientUnits="userSpaceOnUse" gradientTransform="translate(18.3258 20.3722) scale(18.5415 18.6678)">
<stop stop-color="white"/>
<stop offset="1" stop-color="white" stop-opacity="0.5"/>
</radialGradient>
<radialGradient id="paint17_radial" cx="0" cy="0" r="1" gradientUnits="userSpaceOnUse" gradientTransform="translate(18.3263 20.3722) scale(18.5409 18.6672)">
<stop stop-color="white"/>
<stop offset="1" stop-color="white" stop-opacity="0.5"/>
</radialGradient>
<radialGradient id="paint18_radial" cx="0" cy="0" r="1" gradientUnits="userSpaceOnUse" gradientTransform="translate(18.3269 20.3722) scale(18.5432 18.6695)">
<stop stop-color="white"/>
<stop offset="1" stop-color="white" stop-opacity="0.5"/>
</radialGradient>
<radialGradient id="paint19_radial" cx="0" cy="0" r="1" gradientUnits="userSpaceOnUse" gradientTransform="translate(18.3264 20.3722) scale(18.5415 18.6678)">
<stop stop-color="white"/>
<stop offset="1" stop-color="white" stop-opacity="0.5"/>
</radialGradient>
<radialGradient id="paint20_radial" cx="0" cy="0" r="1" gradientUnits="userSpaceOnUse" gradientTransform="translate(18.3264 20.3722) scale(18.5409 18.6672)">
<stop stop-color="white"/>
<stop offset="1" stop-color="white" stop-opacity="0.5"/>
</radialGradient>
<radialGradient id="paint21_radial" cx="0" cy="0" r="1" gradientUnits="userSpaceOnUse" gradientTransform="translate(18.3269 20.3722) scale(18.541 18.6672)">
<stop stop-color="white"/>
<stop offset="1" stop-color="white" stop-opacity="0.5"/>
</radialGradient>
<radialGradient id="paint22_radial" cx="0" cy="0" r="1" gradientUnits="userSpaceOnUse" gradientTransform="translate(18.327 20.3722) scale(18.541 18.6672)">
<stop stop-color="white"/>
<stop offset="1" stop-color="white" stop-opacity="0.5"/>
</radialGradient>
<radialGradient id="paint23_radial" cx="0" cy="0" r="1" gradientUnits="userSpaceOnUse" gradientTransform="translate(18.3269 20.3722) scale(18.541 18.6672)">
<stop stop-color="white"/>
<stop offset="1" stop-color="white" stop-opacity="0.5"/>
</radialGradient>
<radialGradient id="paint24_radial" cx="0" cy="0" r="1" gradientUnits="userSpaceOnUse" gradientTransform="translate(18.3258 20.3722) scale(18.5438 18.67)">
<stop stop-color="white"/>
<stop offset="1" stop-color="white" stop-opacity="0.5"/>
</radialGradient>
<radialGradient id="paint25_radial" cx="0" cy="0" r="1" gradientUnits="userSpaceOnUse" gradientTransform="translate(18.327 20.3722) scale(18.5415 18.6678)">
<stop stop-color="white"/>
<stop offset="1" stop-color="white" stop-opacity="0.5"/>
</radialGradient>
<radialGradient id="paint26_radial" cx="0" cy="0" r="1" gradientUnits="userSpaceOnUse" gradientTransform="translate(18.3253 20.3722) scale(18.5437 18.67)">
<stop stop-color="white"/>
<stop offset="1" stop-color="white" stop-opacity="0.5"/>
</radialGradient>
<radialGradient id="paint27_radial" cx="0" cy="0" r="1" gradientUnits="userSpaceOnUse" gradientTransform="translate(18.3259 20.3715) scale(18.5415 18.6678)">
<stop stop-color="white"/>
<stop offset="1" stop-color="white" stop-opacity="0.5"/>
</radialGradient>
<radialGradient id="paint28_radial" cx="0" cy="0" r="1" gradientUnits="userSpaceOnUse" gradientTransform="translate(18.3259 20.3715) scale(18.5415 18.6678)">
<stop stop-color="white"/>
<stop offset="1" stop-color="white" stop-opacity="0.5"/>
</radialGradient>
<radialGradient id="paint29_radial" cx="0" cy="0" r="1" gradientUnits="userSpaceOnUse" gradientTransform="translate(18.3258 20.3715) scale(18.5421 18.6683)">
<stop stop-color="white"/>
<stop offset="1" stop-color="white" stop-opacity="0.5"/>
</radialGradient>
<radialGradient id="paint30_radial" cx="0" cy="0" r="1" gradientUnits="userSpaceOnUse" gradientTransform="translate(18.3263 20.3715) scale(18.542 18.6683)">
<stop stop-color="white"/>
<stop offset="1" stop-color="white" stop-opacity="0.5"/>
</radialGradient>
<radialGradient id="paint31_radial" cx="0" cy="0" r="1" gradientUnits="userSpaceOnUse" gradientTransform="translate(18.3269 20.3715) scale(18.5437 18.67)">
<stop stop-color="white"/>
<stop offset="1" stop-color="white" stop-opacity="0.5"/>
</radialGradient>
<radialGradient id="paint32_radial" cx="0" cy="0" r="1" gradientUnits="userSpaceOnUse" gradientTransform="translate(18.3264 20.3715) scale(18.5437 18.67)">
<stop stop-color="white"/>
<stop offset="1" stop-color="white" stop-opacity="0.5"/>
</radialGradient>
<radialGradient id="paint33_radial" cx="0" cy="0" r="1" gradientUnits="userSpaceOnUse" gradientTransform="translate(18.3264 20.3715) scale(18.5437 18.67)">
<stop stop-color="white"/>
<stop offset="1" stop-color="white" stop-opacity="0.5"/>
</radialGradient>
<radialGradient id="paint34_radial" cx="0" cy="0" r="1" gradientUnits="userSpaceOnUse" gradientTransform="translate(18.3269 20.3715) scale(18.5432 18.6695)">
<stop stop-color="white"/>
<stop offset="1" stop-color="white" stop-opacity="0.5"/>
</radialGradient>
<radialGradient id="paint35_radial" cx="0" cy="0" r="1" gradientUnits="userSpaceOnUse" gradientTransform="translate(18.327 20.3715) scale(18.5427 18.6689)">
<stop stop-color="white"/>
<stop offset="1" stop-color="white" stop-opacity="0.5"/>
</radialGradient>
<radialGradient id="paint36_radial" cx="0" cy="0" r="1" gradientUnits="userSpaceOnUse" gradientTransform="translate(18.3269 20.3715) scale(18.5421 18.6683)">
<stop stop-color="white"/>
<stop offset="1" stop-color="white" stop-opacity="0.5"/>
</radialGradient>
<radialGradient id="paint37_radial" cx="0" cy="0" r="1" gradientUnits="userSpaceOnUse" gradientTransform="translate(18.3258 20.3715) scale(18.5443 18.6706)">
<stop stop-color="white"/>
<stop offset="1" stop-color="white" stop-opacity="0.5"/>
</radialGradient>
<radialGradient id="paint38_radial" cx="0" cy="0" r="1" gradientUnits="userSpaceOnUse" gradientTransform="translate(18.327 20.3715) scale(18.5415 18.6678)">
<stop stop-color="white"/>
<stop offset="1" stop-color="white" stop-opacity="0.5"/>
</radialGradient>
<radialGradient id="paint39_radial" cx="0" cy="0" r="1" gradientUnits="userSpaceOnUse" gradientTransform="translate(18.3253 20.3715) scale(18.5437 18.67)">
<stop stop-color="white"/>
<stop offset="1" stop-color="white" stop-opacity="0.5"/>
</radialGradient>
<radialGradient id="paint40_radial" cx="0" cy="0" r="1" gradientUnits="userSpaceOnUse" gradientTransform="translate(18.3259 20.3723) scale(18.5409 18.6672)">
<stop stop-color="white"/>
<stop offset="1" stop-color="white" stop-opacity="0.5"/>
</radialGradient>
<radialGradient id="paint41_radial" cx="0" cy="0" r="1" gradientUnits="userSpaceOnUse" gradientTransform="translate(18.3259 20.3723) scale(18.5415 18.6678)">
<stop stop-color="white"/>
<stop offset="1" stop-color="white" stop-opacity="0.5"/>
</radialGradient>
<radialGradient id="paint42_radial" cx="0" cy="0" r="1" gradientUnits="userSpaceOnUse" gradientTransform="translate(18.3258 20.3723) scale(18.5415 18.6678)">
<stop stop-color="white"/>
<stop offset="1" stop-color="white" stop-opacity="0.5"/>
</radialGradient>
<radialGradient id="paint43_radial" cx="0" cy="0" r="1" gradientUnits="userSpaceOnUse" gradientTransform="translate(18.3263 20.3723) scale(18.5409 18.6672)">
<stop stop-color="white"/>
<stop offset="1" stop-color="white" stop-opacity="0.5"/>
</radialGradient>
<radialGradient id="paint44_radial" cx="0" cy="0" r="1" gradientUnits="userSpaceOnUse" gradientTransform="translate(18.3269 20.3723) scale(18.5432 18.6695)">
<stop stop-color="white"/>
<stop offset="1" stop-color="white" stop-opacity="0.5"/>
</radialGradient>
<radialGradient id="paint45_radial" cx="0" cy="0" r="1" gradientUnits="userSpaceOnUse" gradientTransform="translate(18.3264 20.3723) scale(18.5409 18.6672)">
<stop stop-color="white"/>
<stop offset="1" stop-color="white" stop-opacity="0.5"/>
</radialGradient>
<radialGradient id="paint46_radial" cx="0" cy="0" r="1" gradientUnits="userSpaceOnUse" gradientTransform="translate(18.3264 20.3723) scale(18.5409 18.6672)">
<stop stop-color="white"/>
<stop offset="1" stop-color="white" stop-opacity="0.5"/>
</radialGradient>
<radialGradient id="paint47_radial" cx="0" cy="0" r="1" gradientUnits="userSpaceOnUse" gradientTransform="translate(18.3269 20.3723) scale(18.541 18.6672)">
<stop stop-color="white"/>
<stop offset="1" stop-color="white" stop-opacity="0.5"/>
</radialGradient>
<radialGradient id="paint48_radial" cx="0" cy="0" r="1" gradientUnits="userSpaceOnUse" gradientTransform="translate(18.327 20.3723) scale(18.541 18.6672)">
<stop stop-color="white"/>
<stop offset="1" stop-color="white" stop-opacity="0.5"/>
</radialGradient>
<radialGradient id="paint49_radial" cx="0" cy="0" r="1" gradientUnits="userSpaceOnUse" gradientTransform="translate(18.3269 20.3723) scale(18.541 18.6672)">
<stop stop-color="white"/>
<stop offset="1" stop-color="white" stop-opacity="0.5"/>
</radialGradient>
<radialGradient id="paint50_radial" cx="0" cy="0" r="1" gradientUnits="userSpaceOnUse" gradientTransform="translate(18.3258 20.3723) scale(18.5438 18.67)">
<stop stop-color="white"/>
<stop offset="1" stop-color="white" stop-opacity="0.5"/>
</radialGradient>
<radialGradient id="paint51_radial" cx="0" cy="0" r="1" gradientUnits="userSpaceOnUse" gradientTransform="translate(18.327 20.3723) scale(18.5415 18.6678)">
<stop stop-color="white"/>
<stop offset="1" stop-color="white" stop-opacity="0.5"/>
</radialGradient>
<radialGradient id="paint52_radial" cx="0" cy="0" r="1" gradientUnits="userSpaceOnUse" gradientTransform="translate(18.3253 20.3723) scale(18.5437 18.67)">
<stop stop-color="white"/>
<stop offset="1" stop-color="white" stop-opacity="0.5"/>
</radialGradient>
<radialGradient id="paint53_radial" cx="0" cy="0" r="1" gradientUnits="userSpaceOnUse" gradientTransform="translate(18.3259 20.3722) scale(18.5409 18.667)">
<stop stop-color="white"/>
<stop offset="1" stop-color="white" stop-opacity="0.5"/>
</radialGradient>
<radialGradient id="paint54_radial" cx="0" cy="0" r="1" gradientUnits="userSpaceOnUse" gradientTransform="translate(18.3259 20.3722) scale(18.5415 18.6676)">
<stop stop-color="white"/>
<stop offset="1" stop-color="white" stop-opacity="0.5"/>
</radialGradient>
<radialGradient id="paint55_radial" cx="0" cy="0" r="1" gradientUnits="userSpaceOnUse" gradientTransform="translate(18.3259 20.3727) scale(18.5421 18.6683)">
<stop stop-color="white"/>
<stop offset="1" stop-color="white" stop-opacity="0.5"/>
</radialGradient>
<radialGradient id="paint56_radial" cx="0" cy="0" r="1" gradientUnits="userSpaceOnUse" gradientTransform="translate(18.3259 20.3734) scale(18.5421 18.6683)">
<stop stop-color="white"/>
<stop offset="1" stop-color="white" stop-opacity="0.5"/>
</radialGradient>
<radialGradient id="paint57_radial" cx="0" cy="0" r="1" gradientUnits="userSpaceOnUse" gradientTransform="translate(18.3258 20.3727) scale(18.5421 18.6683)">
<stop stop-color="white"/>
<stop offset="1" stop-color="white" stop-opacity="0.5"/>
</radialGradient>
<radialGradient id="paint58_radial" cx="0" cy="0" r="1" gradientUnits="userSpaceOnUse" gradientTransform="translate(18.3258 20.3734) scale(18.5427 18.6689)">
<stop stop-color="white"/>
<stop offset="1" stop-color="white" stop-opacity="0.5"/>
</radialGradient>
<radialGradient id="paint59_radial" cx="0" cy="0" r="1" gradientUnits="userSpaceOnUse" gradientTransform="translate(18.3263 20.3727) scale(18.5426 18.6689)">
<stop stop-color="white"/>
<stop offset="1" stop-color="white" stop-opacity="0.5"/>
</radialGradient>
<radialGradient id="paint60_radial" cx="0" cy="0" r="1" gradientUnits="userSpaceOnUse" gradientTransform="translate(18.3263 20.3734) scale(18.5431 18.6694)">
<stop stop-color="white"/>
<stop offset="1" stop-color="white" stop-opacity="0.5"/>
</radialGradient>
<radialGradient id="paint61_radial" cx="0" cy="0" r="1" gradientUnits="userSpaceOnUse" gradientTransform="translate(18.3264 20.3727) scale(18.5432 18.6694)">
<stop stop-color="white"/>
<stop offset="1" stop-color="white" stop-opacity="0.5"/>
</radialGradient>
<radialGradient id="paint62_radial" cx="0" cy="0" r="1" gradientUnits="userSpaceOnUse" gradientTransform="translate(18.3264 20.3734) scale(18.5437 18.67)">
<stop stop-color="white"/>
<stop offset="1" stop-color="white" stop-opacity="0.5"/>
</radialGradient>
<radialGradient id="paint63_radial" cx="0" cy="0" r="1" gradientUnits="userSpaceOnUse" gradientTransform="translate(18.3264 20.3727) scale(18.5437 18.67)">
<stop stop-color="white"/>
<stop offset="1" stop-color="white" stop-opacity="0.5"/>
</radialGradient>
<radialGradient id="paint64_radial" cx="0" cy="0" r="1" gradientUnits="userSpaceOnUse" gradientTransform="translate(18.3264 20.3734) scale(18.5437 18.67)">
<stop stop-color="white"/>
<stop offset="1" stop-color="white" stop-opacity="0.5"/>
</radialGradient>
<radialGradient id="paint65_radial" cx="0" cy="0" r="1" gradientUnits="userSpaceOnUse" gradientTransform="translate(18.3264 20.3727) scale(18.5437 18.67)">
<stop stop-color="white"/>
<stop offset="1" stop-color="white" stop-opacity="0.5"/>
</radialGradient>
<radialGradient id="paint66_radial" cx="0" cy="0" r="1" gradientUnits="userSpaceOnUse" gradientTransform="translate(18.3264 20.3734) scale(18.5443 18.6706)">
<stop stop-color="white"/>
<stop offset="1" stop-color="white" stop-opacity="0.5"/>
</radialGradient>
<radialGradient id="paint67_radial" cx="0" cy="0" r="1" gradientUnits="userSpaceOnUse" gradientTransform="translate(18.3269 20.3727) scale(18.5438 18.67)">
<stop stop-color="white"/>
<stop offset="1" stop-color="white" stop-opacity="0.5"/>
</radialGradient>
<radialGradient id="paint68_radial" cx="0" cy="0" r="1" gradientUnits="userSpaceOnUse" gradientTransform="translate(18.3269 20.3734) scale(18.5438 18.67)">
<stop stop-color="white"/>
<stop offset="1" stop-color="white" stop-opacity="0.5"/>
</radialGradient>
<radialGradient id="paint69_radial" cx="0" cy="0" r="1" gradientUnits="userSpaceOnUse" gradientTransform="translate(18.327 20.3727) scale(18.5433 18.6694)">
<stop stop-color="white"/>
<stop offset="1" stop-color="white" stop-opacity="0.5"/>
</radialGradient>
<radialGradient id="paint70_radial" cx="0" cy="0" r="1" gradientUnits="userSpaceOnUse" gradientTransform="translate(18.327 20.3734) scale(18.5438 18.67)">
<stop stop-color="white"/>
<stop offset="1" stop-color="white" stop-opacity="0.5"/>
</radialGradient>
<radialGradient id="paint71_radial" cx="0" cy="0" r="1" gradientUnits="userSpaceOnUse" gradientTransform="translate(18.3269 20.3727) scale(18.5427 18.6689)">
<stop stop-color="white"/>
<stop offset="1" stop-color="white" stop-opacity="0.5"/>
</radialGradient>
<radialGradient id="paint72_radial" cx="0" cy="0" r="1" gradientUnits="userSpaceOnUse" gradientTransform="translate(18.3269 20.3734) scale(18.5432 18.6694)">
<stop stop-color="white"/>
<stop offset="1" stop-color="white" stop-opacity="0.5"/>
</radialGradient>
<radialGradient id="paint73_radial" cx="0" cy="0" r="1" gradientUnits="userSpaceOnUse" gradientTransform="translate(18.3269 20.3727) scale(18.5421 18.6683)">
<stop stop-color="white"/>
<stop offset="1" stop-color="white" stop-opacity="0.5"/>
</radialGradient>
<radialGradient id="paint74_radial" cx="0" cy="0" r="1" gradientUnits="userSpaceOnUse" gradientTransform="translate(18.3269 20.3734) scale(18.5427 18.6689)">
<stop stop-color="white"/>
<stop offset="1" stop-color="white" stop-opacity="0.5"/>
</radialGradient>
<radialGradient id="paint75_radial" cx="0" cy="0" r="1" gradientUnits="userSpaceOnUse" gradientTransform="translate(18.3258 20.3716) scale(18.541 18.6672)">
<stop stop-color="white"/>
<stop offset="1" stop-color="white" stop-opacity="0.5"/>
</radialGradient>
<radialGradient id="paint76_radial" cx="0" cy="0" r="1" gradientUnits="userSpaceOnUse" gradientTransform="translate(18.3263 20.3716) scale(18.5409 18.6672)">
<stop stop-color="white"/>
<stop offset="1" stop-color="white" stop-opacity="0.5"/>
</radialGradient>
<radialGradient id="paint77_radial" cx="0" cy="0" r="1" gradientUnits="userSpaceOnUse" gradientTransform="translate(18.3264 20.3716) scale(18.5415 18.6678)">
<stop stop-color="white"/>
<stop offset="1" stop-color="white" stop-opacity="0.5"/>
</radialGradient>
<radialGradient id="paint78_radial" cx="0" cy="0" r="1" gradientUnits="userSpaceOnUse" gradientTransform="translate(18.3264 20.3716) scale(18.5415 18.6678)">
<stop stop-color="white"/>
<stop offset="1" stop-color="white" stop-opacity="0.5"/>
</radialGradient>
<radialGradient id="paint79_radial" cx="0" cy="0" r="1" gradientUnits="userSpaceOnUse" gradientTransform="translate(18.3264 20.3716) scale(18.5409 18.6672)">
<stop stop-color="white"/>
<stop offset="1" stop-color="white" stop-opacity="0.5"/>
</radialGradient>
<radialGradient id="paint80_radial" cx="0" cy="0" r="1" gradientUnits="userSpaceOnUse" gradientTransform="translate(18.3269 20.3716) scale(18.541 18.6672)">
<stop stop-color="white"/>
<stop offset="1" stop-color="white" stop-opacity="0.5"/>
</radialGradient>
<radialGradient id="paint81_radial" cx="0" cy="0" r="1" gradientUnits="userSpaceOnUse" gradientTransform="translate(18.327 20.3716) scale(18.5416 18.6678)">
<stop stop-color="white"/>
<stop offset="1" stop-color="white" stop-opacity="0.5"/>
</radialGradient>
<radialGradient id="paint82_radial" cx="0" cy="0" r="1" gradientUnits="userSpaceOnUse" gradientTransform="translate(18.3264 20.3715) scale(18.5409 18.6672)">
<stop stop-color="white"/>
<stop offset="1" stop-color="white" stop-opacity="0.5"/>
</radialGradient>
<radialGradient id="paint83_radial" cx="0" cy="0" r="1" gradientUnits="userSpaceOnUse" gradientTransform="translate(18.3264 20.3715) scale(18.5409 18.6672)">
<stop stop-color="white"/>
<stop offset="1" stop-color="white" stop-opacity="0.5"/>
</radialGradient>
<radialGradient id="paint84_radial" cx="0" cy="0" r="1" gradientUnits="userSpaceOnUse" gradientTransform="translate(18.3264 20.3715) scale(18.5415 18.6678)">
<stop stop-color="white"/>
<stop offset="1" stop-color="white" stop-opacity="0.5"/>
</radialGradient>
<radialGradient id="paint85_radial" cx="0" cy="0" r="1" gradientUnits="userSpaceOnUse" gradientTransform="translate(18.3269 20.3715) scale(18.541 18.6672)">
<stop stop-color="white"/>
<stop offset="1" stop-color="white" stop-opacity="0.5"/>
</radialGradient>
<radialGradient id="paint86_radial" cx="0" cy="0" r="1" gradientUnits="userSpaceOnUse" gradientTransform="translate(18.327 20.3715) scale(18.541 18.6672)">
<stop stop-color="white"/>
<stop offset="1" stop-color="white" stop-opacity="0.5"/>
</radialGradient>
<radialGradient id="paint87_radial" cx="0" cy="0" r="1" gradientUnits="userSpaceOnUse" gradientTransform="translate(18.3269 20.3716) scale(18.5415 18.6678)">
<stop stop-color="white"/>
<stop offset="1" stop-color="white" stop-opacity="0.5"/>
</radialGradient>
<radialGradient id="paint88_radial" cx="0" cy="0" r="1" gradientUnits="userSpaceOnUse" gradientTransform="translate(18.3269 20.3716) scale(18.5415 18.6678)">
<stop stop-color="white"/>
<stop offset="1" stop-color="white" stop-opacity="0.5"/>
</radialGradient>
<radialGradient id="paint89_radial" cx="0" cy="0" r="1" gradientUnits="userSpaceOnUse" gradientTransform="translate(18.3253 20.3727) scale(18.5437 18.67)">
<stop stop-color="white"/>
<stop offset="1" stop-color="white" stop-opacity="0.5"/>
</radialGradient>
<radialGradient id="paint90_radial" cx="0" cy="0" r="1" gradientUnits="userSpaceOnUse" gradientTransform="translate(18.3253 20.3734) scale(18.5437 18.67)">
<stop stop-color="white"/>
<stop offset="1" stop-color="white" stop-opacity="0.5"/>
</radialGradient>
<radialGradient id="paint91_radial" cx="0" cy="0" r="1" gradientUnits="userSpaceOnUse" gradientTransform="translate(18.327 20.3727) scale(18.5415 18.6678)">
<stop stop-color="white"/>
<stop offset="1" stop-color="white" stop-opacity="0.5"/>
</radialGradient>
<radialGradient id="paint92_radial" cx="0" cy="0" r="1" gradientUnits="userSpaceOnUse" gradientTransform="translate(18.327 20.3725) scale(18.5409 18.6672)">
<stop stop-color="white"/>
<stop offset="1" stop-color="white" stop-opacity="0.5"/>
</radialGradient>
<radialGradient id="paint93_radial" cx="0" cy="0" r="1" gradientUnits="userSpaceOnUse" gradientTransform="translate(18.3259 20.3727) scale(18.5431 18.6695)">
<stop stop-color="white"/>
<stop offset="1" stop-color="white" stop-opacity="0.5"/>
</radialGradient>
<radialGradient id="paint94_radial" cx="0" cy="0" r="1" gradientUnits="userSpaceOnUse" gradientTransform="translate(18.3259 20.3725) scale(18.5426 18.6689)">
<stop stop-color="white"/>
<stop offset="1" stop-color="white" stop-opacity="0.5"/>
</radialGradient>
<radialGradient id="paint95_radial" cx="0" cy="0" r="1" gradientUnits="userSpaceOnUse" gradientTransform="translate(18.3269 20.3727) scale(18.541 18.6672)">
<stop stop-color="white"/>
<stop offset="1" stop-color="white" stop-opacity="0.5"/>
</radialGradient>
<radialGradient id="paint96_radial" cx="0" cy="0" r="1" gradientUnits="userSpaceOnUse" gradientTransform="translate(18.3269 20.3725) scale(18.541 18.6672)">
<stop stop-color="white"/>
<stop offset="1" stop-color="white" stop-opacity="0.5"/>
</radialGradient>
<radialGradient id="paint97_radial" cx="0" cy="0" r="1" gradientUnits="userSpaceOnUse" gradientTransform="translate(18.3258 20.3727) scale(18.5421 18.6684)">
<stop stop-color="white"/>
<stop offset="1" stop-color="white" stop-opacity="0.5"/>
</radialGradient>
<radialGradient id="paint98_radial" cx="0" cy="0" r="1" gradientUnits="userSpaceOnUse" gradientTransform="translate(18.3258 20.3725) scale(18.5421 18.6684)">
<stop stop-color="white"/>
<stop offset="1" stop-color="white" stop-opacity="0.5"/>
</radialGradient>
<radialGradient id="paint99_radial" cx="0" cy="0" r="1" gradientUnits="userSpaceOnUse" gradientTransform="translate(18.327 20.3727) scale(18.541 18.6672)">
<stop stop-color="white"/>
<stop offset="1" stop-color="white" stop-opacity="0.5"/>
</radialGradient>
<radialGradient id="paint100_radial" cx="0" cy="0" r="1" gradientUnits="userSpaceOnUse" gradientTransform="translate(18.327 20.3725) scale(18.5416 18.6678)">
<stop stop-color="white"/>
<stop offset="1" stop-color="white" stop-opacity="0.5"/>
</radialGradient>
<radialGradient id="paint101_radial" cx="0" cy="0" r="1" gradientUnits="userSpaceOnUse" gradientTransform="translate(18.3264 20.3727) scale(18.5409 18.6672)">
<stop stop-color="white"/>
<stop offset="1" stop-color="white" stop-opacity="0.5"/>
</radialGradient>
<radialGradient id="paint102_radial" cx="0" cy="0" r="1" gradientUnits="userSpaceOnUse" gradientTransform="translate(18.3264 20.3725) scale(18.5409 18.6672)">
<stop stop-color="white"/>
<stop offset="1" stop-color="white" stop-opacity="0.5"/>
</radialGradient>
<radialGradient id="paint103_radial" cx="0" cy="0" r="1" gradientUnits="userSpaceOnUse" gradientTransform="translate(18.3264 20.3727) scale(18.5409 18.6672)">
<stop stop-color="white"/>
<stop offset="1" stop-color="white" stop-opacity="0.5"/>
</radialGradient>
<radialGradient id="paint104_radial" cx="0" cy="0" r="1" gradientUnits="userSpaceOnUse" gradientTransform="translate(18.3264 20.3725) scale(18.5415 18.6678)">
<stop stop-color="white"/>
<stop offset="1" stop-color="white" stop-opacity="0.5"/>
</radialGradient>
<radialGradient id="paint105_radial" cx="0" cy="0" r="1" gradientUnits="userSpaceOnUse" gradientTransform="translate(18.3264 20.3727) scale(18.5409 18.6672)">
<stop stop-color="white"/>
<stop offset="1" stop-color="white" stop-opacity="0.5"/>
</radialGradient>
<radialGradient id="paint106_radial" cx="0" cy="0" r="1" gradientUnits="userSpaceOnUse" gradientTransform="translate(18.3264 20.3725) scale(18.5409 18.6672)">
<stop stop-color="white"/>
<stop offset="1" stop-color="white" stop-opacity="0.5"/>
</radialGradient>
<radialGradient id="paint107_radial" cx="0" cy="0" r="1" gradientUnits="userSpaceOnUse" gradientTransform="translate(18.3263 20.3727) scale(18.5415 18.6678)">
<stop stop-color="white"/>
<stop offset="1" stop-color="white" stop-opacity="0.5"/>
</radialGradient>
<radialGradient id="paint108_radial" cx="0" cy="0" r="1" gradientUnits="userSpaceOnUse" gradientTransform="translate(18.3263 20.3725) scale(18.5415 18.6678)">
<stop stop-color="white"/>
<stop offset="1" stop-color="white" stop-opacity="0.5"/>
</radialGradient>
<radialGradient id="paint109_radial" cx="0" cy="0" r="1" gradientUnits="userSpaceOnUse" gradientTransform="translate(18.3259 20.3727) scale(18.541 18.6672)">
<stop stop-color="white"/>
<stop offset="1" stop-color="white" stop-opacity="0.5"/>
</radialGradient>
<radialGradient id="paint110_radial" cx="0" cy="0" r="1" gradientUnits="userSpaceOnUse" gradientTransform="translate(18.3259 20.3725) scale(18.5415 18.6678)">
<stop stop-color="white"/>
<stop offset="1" stop-color="white" stop-opacity="0.5"/>
</radialGradient>
<radialGradient id="paint111_radial" cx="0" cy="0" r="1" gradientUnits="userSpaceOnUse" gradientTransform="translate(18.3259 20.3709) scale(18.5437 18.6701)">
<stop stop-color="white"/>
<stop offset="1" stop-color="white" stop-opacity="0.5"/>
</radialGradient>
<radialGradient id="paint112_radial" cx="0" cy="0" r="1" gradientUnits="userSpaceOnUse" gradientTransform="translate(18.3269 20.3709) scale(18.5432 18.6695)">
<stop stop-color="white"/>
<stop offset="1" stop-color="white" stop-opacity="0.5"/>
</radialGradient>
<radialGradient id="paint113_radial" cx="0" cy="0" r="1" gradientUnits="userSpaceOnUse" gradientTransform="translate(18.3258 20.3709) scale(18.5444 18.6706)">
<stop stop-color="white"/>
<stop offset="1" stop-color="white" stop-opacity="0.5"/>
</radialGradient>
<radialGradient id="paint114_radial" cx="0" cy="0" r="1" gradientUnits="userSpaceOnUse" gradientTransform="translate(18.327 20.3709) scale(18.5438 18.6701)">
<stop stop-color="white"/>
<stop offset="1" stop-color="white" stop-opacity="0.5"/>
</radialGradient>
<radialGradient id="paint115_radial" cx="0" cy="0" r="1" gradientUnits="userSpaceOnUse" gradientTransform="translate(18.3264 20.3709) scale(18.5443 18.6706)">
<stop stop-color="white"/>
<stop offset="1" stop-color="white" stop-opacity="0.5"/>
</radialGradient>
<radialGradient id="paint116_radial" cx="0" cy="0" r="1" gradientUnits="userSpaceOnUse" gradientTransform="translate(18.3264 20.3709) scale(18.5437 18.6701)">
<stop stop-color="white"/>
<stop offset="1" stop-color="white" stop-opacity="0.5"/>
</radialGradient>
<radialGradient id="paint117_radial" cx="0" cy="0" r="1" gradientUnits="userSpaceOnUse" gradientTransform="translate(18.3264 20.3709) scale(18.5437 18.6701)">
<stop stop-color="white"/>
<stop offset="1" stop-color="white" stop-opacity="0.5"/>
</radialGradient>
<radialGradient id="paint118_radial" cx="0" cy="0" r="1" gradientUnits="userSpaceOnUse" gradientTransform="translate(18.3258 20.3705) scale(18.5444 18.6706)">
<stop stop-color="white"/>
<stop offset="1" stop-color="white" stop-opacity="0.5"/>
</radialGradient>
<radialGradient id="paint119_radial" cx="0" cy="0" r="1" gradientUnits="userSpaceOnUse" gradientTransform="translate(18.327 20.3705) scale(18.5438 18.67)">
<stop stop-color="white"/>
<stop offset="1" stop-color="white" stop-opacity="0.5"/>
</radialGradient>
<radialGradient id="paint120_radial" cx="0" cy="0" r="1" gradientUnits="userSpaceOnUse" gradientTransform="translate(18.3264 20.3705) scale(18.5437 18.67)">
<stop stop-color="white"/>
<stop offset="1" stop-color="white" stop-opacity="0.5"/>
</radialGradient>
<radialGradient id="paint121_radial" cx="0" cy="0" r="1" gradientUnits="userSpaceOnUse" gradientTransform="translate(18.3264 20.3705) scale(18.5437 18.67)">
<stop stop-color="white"/>
<stop offset="1" stop-color="white" stop-opacity="0.5"/>
</radialGradient>
<radialGradient id="paint122_radial" cx="0" cy="0" r="1" gradientUnits="userSpaceOnUse" gradientTransform="translate(18.3264 20.3705) scale(18.5437 18.67)">
<stop stop-color="white"/>
<stop offset="1" stop-color="white" stop-opacity="0.5"/>
</radialGradient>
<radialGradient id="paint123_radial" cx="0" cy="0" r="1" gradientUnits="userSpaceOnUse" gradientTransform="translate(18.3263 20.3709) scale(18.5431 18.6695)">
<stop stop-color="white"/>
<stop offset="1" stop-color="white" stop-opacity="0.5"/>
</radialGradient>
<radialGradient id="paint124_radial" cx="0" cy="0" r="1" gradientUnits="userSpaceOnUse" gradientTransform="translate(18.3259 20.3709) scale(18.5432 18.6695)">
<stop stop-color="white"/>
<stop offset="1" stop-color="white" stop-opacity="0.5"/>
</radialGradient>
<radialGradient id="paint125_radial" cx="0" cy="0" r="1" gradientUnits="userSpaceOnUse" gradientTransform="translate(18.3259 20.3727) scale(18.5415 18.6678)">
<stop stop-color="white"/>
<stop offset="1" stop-color="white" stop-opacity="0.5"/>
</radialGradient>
<radialGradient id="paint126_radial" cx="0" cy="0" r="1" gradientUnits="userSpaceOnUse" gradientTransform="translate(18.3259 20.3725) scale(18.5415 18.6678)">
<stop stop-color="white"/>
<stop offset="1" stop-color="white" stop-opacity="0.5"/>
</radialGradient>
<radialGradient id="paint127_radial" cx="0" cy="0" r="1" gradientUnits="userSpaceOnUse" gradientTransform="translate(18.3258 20.3722) scale(18.541 18.667)">
<stop stop-color="white"/>
<stop offset="1" stop-color="white" stop-opacity="0.5"/>
</radialGradient>
<radialGradient id="paint128_radial" cx="0" cy="0" r="1" gradientUnits="userSpaceOnUse" gradientTransform="translate(18.3263 20.3722) scale(18.5409 18.667)">
<stop stop-color="white"/>
<stop offset="1" stop-color="white" stop-opacity="0.5"/>
</radialGradient>
<radialGradient id="paint129_radial" cx="0" cy="0" r="1" gradientUnits="userSpaceOnUse" gradientTransform="translate(18.3269 20.3722) scale(18.5426 18.6687)">
<stop stop-color="white"/>
<stop offset="1" stop-color="white" stop-opacity="0.5"/>
</radialGradient>
<radialGradient id="paint130_radial" cx="0" cy="0" r="1" gradientUnits="userSpaceOnUse" gradientTransform="translate(18.3264 20.3722) scale(18.5409 18.667)">
<stop stop-color="white"/>
<stop offset="1" stop-color="white" stop-opacity="0.5"/>
</radialGradient>
<radialGradient id="paint131_radial" cx="0" cy="0" r="1" gradientUnits="userSpaceOnUse" gradientTransform="translate(18.3264 20.3722) scale(18.5409 18.667)">
<stop stop-color="white"/>
<stop offset="1" stop-color="white" stop-opacity="0.5"/>
</radialGradient>
<radialGradient id="paint132_radial" cx="0" cy="0" r="1" gradientUnits="userSpaceOnUse" gradientTransform="translate(18.3269 20.3722) scale(18.541 18.667)">
<stop stop-color="white"/>
<stop offset="1" stop-color="white" stop-opacity="0.5"/>
</radialGradient>
<radialGradient id="paint133_radial" cx="0" cy="0" r="1" gradientUnits="userSpaceOnUse" gradientTransform="translate(18.327 20.3722) scale(18.541 18.667)">
<stop stop-color="white"/>
<stop offset="1" stop-color="white" stop-opacity="0.5"/>
</radialGradient>
<radialGradient id="paint134_radial" cx="0" cy="0" r="1" gradientUnits="userSpaceOnUse" gradientTransform="translate(18.3269 20.3722) scale(18.541 18.667)">
<stop stop-color="white"/>
<stop offset="1" stop-color="white" stop-opacity="0.5"/>
</radialGradient>
<radialGradient id="paint135_radial" cx="0" cy="0" r="1" gradientUnits="userSpaceOnUse" gradientTransform="translate(18.3258 20.3722) scale(18.5438 18.6698)">
<stop stop-color="white"/>
<stop offset="1" stop-color="white" stop-opacity="0.5"/>
</radialGradient>
<radialGradient id="paint136_radial" cx="0" cy="0" r="1" gradientUnits="userSpaceOnUse" gradientTransform="translate(18.327 20.3722) scale(18.5415 18.6676)">
<stop stop-color="white"/>
<stop offset="1" stop-color="white" stop-opacity="0.5"/>
</radialGradient>
<radialGradient id="paint137_radial" cx="0" cy="0" r="1" gradientUnits="userSpaceOnUse" gradientTransform="translate(18.3253 20.3722) scale(18.5437 18.6698)">
<stop stop-color="white"/>
<stop offset="1" stop-color="white" stop-opacity="0.5"/>
</radialGradient>
</defs>
</svg>
