<svg width="170" height="40" viewBox="0 0 170 40" fill="none" xmlns="http://www.w3.org/2000/svg">
<path d="M25.2405 29.0733L17.9546 32.1676V31.8453C16.5234 32.1676 15.0272 32.4255 13.531 32.4899C6.7655 32.4255 1.30106 28.9444 1.23601 24.7542V23.2071C3.4478 26.4303 8.06656 28.5576 13.531 28.4932C15.4175 28.5576 17.3041 28.2998 18.9304 27.8485L19.5809 26.3014C17.6944 26.8815 15.6127 27.2683 13.5961 27.2039C6.7655 27.2039 1.36611 23.7228 1.30106 19.4682V18.2434C3.51286 21.2087 8.13161 23.336 13.5961 23.2071C16.0681 23.336 18.475 22.8203 20.5567 21.9823L20.882 20.4351C18.8653 21.4666 16.3283 22.0467 13.5961 21.9823C6.7655 22.0467 1.30106 18.5657 1.23601 14.2466V13.0218C3.4478 16.0516 8.06656 18.1789 13.531 18.3078C16.6535 18.2434 19.646 17.4053 22.0529 16.116L22.3782 14.2466C20.1664 15.8582 16.9788 16.8896 13.531 17.0185C6.7655 16.8896 1.30106 13.3441 1.23601 8.96052C1.30106 4.77035 6.7655 1.28928 13.5961 1.22482C17.6293 1.28928 21.4024 2.70749 23.6793 4.96374L23.8744 5.35052H25.4357L25.1755 4.96374C23.0287 1.99839 18.5401 0 13.5961 0C6.04992 0 0 4.06124 0 8.96052V25.0766C0.260212 29.8469 6.18003 33.7147 13.5961 33.7147C18.475 33.7147 22.8986 31.8453 25.2405 29.0733Z" fill="black"/>
<path d="M21.9122 40L24.4493 29.3634L17 32.9734L21.587 14.021H13L15.2118 4.99597H42.5991L40.3873 14.021H31.475L29.5885 19.0492L39.4765 14.9879L21.9122 40ZM26.4009 27.1716L25.0998 33.4247L35.6384 17.8243L27.0514 21.5633L30.8245 12.8606H39.4115L41.0378 6.28525H16.1876L14.5613 12.8606H23.1483L19.0499 30.3304L26.4009 27.1716Z" fill="black"/>
<path d="M59.8197 12.6026C59.7556 13.6282 59.371 14.4615 58.6659 15.0385C57.9609 15.6154 57.0636 15.9359 55.9739 15.9359C54.7561 15.9359 53.7947 15.5513 53.0896 14.7179C52.3205 13.8846 52 12.7308 52 11.3205V10.7436C52 9.84615 52.1923 9.01282 52.5128 8.30769C52.8332 7.60256 53.2819 7.08974 53.9229 6.70513C54.4997 6.32051 55.2048 6.12821 56.038 6.12821C57.1276 6.12821 58.025 6.44872 58.73 7.02564C59.4351 7.60256 59.8197 8.4359 59.8838 9.52564H57.8968C57.8327 8.88462 57.7045 8.4359 57.384 8.17949C57.0636 7.92308 56.6149 7.73077 56.038 7.73077C55.3971 7.73077 54.8843 7.98718 54.5638 8.4359C54.2433 8.88462 54.0511 9.65385 54.0511 10.6154V11.3205C54.0511 12.3462 54.1792 13.1154 54.4997 13.5641C54.8202 14.0128 55.333 14.2692 55.9739 14.2692C56.5508 14.2692 57.0636 14.141 57.3199 13.8205C57.6404 13.5641 57.7686 13.1154 57.8327 12.5385C57.8327 12.6026 59.8197 12.6026 59.8197 12.6026ZM70.0109 11.2564C70.0109 12.2179 69.8186 13.0513 69.4981 13.7564C69.1776 14.4615 68.6649 15.0385 68.088 15.4231C67.447 15.8077 66.742 16 65.9728 16C65.2037 16 64.4986 15.8077 63.8577 15.4231C63.2167 15.0385 62.7681 14.5256 62.3835 13.8205C61.9989 13.1154 61.8707 12.2821 61.8707 11.3846V10.9359C61.8707 9.97436 62.063 9.14103 62.3835 8.4359C62.704 7.73077 63.2167 7.15385 63.7936 6.76923C64.4345 6.38462 65.1396 6.19231 65.9087 6.19231C66.6779 6.19231 67.3829 6.38462 68.0239 6.76923C68.6649 7.15385 69.1135 7.73077 69.434 8.4359C69.7545 9.14103 69.9468 9.97436 69.9468 10.9359C70.0109 10.8077 70.0109 11.2564 70.0109 11.2564ZM67.9598 10.8077C67.9598 9.78205 67.7675 9.01282 67.447 8.5C67.0625 7.98718 66.5497 7.73077 65.9087 7.73077C65.2678 7.73077 64.755 7.98718 64.3705 8.5C63.9859 9.01282 63.8577 9.78205 63.8577 10.7436V11.1923C63.8577 12.1538 64.05 12.9231 64.3705 13.4359C64.755 13.9487 65.2678 14.2692 65.9087 14.2692C66.5497 14.2692 67.0625 14.0128 67.447 13.5C67.8316 12.9872 67.9598 12.2179 67.9598 11.2564V10.8077ZM74.5617 15.8077H72.5747V6.25641H74.5617V15.8077ZM85.2015 15.8077H83.2146L79.3688 9.52564V15.8077H77.3819V6.25641H79.3688L83.2146 12.5385V6.25641H85.2015V15.8077ZM94.944 7.85897H91.9956V15.8077H90.0087V7.85897H87.1244V6.25641H94.944V7.85897ZM102.828 11.641H99.0462V14.2051H103.469V15.8077H97.0592V6.25641H103.469V7.85897H99.0462V10.1667H102.828V11.641ZM107.635 14.2051H111.801V15.8077H105.648V6.25641H107.635V14.2051ZM119.749 11.641H115.967V14.2051H120.39V15.8077H113.98V6.25641H120.39V7.85897H115.967V10.1667H119.749V11.641ZM130.133 14.5897C129.748 15.0385 129.299 15.359 128.658 15.5513C128.017 15.8077 127.312 15.8718 126.479 15.8718C125.646 15.8718 124.941 15.6795 124.3 15.359C123.659 14.9744 123.21 14.4615 122.826 13.7564C122.505 13.0513 122.313 12.2821 122.313 11.3205V10.6795C122.313 9.71795 122.505 8.88462 122.826 8.17949C123.146 7.47436 123.595 6.96154 124.236 6.57692C124.813 6.19231 125.582 6 126.351 6C127.505 6 128.402 6.25641 129.043 6.83333C129.684 7.34615 130.068 8.17949 130.197 9.20513H128.274C128.21 8.62821 128.017 8.24359 127.697 7.98718C127.376 7.73077 126.992 7.60256 126.479 7.60256C125.838 7.60256 125.325 7.85897 124.941 8.37179C124.62 8.88462 124.428 9.65385 124.428 10.6154V11.2564C124.428 12.2821 124.62 12.9872 125.005 13.5C125.389 14.0128 125.966 14.2692 126.671 14.2692C127.441 14.2692 127.953 14.141 128.274 13.8205V12.1538H126.479V10.6795H130.261L130.133 14.5897ZM136.35 12.2821H134.812V15.8077H132.76V6.25641H136.286C137.439 6.25641 138.273 6.51282 138.914 7.02564C139.555 7.53846 139.811 8.24359 139.811 9.14103C139.811 9.78205 139.683 10.359 139.362 10.7436C139.042 11.1282 138.657 11.5128 138.08 11.7692L140.131 15.6795V15.8077H138.016L136.35 12.2821ZM134.747 10.6795H136.35C136.863 10.6795 137.247 10.5513 137.504 10.2949C137.76 10.0385 137.888 9.71795 137.888 9.26923C137.888 8.82051 137.76 8.4359 137.504 8.17949C137.247 7.92308 136.863 7.79487 136.35 7.79487H134.747V10.6795ZM147.823 13.8205H144.362L143.721 15.8077H141.606L145.195 6.25641H147.054L150.643 15.8077H148.528L147.823 13.8205ZM144.875 12.2179H147.246L146.028 8.62821L144.875 12.2179ZM154.425 12.4103V15.8077H152.438V6.25641H156.155C156.86 6.25641 157.501 6.38462 158.078 6.64103C158.655 6.89744 159.04 7.28205 159.36 7.73077C159.681 8.24359 159.809 8.75641 159.809 9.39744C159.809 10.359 159.488 11.0641 158.847 11.641C158.206 12.1538 157.309 12.4744 156.155 12.4744H154.425V12.4103ZM154.425 10.8077H156.155C156.668 10.8077 157.053 10.6795 157.373 10.4231C157.63 10.1667 157.758 9.84615 157.758 9.39744C157.758 8.94872 157.63 8.5641 157.373 8.24359C157.117 7.98718 156.732 7.79487 156.219 7.79487H154.425C154.425 7.85897 154.425 10.8077 154.425 10.8077ZM170 15.8077H168.013V11.7051H164.167V15.8077H162.18V6.25641H164.167V10.1667H168.013V6.25641H170V15.8077Z" fill="black"/>
<path d="M55.6105 31.3715H54.3206V24.6561H52V23.561H57.9311V24.6561H55.6105V31.3715Z" fill="black"/>
<path d="M63.7592 31.3715H62.4856V27.7387C62.4856 27.2828 62.392 26.9427 62.2049 26.7183C62.0214 26.4939 61.7282 26.3817 61.3252 26.3817C60.7928 26.3817 60.4006 26.5402 60.1487 26.8572C59.9005 27.1706 59.7764 27.6977 59.7764 28.4386V31.3715H58.5081V23.0588H59.7764V25.169C59.7764 25.5074 59.7548 25.8689 59.7116 26.2535H59.7925C59.9652 25.9686 60.2045 25.7478 60.5103 25.5911C60.8197 25.4344 61.1795 25.356 61.5897 25.356C63.036 25.356 63.7592 26.0772 63.7592 27.5197V31.3715Z" fill="black"/>
<path d="M67.6283 31.4784C66.7 31.4784 65.9732 31.2113 65.4479 30.677C64.9262 30.1392 64.6654 29.4002 64.6654 28.4599C64.6654 27.4947 64.9083 26.7361 65.394 26.1841C65.8797 25.632 66.5471 25.356 67.3962 25.356C68.1841 25.356 68.8066 25.5928 69.2635 26.0665C69.7204 26.5402 69.9489 27.192 69.9489 28.0219V28.7003H65.9714C65.9894 29.2738 66.1459 29.7154 66.441 30.0253C66.736 30.3316 67.1515 30.4847 67.6876 30.4847C68.0402 30.4847 68.3676 30.4526 68.6699 30.3885C68.9757 30.3209 69.3031 30.2105 69.6521 30.0573V31.0777C69.3427 31.2237 69.0296 31.327 68.713 31.3876C68.3964 31.4481 68.0348 31.4784 67.6283 31.4784ZM67.3962 26.3069C66.9932 26.3069 66.6694 26.4334 66.4248 26.6863C66.1837 26.9391 66.0398 27.3078 65.993 27.7921H68.7022C68.695 27.3042 68.5763 26.9356 68.346 26.6863C68.1158 26.4334 67.7992 26.3069 67.3962 26.3069Z" fill="black"/>
<path d="M76.2514 26.4138H74.7943V31.3715H73.5206V26.4138H72.5384V25.8261L73.5206 25.4415V25.0568C73.5206 24.3588 73.6861 23.8423 74.0171 23.5075C74.3481 23.1692 74.8537 23 75.5337 23C75.9798 23 76.4187 23.073 76.8505 23.219L76.5159 24.17C76.2029 24.0703 75.9042 24.0204 75.62 24.0204C75.3322 24.0204 75.1217 24.1094 74.9886 24.2875C74.8591 24.462 74.7943 24.7256 74.7943 25.0782V25.4628H76.2514V26.4138Z" fill="black"/>
<path d="M80.9786 31.3715L80.8005 30.5969H80.7357C80.5594 30.8711 80.3076 31.0866 79.9802 31.2433C79.6563 31.4 79.2858 31.4784 78.8684 31.4784C78.1452 31.4784 77.6056 31.3003 77.2494 30.9441C76.8932 30.588 76.7151 30.0484 76.7151 29.3254V25.4628H77.9941V29.1064C77.9941 29.5587 78.0877 29.8988 78.2748 30.1268C78.4618 30.3511 78.7551 30.4633 79.1544 30.4633C79.6869 30.4633 80.0773 30.3066 80.3256 29.9932C80.5774 29.6762 80.7033 29.1473 80.7033 28.4065V25.4628H81.977V31.3715H80.9786Z" fill="black"/>
<path d="M85.506 30.4633C85.8155 30.4633 86.1249 30.4152 86.4343 30.3191V31.2647C86.294 31.3252 86.1123 31.3751 85.8892 31.4143C85.6697 31.457 85.4413 31.4784 85.2038 31.4784C84.0021 31.4784 83.4013 30.8515 83.4013 29.5979V26.4138H82.5863V25.8582L83.4606 25.3987L83.8924 24.1486H84.6749V25.4628H86.3749V26.4138H84.6749V29.5765C84.6749 29.8792 84.7505 30.1036 84.9016 30.2496C85.0563 30.3921 85.2578 30.4633 85.506 30.4633Z" fill="black"/>
<path d="M91.3395 31.3715L91.1614 30.5969H91.0967C90.9204 30.8711 90.6685 31.0866 90.3411 31.2433C90.0173 31.4 89.6467 31.4784 89.2294 31.4784C88.5062 31.4784 87.9665 31.3003 87.6103 30.9441C87.2541 30.588 87.076 30.0484 87.076 29.3254V25.4628H88.3551V29.1064C88.3551 29.5587 88.4486 29.8988 88.6357 30.1268C88.8228 30.3511 89.116 30.4633 89.5154 30.4633C90.0479 30.4633 90.4383 30.3066 90.6865 29.9932C90.9384 29.6762 91.0643 29.1473 91.0643 28.4065V25.4628H92.3379V31.3715H91.3395Z" fill="black"/>
<path d="M96.6711 25.356C96.9266 25.356 97.137 25.3738 97.3025 25.4094L97.1784 26.5794C96.9985 26.5367 96.8114 26.5153 96.6171 26.5153C96.1098 26.5153 95.6979 26.6791 95.3813 27.0068C95.0683 27.3345 94.9117 27.7601 94.9117 28.2836V31.3715H93.6435V25.4628H94.6365L94.8038 26.5046H94.8686C95.0665 26.152 95.3237 25.8724 95.6403 25.6659C95.9605 25.4593 96.3041 25.356 96.6711 25.356Z" fill="black"/>
<path d="M100.519 31.4784C99.5903 31.4784 98.8635 31.2113 98.3382 30.677C97.8166 30.1392 97.5557 29.4002 97.5557 28.4599C97.5557 27.4947 97.7986 26.7361 98.2843 26.1841C98.77 25.632 99.4374 25.356 100.287 25.356C101.074 25.356 101.697 25.5928 102.154 26.0665C102.611 26.5402 102.839 27.192 102.839 28.0219V28.7003H98.8617C98.8797 29.2738 99.0362 29.7154 99.3313 30.0253C99.6263 30.3316 100.042 30.4847 100.578 30.4847C100.931 30.4847 101.258 30.4526 101.56 30.3885C101.866 30.3209 102.193 30.2105 102.542 30.0573V31.0777C102.233 31.2237 101.92 31.327 101.603 31.3876C101.287 31.4481 100.925 31.4784 100.519 31.4784ZM100.287 26.3069C99.8835 26.3069 99.5597 26.4334 99.3151 26.6863C99.074 26.9391 98.9301 27.3078 98.8833 27.7921H101.593C101.585 27.3042 101.467 26.9356 101.236 26.6863C101.006 26.4334 100.689 26.3069 100.287 26.3069Z" fill="black"/>
<path d="M111.441 28.4065C111.441 29.3717 111.191 30.125 110.691 30.6663C110.191 31.2077 109.494 31.4784 108.602 31.4784C108.044 31.4784 107.551 31.3537 107.123 31.1044C106.695 30.8551 106.366 30.4972 106.136 30.0306C105.905 29.564 105.79 29.0227 105.79 28.4065C105.79 27.4484 106.039 26.7005 106.535 26.1627C107.032 25.6249 107.731 25.356 108.634 25.356C109.498 25.356 110.182 25.632 110.685 26.1841C111.189 26.7326 111.441 27.4734 111.441 28.4065ZM107.096 28.4065C107.096 29.7706 107.605 30.4526 108.624 30.4526C109.631 30.4526 110.135 29.7706 110.135 28.4065C110.135 27.0567 109.627 26.3817 108.613 26.3817C108.08 26.3817 107.694 26.5563 107.453 26.9053C107.215 27.2543 107.096 27.7547 107.096 28.4065Z" fill="black"/>
<path d="M115.396 26.4138H113.939V31.3715H112.665V26.4138H111.683V25.8261L112.665 25.4415V25.0568C112.665 24.3588 112.831 23.8423 113.162 23.5075C113.493 23.1692 113.998 23 114.678 23C115.125 23 115.563 23.073 115.995 23.219L115.661 24.17C115.348 24.0703 115.049 24.0204 114.765 24.0204C114.477 24.0204 114.266 24.1094 114.133 24.2875C114.004 24.462 113.939 24.7256 113.939 25.0782V25.4628H115.396V26.4138Z" fill="black"/>
<path d="M123.312 31.3715H122.039V27.728C122.039 27.2757 121.952 26.9391 121.78 26.7183C121.607 26.4939 121.337 26.3817 120.97 26.3817C120.481 26.3817 120.121 26.5402 119.891 26.8572C119.664 27.1706 119.551 27.6942 119.551 28.4279V31.3715H118.283V25.4628H119.276L119.454 26.2375H119.518C119.684 25.9561 119.923 25.7389 120.236 25.5857C120.553 25.4326 120.9 25.356 121.278 25.356C122.195 25.356 122.803 25.6659 123.102 26.2856H123.188C123.365 25.9935 123.613 25.7656 123.933 25.6017C124.253 25.4379 124.62 25.356 125.034 25.356C125.746 25.356 126.264 25.5341 126.588 25.8902C126.916 26.2464 127.079 26.7895 127.079 27.5197V31.3715H125.811V27.728C125.811 27.2757 125.723 26.9391 125.547 26.7183C125.374 26.4939 125.104 26.3817 124.737 26.3817C124.244 26.3817 123.883 26.5349 123.652 26.8412C123.426 27.1439 123.312 27.6105 123.312 28.2409V31.3715Z" fill="black"/>
<path d="M133.641 28.4065C133.641 29.3717 133.391 30.125 132.891 30.6663C132.391 31.2077 131.695 31.4784 130.803 31.4784C130.245 31.4784 129.752 31.3537 129.324 31.1044C128.896 30.8551 128.567 30.4972 128.336 30.0306C128.106 29.564 127.991 29.0227 127.991 28.4065C127.991 27.4484 128.239 26.7005 128.736 26.1627C129.232 25.6249 129.932 25.356 130.835 25.356C131.699 25.356 132.382 25.632 132.886 26.1841C133.39 26.7326 133.641 27.4734 133.641 28.4065ZM129.297 28.4065C129.297 29.7706 129.806 30.4526 130.824 30.4526C131.832 30.4526 132.335 29.7706 132.335 28.4065C132.335 27.0567 131.828 26.3817 130.813 26.3817C130.281 26.3817 129.894 26.5563 129.653 26.9053C129.416 27.2543 129.297 27.7547 129.297 28.4065Z" fill="black"/>
<path d="M139.853 31.3715H138.579V27.7387C138.579 27.2828 138.485 26.9427 138.298 26.7183C138.115 26.4939 137.822 26.3817 137.419 26.3817C136.883 26.3817 136.49 26.5384 136.242 26.8519C135.994 27.1653 135.87 27.6906 135.87 28.4279V31.3715H134.602V25.4628H135.595L135.773 26.2375H135.837C136.017 25.9561 136.273 25.7389 136.604 25.5857C136.935 25.4326 137.302 25.356 137.705 25.356C139.137 25.356 139.853 26.0772 139.853 27.5197V31.3715Z" fill="black"/>
<path d="M143.722 31.4784C142.793 31.4784 142.067 31.2113 141.541 30.677C141.02 30.1392 140.759 29.4002 140.759 28.4599C140.759 27.4947 141.002 26.7361 141.487 26.1841C141.973 25.632 142.641 25.356 143.49 25.356C144.278 25.356 144.9 25.5928 145.357 26.0665C145.814 26.5402 146.042 27.192 146.042 28.0219V28.7003H142.065C142.083 29.2738 142.239 29.7154 142.534 30.0253C142.829 30.3316 143.245 30.4847 143.781 30.4847C144.134 30.4847 144.461 30.4526 144.763 30.3885C145.069 30.3209 145.397 30.2105 145.746 30.0573V31.0777C145.436 31.2237 145.123 31.327 144.807 31.3876C144.49 31.4481 144.128 31.4784 143.722 31.4784ZM143.49 26.3069C143.087 26.3069 142.763 26.4334 142.518 26.6863C142.277 26.9391 142.133 27.3078 142.087 27.7921H144.796C144.789 27.3042 144.67 26.9356 144.44 26.6863C144.209 26.4334 143.893 26.3069 143.49 26.3069Z" fill="black"/>
<path d="M146.074 25.4628H147.456L148.67 28.8125C148.854 29.2898 148.976 29.7385 149.037 30.1588H149.08C149.113 29.9629 149.172 29.7261 149.258 29.4483C149.345 29.1669 149.802 27.8384 150.629 25.4628H152L149.447 32.1569C148.983 33.3856 148.21 34 147.127 34C146.846 34 146.573 33.9697 146.306 33.9092V32.9155C146.497 32.9582 146.715 32.9796 146.959 32.9796C147.571 32.9796 148.001 32.6288 148.249 31.9271L148.47 31.3715L146.074 25.4628Z" fill="black"/>
</svg>
