<svg width="180" height="30" viewBox="0 0 180 30" fill="none" xmlns="http://www.w3.org/2000/svg">
<path d="M10.0851 6.19894C8.74039 6.19894 7.69135 6.75637 6.93795 7.87122C6.18455 8.97645 5.80785 10.5046 5.80785 12.4556C5.80785 16.5113 7.33849 18.5392 10.3998 18.5392C11.3248 18.5392 12.2213 18.4094 13.0891 18.1499C13.957 17.8904 14.8296 17.5781 15.707 17.2129V22.0279C13.9617 22.8063 11.9876 23.1956 9.78466 23.1956C6.62801 23.1956 4.20569 22.2729 2.51769 20.4277C0.83923 18.5824 0 15.9154 0 12.4267C0 10.2451 0.40531 8.32773 1.21593 6.67468C2.03609 5.02162 3.2091 3.753 4.73497 2.86881C6.27038 1.97501 8.07282 1.52811 10.1423 1.52811C12.4025 1.52811 14.5625 2.02307 16.6225 3.01297L14.8916 7.4964C14.1191 7.13119 13.3466 6.82364 12.5741 6.57376C11.8017 6.32388 10.972 6.19894 10.0851 6.19894Z" fill="url(#paint0_linear)"/>
<path d="M34.242 14.7045C34.242 17.3763 33.5267 19.4618 32.0962 20.9611C30.6752 22.4507 28.6821 23.1956 26.1167 23.1956C23.6562 23.1956 21.6964 22.4315 20.2373 20.9034C18.7877 19.3753 18.0629 17.309 18.0629 14.7045C18.0629 12.0423 18.7734 9.97597 20.1944 8.50553C21.6249 7.02547 23.6276 6.28544 26.2025 6.28544C27.7951 6.28544 29.2018 6.62662 30.4225 7.30899C31.6432 7.99135 32.5826 8.97165 33.2406 10.2499C33.9082 11.5185 34.242 13.0034 34.242 14.7045ZM23.7421 14.7045C23.7421 16.1076 23.928 17.1792 24.2999 17.9193C24.6719 18.6497 25.2965 19.0149 26.1739 19.0149C27.0417 19.0149 27.6521 18.6497 28.005 17.9193C28.3673 17.1792 28.5485 16.1076 28.5485 14.7045C28.5485 13.3109 28.3673 12.2585 28.005 11.5473C27.6426 10.8361 27.0227 10.4805 26.1453 10.4805C25.287 10.4805 24.6719 10.8361 24.2999 11.5473C23.928 12.2489 23.7421 13.3013 23.7421 14.7045Z" fill="url(#paint1_linear)"/>
<path d="M42.3629 22.9073H36.7696V6.57376H42.3629V22.9073ZM36.6266 2.50841C36.6266 1.66266 36.8602 1.03316 37.3275 0.619894C37.7948 0.206631 38.5482 0 39.5877 0C40.6272 0 41.3854 0.211437 41.8622 0.63431C42.339 1.05718 42.5775 1.68188 42.5775 2.50841C42.5775 4.16146 41.5809 4.98799 39.5877 4.98799C37.6136 4.98799 36.6266 4.16146 36.6266 2.50841Z" fill="url(#paint2_linear)"/>
<path d="M55.791 22.9073V13.9981C55.791 12.9121 55.6336 12.0951 55.3189 11.5473C55.0137 10.9899 54.5178 10.7112 53.8312 10.7112C52.8871 10.7112 52.2052 11.0908 51.7856 11.8501C51.366 12.6093 51.1562 13.9116 51.1562 15.7568V22.9073H45.5629V6.57376H49.7829L50.4838 8.59202H50.8128C51.2897 7.82316 51.9477 7.24652 52.7869 6.86209C53.6357 6.47766 54.6084 6.28544 55.7052 6.28544C57.4981 6.28544 58.8904 6.80923 59.8822 7.8568C60.8836 8.90437 61.3843 10.3796 61.3843 12.2826V22.9073H55.791Z" fill="url(#paint3_linear)"/>
<path d="M77.001 17.8904C77.001 19.6396 76.4098 20.9611 75.2272 21.8549C74.0447 22.7487 72.3471 23.1956 70.1346 23.1956C68.933 23.1956 67.8887 23.1283 67.0018 22.9938C66.1149 22.8688 65.2089 22.6334 64.2839 22.2874V17.7751C65.1517 18.1595 66.1006 18.4767 67.1306 18.7266C68.1701 18.9765 69.0951 19.1014 69.9057 19.1014C71.1169 19.1014 71.7225 18.8227 71.7225 18.2653C71.7225 17.9769 71.5508 17.7222 71.2075 17.5012C70.8737 17.2705 69.8914 16.8284 68.2607 16.1749C66.7729 15.5598 65.7334 14.863 65.1422 14.0846C64.5509 13.2965 64.2552 12.3018 64.2552 11.1004C64.2552 9.58193 64.837 8.39981 66.0005 7.55406C67.1639 6.70831 68.809 6.28544 70.9357 6.28544C72.0038 6.28544 73.0052 6.40557 73.9398 6.64584C74.8839 6.8765 75.8614 7.21768 76.8723 7.66939L75.356 11.3023C74.6121 10.9659 73.8253 10.6824 72.9956 10.4517C72.1659 10.2114 71.4888 10.0913 70.9643 10.0913C70.0488 10.0913 69.591 10.3172 69.591 10.7689C69.591 11.0476 69.7484 11.2878 70.0631 11.4897C70.3873 11.6819 71.3124 12.0807 72.8383 12.6862C73.9731 13.1571 74.8171 13.6185 75.3703 14.0702C75.9329 14.5219 76.343 15.0553 76.6005 15.6704C76.8675 16.2758 77.001 17.0159 77.001 17.8904Z" fill="url(#paint4_linear)"/>
<path d="M89.1274 23.1956C88.3072 23.1956 87.5729 23.061 86.9244 22.7919C86.2759 22.5132 85.6322 22.0183 84.9932 21.3071H84.7357C84.9074 22.4507 84.9932 23.1619 84.9932 23.4407V30H79.3999V6.57376H83.949L84.7357 8.64969H84.9932C86.0327 7.07352 87.468 6.28544 89.299 6.28544C91.0919 6.28544 92.4986 7.03508 93.519 8.53436C94.5395 10.0336 95.0497 12.0903 95.0497 14.7045C95.0497 17.3378 94.5156 19.4137 93.4475 20.9322C92.3889 22.4411 90.9489 23.1956 89.1274 23.1956ZM87.2534 10.7112C86.4333 10.7112 85.8563 11.0091 85.5225 11.605C85.1983 12.1913 85.0218 13.0658 84.9932 14.2287V14.6756C84.9932 16.0788 85.1792 17.0927 85.5511 17.7174C85.9231 18.3421 86.5096 18.6545 87.3106 18.6545C88.0259 18.6545 88.5456 18.347 88.8699 17.7319C89.1941 17.1072 89.3563 16.0788 89.3563 14.6468C89.3563 13.2436 89.1941 12.2393 88.8699 11.6338C88.5456 11.0187 88.0068 10.7112 87.2534 10.7112Z" fill="url(#paint5_linear)"/>
<path d="M105.374 23.1956C102.675 23.1956 100.577 22.4748 99.0794 21.0332C97.5916 19.5819 96.8478 17.5204 96.8478 14.8486C96.8478 12.0903 97.5392 9.97597 98.922 8.50553C100.305 7.02547 102.279 6.28544 104.844 6.28544C107.286 6.28544 109.169 6.92936 110.495 8.2172C111.83 9.49544 112.498 11.3407 112.498 13.753V16.2614H102.498C102.536 17.1744 102.865 17.8904 103.485 18.4094C104.115 18.9284 104.968 19.1879 106.046 19.1879C107.028 19.1879 107.929 19.0966 108.75 18.914C109.579 18.7218 110.476 18.3998 111.439 17.9481V21.999C110.562 22.4507 109.656 22.7631 108.721 22.9361C107.786 23.1091 106.671 23.1956 105.374 23.1956ZM105.045 10.1201C104.387 10.1201 103.833 10.3316 103.385 10.7544C102.946 11.1677 102.689 11.8212 102.613 12.715H107.419C107.4 11.927 107.176 11.2975 106.747 10.8265C106.327 10.3556 105.76 10.1201 105.045 10.1201Z" fill="url(#paint6_linear)"/>
<path d="M125.525 22.9073L124.452 20.7448H124.338C123.584 21.6867 122.817 22.3306 122.035 22.6766C121.253 23.0226 120.242 23.1956 119.002 23.1956C117.476 23.1956 116.274 22.7343 115.397 21.8116C114.52 20.889 114.081 19.5915 114.081 17.9193C114.081 16.1797 114.682 14.8871 115.883 14.0413C117.085 13.186 118.826 12.7054 121.105 12.5997L123.808 12.5132V12.2826C123.808 10.9371 123.15 10.2643 121.834 10.2643C120.652 10.2643 119.15 10.6679 117.328 11.4753L115.712 7.75589C117.6 6.77559 119.984 6.28544 122.864 6.28544C124.943 6.28544 126.55 6.80442 127.685 7.84238C128.83 8.88035 129.402 10.3316 129.402 12.1961V22.9073H125.525ZM121.377 19.2167C122.054 19.2167 122.631 19.0005 123.108 18.568C123.594 18.1355 123.837 17.5733 123.837 16.8813V15.6127L122.55 15.6704C120.709 15.7376 119.789 16.42 119.789 17.7174C119.789 18.717 120.318 19.2167 121.377 19.2167Z" fill="url(#paint7_linear)"/>
<path d="M137.923 13.7242C138.6 12.6382 139.177 11.7924 139.654 11.1869L143.288 6.57376H149.525L143.903 13.5223L149.882 22.9073H143.488L139.94 17.0543L138.123 18.4527V22.9073H132.502V0.475733H138.123V9.29842C138.123 10.8073 138.019 12.2826 137.809 13.7242H137.923Z" fill="url(#paint8_linear)"/>
<path d="M158.933 23.1956C156.234 23.1956 154.136 22.4748 152.639 21.0332C151.151 19.5819 150.407 17.5204 150.407 14.8486C150.407 12.0903 151.099 9.97597 152.481 8.50553C153.864 7.02547 155.838 6.28544 158.404 6.28544C160.845 6.28544 162.729 6.92936 164.054 8.2172C165.389 9.49544 166.057 11.3407 166.057 13.753V16.2614H156.058C156.096 17.1744 156.425 17.8904 157.045 18.4094C157.674 18.9284 158.528 19.1879 159.605 19.1879C160.588 19.1879 161.489 19.0966 162.309 18.914C163.139 18.7218 164.035 18.3998 164.998 17.9481V21.999C164.121 22.4507 163.215 22.7631 162.28 22.9361C161.346 23.1091 160.23 23.1956 158.933 23.1956ZM158.604 10.1201C157.946 10.1201 157.393 10.3316 156.945 10.7544C156.506 11.1677 156.248 11.8212 156.172 12.715H160.979C160.96 11.927 160.735 11.2975 160.306 10.8265C159.887 10.3556 159.319 10.1201 158.604 10.1201Z" fill="url(#paint9_linear)"/>
<path d="M178.298 6.28544C178.784 6.28544 179.247 6.32388 179.685 6.40077L180 6.45843L179.499 11.778C179.042 11.6627 178.407 11.605 177.597 11.605C176.376 11.605 175.489 11.8885 174.936 12.4556C174.383 13.013 174.106 13.8203 174.106 14.8775V22.9073H168.513V6.57376H172.676L173.548 9.18309H173.82C174.288 8.31812 174.936 7.62134 175.766 7.09274C176.605 6.55454 177.449 6.28544 178.298 6.28544Z" fill="url(#paint10_linear)"/>
<defs>
<linearGradient id="paint0_linear" x1="0" y1="30" x2="180" y2="30" gradientUnits="userSpaceOnUse">
<stop stop-color="#E13537"/>
<stop offset="1" stop-color="#A82526"/>
</linearGradient>
<linearGradient id="paint1_linear" x1="0" y1="30" x2="180" y2="30" gradientUnits="userSpaceOnUse">
<stop stop-color="#E13537"/>
<stop offset="1" stop-color="#A82526"/>
</linearGradient>
<linearGradient id="paint2_linear" x1="0" y1="30" x2="180" y2="30" gradientUnits="userSpaceOnUse">
<stop stop-color="#E13537"/>
<stop offset="1" stop-color="#A82526"/>
</linearGradient>
<linearGradient id="paint3_linear" x1="0" y1="30" x2="180" y2="30" gradientUnits="userSpaceOnUse">
<stop stop-color="#E13537"/>
<stop offset="1" stop-color="#A82526"/>
</linearGradient>
<linearGradient id="paint4_linear" x1="0" y1="30" x2="180" y2="30" gradientUnits="userSpaceOnUse">
<stop stop-color="#E13537"/>
<stop offset="1" stop-color="#A82526"/>
</linearGradient>
<linearGradient id="paint5_linear" x1="0" y1="30" x2="180" y2="30" gradientUnits="userSpaceOnUse">
<stop stop-color="#E13537"/>
<stop offset="1" stop-color="#A82526"/>
</linearGradient>
<linearGradient id="paint6_linear" x1="0" y1="30" x2="180" y2="30" gradientUnits="userSpaceOnUse">
<stop stop-color="#E13537"/>
<stop offset="1" stop-color="#A82526"/>
</linearGradient>
<linearGradient id="paint7_linear" x1="0" y1="30" x2="180" y2="30" gradientUnits="userSpaceOnUse">
<stop stop-color="#E13537"/>
<stop offset="1" stop-color="#A82526"/>
</linearGradient>
<linearGradient id="paint8_linear" x1="0" y1="30" x2="180" y2="30" gradientUnits="userSpaceOnUse">
<stop stop-color="#E13537"/>
<stop offset="1" stop-color="#A82526"/>
</linearGradient>
<linearGradient id="paint9_linear" x1="0" y1="30" x2="180" y2="30" gradientUnits="userSpaceOnUse">
<stop stop-color="#E13537"/>
<stop offset="1" stop-color="#A82526"/>
</linearGradient>
<linearGradient id="paint10_linear" x1="0" y1="30" x2="180" y2="30" gradientUnits="userSpaceOnUse">
<stop stop-color="#E13537"/>
<stop offset="1" stop-color="#A82526"/>
</linearGradient>
</defs>
</svg>
