<svg width="12" height="12" viewBox="0 0 12 12" fill="none" xmlns="http://www.w3.org/2000/svg">
<path fill-rule="evenodd" clip-rule="evenodd" d="M1.05113 5.50092C0.774984 5.50095 0.551147 5.72482 0.551173 6.00097C0.551198 6.27711 0.775076 6.50095 1.05122 6.50092L5.49999 6.50051L5.49999 10.9497C5.49999 11.2259 5.72385 11.4497 5.99999 11.4497C6.27614 11.4497 6.49999 11.2259 6.49999 10.9497L6.49999 6.50042L10.9498 6.5C11.2259 6.49998 11.4498 6.2761 11.4498 5.99996C11.4497 5.72381 11.2258 5.49998 10.9497 5.5L6.49999 5.50042L6.49999 1.05025C6.49999 0.774111 6.27614 0.550253 5.99999 0.550253C5.72385 0.550253 5.49999 0.774111 5.49999 1.05025V5.50051L1.05113 5.50092Z" fill="black"/>
</svg>
