<svg width="20" height="20" viewBox="0 0 20 20" fill="none" xmlns="http://www.w3.org/2000/svg">
<g clip-path="url(#clip0)">
<path d="M19.8851 3.78814C19.7521 3.64275 19.538 3.60496 19.3633 3.69598C19.1837 3.77758 18.998 3.84476 18.8077 3.89685C19.1044 3.51712 19.3285 3.08582 19.4685 2.62465C19.5302 2.39259 19.3921 2.15446 19.16 2.09279C19.0361 2.05985 18.904 2.08329 18.799 2.15683C18.1379 2.51459 17.4352 2.78944 16.7068 2.97511C15.2073 1.55979 12.9232 1.38338 11.2241 2.55164C9.91527 3.43657 9.19473 4.96603 9.34579 6.53865C6.50867 6.29689 3.89834 4.89099 2.13524 2.65509C2.04467 2.54553 1.90763 2.4852 1.76566 2.4925C1.62169 2.50114 1.49142 2.58062 1.41784 2.70466C0.819463 3.68281 0.646104 4.86274 0.937834 5.97165C1.08743 6.54142 1.34386 7.07759 1.69351 7.55169C1.53601 7.47457 1.3878 7.37976 1.25178 7.26909C1.0653 7.11783 0.791501 7.14636 0.640194 7.33284C0.577421 7.41025 0.5431 7.50685 0.543059 7.60652C0.568902 9.21525 1.45229 10.6876 2.85962 11.4674C2.66975 11.4441 2.48233 11.404 2.29959 11.3474C2.06966 11.2783 1.82717 11.4086 1.758 11.6385C1.72783 11.7388 1.73488 11.8467 1.77785 11.9422C2.38866 13.3105 3.60979 14.3098 5.07183 14.6379C3.67888 15.4238 2.07492 15.754 0.484811 15.5823C0.278639 15.5559 0.08331 15.6813 0.0213118 15.8797C-0.0426023 16.0765 0.0410403 16.2911 0.221328 16.3927C2.1683 17.5496 4.38316 18.1789 6.6475 18.2189C8.81985 18.2109 10.9415 17.5621 12.7467 16.3536C16.1929 14.0666 18.3407 9.96045 18.0416 6.2865C18.7785 5.74107 19.4176 5.07486 19.9321 4.31604C20.0378 4.14974 20.0185 3.93313 19.8851 3.78814Z" fill="#CCCCCC"/>
</g>
<defs>
<clipPath id="clip0">
<rect width="20" height="20" fill="white"/>
</clipPath>
</defs>
</svg>
