<svg width="20" height="20" viewBox="0 0 20 20" fill="none" xmlns="http://www.w3.org/2000/svg">
<path fill-rule="evenodd" clip-rule="evenodd" d="M19.81 5.80005C19.751 5.14556 19.4628 4.53291 18.9963 4.07007C18.5298 3.60723 17.9149 3.32389 17.26 3.27002C15.69 3.14002 13.37 3 10.5 3C7.05 3 4.44002 3.14002 2.75702 3.27002C2.09766 3.32472 1.47876 3.61059 1.00964 4.07715C0.540523 4.54371 0.251305 5.16102 0.192993 5.82007C0.0929932 6.90007 0 8.33004 0 10.04C0 11.71 0.088979 13.1199 0.190979 14.1899C0.250173 14.8477 0.539976 15.4634 1.00916 15.9282C1.47833 16.393 2.09671 16.677 2.755 16.73C4.44 16.86 7.05 17 10.5 17C13.37 17 15.69 16.86 17.26 16.73C17.9164 16.6756 18.5325 16.3909 18.9991 15.926C19.4658 15.4612 19.753 14.8461 19.81 14.1899C19.91 13.1199 20 11.69 20 10C20 8.31 19.91 6.88005 19.81 5.80005ZM7.78003 12.9399V7.06006L13.57 10L7.78003 12.9399Z" fill="#CCCCCC"/>
</svg>
