<?xml version="1.0" encoding="utf-8"?>
<svg version="1.1" id="Layer_1" xmlns="http://www.w3.org/2000/svg" xmlns:xlink="http://www.w3.org/1999/xlink" x="0px" y="0px"
	 viewBox="0 0 40 40" style="enable-background:new 0 0 40 40;" xml:space="preserve">
<style type="text/css">
	.st0{fill:#4472DF;}
</style>
<g>
	<path class="st0" d="M0,0v40h40V0H0z M35.3,35.3H4.7V4.7h30.6V35.3z"/>
	<path class="st0" d="M14.2,28.4l2.4-2.4c1.1,0.6,2.1,0.9,3.4,0.9c1.3,0,2.4-0.4,3.4-0.9l2.4,2.4l2.6-2.6L26,23.4
		c0.6-1.1,0.9-2.2,0.9-3.4s-0.4-2.4-0.9-3.4l2.4-2.4l-2.6-2.6L23.4,14c-1.1-0.6-2.2-0.9-3.4-0.9c-1.3,0-2.5,0.4-3.4,0.9l-2.4-2.4
		l-2.6,2.6l2.4,2.4c-0.6,1.1-0.9,2.1-0.9,3.4c0,1.3,0.4,2.5,0.9,3.4l-2.4,2.4L14.2,28.4z M20,17.1c1.6,0,2.9,1.3,2.9,2.9
		s-1.3,2.9-2.9,2.9s-2.9-1.3-2.9-2.9S18.4,17.1,20,17.1z"/>
</g>
</svg>
