<svg width="166" height="40" viewBox="0 0 166 40" fill="none" xmlns="http://www.w3.org/2000/svg"><path d="M35.733 10.152a.41.41 0 00-.2-.344c-3.4-2.366-9.266-5.67-9.266-5.67s-3.667-2.023-8-4.098c-.107-.053-.427-.053-.534 0-4.333 2.075-8 4.097-8 4.097S3.867 7.442.467 9.808a.41.41 0 00-.2.344S0 14.052 0 20s.267 9.848.267 9.848c0 .145.08.264.2.344 3.4 2.366 9.266 5.67 9.266 5.67s3.667 2.023 8 4.098c.107.053.427.053.534 0 4.333-2.075 8-4.098 8-4.098s5.866-3.304 9.266-5.67a.41.41 0 00.2-.344S36 25.948 36 20s-.267-9.848-.267-9.848z" fill="url(#paint0_linear)"/><path d="M20.933 11.5h-5.866v16.92h5.866V11.5z" fill="#9FD6DE"/><path d="M5.407 33.337L20.933 11.5h-7.466L.304 30.012a.457.457 0 00.163.18c1.419.987 3.268 2.139 4.94 3.145zM35.533 9.808a.477.477 0 01.138.136L22.533 28.42h-7.466L30.553 6.64c1.683 1.012 3.55 2.173 4.98 3.168z" fill="#fff"/><path d="M60.86 27.721V12.232h-1.933v12.099L49.98 12.232H48v15.49h1.934V15.366l9.063 12.354h1.864zm14.732 0v-1.718h-8.247v-5.341h8.084v-1.719h-8.084v-4.992h8.247v-1.719H65.411v15.49h10.181zm20.89 0l4.926-15.489h-2.143L95.34 25.144l-4.23-12.912h-1.608l-4.23 12.912-3.948-12.912H79.18l4.926 15.49h2.097l4.09-12.494 4.091 12.493h2.097zm12.87.279c4.11 0 5.648-2.299 5.648-4.552 0-5.782-9.036-3.785-9.036-7.268 0-1.463 1.244-2.462 3.108-2.462 1.701 0 3.332.581 4.497 1.858l1.165-1.416c-1.305-1.37-3.146-2.16-5.522-2.16-3.052 0-5.252 1.742-5.252 4.296 0 5.527 9.036 3.32 9.036 7.315 0 1.184-.885 2.67-3.574 2.67-2.19 0-3.868-1.068-4.893-2.205l-1.142 1.462c1.282 1.44 3.262 2.462 5.965 2.462z" fill="#000"/><path d="M130.406 27.722c2.95 0 4.505-1.855 4.505-4.174 0-1.948-1.323-3.548-2.972-3.803 1.463-.302 2.671-1.6 2.671-3.548 0-2.064-1.51-3.942-4.459-3.942H122v15.467h8.406zm-.975-9.276h-4.133v-3.362h4.133c1.115 0 1.811.719 1.811 1.693 0 .974-.696 1.67-1.811 1.67zm.116 6.424h-4.249v-3.595h4.249c1.301 0 1.997.835 1.997 1.81 0 1.112-.743 1.785-1.997 1.785zm15.426 2.852V15.154h4.505v-2.899h-12.354v2.899h4.528v12.568h3.321zm14.548.278c3.414 0 5.364-1.878 6.479-3.803l-2.833-1.368c-.65 1.275-2.044 2.25-3.646 2.25-2.81 0-4.853-2.157-4.853-5.079 0-2.922 2.043-5.078 4.853-5.078 1.602 0 2.996.997 3.646 2.249L166 15.78c-1.091-1.925-3.065-3.78-6.479-3.78-4.644 0-8.244 3.246-8.244 8s3.6 8 8.244 8z" fill="#1AA6BA"/><defs><linearGradient id="paint0_linear" x1="4.088" y1="6.207" x2="31.672" y2="34.031" gradientUnits="userSpaceOnUse"><stop stop-color="#18B1B4"/><stop offset="1" stop-color="#158CB3"/></linearGradient></defs></svg>