<svg width="170" height="40" viewBox="0 0 170 40" fill="none" xmlns="http://www.w3.org/2000/svg"><path d="M25.24 29.073l-7.285 3.095v-.323c-1.432.323-2.928.58-4.424.645-6.766-.065-12.23-3.546-12.295-7.736v-1.547c2.212 3.223 6.83 5.35 12.295 5.286a18.243 18.243 0 005.4-.644l.65-1.548c-1.887.58-3.968.967-5.985.903-6.83 0-12.23-3.481-12.295-7.736v-1.225c2.212 2.966 6.83 5.093 12.295 4.964 2.472.129 4.879-.387 6.96-1.225l.326-1.547c-2.017 1.032-4.554 1.612-7.286 1.547-6.83.065-12.295-3.416-12.36-7.735v-1.225c2.212 3.03 6.83 5.157 12.295 5.286 3.123-.065 6.115-.903 8.522-2.192l.325-1.87c-2.212 1.612-5.4 2.644-8.847 2.772-6.766-.128-12.23-3.674-12.295-8.057.065-4.19 5.53-7.672 12.36-7.736 4.033.064 7.806 1.482 10.083 3.739l.195.387h1.562l-.26-.387C23.029 1.998 18.54 0 13.595 0 6.05 0 0 4.061 0 8.96v16.117c.26 4.77 6.18 8.638 13.596 8.638 4.879 0 9.303-1.87 11.645-4.642z" fill="#000"/><path d="M21.912 40l2.537-10.637L17 32.973l4.587-18.952H13l2.212-9.025h27.387l-2.212 9.025h-8.912l-1.887 5.028 9.889-4.061L21.912 40zm4.489-12.828L25.1 33.425l10.538-15.6-8.587 3.738 3.774-8.702h8.586l1.627-6.576h-24.85l-1.627 6.576h8.587L19.05 30.33l7.35-3.16zM59.82 12.603c-.064 1.025-.449 1.858-1.154 2.436-.705.576-1.602.897-2.692.897-1.218 0-2.18-.385-2.884-1.218-.77-.833-1.09-1.987-1.09-3.398v-.576c0-.898.192-1.731.513-2.436.32-.705.769-1.218 1.41-1.603.577-.384 1.282-.577 2.115-.577 1.09 0 1.987.32 2.692.898.705.577 1.09 1.41 1.154 2.5h-1.987c-.064-.641-.192-1.09-.513-1.347-.32-.256-.77-.448-1.346-.448-.64 0-1.154.256-1.474.705-.32.449-.513 1.218-.513 2.18v.704c0 1.026.128 1.795.449 2.244.32.449.833.705 1.474.705.577 0 1.09-.128 1.346-.449.32-.256.449-.705.513-1.281 0 .064 1.987.064 1.987.064zm10.19-1.347c0 .962-.191 1.795-.512 2.5a4.017 4.017 0 01-1.41 1.667 4.034 4.034 0 01-2.115.577c-.77 0-1.474-.192-2.115-.577-.641-.384-1.09-.897-1.474-1.603-.385-.705-.513-1.538-.513-2.435v-.45c0-.96.192-1.794.512-2.5a4.017 4.017 0 011.41-1.666 4.034 4.034 0 012.116-.577 4.04 4.04 0 012.115.577c.64.385 1.09.962 1.41 1.667.32.705.513 1.538.513 2.5.064-.128.064.32.064.32zm-2.05-.448c0-1.026-.192-1.795-.513-2.308a1.827 1.827 0 00-1.538-.77c-.641 0-1.154.257-1.538.77-.385.513-.513 1.282-.513 2.244v.448c0 .962.192 1.731.513 2.244.384.513.897.833 1.538.833.64 0 1.153-.256 1.538-.769s.513-1.282.513-2.244v-.448zm6.602 5h-1.987V6.256h1.987v9.552zm10.64 0h-1.987l-3.846-6.282v6.282h-1.987V6.256h1.987l3.846 6.283V6.256H85.2v9.552zm9.742-7.949h-2.948v7.949h-1.987V7.859h-2.885V6.256h7.82V7.86zm7.884 3.782h-3.782v2.564h4.423v1.603h-6.41V6.256h6.41V7.86h-4.423v2.308h3.782v1.474zm4.807 2.564h4.166v1.603h-6.153V6.256h1.987v7.95zm12.114-2.564h-3.782v2.564h4.423v1.603h-6.41V6.256h6.41V7.86h-4.423v2.308h3.782v1.474zm10.384 2.949a2.973 2.973 0 01-1.475.961c-.641.257-1.346.32-2.179.32a4.753 4.753 0 01-2.179-.512c-.641-.385-1.09-.898-1.474-1.603-.321-.705-.513-1.474-.513-2.436v-.64c0-.962.192-1.795.513-2.5.32-.706.769-1.218 1.41-1.603.577-.385 1.346-.577 2.115-.577 1.154 0 2.051.256 2.692.833.641.513 1.025 1.346 1.154 2.372h-1.923c-.064-.577-.257-.961-.577-1.218-.321-.256-.705-.384-1.218-.384-.641 0-1.154.256-1.538.769-.321.513-.513 1.282-.513 2.243v.641c0 1.026.192 1.731.577 2.244.384.513.961.77 1.666.77.77 0 1.282-.129 1.603-.45v-1.666h-1.795V10.68h3.782l-.128 3.91zm6.217-2.308h-1.538v3.526h-2.052V6.256h3.526c1.153 0 1.987.257 2.628.77.641.512.897 1.218.897 2.115 0 .641-.128 1.218-.449 1.603-.32.384-.705.769-1.282 1.025l2.051 3.91v.129h-2.115l-1.666-3.526zm-1.603-1.602h1.603c.513 0 .897-.129 1.154-.385.256-.256.384-.577.384-1.026 0-.448-.128-.833-.384-1.09-.257-.256-.641-.384-1.154-.384h-1.603v2.885zm13.076 3.14h-3.461l-.641 1.988h-2.115l3.589-9.552h1.859l3.589 9.552h-2.115l-.705-1.988zm-2.948-1.602h2.371l-1.218-3.59-1.153 3.59zm9.55.192v3.398h-1.987V6.256h3.717c.705 0 1.346.129 1.923.385s.962.641 1.282 1.09c.321.513.449 1.025.449 1.666 0 .962-.321 1.667-.962 2.244-.641.513-1.538.833-2.692.833h-1.73v-.064zm0-1.602h1.73c.513 0 .898-.128 1.218-.385.257-.256.385-.577.385-1.026 0-.448-.128-.833-.385-1.153-.256-.257-.641-.45-1.154-.45h-1.794v3.014zm15.575 5h-1.987v-4.103h-3.846v4.103h-1.987V6.256h1.987v3.91h3.846v-3.91H170v9.552zM55.61 31.372h-1.29v-6.716H52v-1.095h5.931v1.095h-2.32v6.716zm8.15 0h-1.274v-3.633c0-.456-.094-.796-.281-1.02-.184-.225-.477-.337-.88-.337-.532 0-.924.158-1.176.475-.248.314-.373.84-.373 1.582v2.933h-1.268v-8.313h1.268v2.11c0 .338-.021.7-.064 1.084h.08c.173-.284.413-.505.718-.662a2.36 2.36 0 011.08-.235c1.446 0 2.17.721 2.17 2.164v3.852zm3.868.106c-.928 0-1.655-.267-2.18-.801-.522-.538-.783-1.277-.783-2.217 0-.965.243-1.724.729-2.276.486-.552 1.153-.828 2.002-.828.788 0 1.41.237 1.867.71.457.474.686 1.126.686 1.956v.678H65.97c.018.574.175 1.015.47 1.325.295.307.71.46 1.247.46.352 0 .68-.032.982-.096a5.32 5.32 0 00.982-.332v1.02c-.31.147-.622.25-.939.31a5.82 5.82 0 01-1.085.091zm-.232-5.171c-.403 0-.727.126-.971.38-.241.252-.385.62-.432 1.105h2.71c-.008-.488-.127-.856-.357-1.106-.23-.253-.547-.38-.95-.38zm8.855.107h-1.457v4.957h-1.273v-4.957h-.983v-.588l.983-.384v-.385c0-.698.165-1.215.496-1.55.331-.338.837-.507 1.517-.507.446 0 .885.073 1.316.219l-.334.951c-.313-.1-.612-.15-.896-.15-.288 0-.498.09-.631.268-.13.174-.195.438-.195.79v.385h1.457v.95zm4.728 4.958l-.178-.775h-.065c-.177.274-.428.49-.756.646a2.522 2.522 0 01-1.112.235c-.723 0-1.262-.178-1.619-.534-.356-.356-.534-.896-.534-1.619v-3.862h1.28v3.643c0 .453.093.793.28 1.02.187.225.48.337.88.337.532 0 .922-.156 1.17-.47.252-.317.378-.846.378-1.586v-2.944h1.274v5.909h-.998zm4.527-.909c.31 0 .619-.048.928-.144v.946c-.14.06-.322.11-.545.15-.22.042-.448.063-.685.063-1.202 0-1.803-.627-1.803-1.88v-3.184h-.815v-.556l.875-.46.431-1.25h.783v1.315h1.7v.95h-1.7v3.163c0 .303.076.528.227.674.154.142.356.213.604.213zm5.834.909l-.179-.775h-.064c-.177.274-.428.49-.756.646a2.521 2.521 0 01-1.112.235c-.723 0-1.263-.178-1.619-.534-.356-.356-.534-.896-.534-1.619v-3.862h1.28v3.643c0 .453.093.793.28 1.02.187.225.48.337.88.337.532 0 .922-.156 1.17-.47.252-.317.378-.846.378-1.586v-2.944h1.274v5.909h-.998zm5.331-6.016c.256 0 .466.018.631.053l-.124 1.17a2.423 2.423 0 00-.56-.064c-.508 0-.92.164-1.237.492-.313.327-.47.753-.47 1.277v3.088h-1.267v-5.91h.992l.168 1.043h.065c.198-.353.455-.633.771-.84.32-.206.664-.309 1.031-.309zm3.848 6.122c-.929 0-1.656-.267-2.18-.801-.522-.538-.783-1.277-.783-2.217 0-.965.243-1.724.728-2.276.486-.552 1.153-.828 2.003-.828.787 0 1.41.237 1.867.71.457.474.685 1.126.685 1.956v.678h-3.977c.018.574.174 1.015.47 1.325.294.307.71.46 1.246.46.353 0 .68-.032.982-.096a5.29 5.29 0 00.982-.332v1.02c-.309.147-.622.25-.939.31a5.81 5.81 0 01-1.084.091zm-.232-5.171c-.404 0-.727.126-.972.38-.241.252-.385.62-.432 1.105h2.71c-.008-.488-.126-.856-.357-1.106-.23-.253-.547-.38-.949-.38zm11.154 2.1c0 .965-.25 1.718-.75 2.26-.5.54-1.197.811-2.089.811-.558 0-1.051-.124-1.479-.374a2.476 2.476 0 01-.987-1.073c-.231-.467-.346-1.008-.346-1.624 0-.959.249-1.706.745-2.244.497-.538 1.196-.807 2.099-.807.864 0 1.548.276 2.051.828.504.549.756 1.29.756 2.223zm-4.345 0c0 1.364.509 2.046 1.528 2.046 1.007 0 1.511-.682 1.511-2.046 0-1.35-.508-2.025-1.522-2.025-.533 0-.919.174-1.16.523-.238.35-.357.85-.357 1.502zm8.3-1.993h-1.457v4.957h-1.274v-4.957h-.982v-.588l.982-.384v-.385c0-.698.166-1.215.497-1.55.331-.338.836-.507 1.516-.507.447 0 .885.073 1.317.219l-.334.951c-.313-.1-.612-.15-.896-.15-.288 0-.499.09-.632.268-.129.174-.194.438-.194.79v.385h1.457v.95zm7.916 4.958h-1.273v-3.644c0-.452-.087-.789-.259-1.01-.173-.224-.443-.336-.81-.336-.489 0-.849.158-1.079.475-.227.314-.34.837-.34 1.57v2.945h-1.268v-5.91h.993l.178.776h.064c.166-.282.405-.5.718-.652.317-.153.664-.23 1.042-.23.917 0 1.525.31 1.824.93h.086a1.82 1.82 0 01.745-.684 2.38 2.38 0 011.101-.246c.712 0 1.23.178 1.554.534.328.356.491.9.491 1.63v3.852h-1.268v-3.644c0-.452-.088-.789-.264-1.01-.173-.224-.443-.336-.81-.336-.493 0-.854.153-1.085.46-.226.302-.34.768-.34 1.399v3.13zm10.329-2.965c0 .965-.25 1.718-.75 2.26-.5.54-1.196.811-2.088.811-.558 0-1.051-.124-1.479-.374a2.484 2.484 0 01-.988-1.073c-.23-.467-.345-1.008-.345-1.624 0-.959.248-1.706.745-2.244.496-.538 1.196-.807 2.099-.807.864 0 1.547.276 2.051.828.504.549.755 1.29.755 2.223zm-4.344 0c0 1.364.509 2.046 1.527 2.046 1.008 0 1.511-.682 1.511-2.046 0-1.35-.507-2.025-1.522-2.025-.532 0-.919.174-1.16.523-.237.35-.356.85-.356 1.502zm10.556 2.965h-1.274v-3.633c0-.456-.094-.796-.281-1.02-.183-.225-.476-.337-.879-.337-.536 0-.929.156-1.177.47-.248.313-.372.839-.372 1.576v2.944h-1.268v-5.91h.993l.178.776h.064c.18-.282.436-.5.767-.652.331-.153.698-.23 1.101-.23 1.432 0 2.148.721 2.148 2.164v3.852zm3.869.106c-.929 0-1.655-.267-2.181-.801-.521-.538-.782-1.277-.782-2.217 0-.965.243-1.724.728-2.276.486-.552 1.154-.828 2.003-.828.788 0 1.41.237 1.867.71.457.474.685 1.126.685 1.956v.678h-3.977c.018.574.174 1.015.469 1.325.295.307.711.46 1.247.46.353 0 .68-.032.982-.096.306-.068.634-.178.983-.332v1.02c-.31.147-.623.25-.939.31a5.83 5.83 0 01-1.085.091zm-.232-5.171c-.403 0-.727.126-.972.38-.241.252-.385.62-.431 1.105h2.709c-.007-.488-.126-.856-.356-1.106-.231-.253-.547-.38-.95-.38zm2.584-.844h1.382l1.214 3.35c.184.477.306.925.367 1.346h.043c.033-.196.092-.433.178-.71.087-.282.544-1.61 1.371-3.986H152l-2.553 6.694c-.464 1.229-1.237 1.843-2.32 1.843a3.7 3.7 0 01-.821-.09v-.994c.191.042.409.064.653.064.612 0 1.042-.351 1.29-1.053l.221-.555-2.396-5.91z" fill="#000"/></svg>