<svg xmlns="http://www.w3.org/2000/svg" width="20" height="20" viewBox="0 0 20 20"><rect data-name="Rounded Rectangle 522 copy" width="20" height="20" rx="5" ry="5" fill="#ccc"/><path d="M16 6.18a4.18 4.18 0 01-1.3.4 2.44 2.44 0 00.99-1.4 4.258 4.258 0 01-1.43.62 2.152 2.152 0 00-1.64-.8 2.4 2.4 0 00-2.26 2.52 2.784 2.784 0 00.06.58 6.2 6.2 0 01-4.65-2.64 2.681 2.681 0 00-.31 1.27 2.594 2.594 0 001.01 2.1 2 2 0 01-1.02-.31v.03a2.461 2.461 0 001.8 2.47 2.074 2.074 0 01-1.01.05 2.3 2.3 0 002.1 1.75 4.2 4.2 0 01-2.8 1.08 4.886 4.886 0 01-.54-.03A5.962 5.962 0 008.46 15c4.15 0 6.42-3.85 6.42-7.18 0-.11 0-.22-.01-.33A4.929 4.929 0 0016 6.18z" fill="#fff" fill-rule="evenodd"/></svg>