<svg width="1053" height="320" viewBox="0 0 1053 320" fill="none" xmlns="http://www.w3.org/2000/svg"><path d="M189.365 605.713c13.745 15.86 37.744 17.574 53.604 3.829 15.859-13.745 17.574-37.744 3.829-53.604l-57.433 49.775zm-321.676-487.208c-13.745-15.86-37.744-17.574-53.604-3.829-15.859 13.745-17.573 37.744-3.829 53.604l57.433-49.775zm379.109 437.433l-379.109-437.433-57.433 49.775 379.109 437.433 57.433-49.775z" fill="url(#paint0_linear)"/><path d="M254.975 571.713c5.033 20.375-7.404 40.971-27.778 46.004-20.375 5.033-40.971-7.403-46.004-27.777l73.782-18.227zM-8.36-177.392c-5.033-20.374 7.403-40.971 27.778-46.004 20.374-5.033 40.971 7.403 46.004 27.778L-8.36-177.392zM181.193 589.94L-8.36-177.392l73.782-18.226 189.553 767.331-73.782 18.227z" fill="url(#paint1_linear)"/><path d="M61.48-205.436c-10.456-18.197-33.683-24.473-51.88-14.017-18.197 10.455-24.473 33.682-14.018 51.879l65.897-37.862zm123.653 367.76c10.456 18.197 33.683 24.473 51.88 14.017 18.197-10.455 24.473-33.683 14.017-51.88l-65.897 37.863zM-4.417-167.574l189.55 329.898 65.897-37.863L61.48-205.436l-65.898 37.862z" fill="#403DDF"/><path d="M218.081 143.391L407.636 34.035" stroke="url(#paint2_linear)" stroke-width="76" stroke-linecap="round"/><path d="M597.191 143.393L976.302-75.323" stroke="url(#paint3_linear)" stroke-width="76" stroke-linecap="round"/><path d="M408.294 34.555l189.554 109.358" stroke="url(#paint4_linear)" stroke-width="76" stroke-linecap="round"/><defs><linearGradient id="paint0_linear" x1="-159.205" y1="145.215" x2="287.823" y2="645.925" gradientUnits="userSpaceOnUse"><stop stop-color="#403DDF"/><stop offset="1" stop-color="#181652"/></linearGradient><linearGradient id="paint1_linear" x1="-60" y1="-552" x2="219.904" y2="582.648" gradientUnits="userSpaceOnUse"><stop/><stop offset="1" stop-color="#403DDF"/></linearGradient><linearGradient id="paint2_linear" x1="216.259" y1="145.214" x2="524.302" y2="-33.767" gradientUnits="userSpaceOnUse"><stop stop-color="#403DDF"/><stop offset=".642" stop-color="#1C1B63"/></linearGradient><linearGradient id="paint3_linear" x1="1006" y1="-99" x2="602" y2="143" gradientUnits="userSpaceOnUse"><stop/><stop offset=".894" stop-color="#403DDF"/></linearGradient><linearGradient id="paint4_linear" x1="408.952" y1="38.143" x2="597.838" y2="139.278" gradientUnits="userSpaceOnUse"><stop offset=".212" stop-color="#23227B"/><stop offset="1" stop-color="#403DDF"/></linearGradient></defs></svg>