<svg width="864" height="400" viewBox="0 0 864 400" fill="none" xmlns="http://www.w3.org/2000/svg"><path d="M355.589 605.713c13.745 15.86 37.744 17.574 53.604 3.829 15.859-13.745 17.573-37.744 3.828-53.604l-57.432 49.775zM33.913 118.505c-13.745-15.86-37.745-17.574-53.604-3.829-15.86 13.745-17.574 37.744-3.829 53.604l57.433-49.775zM413.02 555.938L33.913 118.505-23.52 168.28l379.11 437.433 57.432-49.775z" fill="url(#paint0_linear)"/><path d="M421.198 571.713c5.033 20.375-7.403 40.971-27.778 46.004-20.374 5.033-40.971-7.403-46.004-27.777l73.782-18.227zM157.863-177.392c-5.033-20.374 7.404-40.971 27.778-46.004 20.375-5.033 40.971 7.403 46.004 27.778l-73.782 18.226zM347.416 589.94L157.863-177.392l73.782-18.226 189.553 767.331-73.782 18.227z" fill="url(#paint1_linear)"/><path d="M227.703-205.436c-10.456-18.197-33.683-24.473-51.88-14.017-18.197 10.455-24.473 33.682-14.017 51.879l65.897-37.862zm123.654 367.76c10.455 18.197 33.683 24.473 51.88 14.017 18.197-10.455 24.472-33.683 14.017-51.88l-65.897 37.863zM161.806-167.574l189.551 329.898 65.897-37.863-189.551-329.897-65.897 37.862z" fill="#403DDF"/><path d="M384.305 143.391L573.86 34.035" stroke="url(#paint2_linear)" stroke-width="76" stroke-linecap="round"/><path d="M5.196 143.393l-189.554 109.358" stroke="url(#paint3_linear)" stroke-width="76" stroke-linecap="round"/><path d="M763.414 143.393L1142.53-75.323" stroke="url(#paint4_linear)" stroke-width="76" stroke-linecap="round"/><path d="M574.517 34.555l189.555 109.358" stroke="url(#paint5_linear)" stroke-width="76" stroke-linecap="round"/><defs><linearGradient id="paint0_linear" x1="7.019" y1="145.215" x2="454.047" y2="645.925" gradientUnits="userSpaceOnUse"><stop stop-color="#403DDF"/><stop offset="1" stop-color="#181652"/></linearGradient><linearGradient id="paint1_linear" x1="106.223" y1="-552" x2="386.128" y2="582.648" gradientUnits="userSpaceOnUse"><stop/><stop offset="1" stop-color="#403DDF"/></linearGradient><linearGradient id="paint2_linear" x1="382.482" y1="145.214" x2="690.526" y2="-33.767" gradientUnits="userSpaceOnUse"><stop stop-color="#403DDF"/><stop offset=".642" stop-color="#1C1B63"/></linearGradient><linearGradient id="paint3_linear" x1="169.578" y1="36.922" x2="-181.37" y2="252.788" gradientUnits="userSpaceOnUse"><stop offset=".419" stop-color="#403DDF"/><stop offset="1" stop-color="#1A1756"/></linearGradient><linearGradient id="paint4_linear" x1="1172.22" y1="-99" x2="768.223" y2="143" gradientUnits="userSpaceOnUse"><stop/><stop offset=".894" stop-color="#403DDF"/></linearGradient><linearGradient id="paint5_linear" x1="575.175" y1="38.143" x2="764.061" y2="139.278" gradientUnits="userSpaceOnUse"><stop offset=".212" stop-color="#23227B"/><stop offset="1" stop-color="#403DDF"/></linearGradient></defs></svg>