<svg width="202" height="40" viewBox="0 0 202 40" fill="none" xmlns="http://www.w3.org/2000/svg"><path d="M166.235 25.647V14.588h-3.647v1.647c-.117-.47-1.176-1.176-2.353-1.529a8.952 8.952 0 00-2.47-.353c-4.471 0-8.118 3.53-8.118 8 0 4.47 3.647 8 8.118 8 2.235 0 4.353-.941 5.882-2.47.824 1.294 2.353 2.117 4 2.117v-3.294c-.706-.118-1.412-.588-1.412-1.059zm-8.47 1.177c-2.471 0-4.471-2-4.471-4.471 0-2.47 2-4.47 4.471-4.47 2.47 0 4.47 2 4.47 4.47 0 2.47-2 4.47-4.47 4.47zM80.824 14.353c-4.706 0-8.353 3.53-8.353 8 0 4.47 3.53 8 8.353 8 4.706 0 8.353-3.53 8.353-8 0-4.47-3.765-8-8.353-8zm0 12.353c-2.824 0-4.353-2-4.353-4.353C76.47 20 78.235 18 80.824 18c2.588 0 4.353 2 4.353 4.353-.118 2.353-1.883 4.353-4.353 4.353zM91.53 14.588h4V30h-4V14.588zm16.117-.235c-3.059 0-4.706 2.118-4.706 2.118l-.235-1.765h-3.647v15.412h3.882v-10.47s1.412-1.883 3.883-1.883c1.882 0 3.176 1.059 3.176 3.059V30h3.882v-9.294c0-3.765-2.47-6.353-6.235-6.353zm12.706 4.588c0-.823 1.059-1.294 2-1.294 2.588 0 3.647 1.177 3.647 1.177l1.647-2.589s-2.353-1.882-5.294-1.882c-3.294 0-6 1.765-6 4.824 0 5.294 8.118 4.117 8.118 6.588 0 1.059-1.53 1.294-2.706 1.294-2.824 0-3.883-1.647-3.883-1.647l-1.647 2.823s2.706 2.236 5.647 2.236c4.353.117 6.589-2.236 6.589-5.06 0-5.293-8.118-4.47-8.118-6.47zm24.588-.471s2.353-1.529 2.353-4.352c0-3.647-2.706-6-7.647-6h-7.765v22h8.589c4.588 0 7.529-2.47 7.529-6.236 0-4-3.059-5.411-3.059-5.411zm-9.176-6.823h3.882c2.353 0 3.647 1.059 3.647 2.588 0 2-1.294 2.942-3.647 2.942h-3.882v-5.53zm4.353 14.824h-4.353v-5.883h4.117c3.059 0 4.118 1.177 4.118 2.941 0 1.883-1.294 2.942-3.882 2.942zm38.117-12.118c-3.058 0-4.705 2.118-4.705 2.118l-.236-1.765h-3.647v15.412h3.883v-10.47s1.411-1.883 4-1.883c1.764 0 3.058 1.059 3.058 3.059V30h3.883v-9.294c0-3.765-2.471-6.353-6.236-6.353zm23.059.117h-4.588l-5.765 7.412v-7.411h-3.882v15.647h3.882v-7.53l5.765 7.53h4.588l-6.118-8 6.118-7.647zM93.53 13.059c1.411 0 2.47-1.059 2.47-2.47 0-1.295-1.059-2.471-2.47-2.471-1.412 0-2.471 1.059-2.471 2.47 0 1.412 1.059 2.47 2.47 2.47zM61.882 30.47c-6.235 0-11.294-5.058-11.294-11.176 0-6.235 5.059-11.176 11.294-11.176 3.647 0 7.06 1.764 9.177 4.706l-3.412 2.353c-1.412-1.883-3.53-3.06-5.882-3.06-4 0-7.177 3.177-7.177 7.06 0 3.882 3.177 7.058 7.177 7.058 2.353 0 4.588-1.176 5.882-3.058l3.412 2.352c-2 3.177-5.53 4.942-9.177 4.942z" fill="#000"/><path d="M0 0v40h40V0H0zm35.294 35.294H4.706V4.706h30.588v30.588z" fill="#4845ED"/><path d="M14.235 28.353L16.588 26c1.06.588 2.118.941 3.412.941s2.353-.353 3.412-.941l2.353 2.353 2.588-2.588L26 23.412c.588-1.06.941-2.235.941-3.412s-.353-2.353-.941-3.412l2.353-2.353-2.588-2.588L23.412 14c-1.06-.588-2.235-.941-3.412-.941-1.294 0-2.47.353-3.412.941l-2.353-2.353-2.588 2.588L14 16.588c-.588 1.06-.941 2.118-.941 3.412s.353 2.47.941 3.412l-2.353 2.353 2.588 2.588zM20 17.059A2.913 2.913 0 0122.941 20 2.913 2.913 0 0120 22.941 2.913 2.913 0 0117.059 20 2.913 2.913 0 0120 17.059z" fill="#4845ED"/></svg>