<svg width="121" height="24" viewBox="0 0 121 24" fill="none" xmlns="http://www.w3.org/2000/svg"><g clip-path="url(#clip0)" fill="#fff"><path d="M99.741 15.388V8.753h-2.188v.988c-.07-.282-.706-.706-1.412-.917a5.373 5.373 0 00-1.482-.212c-2.682 0-4.87 2.117-4.87 4.8 0 2.682 2.188 4.8 4.87 4.8a5.025 5.025 0 003.53-1.482c.494.776 1.411 1.27 2.399 1.27v-1.976c-.423-.071-.847-.353-.847-.636zm-5.082.706a2.681 2.681 0 01-2.682-2.682 2.681 2.681 0 115.365 0c0 1.482-1.2 2.682-2.683 2.682zM48.494 8.612c-2.824 0-5.012 2.117-5.012 4.8 0 2.682 2.118 4.8 5.012 4.8 2.824 0 5.012-2.118 5.012-4.8 0-2.683-2.259-4.8-5.012-4.8zm0 7.412c-1.694 0-2.612-1.2-2.612-2.612 0-1.412 1.06-2.612 2.612-2.612 1.553 0 2.612 1.2 2.612 2.612-.07 1.412-1.13 2.612-2.612 2.612zm6.424-7.271h2.4V18h-2.4V8.753zm9.67-.141c-1.835 0-2.823 1.27-2.823 1.27l-.141-1.058h-2.189v9.247h2.33v-6.283s.847-1.13 2.33-1.13c1.129 0 1.905.636 1.905 1.836V18h2.33v-5.576c0-2.26-1.483-3.812-3.742-3.812zm7.624 2.753c0-.494.635-.777 1.2-.777 1.553 0 2.188.706 2.188.706l.988-1.553s-1.412-1.13-3.176-1.13c-1.977 0-3.6 1.06-3.6 2.895 0 3.176 4.87 2.47 4.87 3.953 0 .635-.917.776-1.623.776-1.694 0-2.33-.988-2.33-.988l-.988 1.694s1.624 1.341 3.388 1.341c2.612.071 3.953-1.34 3.953-3.035 0-3.176-4.87-2.682-4.87-3.882zm14.753-.283s1.411-.917 1.411-2.611c0-2.189-1.623-3.6-4.588-3.6H79.13v13.2h5.153c2.753 0 4.518-1.483 4.518-3.742 0-2.4-1.835-3.247-1.835-3.247zm-5.506-4.094h2.33c1.41 0 2.187.636 2.187 1.553 0 1.2-.776 1.765-2.188 1.765h-2.33V6.988zm2.611 8.894h-2.61v-3.529h2.47c1.836 0 2.47.706 2.47 1.765 0 1.13-.776 1.764-2.329 1.764zm22.871-7.27c-1.835 0-2.823 1.27-2.823 1.27l-.142-1.058h-2.188v9.247h2.33v-6.283s.847-1.13 2.4-1.13c1.058 0 1.835.636 1.835 1.836V18h2.329v-5.576c0-2.26-1.482-3.812-3.741-3.812zm13.835.07h-2.752l-3.459 4.447V8.682h-2.33v9.389h2.33v-4.518l3.459 4.518h2.752l-3.67-4.8 3.67-4.589zm-64.658-.847c.847 0 1.482-.635 1.482-1.482a1.49 1.49 0 00-1.482-1.482c-.848 0-1.483.635-1.483 1.482s.636 1.482 1.483 1.482zM37.13 18.282c-3.742 0-6.777-3.035-6.777-6.706 0-3.74 3.035-6.705 6.776-6.705a6.79 6.79 0 015.506 2.823l-2.047 1.412c-.847-1.13-2.117-1.835-3.53-1.835-2.4 0-4.305 1.905-4.305 4.235s1.906 4.235 4.306 4.235c1.412 0 2.753-.706 3.53-1.835l2.046 1.412c-1.2 1.906-3.317 2.964-5.506 2.964zM0 0v24h24V0H0zm21.177 21.177H2.823V2.823h18.352v18.352z"/><path d="M8.541 17.012L9.953 15.6c.635.353 1.27.565 2.047.565.777 0 1.412-.212 2.047-.565l1.412 1.412 1.553-1.553-1.412-1.412c.353-.635.565-1.341.565-2.047 0-.706-.212-1.412-.565-2.047l1.412-1.412-1.553-1.553L14.047 8.4c-.635-.353-1.341-.565-2.047-.565a3.86 3.86 0 00-2.047.565L8.54 6.988 6.988 8.541 8.4 9.953c-.353.635-.565 1.27-.565 2.047 0 .777.212 1.482.565 2.047L6.988 15.46l1.553 1.553zM12 10.235c.988 0 1.765.777 1.765 1.765 0 .988-.777 1.765-1.765 1.765A1.748 1.748 0 0110.235 12c0-.988.777-1.765 1.765-1.765z"/></g><defs><clipPath id="clip0"><path fill="#fff" d="M0 0h120.706v24H0z"/></clipPath></defs></svg>