<svg width="1280" height="370" viewBox="0 0 1280 370" fill="none" xmlns="http://www.w3.org/2000/svg"><circle cx="416" cy="180" r="72" fill="url(#paint0_radial)"/><path d="M359.312 366.576c-2.464 0-4.592-.432-6.384-1.296-1.76-.864-3.152-2.048-4.176-3.552-.992-1.536-1.568-3.264-1.728-5.184h6c.288 1.376.992 2.528 2.112 3.456 1.12.896 2.512 1.344 4.176 1.344 1.792 0 3.248-.656 4.368-1.968 1.152-1.312 1.728-2.944 1.728-4.896 0-2.016-.576-3.616-1.728-4.8-1.12-1.184-2.544-1.776-4.272-1.776-1.44 0-2.688.352-3.744 1.056-1.056.704-1.808 1.584-2.256 2.64h-5.904l2.88-19.2h18.624v5.376h-14.016l-1.536 7.776c.704-.768 1.664-1.392 2.88-1.872 1.216-.512 2.576-.768 4.08-.768 2.4 0 4.4.544 6 1.632 1.6 1.056 2.816 2.464 3.648 4.224.832 1.728 1.248 3.616 1.248 5.664 0 2.336-.512 4.416-1.536 6.24-.992 1.824-2.4 3.264-4.224 4.32-1.792 1.056-3.872 1.584-6.24 1.584zm17.574-.576v-34.56h6.144v20.4l8.448-9.648h7.296l-9.744 10.848L400.358 366h-7.68l-9.648-11.952V366h-6.144zm-32.436-75l3.87-10.5h1.335l3.855 10.5h-1.335l-.96-2.7h-4.47l-.975 2.7h-1.32zm2.67-3.72h3.72l-1.86-5.19-1.86 5.19zm12.042 3.9c-.72 0-1.375-.14-1.965-.42-.58-.29-1.045-.735-1.395-1.335-.35-.6-.525-1.365-.525-2.295v-6.63h1.26v6.645c0 1.02.245 1.76.735 2.22.49.46 1.13.69 1.92.69s1.425-.23 1.905-.69c.48-.46.72-1.2.72-2.22V280.5h1.26v6.63c0 .93-.175 1.695-.525 2.295-.35.6-.82 1.045-1.41 1.335-.59.28-1.25.42-1.98.42zm6.799-.18v-10.5h3.225c1.85 0 3.21.47 4.08 1.41.88.94 1.32 2.23 1.32 3.87 0 1.61-.44 2.885-1.32 3.825-.87.93-2.23 1.395-4.08 1.395h-3.225zm1.26-1.05h1.935c1.02 0 1.83-.165 2.43-.495.61-.34 1.045-.82 1.305-1.44.26-.63.39-1.375.39-2.235 0-.88-.13-1.635-.39-2.265a2.889 2.889 0 00-1.305-1.455c-.6-.34-1.41-.51-2.43-.51h-1.935v8.4zm9.934 1.05v-10.5h1.26V291h-1.26zm4.236 0v-10.5h6.495v1.035h-5.235v3.66h4.785v1.02h-4.785v3.75h5.235V291h-6.495zm9.217 0v-10.5h1.26l5.595 8.415V280.5h1.26V291h-1.26l-5.595-8.415V291h-1.26zm15.697.18c-1.03 0-1.92-.225-2.67-.675a4.68 4.68 0 01-1.725-1.905c-.41-.82-.615-1.77-.615-2.85 0-1.07.205-2.01.615-2.82.41-.82.985-1.46 1.725-1.92.75-.46 1.64-.69 2.67-.69 1.2 0 2.175.29 2.925.87.76.57 1.245 1.37 1.455 2.4h-1.395c-.16-.65-.49-1.17-.99-1.56-.49-.4-1.155-.6-1.995-.6-.75 0-1.405.175-1.965.525-.56.34-.995.835-1.305 1.485-.3.64-.45 1.41-.45 2.31 0 .9.15 1.675.45 2.325.31.64.745 1.135 1.305 1.485.56.34 1.215.51 1.965.51.84 0 1.505-.19 1.995-.57.5-.39.83-.905.99-1.545h1.395c-.21 1.01-.695 1.8-1.455 2.37-.75.57-1.725.855-2.925.855zm6.941-.18v-10.5h6.495v1.035h-5.235v3.66h4.785v1.02h-4.785v3.75h5.235V291h-6.495zm-63.621 16.18c-.98 0-1.84-.225-2.58-.675a4.68 4.68 0 01-1.725-1.905c-.41-.82-.615-1.765-.615-2.835s.205-2.015.615-2.835c.42-.82 1.01-1.46 1.77-1.92.77-.46 1.675-.69 2.715-.69 1.18 0 2.16.285 2.94.855.79.57 1.3 1.355 1.53 2.355h-1.455a2.406 2.406 0 00-1.005-1.5c-.52-.37-1.19-.555-2.01-.555-.77 0-1.44.175-2.01.525-.57.34-1.015.83-1.335 1.47-.31.64-.465 1.405-.465 2.295 0 .89.155 1.655.465 2.295.31.64.74 1.135 1.29 1.485.55.34 1.19.51 1.92.51 1.12 0 1.965-.325 2.535-.975.57-.66.895-1.56.975-2.7h-3.03v-.99h4.32V307h-1.155l-.105-1.725c-.38.61-.845 1.08-1.395 1.41-.55.33-1.28.495-2.19.495zm7.588-.18v-10.5h3.39c.82 0 1.49.135 2.01.405.52.27.905.64 1.155 1.11.25.47.375.99.375 1.56 0 .66-.18 1.255-.54 1.785-.35.53-.9.905-1.65 1.125l2.295 4.515h-1.485l-2.13-4.335h-2.16V307h-1.26zm1.26-5.325h2.04c.81 0 1.4-.195 1.77-.585.37-.39.555-.89.555-1.5 0-.62-.185-1.11-.555-1.47-.36-.37-.955-.555-1.785-.555h-2.025v4.11zm13.151 5.505c-1.03 0-1.935-.225-2.715-.675a4.868 4.868 0 01-1.815-1.92c-.43-.82-.645-1.765-.645-2.835s.215-2.01.645-2.82a4.868 4.868 0 011.815-1.92c.78-.46 1.685-.69 2.715-.69 1.04 0 1.945.23 2.715.69.78.46 1.385 1.1 1.815 1.92.43.81.645 1.75.645 2.82 0 1.07-.215 2.015-.645 2.835a4.732 4.732 0 01-1.815 1.92c-.77.45-1.675.675-2.715.675zm0-1.11c.77 0 1.445-.17 2.025-.51a3.507 3.507 0 001.365-1.485c.33-.65.495-1.425.495-2.325 0-.9-.165-1.67-.495-2.31a3.412 3.412 0 00-1.365-1.47c-.58-.35-1.255-.525-2.025-.525s-1.45.175-2.04.525c-.58.34-1.035.83-1.365 1.47-.32.64-.48 1.41-.48 2.31 0 .9.16 1.675.48 2.325.33.64.785 1.135 1.365 1.485.59.34 1.27.51 2.04.51zm9.522.945l-2.88-10.515h1.35l2.265 9.015 2.58-9.015h1.395l2.505 9.015 2.295-9.015h1.35l-2.94 10.5h-1.44l-2.505-8.67-2.565 8.67-1.41.015zm15.552-.015v-9.465h-3.135V296.5h7.53v1.035h-3.135V307h-1.26zm6.683 0v-10.5h1.26v4.635h5.445V296.5h1.26V307h-1.26v-4.83h-5.445V307h-1.26zm-58.013-41v-1.824a74.739 74.739 0 003.12-2.616 34.004 34.004 0 002.64-2.592c.784-.864 1.4-1.704 1.848-2.52.448-.832.672-1.632.672-2.4 0-.512-.088-.992-.264-1.44a2.278 2.278 0 00-.864-1.104c-.4-.288-.936-.432-1.608-.432-1.008 0-1.768.32-2.28.96-.496.64-.736 1.408-.72 2.304h-2.472c.016-1.184.264-2.176.744-2.976a4.901 4.901 0 011.968-1.824c.832-.416 1.768-.624 2.808-.624 1.584 0 2.848.448 3.792 1.344.96.88 1.44 2.112 1.44 3.696 0 .944-.232 1.88-.696 2.808a12.6 12.6 0 01-1.776 2.688 25.338 25.338 0 01-2.328 2.4 57.141 57.141 0 01-2.376 2.04h7.68V266h-11.328zm21.803.288c-1.52 0-2.832-.36-3.936-1.08-1.088-.736-1.928-1.752-2.52-3.048-.576-1.312-.864-2.832-.864-4.56 0-1.728.288-3.24.864-4.536.592-1.312 1.432-2.328 2.52-3.048 1.104-.736 2.416-1.104 3.936-1.104s2.824.368 3.912 1.104c1.088.72 1.92 1.736 2.496 3.048.592 1.296.888 2.808.888 4.536 0 1.728-.296 3.248-.888 4.56-.576 1.296-1.408 2.312-2.496 3.048-1.088.72-2.392 1.08-3.912 1.08zm0-2.28c.912 0 1.72-.256 2.424-.768.72-.512 1.28-1.248 1.68-2.208.4-.96.6-2.104.6-3.432 0-1.328-.2-2.472-.6-3.432-.4-.96-.96-1.696-1.68-2.208-.704-.512-1.512-.768-2.424-.768-.928 0-1.744.256-2.448.768s-1.256 1.248-1.656 2.208c-.4.96-.6 2.104-.6 3.432 0 1.328.2 2.472.6 3.432.4.96.952 1.696 1.656 2.208.704.512 1.52.768 2.448.768zM380.23 266v-13.92l-2.712.624v-1.872l3.72-1.632h1.632V266h-2.64zm12.99.288c-1.12 0-2.136-.2-3.048-.6-.896-.416-1.616-.992-2.16-1.728-.528-.736-.792-1.6-.792-2.592 0-1.008.28-1.912.84-2.712a4.274 4.274 0 012.28-1.632c-.848-.336-1.504-.824-1.968-1.464a3.66 3.66 0 01-.696-2.16c0-.816.216-1.56.648-2.232.432-.688 1.056-1.232 1.872-1.632.832-.416 1.84-.624 3.024-.624s2.184.208 3 .624c.832.4 1.464.944 1.896 1.632.432.672.648 1.416.648 2.232 0 .768-.24 1.488-.72 2.16-.464.656-1.12 1.144-1.968 1.464a4.28 4.28 0 012.256 1.656c.576.784.864 1.68.864 2.688 0 .992-.264 1.856-.792 2.592s-1.248 1.312-2.16 1.728c-.896.4-1.904.6-3.024.6zm0-10.08c.928 0 1.656-.24 2.184-.72.544-.48.816-1.096.816-1.848 0-.848-.264-1.496-.792-1.944-.528-.448-1.264-.672-2.208-.672-.944 0-1.68.224-2.208.672-.528.448-.792 1.096-.792 1.944 0 .752.264 1.368.792 1.848s1.264.72 2.208.72zm0 7.92c1.152 0 2.016-.272 2.592-.816.576-.56.864-1.272.864-2.136 0-.96-.312-1.696-.936-2.208-.608-.528-1.448-.792-2.52-.792s-1.92.264-2.544.792c-.624.512-.936 1.248-.936 2.208 0 .864.288 1.576.864 2.136.592.544 1.464.816 2.616.816z" fill="#fff"/><circle cx="196" cy="180" r="24" fill="url(#paint1_radial)"/><path d="M178.912 366v-26.592l-5.52 1.296V336l8.112-3.6h3.792V366h-6.384zm15.395.336c-1.12 0-2.048-.352-2.784-1.056a3.468 3.468 0 01-1.056-2.544c0-1.024.352-1.888 1.056-2.592.736-.704 1.664-1.056 2.784-1.056 1.12 0 2.032.352 2.736 1.056.736.704 1.104 1.568 1.104 2.592 0 .992-.368 1.84-1.104 2.544-.704.704-1.616 1.056-2.736 1.056zm21.083.24c-2.464 0-4.592-.432-6.384-1.296-1.76-.864-3.152-2.048-4.176-3.552-.992-1.536-1.568-3.264-1.728-5.184h6c.288 1.376.992 2.528 2.112 3.456 1.12.896 2.512 1.344 4.176 1.344 1.792 0 3.248-.656 4.368-1.968 1.152-1.312 1.728-2.944 1.728-4.896 0-2.016-.576-3.616-1.728-4.8-1.12-1.184-2.544-1.776-4.272-1.776-1.44 0-2.688.352-3.744 1.056-1.056.704-1.808 1.584-2.256 2.64h-5.904l2.88-19.2h18.624v5.376H211.07l-1.536 7.776c.704-.768 1.664-1.392 2.88-1.872 1.216-.512 2.576-.768 4.08-.768 2.4 0 4.4.544 6 1.632 1.6 1.056 2.816 2.464 3.648 4.224.832 1.728 1.248 3.616 1.248 5.664 0 2.336-.512 4.416-1.536 6.24-.992 1.824-2.4 3.264-4.224 4.32-1.792 1.056-3.872 1.584-6.24 1.584zm17.574-.576v-34.56h6.144v20.4l8.448-9.648h7.296l-9.744 10.848L256.436 366h-7.68l-9.648-11.952V366h-6.144zm-60.514-75l3.87-10.5h1.335l3.855 10.5h-1.335l-.96-2.7h-4.47l-.975 2.7h-1.32zm2.67-3.72h3.72l-1.86-5.19-1.86 5.19zm12.042 3.9c-.72 0-1.375-.14-1.965-.42-.58-.29-1.045-.735-1.395-1.335-.35-.6-.525-1.365-.525-2.295v-6.63h1.26v6.645c0 1.02.245 1.76.735 2.22.49.46 1.13.69 1.92.69s1.425-.23 1.905-.69c.48-.46.72-1.2.72-2.22V280.5h1.26v6.63c0 .93-.175 1.695-.525 2.295-.35.6-.82 1.045-1.41 1.335-.59.28-1.25.42-1.98.42zm6.799-.18v-10.5h3.225c1.85 0 3.21.47 4.08 1.41.88.94 1.32 2.23 1.32 3.87 0 1.61-.44 2.885-1.32 3.825-.87.93-2.23 1.395-4.08 1.395h-3.225zm1.26-1.05h1.935c1.02 0 1.83-.165 2.43-.495.61-.34 1.045-.82 1.305-1.44.26-.63.39-1.375.39-2.235 0-.88-.13-1.635-.39-2.265a2.889 2.889 0 00-1.305-1.455c-.6-.34-1.41-.51-2.43-.51h-1.935v8.4zm9.934 1.05v-10.5h1.26V291h-1.26zm4.236 0v-10.5h6.495v1.035h-5.235v3.66h4.785v1.02h-4.785v3.75h5.235V291h-6.495zm9.217 0v-10.5h1.26l5.595 8.415V280.5h1.26V291h-1.26l-5.595-8.415V291h-1.26zm15.697.18c-1.03 0-1.92-.225-2.67-.675a4.68 4.68 0 01-1.725-1.905c-.41-.82-.615-1.77-.615-2.85 0-1.07.205-2.01.615-2.82.41-.82.985-1.46 1.725-1.92.75-.46 1.64-.69 2.67-.69 1.2 0 2.175.29 2.925.87.76.57 1.245 1.37 1.455 2.4h-1.395c-.16-.65-.49-1.17-.99-1.56-.49-.4-1.155-.6-1.995-.6-.75 0-1.405.175-1.965.525-.56.34-.995.835-1.305 1.485-.3.64-.45 1.41-.45 2.31 0 .9.15 1.675.45 2.325.31.64.745 1.135 1.305 1.485.56.34 1.215.51 1.965.51.84 0 1.505-.19 1.995-.57.5-.39.83-.905.99-1.545h1.395c-.21 1.01-.695 1.8-1.455 2.37-.75.57-1.725.855-2.925.855zm6.941-.18v-10.5h6.495v1.035h-5.235v3.66h4.785v1.02h-4.785v3.75h5.235V291h-6.495zm-63.621 16.18c-.98 0-1.84-.225-2.58-.675a4.68 4.68 0 01-1.725-1.905c-.41-.82-.615-1.765-.615-2.835s.205-2.015.615-2.835c.42-.82 1.01-1.46 1.77-1.92.77-.46 1.675-.69 2.715-.69 1.18 0 2.16.285 2.94.855.79.57 1.3 1.355 1.53 2.355h-1.455a2.406 2.406 0 00-1.005-1.5c-.52-.37-1.19-.555-2.01-.555-.77 0-1.44.175-2.01.525-.57.34-1.015.83-1.335 1.47-.31.64-.465 1.405-.465 2.295 0 .89.155 1.655.465 2.295.31.64.74 1.135 1.29 1.485.55.34 1.19.51 1.92.51 1.12 0 1.965-.325 2.535-.975.57-.66.895-1.56.975-2.7h-3.03v-.99h4.32V307h-1.155l-.105-1.725c-.38.61-.845 1.08-1.395 1.41-.55.33-1.28.495-2.19.495zm7.588-.18v-10.5h3.39c.82 0 1.49.135 2.01.405.52.27.905.64 1.155 1.11.25.47.375.99.375 1.56 0 .66-.18 1.255-.54 1.785-.35.53-.9.905-1.65 1.125l2.295 4.515h-1.485l-2.13-4.335h-2.16V307h-1.26zm1.26-5.325h2.04c.81 0 1.4-.195 1.77-.585.37-.39.555-.89.555-1.5 0-.62-.185-1.11-.555-1.47-.36-.37-.955-.555-1.785-.555h-2.025v4.11zm13.151 5.505c-1.03 0-1.935-.225-2.715-.675a4.868 4.868 0 01-1.815-1.92c-.43-.82-.645-1.765-.645-2.835s.215-2.01.645-2.82a4.868 4.868 0 011.815-1.92c.78-.46 1.685-.69 2.715-.69 1.04 0 1.945.23 2.715.69.78.46 1.385 1.1 1.815 1.92.43.81.645 1.75.645 2.82 0 1.07-.215 2.015-.645 2.835a4.732 4.732 0 01-1.815 1.92c-.77.45-1.675.675-2.715.675zm0-1.11c.77 0 1.445-.17 2.025-.51a3.507 3.507 0 001.365-1.485c.33-.65.495-1.425.495-2.325 0-.9-.165-1.67-.495-2.31a3.412 3.412 0 00-1.365-1.47c-.58-.35-1.255-.525-2.025-.525s-1.45.175-2.04.525c-.58.34-1.035.83-1.365 1.47-.32.64-.48 1.41-.48 2.31 0 .9.16 1.675.48 2.325.33.64.785 1.135 1.365 1.485.59.34 1.27.51 2.04.51zm9.522.945l-2.88-10.515h1.35l2.265 9.015 2.58-9.015h1.395l2.505 9.015 2.295-9.015h1.35l-2.94 10.5h-1.44l-2.505-8.67-2.565 8.67-1.41.015zm15.552-.015v-9.465h-3.135V296.5h7.53v1.035h-3.135V307h-1.26zm6.683 0v-10.5h1.26v4.635h5.445V296.5h1.26V307h-1.26v-4.83h-5.445V307h-1.26zm-58.013-41v-1.824a74.739 74.739 0 003.12-2.616 34.004 34.004 0 002.64-2.592c.784-.864 1.4-1.704 1.848-2.52.448-.832.672-1.632.672-2.4 0-.512-.088-.992-.264-1.44a2.278 2.278 0 00-.864-1.104c-.4-.288-.936-.432-1.608-.432-1.008 0-1.768.32-2.28.96-.496.64-.736 1.408-.72 2.304h-2.472c.016-1.184.264-2.176.744-2.976a4.901 4.901 0 011.968-1.824c.832-.416 1.768-.624 2.808-.624 1.584 0 2.848.448 3.792 1.344.96.88 1.44 2.112 1.44 3.696 0 .944-.232 1.88-.696 2.808a12.6 12.6 0 01-1.776 2.688 25.338 25.338 0 01-2.328 2.4 57.141 57.141 0 01-2.376 2.04h7.68V266h-11.328zm21.803.288c-1.52 0-2.832-.36-3.936-1.08-1.088-.736-1.928-1.752-2.52-3.048-.576-1.312-.864-2.832-.864-4.56 0-1.728.288-3.24.864-4.536.592-1.312 1.432-2.328 2.52-3.048 1.104-.736 2.416-1.104 3.936-1.104s2.824.368 3.912 1.104c1.088.72 1.92 1.736 2.496 3.048.592 1.296.888 2.808.888 4.536 0 1.728-.296 3.248-.888 4.56-.576 1.296-1.408 2.312-2.496 3.048-1.088.72-2.392 1.08-3.912 1.08zm0-2.28c.912 0 1.72-.256 2.424-.768.72-.512 1.28-1.248 1.68-2.208.4-.96.6-2.104.6-3.432 0-1.328-.2-2.472-.6-3.432-.4-.96-.96-1.696-1.68-2.208-.704-.512-1.512-.768-2.424-.768-.928 0-1.744.256-2.448.768s-1.256 1.248-1.656 2.208c-.4.96-.6 2.104-.6 3.432 0 1.328.2 2.472.6 3.432.4.96.952 1.696 1.656 2.208.704.512 1.52.768 2.448.768zM208.23 266v-13.92l-2.712.624v-1.872l3.72-1.632h1.632V266h-2.64zm8.43 0l6.504-14.616h-8.736V249.2h11.352v1.848L219.324 266h-2.664z" fill="#fff"/><circle cx="8" cy="180" r="8" fill="url(#paint2_radial)"/><path d="M17.04 366.576c-3.104 0-5.76-.72-7.968-2.16-2.208-1.472-3.92-3.504-5.136-6.096-1.184-2.624-1.776-5.664-1.776-9.12 0-3.424.592-6.448 1.776-9.072 1.216-2.624 2.928-4.656 5.136-6.096 2.208-1.472 4.864-2.208 7.968-2.208s5.76.736 7.968 2.208c2.208 1.44 3.904 3.472 5.088 6.096 1.216 2.624 1.824 5.648 1.824 9.072 0 3.456-.608 6.496-1.824 9.12-1.184 2.592-2.88 4.624-5.088 6.096-2.208 1.44-4.864 2.16-7.968 2.16zm0-5.52c2.528 0 4.592-1.056 6.192-3.168 1.6-2.112 2.4-5.008 2.4-8.688 0-3.68-.8-6.576-2.4-8.688-1.6-2.112-3.664-3.168-6.192-3.168-2.56 0-4.64 1.056-6.24 3.168-1.568 2.112-2.352 5.008-2.352 8.688 0 3.68.784 6.576 2.352 8.688 1.6 2.112 3.68 3.168 6.24 3.168zm20.876 5.28c-1.12 0-2.048-.352-2.784-1.056a3.468 3.468 0 01-1.056-2.544c0-1.024.352-1.888 1.056-2.592.736-.704 1.664-1.056 2.784-1.056 1.12 0 2.032.352 2.736 1.056.736.704 1.104 1.568 1.104 2.592 0 .992-.368 1.84-1.104 2.544-.704.704-1.616 1.056-2.736 1.056zm20.892.24c-2.304 0-4.385-.4-6.24-1.2-1.856-.832-3.344-2-4.465-3.504-1.087-1.504-1.632-3.248-1.632-5.232 0-2.048.529-3.84 1.585-5.376a9.104 9.104 0 014.272-3.312c-1.537-.672-2.753-1.632-3.649-2.88a7.28 7.28 0 01-1.343-4.272c0-1.6.431-3.072 1.296-4.416.864-1.376 2.144-2.48 3.84-3.312 1.727-.832 3.84-1.248 6.335-1.248 2.496 0 4.593.416 6.288 1.248 1.697.832 2.977 1.936 3.84 3.312a8.004 8.004 0 011.296 4.416c0 1.536-.463 2.96-1.391 4.272-.897 1.28-2.097 2.24-3.6 2.88 1.791.672 3.216 1.776 4.272 3.312 1.055 1.536 1.584 3.328 1.584 5.376 0 1.984-.544 3.728-1.633 5.232-1.087 1.504-2.575 2.672-4.463 3.504-1.856.8-3.92 1.2-6.193 1.2zm0-20.448c1.663 0 2.975-.432 3.935-1.296.96-.864 1.44-1.968 1.44-3.312 0-1.472-.48-2.624-1.44-3.456-.928-.832-2.24-1.248-3.936-1.248-1.727 0-3.056.416-3.983 1.248-.928.832-1.392 1.984-1.392 3.456 0 1.376.463 2.496 1.392 3.36.96.832 2.288 1.248 3.983 1.248zm0 15.312c2.047 0 3.6-.496 4.656-1.488 1.055-1.024 1.584-2.304 1.584-3.84 0-1.696-.56-3.024-1.68-3.984-1.089-.96-2.608-1.44-4.56-1.44-1.953 0-3.505.48-4.657 1.44-1.12.96-1.68 2.288-1.68 3.984 0 1.536.529 2.816 1.585 3.84 1.088.992 2.672 1.488 4.752 1.488zM76.995 366v-34.56h6.144v20.4l8.448-9.648h7.296l-9.744 10.848L100.467 366h-7.68l-9.648-11.952V366h-6.144zM.45 291l3.87-10.5h1.335L9.51 291H8.175l-.96-2.7h-4.47L1.77 291H.45zm2.67-3.72h3.72l-1.86-5.19-1.86 5.19zm12.042 3.9c-.72 0-1.375-.14-1.965-.42-.58-.29-1.045-.735-1.395-1.335-.35-.6-.525-1.365-.525-2.295v-6.63h1.26v6.645c0 1.02.245 1.76.735 2.22.49.46 1.13.69 1.92.69s1.425-.23 1.905-.69c.48-.46.72-1.2.72-2.22V280.5h1.26v6.63c0 .93-.175 1.695-.525 2.295-.35.6-.82 1.045-1.41 1.335-.59.28-1.25.42-1.98.42zm6.799-.18v-10.5h3.225c1.85 0 3.21.47 4.08 1.41.88.94 1.32 2.23 1.32 3.87 0 1.61-.44 2.885-1.32 3.825-.87.93-2.23 1.395-4.08 1.395H21.96zm1.26-1.05h1.935c1.02 0 1.83-.165 2.43-.495.61-.34 1.045-.82 1.305-1.44.26-.63.39-1.375.39-2.235 0-.88-.13-1.635-.39-2.265a2.889 2.889 0 00-1.305-1.455c-.6-.34-1.41-.51-2.43-.51H23.22v8.4zm9.934 1.05v-10.5h1.26V291h-1.26zm4.236 0v-10.5h6.495v1.035h-5.235v3.66h4.785v1.02h-4.785v3.75h5.235V291h-6.495zm9.217 0v-10.5h1.26l5.595 8.415V280.5h1.26V291h-1.26l-5.595-8.415V291h-1.26zm15.697.18c-1.03 0-1.92-.225-2.67-.675a4.68 4.68 0 01-1.725-1.905c-.41-.82-.615-1.77-.615-2.85 0-1.07.205-2.01.615-2.82.41-.82.985-1.46 1.725-1.92.75-.46 1.64-.69 2.67-.69 1.2 0 2.175.29 2.925.87.76.57 1.245 1.37 1.455 2.4H65.29c-.16-.65-.49-1.17-.99-1.56-.49-.4-1.155-.6-1.995-.6-.75 0-1.405.175-1.965.525-.56.34-.995.835-1.305 1.485-.3.64-.45 1.41-.45 2.31 0 .9.15 1.675.45 2.325.31.64.745 1.135 1.305 1.485.56.34 1.215.51 1.965.51.84 0 1.505-.19 1.995-.57.5-.39.83-.905.99-1.545h1.395c-.21 1.01-.695 1.8-1.455 2.37-.75.57-1.725.855-2.925.855zm6.94-.18v-10.5h6.496v1.035h-5.235v3.66h4.785v1.02h-4.785v3.75h5.235V291h-6.495zm-63.62 16.18c-.98 0-1.84-.225-2.58-.675A4.68 4.68 0 011.32 304.6c-.41-.82-.615-1.765-.615-2.835s.205-2.015.615-2.835c.42-.82 1.01-1.46 1.77-1.92.77-.46 1.675-.69 2.715-.69 1.18 0 2.16.285 2.94.855.79.57 1.3 1.355 1.53 2.355H8.82a2.406 2.406 0 00-1.005-1.5c-.52-.37-1.19-.555-2.01-.555-.77 0-1.44.175-2.01.525-.57.34-1.015.83-1.335 1.47-.31.64-.465 1.405-.465 2.295 0 .89.155 1.655.465 2.295.31.64.74 1.135 1.29 1.485.55.34 1.19.51 1.92.51 1.12 0 1.965-.325 2.535-.975.57-.66.895-1.56.975-2.7H6.15v-.99h4.32V307H9.315l-.105-1.725c-.38.61-.845 1.08-1.395 1.41-.55.33-1.28.495-2.19.495zm7.588-.18v-10.5h3.39c.82 0 1.49.135 2.01.405.52.27.904.64 1.154 1.11.25.47.375.99.375 1.56 0 .66-.18 1.255-.54 1.785-.35.53-.9.905-1.65 1.125L20.248 307h-1.485l-2.13-4.335h-2.16V307h-1.26zm1.26-5.325h2.04c.81 0 1.4-.195 1.77-.585.37-.39.554-.89.554-1.5 0-.62-.184-1.11-.555-1.47-.36-.37-.954-.555-1.785-.555h-2.024v4.11zm13.151 5.505c-1.03 0-1.935-.225-2.715-.675a4.868 4.868 0 01-1.815-1.92c-.43-.82-.645-1.765-.645-2.835s.215-2.01.645-2.82a4.868 4.868 0 011.815-1.92c.78-.46 1.685-.69 2.715-.69 1.04 0 1.945.23 2.715.69.78.46 1.385 1.1 1.815 1.92.43.81.645 1.75.645 2.82 0 1.07-.215 2.015-.645 2.835a4.732 4.732 0 01-1.815 1.92c-.77.45-1.675.675-2.715.675zm0-1.11c.77 0 1.445-.17 2.025-.51a3.507 3.507 0 001.365-1.485c.33-.65.495-1.425.495-2.325 0-.9-.165-1.67-.495-2.31a3.412 3.412 0 00-1.365-1.47c-.58-.35-1.255-.525-2.025-.525s-1.45.175-2.04.525c-.58.34-1.035.83-1.365 1.47-.32.64-.48 1.41-.48 2.31 0 .9.16 1.675.48 2.325.33.64.785 1.135 1.365 1.485.59.34 1.27.51 2.04.51zm9.522.945l-2.88-10.515h1.35l2.265 9.015 2.58-9.015h1.395l2.505 9.015 2.295-9.015h1.35l-2.94 10.5h-1.44l-2.505-8.67-2.565 8.67-1.41.015zM52.698 307v-9.465h-3.135V296.5h7.53v1.035h-3.135V307h-1.26zm6.684 0v-10.5h1.26v4.635h5.444V296.5h1.26V307h-1.26v-4.83h-5.444V307h-1.26zM1.368 266v-1.824a74.739 74.739 0 003.12-2.616 34.004 34.004 0 002.64-2.592c.784-.864 1.4-1.704 1.848-2.52.448-.832.672-1.632.672-2.4 0-.512-.088-.992-.264-1.44a2.278 2.278 0 00-.864-1.104c-.4-.288-.936-.432-1.608-.432-1.008 0-1.768.32-2.28.96-.496.64-.736 1.408-.72 2.304H1.44c.016-1.184.264-2.176.744-2.976a4.901 4.901 0 011.968-1.824c.832-.416 1.768-.624 2.808-.624 1.584 0 2.848.448 3.792 1.344.96.88 1.44 2.112 1.44 3.696 0 .944-.232 1.88-.696 2.808a12.6 12.6 0 01-1.776 2.688 25.338 25.338 0 01-2.328 2.4 57.141 57.141 0 01-2.376 2.04h7.68V266H1.368zm21.803.288c-1.52 0-2.832-.36-3.936-1.08-1.088-.736-1.928-1.752-2.52-3.048-.576-1.312-.864-2.832-.864-4.56 0-1.728.288-3.24.864-4.536.592-1.312 1.432-2.328 2.52-3.048 1.104-.736 2.416-1.104 3.936-1.104s2.824.368 3.912 1.104c1.088.72 1.92 1.736 2.496 3.048.592 1.296.888 2.808.888 4.536 0 1.728-.296 3.248-.888 4.56-.576 1.296-1.408 2.312-2.496 3.048-1.088.72-2.392 1.08-3.912 1.08zm0-2.28c.912 0 1.72-.256 2.424-.768.72-.512 1.28-1.248 1.68-2.208.4-.96.6-2.104.6-3.432 0-1.328-.2-2.472-.6-3.432-.4-.96-.96-1.696-1.68-2.208-.704-.512-1.512-.768-2.424-.768-.928 0-1.744.256-2.448.768s-1.256 1.248-1.656 2.208c-.4.96-.6 2.104-.6 3.432 0 1.328.2 2.472.6 3.432.4.96.952 1.696 1.656 2.208.704.512 1.52.768 2.448.768zM36.23 266v-13.92l-2.713.624v-1.872l3.72-1.632h1.632V266h-2.64zm13.42.288c-1.231 0-2.271-.232-3.12-.696a5.897 5.897 0 01-2.063-1.848 7.839 7.839 0 01-1.104-2.592 12.948 12.948 0 01-.336-2.952c0-1.856.256-3.48.768-4.872.528-1.392 1.28-2.472 2.256-3.24.976-.784 2.16-1.176 3.552-1.176 1.104 0 2.048.216 2.832.648.784.432 1.392 1.008 1.824 1.728.448.72.72 1.504.816 2.352H52.7c-.144-.832-.488-1.472-1.032-1.92-.544-.448-1.24-.672-2.088-.672-1.168 0-2.136.552-2.904 1.656-.752 1.088-1.152 2.768-1.2 5.04.384-.704.976-1.304 1.776-1.8.816-.496 1.752-.744 2.808-.744.944 0 1.824.224 2.64.672a5.33 5.33 0 012.016 1.896c.528.8.792 1.752.792 2.856 0 .976-.24 1.896-.72 2.76a5.73 5.73 0 01-2.04 2.112c-.864.528-1.896.792-3.096.792zm-.143-2.208c.672 0 1.272-.144 1.8-.432a3.27 3.27 0 001.248-1.176 3.32 3.32 0 00.456-1.728c0-1.024-.336-1.84-1.008-2.448-.656-.608-1.496-.912-2.52-.912-.672 0-1.28.152-1.824.456a3.393 3.393 0 00-1.248 1.224 3.106 3.106 0 00-.456 1.656c0 .656.152 1.24.456 1.752.32.496.744.888 1.272 1.176a3.837 3.837 0 001.824.432z" fill="#fff"/><circle cx="704" cy="180" r="144" fill="url(#paint3_radial)"/><path d="M566.912 366v-26.592l-5.52 1.296V336l8.112-3.6h3.792V366h-6.384zm26.675.576c-3.104 0-5.76-.72-7.968-2.16-2.208-1.472-3.92-3.504-5.136-6.096-1.184-2.624-1.776-5.664-1.776-9.12 0-3.424.592-6.448 1.776-9.072 1.216-2.624 2.928-4.656 5.136-6.096 2.208-1.472 4.864-2.208 7.968-2.208s5.76.736 7.968 2.208c2.208 1.44 3.904 3.472 5.088 6.096 1.216 2.624 1.824 5.648 1.824 9.072 0 3.456-.608 6.496-1.824 9.12-1.184 2.592-2.88 4.624-5.088 6.096-2.208 1.44-4.864 2.16-7.968 2.16zm0-5.52c2.528 0 4.592-1.056 6.192-3.168 1.6-2.112 2.4-5.008 2.4-8.688 0-3.68-.8-6.576-2.4-8.688-1.6-2.112-3.664-3.168-6.192-3.168-2.56 0-4.64 1.056-6.24 3.168-1.568 2.112-2.352 5.008-2.352 8.688 0 3.68.784 6.576 2.352 8.688 1.6 2.112 3.68 3.168 6.24 3.168zM613.745 366v-34.56h6.144v20.4l8.448-9.648h7.296l-9.744 10.848L637.217 366h-7.68l-9.648-11.952V366h-6.144zm-53.295-75l3.87-10.5h1.335l3.855 10.5h-1.335l-.96-2.7h-4.47l-.975 2.7h-1.32zm2.67-3.72h3.72l-1.86-5.19-1.86 5.19zm12.042 3.9c-.72 0-1.375-.14-1.965-.42-.58-.29-1.045-.735-1.395-1.335-.35-.6-.525-1.365-.525-2.295v-6.63h1.26v6.645c0 1.02.245 1.76.735 2.22.49.46 1.13.69 1.92.69s1.425-.23 1.905-.69c.48-.46.72-1.2.72-2.22V280.5h1.26v6.63c0 .93-.175 1.695-.525 2.295-.35.6-.82 1.045-1.41 1.335-.59.28-1.25.42-1.98.42zm6.799-.18v-10.5h3.225c1.85 0 3.21.47 4.08 1.41.88.94 1.32 2.23 1.32 3.87 0 1.61-.44 2.885-1.32 3.825-.87.93-2.23 1.395-4.08 1.395h-3.225zm1.26-1.05h1.935c1.02 0 1.83-.165 2.43-.495.61-.34 1.045-.82 1.305-1.44.26-.63.39-1.375.39-2.235 0-.88-.13-1.635-.39-2.265a2.889 2.889 0 00-1.305-1.455c-.6-.34-1.41-.51-2.43-.51h-1.935v8.4zm9.934 1.05v-10.5h1.26V291h-1.26zm4.236 0v-10.5h6.495v1.035h-5.235v3.66h4.785v1.02h-4.785v3.75h5.235V291h-6.495zm9.217 0v-10.5h1.26l5.595 8.415V280.5h1.26V291h-1.26l-5.595-8.415V291h-1.26zm15.697.18c-1.03 0-1.92-.225-2.67-.675a4.68 4.68 0 01-1.725-1.905c-.41-.82-.615-1.77-.615-2.85 0-1.07.205-2.01.615-2.82.41-.82.985-1.46 1.725-1.92.75-.46 1.64-.69 2.67-.69 1.2 0 2.175.29 2.925.87.76.57 1.245 1.37 1.455 2.4h-1.395c-.16-.65-.49-1.17-.99-1.56-.49-.4-1.155-.6-1.995-.6-.75 0-1.405.175-1.965.525-.56.34-.995.835-1.305 1.485-.3.64-.45 1.41-.45 2.31 0 .9.15 1.675.45 2.325.31.64.745 1.135 1.305 1.485.56.34 1.215.51 1.965.51.84 0 1.505-.19 1.995-.57.5-.39.83-.905.99-1.545h1.395c-.21 1.01-.695 1.8-1.455 2.37-.75.57-1.725.855-2.925.855zm6.941-.18v-10.5h6.495v1.035h-5.235v3.66h4.785v1.02h-4.785v3.75h5.235V291h-6.495zm-63.621 16.18c-.98 0-1.84-.225-2.58-.675a4.68 4.68 0 01-1.725-1.905c-.41-.82-.615-1.765-.615-2.835s.205-2.015.615-2.835c.42-.82 1.01-1.46 1.77-1.92.77-.46 1.675-.69 2.715-.69 1.18 0 2.16.285 2.94.855.79.57 1.3 1.355 1.53 2.355h-1.455a2.406 2.406 0 00-1.005-1.5c-.52-.37-1.19-.555-2.01-.555-.77 0-1.44.175-2.01.525-.57.34-1.015.83-1.335 1.47-.31.64-.465 1.405-.465 2.295 0 .89.155 1.655.465 2.295.31.64.74 1.135 1.29 1.485.55.34 1.19.51 1.92.51 1.12 0 1.965-.325 2.535-.975.57-.66.895-1.56.975-2.7h-3.03v-.99h4.32V307h-1.155l-.105-1.725c-.38.61-.845 1.08-1.395 1.41-.55.33-1.28.495-2.19.495zm7.588-.18v-10.5h3.39c.82 0 1.49.135 2.01.405.52.27.905.64 1.155 1.11.25.47.375.99.375 1.56 0 .66-.18 1.255-.54 1.785-.35.53-.9.905-1.65 1.125l2.295 4.515h-1.485l-2.13-4.335h-2.16V307h-1.26zm1.26-5.325h2.04c.81 0 1.4-.195 1.77-.585.37-.39.555-.89.555-1.5 0-.62-.185-1.11-.555-1.47-.36-.37-.955-.555-1.785-.555h-2.025v4.11zm13.151 5.505c-1.03 0-1.935-.225-2.715-.675a4.868 4.868 0 01-1.815-1.92c-.43-.82-.645-1.765-.645-2.835s.215-2.01.645-2.82a4.868 4.868 0 011.815-1.92c.78-.46 1.685-.69 2.715-.69 1.04 0 1.945.23 2.715.69.78.46 1.385 1.1 1.815 1.92.43.81.645 1.75.645 2.82 0 1.07-.215 2.015-.645 2.835a4.732 4.732 0 01-1.815 1.92c-.77.45-1.675.675-2.715.675zm0-1.11c.77 0 1.445-.17 2.025-.51a3.507 3.507 0 001.365-1.485c.33-.65.495-1.425.495-2.325 0-.9-.165-1.67-.495-2.31a3.412 3.412 0 00-1.365-1.47c-.58-.35-1.255-.525-2.025-.525s-1.45.175-2.04.525c-.58.34-1.035.83-1.365 1.47-.32.64-.48 1.41-.48 2.31 0 .9.16 1.675.48 2.325.33.64.785 1.135 1.365 1.485.59.34 1.27.51 2.04.51zm9.522.945l-2.88-10.515h1.35l2.265 9.015 2.58-9.015h1.395l2.505 9.015 2.295-9.015h1.35l-2.94 10.5h-1.44l-2.505-8.67-2.565 8.67-1.41.015zm15.552-.015v-9.465h-3.135V296.5h7.53v1.035h-3.135V307h-1.26zm6.683 0v-10.5h1.26v4.635h5.445V296.5h1.26V307h-1.26v-4.83h-5.445V307h-1.26zm-58.013-41v-1.824a74.739 74.739 0 003.12-2.616 34.004 34.004 0 002.64-2.592c.784-.864 1.4-1.704 1.848-2.52.448-.832.672-1.632.672-2.4 0-.512-.088-.992-.264-1.44a2.278 2.278 0 00-.864-1.104c-.4-.288-.936-.432-1.608-.432-1.008 0-1.768.32-2.28.96-.496.64-.736 1.408-.72 2.304h-2.472c.016-1.184.264-2.176.744-2.976a4.901 4.901 0 011.968-1.824c.832-.416 1.768-.624 2.808-.624 1.584 0 2.848.448 3.792 1.344.96.88 1.44 2.112 1.44 3.696 0 .944-.232 1.88-.696 2.808a12.6 12.6 0 01-1.776 2.688 25.338 25.338 0 01-2.328 2.4 57.141 57.141 0 01-2.376 2.04h7.68V266h-11.328zm21.803.288c-1.52 0-2.832-.36-3.936-1.08-1.088-.736-1.928-1.752-2.52-3.048-.576-1.312-.864-2.832-.864-4.56 0-1.728.288-3.24.864-4.536.592-1.312 1.432-2.328 2.52-3.048 1.104-.736 2.416-1.104 3.936-1.104s2.824.368 3.912 1.104c1.088.72 1.92 1.736 2.496 3.048.592 1.296.888 2.808.888 4.536 0 1.728-.296 3.248-.888 4.56-.576 1.296-1.408 2.312-2.496 3.048-1.088.72-2.392 1.08-3.912 1.08zm0-2.28c.912 0 1.72-.256 2.424-.768.72-.512 1.28-1.248 1.68-2.208.4-.96.6-2.104.6-3.432 0-1.328-.2-2.472-.6-3.432-.4-.96-.96-1.696-1.68-2.208-.704-.512-1.512-.768-2.424-.768-.928 0-1.744.256-2.448.768s-1.256 1.248-1.656 2.208c-.4.96-.6 2.104-.6 3.432 0 1.328.2 2.472.6 3.432.4.96.952 1.696 1.656 2.208.704.512 1.52.768 2.448.768zM596.23 266v-13.92l-2.712.624v-1.872l3.72-1.632h1.632V266h-2.64zm12.894.288c-1.104 0-2.048-.216-2.832-.648a4.932 4.932 0 01-1.848-1.728 5.782 5.782 0 01-.792-2.352h2.376c.144.832.488 1.472 1.032 1.92.544.448 1.24.672 2.088.672 1.168 0 2.128-.544 2.88-1.632.768-1.104 1.176-2.792 1.224-5.064-.384.704-.984 1.304-1.8 1.8-.8.496-1.728.744-2.784.744a5.535 5.535 0 01-2.664-.672 5.393 5.393 0 01-2.016-1.872c-.512-.816-.768-1.776-.768-2.88 0-.976.24-1.896.72-2.76a5.605 5.605 0 012.016-2.088c.88-.544 1.92-.816 3.12-.816 1.232 0 2.272.232 3.12.696a5.685 5.685 0 012.04 1.848c.512.768.88 1.632 1.104 2.592.24.96.36 1.944.36 2.952 0 1.856-.264 3.48-.792 4.872-.512 1.392-1.256 2.48-2.232 3.264-.976.768-2.16 1.152-3.552 1.152zm.12-8.472c.672 0 1.272-.152 1.8-.456a3.457 3.457 0 001.248-1.2c.32-.512.48-1.072.48-1.68 0-.656-.16-1.232-.48-1.728a3.172 3.172 0 00-1.272-1.2c-.528-.288-1.128-.432-1.8-.432-.672 0-1.272.144-1.8.432a3.392 3.392 0 00-1.272 1.2c-.304.496-.456 1.064-.456 1.704 0 1.024.336 1.84 1.008 2.448.672.608 1.52.912 2.544.912z" fill="#fff"/><circle cx="1100" cy="180" r="180" fill="url(#paint4_radial)"/><path d="M926.912 366v-26.592l-5.52 1.296V336l8.112-3.6h3.792V366h-6.384zm28.259 0v-6.24h-16.56v-4.896l15.744-22.464h6.96v22.032h4.416v5.328h-4.416V366h-6.144zm-9.984-11.568h10.368v-15.264l-10.368 15.264zM970.417 366v-34.56h6.144v20.4l8.448-9.648h7.296l-9.744 10.848L993.889 366h-7.68l-9.648-11.952V366h-6.144zm-49.967-75l3.87-10.5h1.335l3.855 10.5h-1.335l-.96-2.7h-4.47l-.975 2.7h-1.32zm2.67-3.72h3.72l-1.86-5.19-1.86 5.19zm12.042 3.9c-.72 0-1.375-.14-1.965-.42-.58-.29-1.045-.735-1.395-1.335-.35-.6-.525-1.365-.525-2.295v-6.63h1.26v6.645c0 1.02.245 1.76.735 2.22.49.46 1.13.69 1.92.69s1.425-.23 1.905-.69c.48-.46.72-1.2.72-2.22V280.5h1.26v6.63c0 .93-.175 1.695-.525 2.295-.35.6-.82 1.045-1.41 1.335-.59.28-1.25.42-1.98.42zm6.799-.18v-10.5h3.225c1.85 0 3.21.47 4.08 1.41.88.94 1.32 2.23 1.32 3.87 0 1.61-.44 2.885-1.32 3.825-.87.93-2.23 1.395-4.08 1.395h-3.225zm1.26-1.05h1.935c1.02 0 1.83-.165 2.43-.495.61-.34 1.045-.82 1.305-1.44.26-.63.39-1.375.39-2.235 0-.88-.13-1.635-.39-2.265a2.889 2.889 0 00-1.305-1.455c-.6-.34-1.41-.51-2.43-.51h-1.935v8.4zm9.934 1.05v-10.5h1.26V291h-1.26zm4.236 0v-10.5h6.495v1.035h-5.235v3.66h4.785v1.02h-4.785v3.75h5.235V291h-6.495zm9.217 0v-10.5h1.26l5.595 8.415V280.5h1.26V291h-1.26l-5.595-8.415V291h-1.26zm15.697.18c-1.03 0-1.92-.225-2.67-.675a4.68 4.68 0 01-1.725-1.905c-.41-.82-.615-1.77-.615-2.85 0-1.07.205-2.01.615-2.82.41-.82.985-1.46 1.725-1.92.75-.46 1.64-.69 2.67-.69 1.2 0 2.175.29 2.925.87.76.57 1.245 1.37 1.455 2.4h-1.395c-.16-.65-.49-1.17-.99-1.56-.49-.4-1.155-.6-1.995-.6-.75 0-1.405.175-1.965.525-.56.34-.995.835-1.305 1.485-.3.64-.45 1.41-.45 2.31 0 .9.15 1.675.45 2.325.31.64.745 1.135 1.305 1.485.56.34 1.215.51 1.965.51.84 0 1.505-.19 1.995-.57.5-.39.83-.905.99-1.545h1.395c-.21 1.01-.695 1.8-1.455 2.37-.75.57-1.725.855-2.925.855zm6.941-.18v-10.5h6.495v1.035h-5.235v3.66h4.785v1.02h-4.785v3.75h5.235V291h-6.495zm-63.621 16.18c-.98 0-1.84-.225-2.58-.675a4.68 4.68 0 01-1.725-1.905c-.41-.82-.615-1.765-.615-2.835s.205-2.015.615-2.835c.42-.82 1.01-1.46 1.77-1.92.77-.46 1.675-.69 2.715-.69 1.18 0 2.16.285 2.94.855.79.57 1.3 1.355 1.53 2.355h-1.455a2.406 2.406 0 00-1.005-1.5c-.52-.37-1.19-.555-2.01-.555-.77 0-1.44.175-2.01.525-.57.34-1.015.83-1.335 1.47-.31.64-.465 1.405-.465 2.295 0 .89.155 1.655.465 2.295.31.64.74 1.135 1.29 1.485.55.34 1.19.51 1.92.51 1.12 0 1.965-.325 2.535-.975.57-.66.895-1.56.975-2.7h-3.03v-.99h4.32V307h-1.155l-.105-1.725c-.38.61-.845 1.08-1.395 1.41-.55.33-1.28.495-2.19.495zm7.588-.18v-10.5h3.39c.82 0 1.49.135 2.01.405.52.27.905.64 1.155 1.11.25.47.375.99.375 1.56 0 .66-.18 1.255-.54 1.785-.35.53-.9.905-1.65 1.125l2.295 4.515h-1.485l-2.13-4.335h-2.16V307h-1.26zm1.26-5.325h2.04c.81 0 1.4-.195 1.77-.585.37-.39.555-.89.555-1.5 0-.62-.185-1.11-.555-1.47-.36-.37-.955-.555-1.785-.555h-2.025v4.11zm13.151 5.505c-1.03 0-1.935-.225-2.715-.675a4.868 4.868 0 01-1.815-1.92c-.43-.82-.645-1.765-.645-2.835s.215-2.01.645-2.82a4.868 4.868 0 011.815-1.92c.78-.46 1.685-.69 2.715-.69 1.04 0 1.945.23 2.715.69.78.46 1.385 1.1 1.815 1.92.43.81.645 1.75.645 2.82 0 1.07-.215 2.015-.645 2.835a4.732 4.732 0 01-1.815 1.92c-.77.45-1.675.675-2.715.675zm0-1.11c.77 0 1.445-.17 2.025-.51a3.507 3.507 0 001.365-1.485c.33-.65.495-1.425.495-2.325 0-.9-.165-1.67-.495-2.31a3.412 3.412 0 00-1.365-1.47c-.58-.35-1.255-.525-2.025-.525s-1.45.175-2.04.525c-.58.34-1.035.83-1.365 1.47-.32.64-.48 1.41-.48 2.31 0 .9.16 1.675.48 2.325.33.64.785 1.135 1.365 1.485.59.34 1.27.51 2.04.51zm9.522.945l-2.88-10.515h1.35l2.265 9.015 2.58-9.015h1.395l2.505 9.015 2.295-9.015h1.35l-2.94 10.5h-1.44l-2.505-8.67-2.565 8.67-1.41.015zm15.552-.015v-9.465h-3.135V296.5h7.53v1.035h-3.135V307h-1.26zm6.683 0v-10.5h1.26v4.635h5.445V296.5h1.26V307h-1.26v-4.83h-5.445V307h-1.26zm-58.013-41v-1.824a74.739 74.739 0 003.12-2.616 34.004 34.004 0 002.64-2.592c.784-.864 1.4-1.704 1.848-2.52.448-.832.672-1.632.672-2.4 0-.512-.088-.992-.264-1.44a2.278 2.278 0 00-.864-1.104c-.4-.288-.936-.432-1.608-.432-1.008 0-1.768.32-2.28.96-.496.64-.736 1.408-.72 2.304h-2.472c.016-1.184.264-2.176.744-2.976a4.901 4.901 0 011.968-1.824c.832-.416 1.768-.624 2.808-.624 1.584 0 2.848.448 3.792 1.344.96.88 1.44 2.112 1.44 3.696 0 .944-.232 1.88-.696 2.808a12.6 12.6 0 01-1.776 2.688 25.338 25.338 0 01-2.328 2.4 57.141 57.141 0 01-2.376 2.04h7.68V266h-11.328zm21.803.288c-1.52 0-2.832-.36-3.936-1.08-1.088-.736-1.928-1.752-2.52-3.048-.576-1.312-.864-2.832-.864-4.56 0-1.728.288-3.24.864-4.536.592-1.312 1.432-2.328 2.52-3.048 1.104-.736 2.416-1.104 3.936-1.104s2.824.368 3.912 1.104c1.088.72 1.92 1.736 2.496 3.048.592 1.296.888 2.808.888 4.536 0 1.728-.296 3.248-.888 4.56-.576 1.296-1.408 2.312-2.496 3.048-1.088.72-2.392 1.08-3.912 1.08zm0-2.28c.912 0 1.72-.256 2.424-.768.72-.512 1.28-1.248 1.68-2.208.4-.96.6-2.104.6-3.432 0-1.328-.2-2.472-.6-3.432-.4-.96-.96-1.696-1.68-2.208-.704-.512-1.512-.768-2.424-.768-.928 0-1.744.256-2.448.768s-1.256 1.248-1.656 2.208c-.4.96-.6 2.104-.6 3.432 0 1.328.2 2.472.6 3.432.4.96.952 1.696 1.656 2.208.704.512 1.52.768 2.448.768zM953.979 266v-1.824a74.739 74.739 0 003.12-2.616 34.004 34.004 0 002.64-2.592c.784-.864 1.4-1.704 1.848-2.52.448-.832.672-1.632.672-2.4 0-.512-.088-.992-.264-1.44a2.278 2.278 0 00-.864-1.104c-.4-.288-.936-.432-1.608-.432-1.008 0-1.768.32-2.28.96-.496.64-.736 1.408-.72 2.304h-2.472c.016-1.184.264-2.176.744-2.976a4.901 4.901 0 011.968-1.824c.832-.416 1.768-.624 2.808-.624 1.584 0 2.848.448 3.792 1.344.96.88 1.44 2.112 1.44 3.696 0 .944-.232 1.88-.696 2.808a12.6 12.6 0 01-1.776 2.688 25.338 25.338 0 01-2.328 2.4 57.141 57.141 0 01-2.376 2.04h7.68V266h-11.328zm21.803.288c-1.52 0-2.832-.36-3.936-1.08-1.088-.736-1.928-1.752-2.52-3.048-.576-1.312-.864-2.832-.864-4.56 0-1.728.288-3.24.864-4.536.592-1.312 1.432-2.328 2.52-3.048 1.104-.736 2.416-1.104 3.936-1.104s2.824.368 3.912 1.104c1.088.72 1.92 1.736 2.496 3.048.592 1.296.888 2.808.888 4.536 0 1.728-.296 3.248-.888 4.56-.576 1.296-1.408 2.312-2.496 3.048-1.088.72-2.392 1.08-3.912 1.08zm0-2.28c.912 0 1.72-.256 2.424-.768.72-.512 1.28-1.248 1.68-2.208.4-.96.6-2.104.6-3.432 0-1.328-.2-2.472-.6-3.432-.4-.96-.96-1.696-1.68-2.208-.704-.512-1.512-.768-2.424-.768-.928 0-1.744.256-2.448.768s-1.256 1.248-1.656 2.208c-.4.96-.6 2.104-.6 3.432 0 1.328.2 2.472.6 3.432.4.96.952 1.696 1.656 2.208.704.512 1.52.768 2.448.768z" fill="#fff"/><path fill="#4845ED" d="M488 180h72v1h-72zm-269 0h125v1H219zm-203 0h156v1H16zm832 0h72v1h-72z"/><defs><radialGradient id="paint0_radial" cx="0" cy="0" r="1" gradientUnits="userSpaceOnUse" gradientTransform="matrix(0 72 -72 0 416 180)"><stop offset=".214" stop-opacity="0"/><stop offset="1" stop-color="#4845ED"/></radialGradient><radialGradient id="paint1_radial" cx="0" cy="0" r="1" gradientUnits="userSpaceOnUse" gradientTransform="rotate(90 8 188) scale(24)"><stop offset=".214" stop-opacity="0"/><stop offset="1" stop-color="#4845ED"/></radialGradient><radialGradient id="paint2_radial" cx="0" cy="0" r="1" gradientUnits="userSpaceOnUse" gradientTransform="matrix(0 8 -8 0 8 180)"><stop offset=".214" stop-opacity="0"/><stop offset="1" stop-color="#4845ED"/></radialGradient><radialGradient id="paint3_radial" cx="0" cy="0" r="1" gradientUnits="userSpaceOnUse" gradientTransform="matrix(0 144 -144 0 704 180)"><stop offset=".214" stop-opacity="0"/><stop offset="1" stop-color="#4845ED"/></radialGradient><radialGradient id="paint4_radial" cx="0" cy="0" r="1" gradientUnits="userSpaceOnUse" gradientTransform="rotate(90 460 640) scale(180)"><stop offset=".214" stop-opacity="0"/><stop offset="1" stop-color="#4845ED"/></radialGradient></defs></svg>