<svg width="74" height="80" viewBox="0 0 74 80" fill="none" xmlns="http://www.w3.org/2000/svg"><path d="M5.268 67.089c2.18 0 3.427-1.184 4.14-2.397l-1.81-.862a2.658 2.658 0 01-2.33 1.418c-1.796 0-3.102-1.36-3.102-3.2 0-1.842 1.306-3.2 3.102-3.2 1.024 0 1.914.627 2.33 1.417l1.81-.877c-.698-1.213-1.96-2.382-4.14-2.382C2.3 57.006 0 59.052 0 62.047c0 2.996 2.3 5.042 5.268 5.042zm8.673 0c2.374 0 3.799-1.695 3.799-3.712 0-2.002-1.425-3.697-3.799-3.697-2.36 0-3.784 1.695-3.784 3.697 0 2.017 1.425 3.712 3.784 3.712zm0-1.651c-1.172 0-1.825-.95-1.825-2.06 0-1.097.653-2.047 1.825-2.047s1.84.95 1.84 2.046c0 1.11-.668 2.06-1.84 2.06zm6.132-6.342c.623 0 1.127-.497 1.127-1.111s-.504-1.096-1.127-1.096c-.609 0-1.128.482-1.128 1.096 0 .614.52 1.11 1.128 1.11zm.95 7.818v-7.059h-1.885v7.059h1.884zm8.59 0V61.93c0-1.374-.757-2.25-2.33-2.25-1.172 0-2.048.554-2.508 1.095v-.92h-1.884v7.058h1.884v-4.75a2.05 2.05 0 011.633-.833c.801 0 1.32.336 1.32 1.316v4.267h1.885zm4.453.175c1.988 0 3.101-.98 3.101-2.265 0-2.85-4.244-1.973-4.244-3.025 0-.395.445-.702 1.128-.702.875 0 1.692.366 2.122.819l.757-1.271c-.713-.556-1.677-.965-2.894-.965-1.884 0-2.938 1.038-2.938 2.221 0 2.777 4.259 1.827 4.259 2.996 0 .438-.386.76-1.202.76-.89 0-1.959-.482-2.478-.965l-.816 1.301c.756.687 1.958 1.096 3.205 1.096zm9.327.015c1.795 0 3.205-.731 4.214-1.842v-3.74h-4.719v1.811H45.5v1.17c-.4.365-1.232.745-2.107.745-1.796 0-3.102-1.36-3.102-3.2 0-1.842 1.306-3.2 3.102-3.2 1.053 0 1.9.584 2.344 1.27l1.751-.935c-.742-1.154-2.033-2.177-4.095-2.177-2.894 0-5.268 1.958-5.268 5.041 0 3.07 2.374 5.057 5.268 5.057zm12.667-.19v-7.059h-1.913v.906a2.746 2.746 0 00-2.197-1.08c-1.825 0-3.175 1.402-3.175 3.71 0 2.354 1.365 3.698 3.175 3.698.861 0 1.648-.38 2.211-1.081v.906h1.9zm-3.53-1.476c-1.07 0-1.811-.833-1.811-2.046 0-1.228.742-2.046 1.81-2.046.638 0 1.32.336 1.632.804v2.484c-.311.468-.994.804-1.632.804zm12.121 1.476V61.93c0-1.374-.756-2.25-2.33-2.25-1.171 0-2.047.554-2.507 1.095v-.92h-1.885v7.058h1.885v-4.75a2.05 2.05 0 011.632-.833c.802 0 1.32.336 1.32 1.316v4.267h1.885zm4.809 2.864c1.766 0 3.873-.658 3.873-3.347v-6.576h-1.899v.906c-.579-.716-1.35-1.08-2.21-1.08-1.811 0-3.162 1.285-3.162 3.594 0 2.353 1.366 3.595 3.161 3.595.876 0 1.647-.41 2.211-1.11v.715c0 1.389-1.068 1.783-1.973 1.783-.906 0-1.662-.248-2.241-.877l-.846 1.345c.905.774 1.855 1.052 3.087 1.052zm.357-4.56c-1.069 0-1.81-.73-1.81-1.943s.741-1.944 1.81-1.944c.623 0 1.306.336 1.617.804v2.28c-.311.453-.994.803-1.617.803zM7.35 79.882l1.866-6.549H7.645l-1.139 4.733-1.237-4.733h-1.09l-1.247 4.733-1.149-4.733H.223l1.875 6.55H3.58l1.139-4.498 1.149 4.497H7.35zm4.33.118c.736 0 1.482-.226 1.953-.658l-.55-.805c-.304.295-.863.471-1.266.471-.805 0-1.286-.5-1.365-1.1h3.525v-.274c0-1.552-.962-2.612-2.376-2.612-1.443 0-2.455 1.11-2.455 2.484 0 1.522 1.09 2.494 2.534 2.494zm1.09-2.936h-2.337c.059-.471.392-1.05 1.168-1.05.825 0 1.139.599 1.168 1.05zM17.107 80c.736 0 1.482-.226 1.953-.658l-.55-.805c-.304.295-.864.471-1.266.471-.805 0-1.286-.5-1.365-1.1h3.525v-.274c0-1.552-.962-2.612-2.376-2.612-1.443 0-2.455 1.11-2.455 2.484 0 1.522 1.09 2.494 2.534 2.494zm1.09-2.936H15.86c.059-.471.392-1.05 1.168-1.05.825 0 1.139.599 1.168 1.05zm6.742 2.818l-1.934-2.592 1.875-2.15h-1.532l-1.796 2.11v-3.917h-1.247v6.55h1.247v-1.218l.57-.61 1.256 1.827h1.561zM27.73 80c.737 0 1.483-.226 1.954-.658l-.55-.805c-.304.295-.864.471-1.266.471-.805 0-1.286-.5-1.365-1.1h3.525v-.274c0-1.552-.962-2.612-2.376-2.612-1.444 0-2.455 1.11-2.455 2.484 0 1.522 1.09 2.494 2.533 2.494zm1.09-2.936h-2.337c.06-.471.393-1.05 1.169-1.05.825 0 1.139.599 1.168 1.05zm6.556 2.818v-3.348c0-.923-.5-1.512-1.541-1.512-.776 0-1.355.373-1.66.736v-.618H30.93v4.742h1.246v-3.19a1.35 1.35 0 011.08-.56c.53 0 .874.225.874.883v2.867h1.247zm5.754 0v-6.549h-1.256v2.416a1.826 1.826 0 00-1.463-.727c-1.208 0-2.101.943-2.101 2.494 0 1.58.903 2.484 2.101 2.484.57 0 1.09-.255 1.463-.727v.61h1.257zm-2.336-.992c-.707 0-1.198-.56-1.198-1.374 0-.825.491-1.385 1.198-1.385.422 0 .874.226 1.08.54v1.68c-.206.314-.658.54-1.08.54z" fill="#000"/><path fill-rule="evenodd" clip-rule="evenodd" d="M2.213.086A2.913 2.913 0 015.74 2.204l10.095 40.598a2.9 2.9 0 01-2.126 3.512 2.913 2.913 0 01-3.527-2.117L.086 3.596A2.9 2.9 0 012.213.087z" fill="#4845ED"/><path fill-rule="evenodd" clip-rule="evenodd" d="M66.01 13.05a2.893 2.893 0 01-1.067 3.962l-50.479 29a2.919 2.919 0 01-3.978-1.064 2.893 2.893 0 011.067-3.96l50.48-29a2.92 2.92 0 013.977 1.063z" fill="url(#paint0_linear)"/><path fill-rule="evenodd" clip-rule="evenodd" d="M64.944 11.99a2.893 2.893 0 011.065 3.96l-10.096 17.4a2.92 2.92 0 01-3.978 1.06 2.893 2.893 0 01-1.065-3.961l10.096-17.4a2.919 2.919 0 013.978-1.06z" fill="url(#paint1_linear)"/><path fill-rule="evenodd" clip-rule="evenodd" d="M.391 1.452A2.919 2.919 0 014.37.39l50.479 29a2.893 2.893 0 011.067 3.96 2.919 2.919 0 01-3.978 1.063l-50.48-29a2.893 2.893 0 01-1.067-3.96z" fill="#4845ED"/><defs><linearGradient id="paint0_linear" x1="63.536" y1="14.548" x2="13.164" y2="43.732" gradientUnits="userSpaceOnUse"><stop/><stop offset=".827" stop-color="#4845ED"/></linearGradient><linearGradient id="paint1_linear" x1="68.571" y1="5.238" x2="53.538" y2="32.003" gradientUnits="userSpaceOnUse"><stop/><stop offset=".618" stop-color="#4845ED"/></linearGradient></defs></svg>