<svg width="92" height="100" viewBox="0 0 92 100" fill="none" xmlns="http://www.w3.org/2000/svg"><path d="M6.585 83.861c2.726 0 4.284-1.48 5.174-2.996l-2.262-1.077a3.323 3.323 0 01-2.912 1.772c-2.245 0-3.877-1.7-3.877-4 0-2.302 1.632-4.001 3.877-4.001 1.28 0 2.392.785 2.912 1.772l2.262-1.096c-.871-1.516-2.448-2.978-5.174-2.978C2.875 71.257 0 73.814 0 77.56c0 3.745 2.875 6.302 6.585 6.302zm10.841 0c2.968 0 4.749-2.119 4.749-4.64 0-2.502-1.78-4.621-4.749-4.621-2.949 0-4.73 2.119-4.73 4.621 0 2.521 1.781 4.64 4.73 4.64zm0-2.064c-1.465 0-2.281-1.187-2.281-2.576 0-1.37.816-2.557 2.281-2.557 1.466 0 2.3 1.187 2.3 2.557 0 1.389-.834 2.576-2.3 2.576zm7.664-7.927c.78 0 1.41-.622 1.41-1.389s-.63-1.37-1.41-1.37c-.76 0-1.409.603-1.409 1.37 0 .767.65 1.388 1.41 1.388zm1.188 9.772v-8.823h-2.356v8.823h2.356zm10.738 0v-6.229c0-1.717-.946-2.813-2.912-2.813-1.465 0-2.56.694-3.135 1.37v-1.15h-2.355v8.822h2.355v-5.937c.39-.53 1.113-1.04 2.04-1.04 1.002 0 1.651.42 1.651 1.643v5.334h2.356zm5.566.219c2.486 0 3.877-1.224 3.877-2.831 0-3.562-5.305-2.466-5.305-3.781 0-.493.556-.877 1.41-.877 1.094 0 2.114.457 2.652 1.023l.946-1.59c-.89-.694-2.096-1.205-3.617-1.205-2.355 0-3.672 1.297-3.672 2.776 0 3.471 5.323 2.284 5.323 3.745 0 .548-.482.95-1.502.95-1.113 0-2.449-.603-3.098-1.206l-1.02 1.626c.946.859 2.448 1.37 4.006 1.37zm11.658.019c2.245 0 4.007-.914 5.269-2.302v-4.676H53.61v2.265h3.265v1.461c-.501.457-1.54.932-2.634.932-2.244 0-3.877-1.7-3.877-4 0-2.302 1.633-4.001 3.877-4.001 1.317 0 2.374.73 2.93 1.589l2.19-1.17c-.928-1.442-2.542-2.72-5.12-2.72-3.617 0-6.585 2.447-6.585 6.301 0 3.836 2.968 6.32 6.585 6.32zm15.836-.238v-8.823h-2.393v1.133c-.705-.895-1.688-1.352-2.745-1.352-2.281 0-3.97 1.754-3.97 4.64 0 2.94 1.707 4.621 3.97 4.621 1.076 0 2.059-.475 2.764-1.352v1.133h2.374zm-4.414-1.845c-1.336 0-2.263-1.041-2.263-2.557 0-1.535.927-2.558 2.263-2.558.797 0 1.65.42 2.04 1.005v3.105c-.39.585-1.243 1.005-2.04 1.005zm15.152 1.845v-6.229c0-1.717-.946-2.813-2.912-2.813-1.465 0-2.56.694-3.135 1.37v-1.15h-2.355v8.822h2.355v-5.937c.39-.53 1.113-1.04 2.04-1.04 1.002 0 1.651.42 1.651 1.643v5.334h2.356zm6.012 3.58c2.207 0 4.84-.822 4.84-4.183v-8.22h-2.373v1.133c-.724-.895-1.688-1.352-2.764-1.352-2.263 0-3.95 1.608-3.95 4.494 0 2.94 1.706 4.493 3.95 4.493 1.094 0 2.059-.511 2.764-1.388v.895c0 1.735-1.336 2.229-2.467 2.229-1.132 0-2.078-.311-2.801-1.096l-1.057 1.68c1.131.968 2.318 1.315 3.858 1.315zm.445-5.699c-1.336 0-2.263-.913-2.263-2.43 0-1.516.927-2.429 2.263-2.429.779 0 1.632.42 2.022 1.005v2.85c-.39.566-1.243 1.004-2.022 1.004zM9.188 99.853l2.332-8.186H9.556l-1.424 5.915-1.546-5.915H5.224l-1.559 5.915-1.436-5.915H.278l2.344 8.186h1.853L5.9 94.232l1.436 5.62h1.853zM14.6 100c.92 0 1.853-.282 2.442-.822l-.688-1.007c-.38.369-1.08.59-1.583.59-1.006 0-1.607-.626-1.706-1.375h4.406v-.344c0-1.939-1.202-3.264-2.97-3.264-1.804 0-3.068 1.386-3.068 3.105 0 1.902 1.362 3.117 3.166 3.117zm1.362-3.67H13.04c.073-.589.49-1.313 1.46-1.313 1.031 0 1.424.749 1.46 1.314zm5.421 3.67c.92 0 1.853-.282 2.442-.822l-.687-1.007c-.38.369-1.08.59-1.583.59-1.006 0-1.608-.626-1.706-1.375h4.406v-.344c0-1.939-1.203-3.264-2.97-3.264-1.804 0-3.068 1.386-3.068 3.105 0 1.902 1.362 3.117 3.166 3.117zm1.362-3.67h-2.92c.073-.589.49-1.313 1.46-1.313 1.03 0 1.424.749 1.46 1.314zm8.429 3.523l-2.418-3.24 2.344-2.688h-1.915l-2.245 2.639v-4.897h-1.56v8.186h1.56V98.33l.711-.761 1.571 2.283h1.952zm3.489.147c.92 0 1.853-.282 2.442-.822l-.687-1.007c-.38.369-1.08.59-1.583.59-1.007 0-1.608-.626-1.706-1.375h4.406v-.344c0-1.939-1.203-3.264-2.97-3.264-1.804 0-3.069 1.386-3.069 3.105 0 1.902 1.363 3.117 3.167 3.117zm1.362-3.67h-2.92c.073-.589.49-1.313 1.46-1.313 1.03 0 1.423.749 1.46 1.314zm8.195 3.523v-4.185c0-1.154-.626-1.89-1.927-1.89-.97 0-1.693.466-2.074.92v-.773h-1.558v5.928h1.558v-3.989a1.69 1.69 0 011.35-.7c.663 0 1.092.283 1.092 1.105v3.584h1.56zm7.193 0v-8.186h-1.57v3.019a2.283 2.283 0 00-1.83-.908c-1.509 0-2.626 1.178-2.626 3.117 0 1.976 1.13 3.105 2.627 3.105.712 0 1.362-.319 1.828-.908v.76h1.571zm-2.92-1.24c-.884 0-1.498-.7-1.498-1.718 0-1.03.614-1.73 1.497-1.73.528 0 1.093.282 1.35.675v2.098c-.257.393-.822.675-1.35.675z" fill="#fff"/><path fill-rule="evenodd" clip-rule="evenodd" d="M3.055.108A3.655 3.655 0 017.481 2.77l12.67 51.04a3.645 3.645 0 01-2.669 4.416 3.656 3.656 0 01-4.426-2.663L.386 4.523A3.645 3.645 0 013.055.108z" fill="url(#paint0_linear)"/><path fill-rule="evenodd" clip-rule="evenodd" d="M83.122 16.407a3.64 3.64 0 01-1.34 4.98L18.431 57.844a3.66 3.66 0 01-4.993-1.336 3.64 3.64 0 011.34-4.98L78.13 15.072a3.66 3.66 0 014.992 1.336z" fill="url(#paint1_linear)"/><path fill-rule="evenodd" clip-rule="evenodd" d="M81.785 15.072a3.64 3.64 0 011.336 4.981L70.45 41.927a3.66 3.66 0 01-4.994 1.333 3.64 3.64 0 01-1.336-4.98l12.67-21.875a3.66 3.66 0 014.994-1.333z" fill="url(#paint2_linear)"/><path fill-rule="evenodd" clip-rule="evenodd" d="M.768 1.825A3.66 3.66 0 015.761.49l63.351 36.458a3.64 3.64 0 011.34 4.98 3.66 3.66 0 01-4.992 1.335L2.108 6.805a3.64 3.64 0 01-1.34-4.98z" fill="url(#paint3_linear)"/><defs><linearGradient id="paint0_linear" x1="3.873" y1="3.707" x2="16.604" y2="54.763" gradientUnits="userSpaceOnUse"><stop offset=".081" stop-color="#fff"/><stop offset=".927" stop-color="#fff"/></linearGradient><linearGradient id="paint1_linear" x1="80.017" y1="18.29" x2="16.745" y2="54.885" gradientUnits="userSpaceOnUse"><stop stop-color="#403DDF"/><stop offset=".827" stop-color="#fff"/></linearGradient><linearGradient id="paint2_linear" x1="80.017" y1="18.29" x2="67.394" y2="40.192" gradientUnits="userSpaceOnUse"><stop stop-color="#403DDF"/><stop offset=".76" stop-color="#fff"/></linearGradient><linearGradient id="paint3_linear" x1="3.873" y1="3.708" x2="67.267" y2="40.303" gradientUnits="userSpaceOnUse"><stop offset=".057" stop-color="#fff"/><stop offset=".967" stop-color="#fff"/></linearGradient></defs></svg>