<svg width="1217" height="783" viewBox="0 0 1217 783" fill="none" xmlns="http://www.w3.org/2000/svg"><g opacity=".8"><path d="M486.3 653.015c22.169 16.465 53.487 11.84 69.952-10.329 16.464-22.169 11.84-53.488-10.329-69.952L486.3 653.015zM139.236 270.696c-22.169-16.464-53.487-11.84-69.952 10.329-16.464 22.169-11.84 53.488 10.33 69.953l59.622-80.282zm406.687 302.038L139.236 270.696l-59.623 80.282L486.3 653.015l59.623-80.281z" fill="url(#paint0_linear)"/><path d="M560.913 590.673c12.262 24.743 2.144 54.741-22.599 67.002-24.743 12.262-54.741 2.144-67.002-22.599l89.601-44.403zM164.177 15.297c-12.262-24.743-2.144-54.741 22.599-67.002 24.743-12.262 54.741-2.144 67.002 22.599l-89.601 44.403zm307.135 619.779L164.177 15.296l89.601-44.402 307.135 619.779-89.601 44.403z" fill="url(#paint1_linear)"/><path d="M245.92-40.598c-18.608-20.403-50.233-21.858-70.636-3.25s-21.858 50.233-3.25 70.636l73.886-67.386zm150.489 313.404c18.608 20.403 50.233 21.858 70.636 3.249 20.403-18.608 21.858-50.232 3.25-70.635l-73.886 67.386zM172.034 26.788l224.375 246.018 73.886-67.386L245.92-40.598l-73.886 67.386z" fill="#403DDF"/><path d="M433.352 239.112l141.274-129.301" stroke="url(#paint2_linear)" stroke-width="100" stroke-linecap="round"/><path d="M757.279 167.389L1039.83-91.217" stroke="url(#paint3_linear)" stroke-width="100" stroke-linecap="round"/><path d="M575.286 110.131l182.653 57.577" stroke="url(#paint4_linear)" stroke-width="100" stroke-linecap="round"/></g><defs><linearGradient id="paint0_linear" x1="111.327" y1="312.049" x2="588.017" y2="655.304" gradientUnits="userSpaceOnUse"><stop offset=".078"/><stop offset="1" stop-color="#403DDF"/></linearGradient><linearGradient id="paint1_linear" x1="64.184" y1="-302.45" x2="518.013" y2="614.086" gradientUnits="userSpaceOnUse"><stop/><stop offset="1" stop-color="#403DDF"/></linearGradient><linearGradient id="paint2_linear" x1="432.14" y1="241.015" x2="661.484" y2="29.806" gradientUnits="userSpaceOnUse"><stop stop-color="#403DDF"/><stop offset=".615" stop-color="#1C1B63"/></linearGradient><linearGradient id="paint3_linear" x1="1060.72" y1="-117.066" x2="761.314" y2="166.143" gradientUnits="userSpaceOnUse"><stop/><stop offset=".915" stop-color="#403DDF"/></linearGradient><linearGradient id="paint4_linear" x1="576.527" y1="113.072" x2="757.054" y2="163.751" gradientUnits="userSpaceOnUse"><stop stop-color="#23227B"/><stop offset="1" stop-color="#403DDF"/></linearGradient></defs></svg>