<svg width="210" height="30" viewBox="0 0 210 30" fill="none" xmlns="http://www.w3.org/2000/svg"><path d="M74.6 10.26c.212.319.31.653.31 1.02 0 .446-.13.844-.407 1.147-.277.318-.635.478-1.09.478-.391 0-.717-.128-.994-.367-.276-.239-.406-.558-.406-.972 0-.557.292-1.035.895-1.402-.114-.16-.31-.255-.554-.255-.7 0-1.318.255-1.871.781a5.686 5.686 0 00-1.318 1.928c-.326.764-.489 1.481-.489 2.15v5.465c0 .797.228 1.354.7 1.657.456.303 1.156.462 2.1.462v.542c-2.165-.064-3.516-.096-4.053-.096-.472 0-1.497.032-3.108.096v-.542c.488 0 .895-.048 1.172-.16.293-.11.488-.302.634-.557.13-.27.196-.637.196-1.115v-8.093c0-.797-.147-1.37-.44-1.737-.293-.367-.813-.542-1.562-.542v-.541c.553.047 1.09.08 1.627.08 1.107 0 2.035-.112 2.734-.351v3.218c.196-.542.489-1.052.847-1.561.374-.51.813-.924 1.334-1.243a2.945 2.945 0 011.627-.494c.456 0 .88.096 1.237.27.375.176.668.415.88.734zm9.472-.653v.51c.683.047 1.188.159 1.497.35.309.191.472.494.472.892 0 .287-.098.685-.277 1.18l-2.913 7.471-3.173-7.71c-.228-.543-.342-.957-.342-1.275 0-.271.081-.478.244-.606.163-.127.358-.207.602-.239s.57-.048 1.01-.048v-.525c-1.53.111-2.67.159-3.418.159a19.37 19.37 0 01-2.588-.16v.542c.293 0 .602.096.895.271.293.191.586.574.895 1.163l4.785 11.248-.944 2.358c-.521 1.338-1.27 2.008-2.246 2.008-.065 0-.114-.016-.163-.032.472-.255.7-.654.7-1.163 0-.383-.13-.685-.374-.893a1.478 1.478 0 00-.96-.318c-.44 0-.782.127-1.026.366-.244.255-.374.574-.374.988 0 .494.163.86.505 1.147.341.271.764.414 1.285.414.879 0 1.562-.223 2.067-.669.423-.366.797-.972 1.123-1.816l.895-2.246 4.329-11.041c.244-.638.504-1.084.765-1.354.276-.271.586-.43.944-.463v-.51a23.31 23.31 0 01-2.002.08c-.553-.016-1.286-.032-2.213-.08zm17.885 2.58c.423.972.634 2.12.634 3.458 0 1.322-.211 2.549-.651 3.712-.439 1.163-1.09 2.087-2.001 2.804-.912.717-2.034 1.083-3.385 1.083-.667 0-1.27-.127-1.823-.382-.537-.255-.96-.59-1.27-1.02v3.298c0 .701.212 1.18.635 1.45.423.271 1.058.414 1.904.414v.542c-.227-.016-.716-.032-1.497-.064a56.436 56.436 0 00-2.294-.047c-.554 0-1.14.016-1.725.047-.586.032-.96.048-1.123.064v-.542c.65 0 1.09-.111 1.35-.35.26-.24.391-.653.391-1.259V12.427c0-.797-.147-1.37-.44-1.737-.292-.367-.813-.542-1.562-.542v-.541c.554.047 1.09.08 1.628.08 1.106 0 2.034-.112 2.734-.351v2.724c.39-.892.96-1.577 1.692-2.055.733-.494 1.579-.733 2.523-.733a4.41 4.41 0 012.506.749c.765.462 1.351 1.195 1.774 2.167zm-1.921 3.808c0-3.983-1.025-5.974-3.06-5.974-.796 0-1.513.287-2.147.844-.635.558-1.09 1.37-1.351 2.422v7.711c.26.51.618.924 1.09 1.21.472.304 1.042.447 1.693.447 2.522 0 3.775-2.215 3.775-6.66zm11.897 5.672c-.391.43-.847.637-1.4.637-.553 0-.976-.175-1.253-.51-.277-.334-.423-.907-.423-1.672v-9.974h3.889v-.525h-3.889V5.32c-.586.223-1.383.334-2.36.366v3.936h-2.539v.51h2.539v8.634c0 .94.082 1.673.228 2.215.147.558.423 1.02.797 1.386.293.287.635.51 1.026.653.39.144.879.207 1.464.207 1.856 0 2.995-1.194 3.418-3.568l-.521-.128c-.26 1.004-.586 1.72-.976 2.135zm14.174-9.368c.521 1.052.782 2.358.782 3.967 0 1.593-.261 2.916-.782 3.951-.52 1.036-1.22 1.8-2.115 2.295-.895.493-1.921.732-3.076.732s-2.181-.239-3.076-.732c-.895-.494-1.595-1.26-2.115-2.295-.521-1.035-.782-2.358-.782-3.95 0-1.594.261-2.916.782-3.968.52-1.035 1.22-1.816 2.115-2.31.895-.494 1.921-.749 3.076-.749s2.181.255 3.076.749c.879.494 1.595 1.274 2.115 2.31zm-1.79 3.967c0-2.214-.309-3.855-.927-4.907-.619-1.051-1.449-1.577-2.507-1.577-1.057 0-1.887.526-2.506 1.577-.618 1.052-.927 2.693-.927 4.907 0 2.215.309 3.84.927 4.891.619 1.052 1.449 1.578 2.506 1.578 1.058 0 1.888-.526 2.507-1.578.618-1.067.927-2.692.927-4.89zM4.964 19.134a1.14 1.14 0 01-.88.398c-.341 0-.601-.111-.78-.318-.18-.207-.26-.558-.26-1.036V11.98h2.424v-.318H3.043V8.985c-.374.144-.862.207-1.464.223v2.454H0v.318h1.579v5.37c0 .573.048 1.035.146 1.386.098.35.26.637.488.86.196.175.39.319.635.398.244.08.537.128.911.128 1.156 0 1.856-.733 2.132-2.215l-.325-.08c-.163.606-.375 1.052-.602 1.307zm9.015-.032c-.081-.16-.13-.398-.13-.7v-4.27c0-.542-.049-.973-.13-1.291a1.807 1.807 0 00-.44-.813c-.39-.398-.976-.605-1.74-.605-.603 0-1.156.143-1.644.446-.489.303-.863.78-1.14 1.466v-5.99c-.423.159-.992.222-1.708.222-.326 0-.668-.016-1.01-.047v.334c.473 0 .782.112.977.335.18.223.277.573.277 1.067v9.13c0 .302-.05.525-.13.7a.699.699 0 01-.391.35c-.179.064-.423.096-.732.096v.335c.992-.048 1.66-.064 1.969-.064.309 0 .911.016 1.823.064v-.335c-.277 0-.489-.032-.635-.095a.559.559 0 01-.326-.335 1.907 1.907 0 01-.114-.7v-3.57c0-.557.098-1.051.293-1.497a2.52 2.52 0 01.814-1.036 2.089 2.089 0 011.188-.366c.374 0 .651.08.846.239.196.159.326.366.39.637.066.255.098.59.098.972v4.62c0 .303-.032.526-.113.701-.082.16-.18.287-.342.35a1.768 1.768 0 01-.635.096v.335a39.43 39.43 0 011.84-.064c.292 0 .943.016 1.968.064v-.335c-.309 0-.553-.032-.732-.095a.699.699 0 01-.39-.35zm8.593-1.259l.326.128c-.13.366-.326.733-.619 1.051-.276.335-.618.59-1.041.797a3.104 3.104 0 01-1.4.303c-.781 0-1.448-.175-2.018-.526-.57-.35-.993-.829-1.302-1.466-.293-.621-.44-1.354-.44-2.166 0-.925.147-1.737.456-2.422.31-.685.733-1.211 1.286-1.578.553-.366 1.204-.557 1.953-.557.976 0 1.741.287 2.262.876.537.59.797 1.466.797 2.645h-5.11a8.94 8.94 0 00-.048 1.02c0 .7.114 1.322.358 1.848.244.525.553.924.927 1.21.39.287.781.43 1.22.43 1.091 0 1.889-.525 2.393-1.593zm-4.866-3.202h3.564a6.005 6.005 0 00-.13-1.466c-.114-.446-.293-.796-.537-1.051a1.174 1.174 0 00-.879-.383c-.342 0-.65.112-.927.32-.277.206-.521.54-.717.971-.195.414-.325.956-.374 1.61zm123.227 6.962c-.13-.27-.195-.637-.195-1.115v-6.883c0-.876-.065-1.56-.212-2.087-.146-.525-.374-.956-.7-1.306-.634-.637-1.562-.972-2.799-.972-.992 0-1.871.24-2.652.733-.782.494-1.4 1.275-1.839 2.374V9.32c-.716.239-1.628.35-2.734.35-.537 0-1.091-.032-1.628-.08v.542c.749 0 1.27.176 1.563.542.292.367.439.94.439 1.737v8.061c0 .478-.065.845-.195 1.115a1.044 1.044 0 01-.635.558c-.293.112-.684.16-1.172.16v.541c1.611-.064 2.669-.096 3.157-.096.505 0 1.481.032 2.962.096v-.542c-.439 0-.781-.047-1.025-.159a1.1 1.1 0 01-.553-.558c-.114-.27-.179-.637-.179-1.115V14.77c0-.877.162-1.673.455-2.39.31-.717.749-1.275 1.302-1.689a3.177 3.177 0 011.921-.621c.602 0 1.057.127 1.367.382.309.255.52.605.618 1.02.098.414.146.94.146 1.561v7.456c0 .478-.065.845-.179 1.115-.113.271-.292.462-.537.558-.244.112-.585.16-1.025.16v.541c1.481-.064 2.458-.095 2.946-.095.504 0 1.546.031 3.157.095v-.542c-.505 0-.895-.047-1.172-.159a1.075 1.075 0 01-.602-.558zm14.614-9.304c.521 1.052.781 2.358.781 3.967 0 1.593-.26 2.916-.781 3.951-.521 1.036-1.22 1.8-2.115 2.295-.896.493-1.921.732-3.076.732-1.156 0-2.181-.239-3.076-.732-.895-.494-1.595-1.26-2.116-2.295-.52-1.035-.781-2.358-.781-3.95 0-1.594.261-2.916.781-3.968.521-1.035 1.221-1.816 2.116-2.31s1.92-.749 3.076-.749c1.155 0 2.18.255 3.076.749.895.494 1.594 1.274 2.115 2.31zm-1.774 3.967c0-2.214-.309-3.855-.927-4.907-.619-1.051-1.449-1.577-2.507-1.577-1.057 0-1.887.526-2.506 1.577-.618 1.052-.927 2.693-.927 4.907 0 2.215.309 3.84.927 4.891.619 1.052 1.449 1.578 2.506 1.578 1.058 0 1.888-.526 2.507-1.578.618-1.067.927-2.692.927-4.89zm24.965 5.337c-.131-.27-.196-.637-.196-1.115v-6.883c0-.844-.065-1.529-.195-2.07a3.103 3.103 0 00-.667-1.323c-.635-.637-1.546-.972-2.734-.972-.944 0-1.807.24-2.572.717-.764.478-1.383 1.259-1.806 2.342-.098-.908-.374-1.609-.814-2.071-.634-.637-1.546-.972-2.734-.972-.911 0-1.757.255-2.522.765-.765.51-1.367 1.29-1.807 2.342V9.336c-.716.239-1.627.35-2.734.35-.537 0-1.09-.032-1.627-.08v.542c.749 0 1.269.175 1.562.542.293.366.44.94.44 1.737v8.061c0 .478-.065.845-.196 1.115a1.04 1.04 0 01-.634.558c-.293.112-.684.16-1.172.16v.541c1.611-.064 2.669-.095 3.157-.095.505 0 1.481.031 2.962.095v-.542c-.439 0-.781-.047-1.025-.159a1.172 1.172 0 01-.554-.558c-.113-.27-.179-.637-.179-1.115v-5.72c0-.86.163-1.656.472-2.373.31-.717.733-1.29 1.27-1.705a2.928 2.928 0 011.822-.621c.586 0 1.026.127 1.319.382.293.255.472.59.553.988.081.414.114.94.114 1.593v7.456c0 .478-.049.845-.163 1.115-.114.271-.293.462-.537.558-.244.112-.586.16-1.025.16v.541a84.08 84.08 0 012.962-.095c.488 0 1.546.031 3.141.095v-.542c-.489 0-.879-.047-1.172-.159a1.17 1.17 0 01-.619-.558c-.13-.27-.195-.637-.195-1.115v-5.751c0-.86.147-1.657.456-2.358.309-.701.732-1.275 1.269-1.689a2.884 2.884 0 011.807-.621c.602 0 1.041.127 1.334.382.293.255.472.59.553.988.082.414.114.94.114 1.593v7.456c0 .478-.065.845-.179 1.115-.114.271-.293.462-.537.558-.244.112-.586.16-1.025.16v.541c1.481-.064 2.457-.095 2.946-.095.488 0 1.546.031 3.157.095v-.542c-.505 0-.895-.047-1.172-.159a1.053 1.053 0 01-.618-.558zm7.534 0c-.13-.27-.195-.637-.195-1.115V9.32c-.716.239-1.627.35-2.734.35-.537 0-1.09-.032-1.627-.08v.542c.748 0 1.269.176 1.562.542.293.367.439.94.439 1.737v8.061c0 .478-.065.845-.195 1.115a1.04 1.04 0 01-.635.558c-.292.112-.683.16-1.171.16v.541c1.611-.064 2.669-.096 3.189-.096.521 0 1.579.032 3.19.096v-.542c-.504 0-.895-.047-1.172-.159a.965.965 0 01-.651-.542zM183.88 6.23c.261.143.537.223.846.223.293 0 .586-.064.83-.223.261-.143.472-.35.619-.605.146-.255.228-.526.228-.829 0-.287-.082-.573-.228-.812a1.702 1.702 0 00-1.449-.828c-.292 0-.585.079-.846.222-.26.16-.472.35-.618.606a1.61 1.61 0 00-.228.812c0 .287.081.574.228.829.146.27.358.462.618.605zm13.638 10.26a19.577 19.577 0 00-1.953-1.37c-.244-.16-.667-.414-1.253-.78-.586-.367-1.091-.734-1.497-1.132a2.008 2.008 0 01-.619-1.497c0-.622.196-1.1.602-1.45.407-.35.928-.526 1.563-.526 1.09 0 1.904.367 2.473 1.115.554.733.928 1.673 1.123 2.804h.586c0-2.087.033-3.537.098-4.381h-.602c-.082.749-.277 1.131-.586 1.131-.114 0-.277-.064-.456-.207a4.907 4.907 0 00-1.204-.653c-.488-.191-1.042-.287-1.66-.287-.716 0-1.367.128-1.969.367a3.104 3.104 0 00-1.4 1.115c-.358.494-.521 1.115-.521 1.848 0 .669.163 1.258.472 1.752.31.494.7.925 1.156 1.259.455.35 1.123.78 1.985 1.322.716.43 1.27.797 1.66 1.1.391.302.716.637.96 1.003.244.383.358.797.358 1.26 0 .573-.114 1.05-.341 1.417a2.09 2.09 0 01-.879.797 2.722 2.722 0 01-1.107.239c-.846 0-1.513-.192-2.002-.574-.504-.382-.862-.924-1.106-1.61-.244-.684-.423-1.56-.554-2.628h-.602c0 2.454-.032 4.158-.097 5.146h.602c.097-.653.277-.972.537-.972.098 0 .179.032.244.096.374.287.732.526 1.074.685.602.239 1.302.366 2.083.366.814 0 1.562-.143 2.246-.414.683-.287 1.237-.685 1.644-1.227.406-.541.618-1.195.618-1.96 0-.668-.146-1.258-.456-1.768a5.542 5.542 0 00-1.22-1.386zm11.961 3.075c-.26.988-.586 1.689-.976 2.12-.391.43-.846.636-1.4.636-.553 0-.976-.175-1.253-.51-.277-.334-.423-.908-.423-1.672v-9.99h3.889v-.525h-3.889V5.32c-.586.223-1.383.334-2.36.366v3.936h-2.538v.51h2.538v8.634c0 .94.082 1.673.228 2.215a2.964 2.964 0 001.823 2.04c.39.143.879.207 1.464.207 1.856 0 2.995-1.195 3.418-3.57l-.521-.095zM61.809 23.07c-2.62 4-7.128 6.707-12.287 6.915-8.886.334-16.225-6.851-15.867-15.55.211-5.4 3.368-10.069 7.941-12.523.196-.111.375.144.212.287-3.548 3.17-5.484 8.062-4.427 13.335a13.655 13.655 0 002.816 5.943c.423-.765 1.253-1.72 1.27-2.98.032-3.52.032-7.025.016-10.546 0-.59.162-1.004.634-1.386C44.77 4.429 47.39 2.262 50.043.143c.195-.16.65-.191.878-.064 1.79.988 8.756 3.298 9.52 3.378.13.016.359.207.098.43 0 0-2.066 2.023-3.19 3.139-.195.19-.439.143-.634.08-1.14-.383-2.88-1.084-4.427-1.69v9.034h1.156v1.131H52.24v11.2c3.596-.175 6.867-1.625 9.292-3.919.163-.175.39.016.277.207zm-13.784-7.52h-2.116c-.407 1.673-1.286 3.06-2.669 4.318-.456.414-1.611 1.497-2.18 2.04a.359.359 0 00-.033.477l.146.143.277.271c.163.16.342.319.52.462l.294.24c.114.095.227.19.341.27.977.733 2.1 1.37 3.223 1.848.65.271 1.334.494 2.034.67.081-.017.163-.096.163-.192V15.55zm.015-11.52c0-.175-.18-.255-.342-.159 0 0-.309.191-.472.27-.813.479-1.123 1.228-1.09 2.184l.032 6.691c.017.494-.016.94-.081 1.402h1.92L48.04 4.03zm3.01 11.52h-1.855c0 3.472 0 6.93-.016 10.1 0 .637.147.924.781 1.036.375.032.733.064 1.09.08V15.548zm0-10.627c-.357-.144-.7-.255-.992-.367-.065-.016-.228-.08-.293-.095-.456-.144-.586.063-.586.302v9.639h1.855v-9.48h.017z" fill="#4C265A"/></svg>