<svg width="180" height="30" viewBox="0 0 180 30" fill="none" xmlns="http://www.w3.org/2000/svg"><path d="M10.085 6.199c-1.345 0-2.394.557-3.147 1.672-.753 1.105-1.13 2.634-1.13 4.585 0 4.055 1.53 6.083 4.592 6.083a9.33 9.33 0 002.69-.39c.867-.259 1.74-.57 2.617-.936v4.815c-1.745.778-3.72 1.168-5.922 1.168-3.157 0-5.58-.923-7.267-2.768C.839 18.582 0 15.915 0 12.427c0-2.182.405-4.1 1.216-5.752.82-1.653 1.993-2.922 3.519-3.806 1.535-.894 3.338-1.34 5.407-1.34 2.26 0 4.42.494 6.48 1.484l-1.73 4.483a19.373 19.373 0 00-2.318-.922 8.04 8.04 0 00-2.489-.375z" fill="url(#paint0_linear)"/><path d="M34.242 14.704c0 2.672-.715 4.758-2.146 6.257-1.42 1.49-3.414 2.235-5.98 2.235-2.46 0-4.42-.765-5.879-2.293-1.45-1.528-2.174-3.594-2.174-6.198 0-2.663.71-4.729 2.131-6.2 1.43-1.48 3.434-2.22 6.009-2.22 1.592 0 2.999.342 4.22 1.024 1.22.682 2.16 1.663 2.818 2.94.667 1.27 1.001 2.754 1.001 4.455zm-10.5 0c0 1.404.186 2.475.558 3.215.372.73.997 1.096 1.874 1.096.868 0 1.478-.365 1.831-1.096.362-.74.544-1.811.544-3.215 0-1.393-.182-2.446-.544-3.157-.362-.71-.982-1.067-1.86-1.067-.858 0-1.473.356-1.845 1.067-.372.702-.558 1.754-.558 3.157z" fill="url(#paint1_linear)"/><path d="M42.363 22.907H36.77V6.574h5.593v16.333zM36.627 2.508c0-.845.233-1.475.7-1.888.468-.413 1.221-.62 2.26-.62 1.04 0 1.798.211 2.275.634.477.423.715 1.048.715 1.874 0 1.653-.996 2.48-2.99 2.48-1.973 0-2.96-.827-2.96-2.48z" fill="url(#paint2_linear)"/><path d="M55.791 22.907v-8.909c0-1.086-.157-1.903-.472-2.45-.305-.558-.801-.837-1.488-.837-.944 0-1.626.38-2.045 1.14-.42.758-.63 2.06-.63 3.906v7.15h-5.593V6.574h4.22l.7 2.018h.33a4.45 4.45 0 011.974-1.73c.849-.384 1.821-.577 2.918-.577 1.793 0 3.185.524 4.177 1.572 1.002 1.047 1.502 2.523 1.502 4.426v10.624h-5.593z" fill="url(#paint3_linear)"/><path d="M77.001 17.89c0 1.75-.591 3.071-1.774 3.965-1.182.894-2.88 1.34-5.092 1.34-1.202 0-2.246-.067-3.133-.201a12.897 12.897 0 01-2.718-.707v-4.512c.868.385 1.817.702 2.847.952 1.04.25 1.964.374 2.775.374 1.21 0 1.816-.278 1.816-.836 0-.288-.171-.543-.514-.764-.334-.23-1.317-.673-2.947-1.326-1.488-.615-2.528-1.312-3.119-2.09-.591-.789-.887-1.783-.887-2.985 0-1.518.582-2.7 1.746-3.546 1.163-.846 2.808-1.269 4.935-1.269 1.068 0 2.07.12 3.004.36.944.232 1.921.573 2.932 1.024l-1.516 3.633c-.744-.336-1.53-.62-2.36-.85-.83-.24-1.507-.36-2.032-.36-.915 0-1.373.225-1.373.677 0 .279.157.519.472.72.324.193 1.25.592 2.775 1.197 1.135.471 1.98.932 2.532 1.384a4.04 4.04 0 011.23 1.6c.268.606.401 1.346.401 2.22z" fill="url(#paint4_linear)"/><path d="M89.127 23.196c-.82 0-1.554-.135-2.203-.404-.648-.279-1.292-.774-1.93-1.485h-.258c.171 1.144.257 1.855.257 2.134V30H79.4V6.574h4.549l.787 2.076h.257c1.04-1.576 2.475-2.365 4.306-2.365 1.793 0 3.2.75 4.22 2.25 1.02 1.499 1.53 3.555 1.53 6.17 0 2.633-.533 4.709-1.602 6.227-1.058 1.51-2.498 2.264-4.32 2.264zM87.253 10.71c-.82 0-1.397.298-1.73.894-.325.586-.501 1.46-.53 2.624v.447c0 1.403.186 2.417.558 3.041.372.625.959.938 1.76.938.715 0 1.235-.308 1.559-.923.324-.625.486-1.653.486-3.085 0-1.403-.162-2.408-.486-3.013-.324-.615-.863-.923-1.617-.923z" fill="url(#paint5_linear)"/><path d="M105.374 23.196c-2.699 0-4.797-.721-6.295-2.163-1.487-1.451-2.231-3.513-2.231-6.184 0-2.759.691-4.873 2.074-6.343 1.383-1.48 3.357-2.22 5.922-2.22 2.442 0 4.325.643 5.651 1.931 1.335 1.278 2.003 3.124 2.003 5.536v2.508h-10c.038.913.367 1.63.987 2.148.63.52 1.483.779 2.561.779.982 0 1.883-.091 2.704-.274.829-.192 1.726-.514 2.689-.966V22a9.81 9.81 0 01-2.718.937c-.935.173-2.05.26-3.347.26zm-.329-13.076c-.658 0-1.212.212-1.66.634-.439.414-.696 1.067-.772 1.961h4.806c-.019-.788-.243-1.418-.672-1.889-.42-.47-.987-.706-1.702-.706z" fill="url(#paint6_linear)"/><path d="M125.525 22.907l-1.073-2.162h-.114c-.754.942-1.521 1.586-2.303 1.932-.782.346-1.793.519-3.033.519-1.526 0-2.728-.462-3.605-1.384-.877-.923-1.316-2.22-1.316-3.893 0-1.74.601-3.032 1.802-3.878 1.202-.855 2.943-1.336 5.222-1.441l2.703-.087v-.23c0-1.346-.658-2.019-1.974-2.019-1.182 0-2.684.404-4.506 1.211l-1.616-3.72c1.888-.98 4.272-1.47 7.152-1.47 2.079 0 3.686.52 4.821 1.557 1.145 1.038 1.717 2.49 1.717 4.354v10.711h-3.877zm-4.148-3.69c.677 0 1.254-.216 1.731-.649.486-.433.729-.995.729-1.687v-1.268l-1.287.057c-1.841.068-2.761.75-2.761 2.047 0 1 .529 1.5 1.588 1.5z" fill="url(#paint7_linear)"/><path d="M137.923 13.724c.677-1.086 1.254-1.932 1.731-2.537l3.634-4.613h6.237l-5.622 6.948 5.979 9.385h-6.394l-3.548-5.853-1.817 1.399v4.454h-5.621V.476h5.621v8.822c0 1.51-.104 2.985-.314 4.426h.114z" fill="url(#paint8_linear)"/><path d="M158.933 23.196c-2.699 0-4.797-.721-6.294-2.163-1.488-1.451-2.232-3.513-2.232-6.184 0-2.759.692-4.873 2.074-6.343 1.383-1.48 3.357-2.22 5.923-2.22 2.441 0 4.325.643 5.65 1.931 1.335 1.278 2.003 3.124 2.003 5.536v2.508h-9.999c.038.913.367 1.63.987 2.148.629.52 1.483.779 2.56.779.983 0 1.884-.091 2.704-.274.83-.192 1.726-.514 2.689-.966V22a9.81 9.81 0 01-2.718.937c-.934.173-2.05.26-3.347.26zm-.329-13.076c-.658 0-1.211.212-1.659.634-.439.414-.697 1.067-.773 1.961h4.807c-.019-.788-.244-1.418-.673-1.889-.419-.47-.987-.706-1.702-.706z" fill="url(#paint9_linear)"/><path d="M178.298 6.285c.486 0 .949.039 1.387.116l.315.057-.501 5.32c-.457-.115-1.092-.173-1.902-.173-1.221 0-2.108.284-2.661.85-.553.558-.83 1.365-.83 2.422v8.03h-5.593V6.574h4.163l.872 2.61h.272a5.595 5.595 0 011.946-2.091c.839-.538 1.683-.808 2.532-.808z" fill="url(#paint10_linear)"/><defs><linearGradient id="paint0_linear" x1="0" y1="30" x2="180" y2="30" gradientUnits="userSpaceOnUse"><stop stop-color="#E13537"/><stop offset="1" stop-color="#A82526"/></linearGradient><linearGradient id="paint1_linear" x1="0" y1="30" x2="180" y2="30" gradientUnits="userSpaceOnUse"><stop stop-color="#E13537"/><stop offset="1" stop-color="#A82526"/></linearGradient><linearGradient id="paint2_linear" x1="0" y1="30" x2="180" y2="30" gradientUnits="userSpaceOnUse"><stop stop-color="#E13537"/><stop offset="1" stop-color="#A82526"/></linearGradient><linearGradient id="paint3_linear" x1="0" y1="30" x2="180" y2="30" gradientUnits="userSpaceOnUse"><stop stop-color="#E13537"/><stop offset="1" stop-color="#A82526"/></linearGradient><linearGradient id="paint4_linear" x1="0" y1="30" x2="180" y2="30" gradientUnits="userSpaceOnUse"><stop stop-color="#E13537"/><stop offset="1" stop-color="#A82526"/></linearGradient><linearGradient id="paint5_linear" x1="0" y1="30" x2="180" y2="30" gradientUnits="userSpaceOnUse"><stop stop-color="#E13537"/><stop offset="1" stop-color="#A82526"/></linearGradient><linearGradient id="paint6_linear" x1="0" y1="30" x2="180" y2="30" gradientUnits="userSpaceOnUse"><stop stop-color="#E13537"/><stop offset="1" stop-color="#A82526"/></linearGradient><linearGradient id="paint7_linear" x1="0" y1="30" x2="180" y2="30" gradientUnits="userSpaceOnUse"><stop stop-color="#E13537"/><stop offset="1" stop-color="#A82526"/></linearGradient><linearGradient id="paint8_linear" x1="0" y1="30" x2="180" y2="30" gradientUnits="userSpaceOnUse"><stop stop-color="#E13537"/><stop offset="1" stop-color="#A82526"/></linearGradient><linearGradient id="paint9_linear" x1="0" y1="30" x2="180" y2="30" gradientUnits="userSpaceOnUse"><stop stop-color="#E13537"/><stop offset="1" stop-color="#A82526"/></linearGradient><linearGradient id="paint10_linear" x1="0" y1="30" x2="180" y2="30" gradientUnits="userSpaceOnUse"><stop stop-color="#E13537"/><stop offset="1" stop-color="#A82526"/></linearGradient></defs></svg>