<svg width="210" height="40" viewBox="0 0 210 40" fill="none" xmlns="http://www.w3.org/2000/svg"><path d="M44.606 34.042V7H49v33H26l18.606-5.958zM4 6.961H0v17.901l4-2.733V6.961z" fill="#000"/><path d="M24.586 23.378l-7.2-5.111L0 28.577V40l17.387-17.378 7.199 3.467 7.607-8.445.362 2.667L35 14l-6.43 2.356 2.808.4-6.792 6.622z" fill="url(#paint0_linear)"/><path d="M16.874 37.892L8.5 35 4 40h19l-6.126-2.108z" fill="#000"/><path d="M37.766 28.823V9.73L26.12 13.394V5.882L45 0v34.118L26.12 40v-7.511l11.646-3.665zM16.67 38.13L23 40v-7.217L13.734 30 8 35.5l8.67 2.63zM11.234 9.729l11.646 3.665V5.882L4 0v22.489l7.234-4.344V9.729z" fill="#4A90E2"/><path d="M70.021 20.473c-.274-1.883-1.508-2.94-3.428-2.94-2.971 0-3.93 3.032-3.93 5.512 0 2.434.959 5.373 3.839 5.373 2.148 0 3.382-1.378 3.702-3.444h4.48c-.595 4.5-3.703 6.98-8.137 6.98-5.119 0-8.547-3.628-8.547-8.68 0-5.28 3.154-9.185 8.639-9.185 3.976 0 7.633 2.113 7.953 6.43h-4.57v-.046zm15.902-6.383c5.347 0 8.775 3.536 8.775 8.955 0 5.373-3.428 8.91-8.775 8.91-5.302 0-8.73-3.537-8.73-8.91 0-5.42 3.428-8.955 8.73-8.955zm0 14.374c3.153 0 4.113-2.71 4.113-5.42 0-2.709-.96-5.464-4.113-5.464-3.154 0-4.068 2.71-4.068 5.465 0 2.71.96 5.419 4.068 5.419zm16.134-16.606h-4.662V8h4.662v3.858zm-4.662 2.617h4.662v16.992h-4.662V14.475zm8.127.074h4.434v2.342h.091c1.188-1.883 3.2-2.801 5.165-2.801 4.936 0 6.171 2.801 6.171 6.98v10.425h-4.663v-9.552c0-2.802-.822-4.18-2.971-4.18-2.514 0-3.611 1.424-3.611 4.868v8.91h-4.662V14.549h.046zm31.853 5.373c-.548-2.526-2.102-4.087-4.753-4.087-3.977 0-5.896 3.628-5.896 7.21 0 3.628 1.965 7.21 5.896 7.21 2.559 0 4.662-2.02 4.891-4.822h2.056C139.021 29.52 136.37 32 132.622 32c-5.165 0-7.953-4.087-7.953-8.955s2.788-8.956 7.953-8.956c3.611 0 6.353 1.93 6.81 5.833h-2.057zm20.372 3.123c0 4.868-2.788 8.955-7.953 8.955-5.165 0-7.953-4.087-7.953-8.955s2.788-8.955 7.953-8.955c5.165 0 7.953 4.087 7.953 8.955zm-13.895 0c0 3.628 1.966 7.21 5.896 7.21 3.977 0 5.897-3.628 5.897-7.21 0-3.628-1.966-7.21-5.897-7.21-3.93 0-5.896 3.628-5.896 7.21zm31.712 8.422h-1.874v-3.214h-.046c-.868 2.204-3.565 3.72-6.033 3.72-5.119 0-7.588-4.18-7.588-8.956s2.469-8.955 7.588-8.955c2.514 0 4.982 1.286 5.85 3.72h.046V8h2.057v23.467zm-7.953-1.24c4.388 0 5.896-3.72 5.896-7.21 0-3.49-1.554-7.21-5.896-7.21-3.931 0-5.531 3.72-5.531 7.21 0 3.49 1.6 7.21 5.531 7.21zm12.652-6.631c.045 3.03 1.599 6.659 5.576 6.659 3.017 0 4.662-1.791 5.302-4.317h2.057c-.869 3.858-3.108 6.062-7.359 6.062-5.348 0-7.633-4.133-7.633-8.955 0-4.455 2.24-8.955 7.633-8.955 5.439 0 7.587 4.776 7.405 9.506h-12.981zm10.878-1.7c-.091-3.122-2.011-6.061-5.348-6.061-3.382 0-5.21 2.939-5.576 6.062h10.924zm9.763.322l-6.033-8.128h2.559l4.8 6.429 4.708-6.43h2.559l-6.079 8.13L210 31.035h-2.605l-5.302-7.119-5.165 7.119h-2.56l6.536-8.818z" fill="#000"/><defs><linearGradient id="paint0_linear" x1="0" y1="26.99" x2="31.195" y2="26.99" gradientUnits="userSpaceOnUse"><stop stop-color="#3B495B"/><stop offset=".083" stop-color="#344153"/><stop offset=".238" stop-color="#2E3B4C"/><stop offset=".627" stop-color="#2C394A"/></linearGradient></defs></svg>