<svg width="1190" height="764" viewBox="0 0 1190 764" fill="none" xmlns="http://www.w3.org/2000/svg"><path d="M86.556-105.615L1133.7-87.441" stroke="url(#paint0_linear)" stroke-width="120" stroke-linecap="round" stroke-linejoin="round"/><path d="M1085.84 351.095c28.08-17.591 36.58-54.616 18.99-82.699-17.59-28.082-54.61-36.588-82.7-18.997l63.71 101.696zM416.487 628.773c-28.083 17.591-36.588 54.617-18.997 82.699 17.59 28.083 54.616 36.588 82.699 18.997l-63.702-101.696zm605.643-379.374L416.487 628.773l63.702 101.696 605.651-379.374-63.71-101.696z" fill="url(#paint1_linear)"/><path d="M689.821 282.653c29.266 15.541 65.59 4.414 81.131-24.853 15.541-29.267 4.413-65.591-24.854-81.132l-56.277 105.985zm-575.127-441.26c-29.267-15.541-65.591-4.414-81.132 24.853-15.54 29.267-4.413 65.59 24.854 81.131l56.278-105.984zm631.404 335.275L114.694-158.607 58.416-52.623 689.82 282.654l56.277-105.985z" fill="url(#paint2_linear)"/><path d="M448.338 679.621L1133.7-87.442" stroke="url(#paint3_linear)" stroke-width="120" stroke-linecap="round" stroke-linejoin="round"/><defs><linearGradient id="paint0_linear" x1="87.097" y1="-109.268" x2="1137.36" y2="-86.901" gradientUnits="userSpaceOnUse"><stop/><stop offset="1" stop-color="#4845ED"/></linearGradient><linearGradient id="paint1_linear" x1="449.392" y1="677.537" x2="1055.04" y2="298.163" gradientUnits="userSpaceOnUse"><stop stop-color="#4845ED"/><stop offset="1"/></linearGradient><linearGradient id="paint2_linear" x1="87.609" y1="-107.699" x2="719.014" y2="227.577" gradientUnits="userSpaceOnUse"><stop stop-color="#4845ED"/><stop offset="1"/></linearGradient><linearGradient id="paint3_linear" x1="455.67" y1="675.479" x2="1119.06" y2="-84.379" gradientUnits="userSpaceOnUse"><stop/><stop offset=".974" stop-color="#4845ED"/></linearGradient></defs></svg>