<svg width="20" height="20" viewBox="0 0 20 20" fill="none" xmlns="http://www.w3.org/2000/svg"><g clip-path="url(#clip0)"><path d="M19.885 3.788a.435.435 0 00-.522-.092 3.57 3.57 0 01-.555.2c.296-.379.52-.81.66-1.271a.435.435 0 00-.669-.468 9.139 9.139 0 01-2.092.818 4.376 4.376 0 00-5.483-.423 4.315 4.315 0 00-1.878 3.987 10.296 10.296 0 01-7.21-3.884.45.45 0 00-.37-.162.435.435 0 00-.348.212 4.209 4.209 0 00-.48 3.267c.15.57.406 1.106.756 1.58a2.308 2.308 0 01-.442-.283.435.435 0 00-.709.338 4.497 4.497 0 002.317 3.86 3.217 3.217 0 01-.56-.12.435.435 0 00-.522.595 4.745 4.745 0 003.294 2.696 7.661 7.661 0 01-4.587.944.435.435 0 00-.263.81 13.03 13.03 0 006.426 1.827 11.037 11.037 0 006.099-1.865c3.446-2.287 5.594-6.394 5.295-10.067a8.122 8.122 0 001.89-1.971.435.435 0 00-.047-.528z" fill="#CCC"/></g><defs><clipPath id="clip0"><path fill="#fff" d="M0 0h20v20H0z"/></clipPath></defs></svg>