<svg version="1.1" id="Layer_1" xmlns="http://www.w3.org/2000/svg" x="0" y="0" viewBox="0 0 40 40" xml:space="preserve"><style>.st0{fill:#4472df}</style><path class="st0" d="M0 0v40h40V0H0zm35.3 35.3H4.7V4.7h30.6v30.6z"/><path class="st0" d="M14.2 28.4l2.4-2.4c1.1.6 2.1.9 3.4.9 1.3 0 2.4-.4 3.4-.9l2.4 2.4 2.6-2.6-2.4-2.4c.6-1.1.9-2.2.9-3.4s-.4-2.4-.9-3.4l2.4-2.4-2.6-2.6-2.4 2.4c-1.1-.6-2.2-.9-3.4-.9-1.3 0-2.5.4-3.4.9l-2.4-2.4-2.6 2.6 2.4 2.4c-.6 1.1-.9 2.1-.9 3.4 0 1.3.4 2.5.9 3.4l-2.4 2.4 2.6 2.6zM20 17.1c1.6 0 2.9 1.3 2.9 2.9s-1.3 2.9-2.9 2.9-2.9-1.3-2.9-2.9 1.3-2.9 2.9-2.9z"/></svg>