<svg xmlns="http://www.w3.org/2000/svg" width="20" height="20" viewBox="0 0 20 20">
  <metadata><?xpacket begin="﻿" id="W5M0MpCehiHzreSzNTczkc9d"?>
<x:xmpmeta xmlns:x="adobe:ns:meta/" x:xmptk="Adobe XMP Core 5.6-c138 79.159824, 2016/09/14-01:09:01        ">
   <rdf:RDF xmlns:rdf="http://www.w3.org/1999/02/22-rdf-syntax-ns#">
      <rdf:Description rdf:about=""/>
   </rdf:RDF>
</x:xmpmeta>
<?xpacket end="w"?></metadata>
<defs>
    <style>
      .cls-1 {
        fill: #ccc;
        fill-rule: evenodd;
      }
    </style>
  </defs>
  <path id="Rounded_Rectangle_522" data-name="Rounded Rectangle 522" class="cls-1" d="M1052,3007h-10a5,5,0,0,1-5-5v-10a5,5,0,0,1,5-5h10a5,5,0,0,1,5,5v10A5,5,0,0,1,1052,3007Zm-5-15a5,5,0,1,0,5,5A5,5,0,0,0,1047,2992Zm5.5-2a1.5,1.5,0,1,0,1.5,1.5A1.5,1.5,0,0,0,1052.5,2990Zm-5.5,9.99a2.99,2.99,0,1,1,2.99-2.99A2.992,2.992,0,0,1,1047,2999.99Z" transform="translate(-1037 -2987)"/>
</svg>
