<svg width="210" height="30" viewBox="0 0 210 30" fill="none" xmlns="http://www.w3.org/2000/svg">
<path d="M74.6001 10.2598C74.8117 10.5785 74.9093 10.913 74.9093 11.2795C74.9093 11.7256 74.7791 12.1239 74.5025 12.4266C74.2258 12.7452 73.8678 12.9045 73.4121 12.9045C73.0215 12.9045 72.6961 12.7771 72.4194 12.5381C72.1427 12.2991 72.0126 11.9805 72.0126 11.5662C72.0126 11.0086 72.3055 10.5307 72.9076 10.1642C72.7937 10.0049 72.5984 9.90931 72.3543 9.90931C71.6545 9.90931 71.0361 10.1642 70.4828 10.69C69.9295 11.2157 69.4901 11.853 69.1646 12.6178C68.8391 13.3825 68.6764 14.0994 68.6764 14.7686V20.2333C68.6764 21.0299 68.9042 21.5875 69.3762 21.8902C69.8318 22.1929 70.5316 22.3522 71.4755 22.3522V22.8939C69.3111 22.8302 67.9603 22.7983 67.4233 22.7983C66.9513 22.7983 65.9261 22.8302 64.3149 22.8939V22.3522C64.8032 22.3522 65.21 22.3044 65.4867 22.1929C65.7796 22.0814 65.9749 21.8902 66.1214 21.6353C66.2516 21.3644 66.3167 20.998 66.3167 20.52V12.4266C66.3167 11.63 66.1702 11.0564 65.8773 10.69C65.5843 10.3235 65.0636 10.1483 64.3149 10.1483V9.60661C64.8683 9.6544 65.4053 9.68627 65.9423 9.68627C67.049 9.68627 67.9766 9.57474 68.6764 9.33576V12.554C68.8717 12.0123 69.1646 11.5025 69.5226 10.9927C69.8969 10.4829 70.3363 10.0686 70.8571 9.74999C71.3779 9.41542 71.9149 9.2561 72.4845 9.2561C72.9402 9.2561 73.3633 9.35169 73.7213 9.52695C74.0956 9.7022 74.3886 9.94118 74.6001 10.2598ZM84.0716 9.60661V10.1164C84.7551 10.1642 85.2596 10.2758 85.5688 10.4669C85.878 10.6581 86.0408 10.9608 86.0408 11.3591C86.0408 11.6459 85.9431 12.0442 85.7641 12.5381L82.8511 20.0102L79.6776 12.2991C79.4498 11.7574 79.3359 11.3432 79.3359 11.0246C79.3359 10.7537 79.4172 10.5466 79.58 10.4191C79.7427 10.2917 79.938 10.212 80.1821 10.1802C80.4262 10.1483 80.7517 10.1324 81.1911 10.1324V9.60661C79.6613 9.71813 78.5222 9.76593 77.7736 9.76593C76.8785 9.76593 76.016 9.71813 75.186 9.60661V10.1483C75.4789 10.1483 75.7881 10.2439 76.0811 10.4191C76.374 10.6103 76.6669 10.9927 76.9761 11.5822L81.7607 22.8302L80.8168 25.1881C80.296 26.5264 79.5474 27.1956 78.571 27.1956C78.5059 27.1956 78.4571 27.1796 78.4082 27.1637C78.8802 26.9088 79.108 26.5105 79.108 26.0007C79.108 25.6183 78.9778 25.3156 78.7337 25.1085C78.4733 24.9013 78.1641 24.7898 77.7736 24.7898C77.3342 24.7898 76.9924 24.9173 76.7483 25.1563C76.5042 25.4112 76.374 25.7298 76.374 26.144C76.374 26.6379 76.5367 27.0044 76.8785 27.2911C77.2202 27.562 77.6434 27.7054 78.1641 27.7054C79.0429 27.7054 79.7264 27.4823 80.2309 27.0362C80.6541 26.6698 81.0284 26.0644 81.3539 25.22L82.2489 22.9736L86.5778 11.9327C86.8219 11.2954 87.0823 10.8493 87.3427 10.5785C87.6193 10.3076 87.9286 10.1483 88.2866 10.1164V9.60661C87.7333 9.6544 87.066 9.68627 86.2849 9.68627C85.7316 9.67033 84.9992 9.6544 84.0716 9.60661ZM101.957 12.1876C102.38 13.1594 102.591 14.3066 102.591 15.6448C102.591 16.9672 102.38 18.194 101.94 19.357C101.501 20.52 100.85 21.4441 99.9388 22.161C99.0274 22.878 97.9045 23.2444 96.5538 23.2444C95.8866 23.2444 95.2844 23.117 94.7311 22.862C94.1941 22.6071 93.7709 22.2726 93.4617 21.8424V25.1403C93.4617 25.8413 93.6733 26.3193 94.0964 26.5901C94.5195 26.861 95.1542 27.0044 96.0005 27.0044V27.5461C95.7726 27.5301 95.2844 27.5142 94.5033 27.4823C93.7221 27.4505 92.9572 27.4345 92.2086 27.4345C91.6553 27.4345 91.0694 27.4505 90.4836 27.4823C89.8977 27.5142 89.5234 27.5301 89.3607 27.5461V27.0044C90.0116 27.0044 90.451 26.8928 90.7114 26.6539C90.9718 26.4149 91.102 26.0007 91.102 25.3952V12.4266C91.102 11.63 90.9555 11.0564 90.6626 10.69C90.3697 10.3235 89.8489 10.1483 89.1003 10.1483V9.60661C89.6536 9.6544 90.1906 9.68627 90.7277 9.68627C91.8343 9.68627 92.7619 9.57474 93.4617 9.33576V12.0601C93.8523 11.1679 94.4219 10.4829 95.1542 10.0049C95.8866 9.51101 96.7328 9.27203 97.6767 9.27203C98.6043 9.27203 99.4506 9.52695 100.183 10.0208C100.948 10.4829 101.534 11.2157 101.957 12.1876ZM100.036 15.9953C100.036 12.0123 99.0112 10.0208 96.9769 10.0208C96.1795 10.0208 95.4634 10.3076 94.8287 10.8652C94.1941 11.4229 93.7384 12.2354 93.478 13.2869V20.998C93.7384 21.5078 94.0964 21.9221 94.5684 22.2088C95.0403 22.5115 95.6099 22.6549 96.2609 22.6549C98.7833 22.6549 100.036 20.4404 100.036 15.9953ZM111.933 21.6671C111.542 22.0973 111.086 22.3044 110.533 22.3044C109.98 22.3044 109.557 22.1292 109.28 21.7946C109.003 21.46 108.857 20.8865 108.857 20.1217V10.1483H112.746V9.62254H108.857V5.32089C108.271 5.54394 107.474 5.65546 106.497 5.68733V9.62254H103.958V10.1324H106.497V18.7675C106.497 19.7075 106.579 20.4404 106.725 20.9821C106.872 21.5397 107.148 22.0017 107.522 22.3682C107.815 22.6549 108.157 22.878 108.548 23.0214C108.938 23.1648 109.427 23.2285 110.012 23.2285C111.868 23.2285 113.007 22.0336 113.43 19.6597L112.909 19.5323C112.649 20.536 112.323 21.2529 111.933 21.6671ZM126.107 12.2991C126.628 13.3506 126.889 14.6571 126.889 16.2662C126.889 17.8594 126.628 19.1818 126.107 20.2173C125.587 21.2529 124.887 22.0177 123.992 22.5115C123.097 23.0054 122.071 23.2444 120.916 23.2444C119.761 23.2444 118.735 23.0054 117.84 22.5115C116.945 22.0177 116.245 21.2529 115.725 20.2173C115.204 19.1818 114.943 17.8594 114.943 16.2662C114.943 14.673 115.204 13.3506 115.725 12.2991C116.245 11.2635 116.945 10.4829 117.84 9.98897C118.735 9.49508 119.761 9.24017 120.916 9.24017C122.071 9.24017 123.097 9.49508 123.992 9.98897C124.871 10.4829 125.587 11.2635 126.107 12.2991ZM124.317 16.2662C124.317 14.0516 124.008 12.4106 123.39 11.3591C122.771 10.3076 121.941 9.78186 120.883 9.78186C119.826 9.78186 118.996 10.3076 118.377 11.3591C117.759 12.4106 117.45 14.0516 117.45 16.2662C117.45 18.4807 117.759 20.1058 118.377 21.1573C118.996 22.2088 119.826 22.7346 120.883 22.7346C121.941 22.7346 122.771 22.2088 123.39 21.1573C124.008 20.0899 124.317 18.4648 124.317 16.2662ZM4.96358 19.134C4.71947 19.4048 4.42653 19.5323 4.08478 19.5323C3.74303 19.5323 3.48264 19.4207 3.30363 19.2136C3.12461 19.0065 3.04324 18.656 3.04324 18.178V11.9805H5.46807V11.6618H3.04324V8.98526C2.66894 9.12864 2.18072 9.19237 1.57858 9.20831V11.6618H0V11.9805H1.57858V17.3496C1.57858 17.9231 1.6274 18.3852 1.72505 18.7357C1.82269 19.0862 1.98543 19.3729 2.21327 19.596C2.40856 19.7712 2.60384 19.9146 2.84795 19.9943C3.09206 20.0739 3.385 20.1217 3.7593 20.1217C4.91476 20.1217 5.61454 19.3889 5.8912 17.9072L5.56572 17.8275C5.40298 18.4329 5.19141 18.879 4.96358 19.134ZM13.9794 19.1021C13.898 18.9428 13.8492 18.7038 13.8492 18.4011V14.1313C13.8492 13.5896 13.8004 13.1594 13.719 12.8408C13.6376 12.5222 13.4912 12.2513 13.2796 12.0283C12.889 11.63 12.3032 11.4229 11.5383 11.4229C10.9361 11.4229 10.3828 11.5662 9.89461 11.869C9.40639 12.1717 9.03208 12.6496 8.75543 13.3347V7.34426C8.3323 7.50358 7.76271 7.56731 7.04665 7.56731C6.72117 7.56731 6.37942 7.55137 6.03766 7.51951V7.85408C6.50961 7.85408 6.81882 7.96561 7.0141 8.18866C7.19312 8.4117 7.29076 8.76221 7.29076 9.2561V18.3852C7.29076 18.6879 7.24194 18.9109 7.16057 19.0862C7.0792 19.2455 6.94901 19.3729 6.76999 19.4367C6.59098 19.5004 6.34687 19.5323 6.03766 19.5323V19.8668C7.03038 19.819 7.69761 19.8031 8.00682 19.8031C8.31603 19.8031 8.91817 19.819 9.82951 19.8668V19.5323C9.55285 19.5323 9.34129 19.5004 9.19482 19.4367C9.04836 19.3889 8.93444 19.2614 8.86934 19.1021C8.80425 18.9428 8.75543 18.7038 8.75543 18.4011V14.8323C8.75543 14.2747 8.85307 13.7808 9.04836 13.3347C9.24365 12.8886 9.5203 12.554 9.86206 12.2991C10.2201 12.0601 10.6107 11.9327 11.0501 11.9327C11.4244 11.9327 11.701 12.0123 11.8963 12.1717C12.0916 12.331 12.2218 12.5381 12.2869 12.8089C12.352 13.0639 12.3845 13.3984 12.3845 13.7808V18.4011C12.3845 18.7038 12.352 18.9268 12.2706 19.1021C12.1892 19.2614 12.0916 19.3889 11.9289 19.4526C11.7661 19.5163 11.5546 19.5482 11.2942 19.5482V19.8828C12.2055 19.835 12.8239 19.819 13.1331 19.819C13.4261 19.819 14.077 19.835 15.1023 19.8828V19.5482C14.7931 19.5482 14.549 19.5163 14.37 19.4526C14.1909 19.3889 14.0608 19.2614 13.9794 19.1021ZM22.5721 17.8435L22.8976 17.9709C22.7674 18.3374 22.5721 18.7038 22.2791 19.0224C22.0025 19.357 21.6607 19.6119 21.2376 19.819C20.8145 20.0261 20.3588 20.1217 19.838 20.1217C19.0569 20.1217 18.3896 19.9465 17.8201 19.596C17.2505 19.2455 16.8273 18.7675 16.5181 18.1302C16.2252 17.5089 16.0787 16.776 16.0787 15.9635C16.0787 15.0394 16.2252 14.2269 16.5344 13.5418C16.8436 12.8567 17.2667 12.331 17.8201 11.9645C18.3734 11.5981 19.0243 11.4069 19.7729 11.4069C20.7494 11.4069 21.5143 11.6937 22.035 12.2832C22.5721 12.8727 22.8325 13.7489 22.8325 14.9279H17.7224C17.6899 15.1987 17.6736 15.5493 17.6736 15.9476C17.6736 16.6486 17.7875 17.2699 18.0316 17.7957C18.2757 18.3214 18.5849 18.7197 18.9592 19.0065C19.3498 19.2933 19.7404 19.4367 20.1798 19.4367C21.2701 19.4367 22.0676 18.9109 22.5721 17.8435ZM17.7061 14.6411H21.2701C21.2864 14.1154 21.2376 13.6215 21.14 13.1754C21.026 12.7293 20.847 12.3788 20.6029 12.1239C20.3588 11.869 20.0659 11.7415 19.7241 11.7415C19.3824 11.7415 19.0732 11.853 18.7965 12.0601C18.5198 12.2673 18.2757 12.6018 18.0804 13.032C17.8852 13.4462 17.755 13.9879 17.7061 14.6411ZM140.933 21.6034C140.803 21.3326 140.738 20.9661 140.738 20.4882V13.6055C140.738 12.7293 140.673 12.0442 140.526 11.5184C140.38 10.9927 140.152 10.5625 139.826 10.212C139.192 9.57474 138.264 9.24017 137.027 9.24017C136.035 9.24017 135.156 9.47915 134.375 9.97304C133.593 10.4669 132.975 11.2476 132.536 12.3469V9.31983C131.82 9.55881 130.908 9.67033 129.802 9.67033C129.265 9.67033 128.711 9.63847 128.174 9.59067V10.1324C128.923 10.1324 129.444 10.3076 129.737 10.6741C130.029 11.0405 130.176 11.614 130.176 12.4106V20.4722C130.176 20.9502 130.111 21.3166 129.981 21.5875C129.85 21.8583 129.639 22.0495 129.346 22.1451C129.053 22.2566 128.662 22.3044 128.174 22.3044V22.8461C129.785 22.7824 130.843 22.7505 131.331 22.7505C131.836 22.7505 132.812 22.7824 134.293 22.8461V22.3044C133.854 22.3044 133.512 22.2566 133.268 22.1451C133.024 22.0336 132.829 21.8424 132.715 21.5875C132.601 21.3166 132.536 20.9502 132.536 20.4722V14.7686C132.536 13.8923 132.698 13.0957 132.991 12.3788C133.301 11.6618 133.74 11.1042 134.293 10.69C134.863 10.2758 135.498 10.0686 136.214 10.0686C136.816 10.0686 137.271 10.1961 137.581 10.451C137.89 10.7059 138.101 11.0564 138.199 11.4707C138.297 11.8849 138.345 12.4106 138.345 13.032V20.4882C138.345 20.9661 138.28 21.3326 138.166 21.6034C138.053 21.8743 137.874 22.0654 137.629 22.161C137.385 22.2726 137.044 22.3204 136.604 22.3204V22.862C138.085 22.7983 139.062 22.7665 139.55 22.7665C140.054 22.7665 141.096 22.7983 142.707 22.862V22.3204C142.202 22.3204 141.812 22.2726 141.535 22.161C141.275 22.0654 141.063 21.8743 140.933 21.6034ZM155.547 12.2991C156.068 13.3506 156.328 14.6571 156.328 16.2662C156.328 17.8594 156.068 19.1818 155.547 20.2173C155.026 21.2529 154.327 22.0177 153.432 22.5115C152.536 23.0054 151.511 23.2444 150.356 23.2444C149.2 23.2444 148.175 23.0054 147.28 22.5115C146.385 22.0177 145.685 21.2529 145.164 20.2173C144.644 19.1818 144.383 17.8594 144.383 16.2662C144.383 14.673 144.644 13.3506 145.164 12.2991C145.685 11.2635 146.385 10.4829 147.28 9.98897C148.175 9.49508 149.2 9.24017 150.356 9.24017C151.511 9.24017 152.536 9.49508 153.432 9.98897C154.327 10.4829 155.026 11.2635 155.547 12.2991ZM153.773 16.2662C153.773 14.0516 153.464 12.4106 152.846 11.3591C152.227 10.3076 151.397 9.78186 150.339 9.78186C149.282 9.78186 148.452 10.3076 147.833 11.3591C147.215 12.4106 146.906 14.0516 146.906 16.2662C146.906 18.4807 147.215 20.1058 147.833 21.1573C148.452 22.2088 149.282 22.7346 150.339 22.7346C151.397 22.7346 152.227 22.2088 152.846 21.1573C153.464 20.0899 153.773 18.4648 153.773 16.2662ZM178.738 21.6034C178.607 21.3326 178.542 20.9661 178.542 20.4882V13.6055C178.542 12.7611 178.477 12.0761 178.347 11.5344C178.217 11.0086 177.989 10.5625 177.68 10.212C177.045 9.57474 176.134 9.24017 174.946 9.24017C174.002 9.24017 173.139 9.47915 172.374 9.95711C171.61 10.4351 170.991 11.2157 170.568 12.2991C170.47 11.391 170.194 10.69 169.754 10.228C169.12 9.59067 168.208 9.2561 167.02 9.2561C166.109 9.2561 165.263 9.51101 164.498 10.0208C163.733 10.5307 163.131 11.3113 162.691 12.3628V9.33576C161.975 9.57474 161.064 9.68627 159.957 9.68627C159.42 9.68627 158.867 9.6544 158.33 9.60661V10.1483C159.079 10.1483 159.599 10.3235 159.892 10.69C160.185 11.0564 160.332 11.63 160.332 12.4266V20.4882C160.332 20.9661 160.267 21.3326 160.136 21.6034C160.006 21.8743 159.795 22.0654 159.502 22.161C159.209 22.2726 158.818 22.3204 158.33 22.3204V22.862C159.941 22.7983 160.999 22.7665 161.487 22.7665C161.992 22.7665 162.968 22.7983 164.449 22.862V22.3204C164.01 22.3204 163.668 22.2726 163.424 22.161C163.18 22.0495 163.001 21.8583 162.87 21.6034C162.757 21.3326 162.691 20.9661 162.691 20.4882V14.7686C162.691 13.9083 162.854 13.1117 163.163 12.3947C163.473 11.6778 163.896 11.1042 164.433 10.69C164.97 10.2758 165.588 10.0686 166.255 10.0686C166.841 10.0686 167.281 10.1961 167.574 10.451C167.867 10.7059 168.046 11.0405 168.127 11.4388C168.208 11.853 168.241 12.3788 168.241 13.032V20.4882C168.241 20.9661 168.192 21.3326 168.078 21.6034C167.964 21.8743 167.785 22.0654 167.541 22.161C167.297 22.2726 166.955 22.3204 166.516 22.3204V22.862C167.98 22.7983 168.973 22.7665 169.478 22.7665C169.966 22.7665 171.024 22.7983 172.619 22.862V22.3204C172.13 22.3204 171.74 22.2726 171.447 22.161C171.17 22.0495 170.959 21.8583 170.828 21.6034C170.698 21.3326 170.633 20.9661 170.633 20.4882V14.7367C170.633 13.8764 170.78 13.0798 171.089 12.3788C171.398 11.6778 171.821 11.1042 172.358 10.69C172.895 10.2758 173.497 10.0686 174.165 10.0686C174.767 10.0686 175.206 10.1961 175.499 10.451C175.792 10.7059 175.971 11.0405 176.052 11.4388C176.134 11.853 176.166 12.3788 176.166 13.032V20.4882C176.166 20.9661 176.101 21.3326 175.987 21.6034C175.873 21.8743 175.694 22.0654 175.45 22.161C175.206 22.2726 174.864 22.3204 174.425 22.3204V22.862C175.906 22.7983 176.882 22.7665 177.371 22.7665C177.859 22.7665 178.917 22.7983 180.528 22.862V22.3204C180.023 22.3204 179.633 22.2726 179.356 22.161C179.079 22.0654 178.868 21.8743 178.738 21.6034ZM186.272 21.6034C186.142 21.3326 186.077 20.9661 186.077 20.4882V9.31983C185.361 9.55881 184.45 9.67033 183.343 9.67033C182.806 9.67033 182.253 9.63847 181.716 9.59067V10.1324C182.464 10.1324 182.985 10.3076 183.278 10.6741C183.571 11.0405 183.717 11.614 183.717 12.4106V20.4722C183.717 20.9502 183.652 21.3166 183.522 21.5875C183.392 21.8583 183.18 22.0495 182.887 22.1451C182.595 22.2566 182.204 22.3044 181.716 22.3044V22.8461C183.327 22.7824 184.385 22.7505 184.905 22.7505C185.426 22.7505 186.484 22.7824 188.095 22.8461V22.3044C187.591 22.3044 187.2 22.2566 186.923 22.1451C186.614 22.0654 186.403 21.8743 186.272 21.6034ZM183.88 6.22902C184.141 6.37241 184.417 6.45207 184.726 6.45207C185.019 6.45207 185.312 6.38834 185.556 6.22902C185.817 6.08563 186.028 5.87851 186.175 5.6236C186.321 5.36869 186.403 5.09784 186.403 4.79514C186.403 4.50836 186.321 4.22158 186.175 3.9826C186.028 3.72769 185.817 3.53651 185.556 3.37719C185.296 3.2338 185.019 3.15414 184.726 3.15414C184.434 3.15414 184.141 3.2338 183.88 3.37719C183.62 3.53651 183.408 3.72769 183.262 3.9826C183.115 4.23751 183.034 4.50836 183.034 4.79514C183.034 5.08191 183.115 5.36869 183.262 5.6236C183.408 5.89444 183.62 6.08563 183.88 6.22902ZM197.518 16.4892C197.03 16.0909 196.379 15.6289 195.565 15.1191C195.321 14.9598 194.898 14.7049 194.312 14.3384C193.726 13.972 193.221 13.6055 192.815 13.2072C192.408 12.8089 192.196 12.315 192.196 11.7096C192.196 11.0883 192.392 10.6103 192.798 10.2598C193.205 9.90931 193.726 9.73406 194.361 9.73406C195.451 9.73406 196.265 10.1005 196.834 10.8493C197.388 11.5822 197.762 12.5222 197.957 13.6533H198.543C198.543 11.5662 198.576 10.1164 198.641 9.27203H198.039C197.957 10.0208 197.762 10.4032 197.453 10.4032C197.339 10.4032 197.176 10.3395 196.997 10.1961C196.688 9.95711 196.281 9.73406 195.793 9.54288C195.305 9.35169 194.751 9.2561 194.133 9.2561C193.417 9.2561 192.766 9.38356 192.164 9.62254C191.578 9.86152 191.106 10.2439 190.764 10.7378C190.406 11.2317 190.243 11.853 190.243 12.5859C190.243 13.255 190.406 13.8445 190.715 14.3384C191.025 14.8323 191.415 15.2625 191.871 15.597C192.326 15.9476 192.994 16.3777 193.856 16.9194C194.572 17.3496 195.126 17.716 195.516 18.0187C195.907 18.3214 196.232 18.656 196.476 19.0224C196.72 19.4048 196.834 19.819 196.834 20.2811C196.834 20.8546 196.72 21.3326 196.493 21.699C196.265 22.0654 195.972 22.3204 195.614 22.4956C195.256 22.6549 194.881 22.7346 194.507 22.7346C193.661 22.7346 192.994 22.5434 192.505 22.161C192.001 21.7787 191.643 21.237 191.399 20.5519C191.155 19.8668 190.976 18.9906 190.845 17.9231H190.243C190.243 20.3767 190.211 22.0814 190.146 23.0692H190.748C190.845 22.416 191.025 22.0973 191.285 22.0973C191.383 22.0973 191.464 22.1292 191.529 22.1929C191.903 22.4797 192.261 22.7187 192.603 22.878C193.205 23.117 193.905 23.2444 194.686 23.2444C195.5 23.2444 196.248 23.101 196.932 22.8302C197.615 22.5434 198.169 22.1451 198.576 21.6034C198.982 21.0617 199.194 20.4085 199.194 19.6438C199.194 18.9746 199.048 18.3852 198.738 17.8753C198.413 17.3496 198.006 16.8875 197.518 16.4892ZM209.479 19.5641C209.219 20.5519 208.893 21.2529 208.503 21.6831C208.112 22.1132 207.657 22.3204 207.103 22.3204C206.55 22.3204 206.127 22.1451 205.85 21.8105C205.573 21.476 205.427 20.9024 205.427 20.1377V10.1483H209.316V9.62254H205.427V5.32089C204.841 5.54394 204.044 5.65546 203.067 5.68733V9.62254H200.529V10.1324H203.067V18.7675C203.067 19.7075 203.149 20.4404 203.295 20.9821C203.442 21.5397 203.718 22.0017 204.093 22.3682C204.385 22.6549 204.743 22.878 205.118 23.0214C205.508 23.1648 205.997 23.2285 206.582 23.2285C208.438 23.2285 209.577 22.0336 210 19.6597L209.479 19.5641ZM61.8087 23.0692C59.1886 27.0681 54.6807 29.7765 49.5219 29.9837C40.6362 30.3182 33.2967 23.1329 33.6547 14.434C33.8662 9.03305 37.0234 4.36497 41.5964 1.91144C41.7917 1.79991 41.9707 2.05483 41.808 2.19822C38.2602 5.36869 36.3236 10.2598 37.3814 15.5333C37.8208 17.7479 38.8135 19.7712 40.1968 21.476C40.62 20.7112 41.4499 19.7553 41.4662 18.4967C41.4988 14.9757 41.4988 11.4707 41.4825 7.94968C41.4825 7.36019 41.6452 6.94596 42.1172 6.56359C44.7698 4.4287 47.39 2.26194 50.0426 0.142985C50.2379 -0.0163356 50.6936 -0.0481997 50.9214 0.0792565C52.7116 1.06704 59.6768 3.37719 60.4417 3.45685C60.5719 3.47278 60.7998 3.66396 60.5394 3.88701C60.5394 3.88701 58.4726 5.91038 57.3497 7.02562C57.1544 7.2168 56.9103 7.16901 56.715 7.10528C55.5758 6.72291 53.8345 6.0219 52.2884 5.41648V14.4499H53.4439V15.5811H52.2396V26.7813C55.8362 26.6061 59.1073 25.1563 61.5321 22.862C61.6948 22.6868 61.9227 22.878 61.8087 23.0692ZM48.0246 15.5493H45.909C45.5022 17.2221 44.6234 18.6082 43.2401 19.8668C42.7844 20.2811 41.629 21.3644 41.0594 21.9061C40.9292 22.0336 40.9129 22.2407 41.0268 22.3841C41.0756 22.4319 41.1245 22.4797 41.1733 22.5275C41.2709 22.6231 41.3686 22.7187 41.4499 22.7983C41.6127 22.9576 41.7917 23.117 41.9707 23.2603C42.0684 23.34 42.166 23.4197 42.2636 23.4993C42.3776 23.5949 42.4915 23.6905 42.6054 23.7702C43.5818 24.503 44.7047 25.1403 45.8277 25.6183C46.4786 25.8891 47.1621 26.1122 47.8619 26.2874C47.9433 26.2715 48.0246 26.1918 48.0246 26.0962V15.5493ZM48.0409 4.0304C48.0409 3.85515 47.8619 3.77549 47.6992 3.87108C47.6992 3.87108 47.39 4.06226 47.2272 4.14192C46.4135 4.61988 46.1043 5.36869 46.1369 6.32461L46.1694 13.0161C46.1857 13.51 46.1531 13.956 46.088 14.4181H48.0084L48.0409 4.0304ZM51.0516 15.5493H49.1964C49.1964 19.0224 49.1964 22.4797 49.1801 25.6502C49.1801 26.2874 49.3266 26.5742 49.9613 26.6857C50.3356 26.7176 50.6936 26.7495 51.0516 26.7654V15.5493ZM51.0516 4.92259C50.6936 4.7792 50.3518 4.66768 50.0589 4.55615C49.9938 4.54022 49.8311 4.47649 49.766 4.46056C49.3103 4.31717 49.1801 4.52429 49.1801 4.76327C49.1801 4.92259 49.1801 5.06598 49.1801 5.20937C49.1801 8.09306 49.1801 11.2317 49.1801 14.4021H51.0353V4.92259H51.0516Z" fill="#4C265A"/>
</svg>
