<svg width="166" height="40" viewBox="0 0 166 40" fill="none" xmlns="http://www.w3.org/2000/svg">
<path d="M35.7333 10.152C35.7333 10.0066 35.6533 9.88764 35.5333 9.80833C32.1333 7.44217 26.2667 4.13748 26.2667 4.13748C26.2667 4.13748 22.6 2.115 18.2667 0.0396563C18.16 -0.0132188 17.84 -0.0132188 17.7333 0.0396563C13.4 2.115 9.73333 4.13748 9.73333 4.13748C9.73333 4.13748 3.86667 7.44217 0.466667 9.80833C0.346667 9.88764 0.266667 10.0066 0.266667 10.152C0.266667 10.152 0 14.0516 0 20C0 25.9484 0.266667 29.848 0.266667 29.848C0.266667 29.9934 0.346667 30.1124 0.466667 30.1917C3.86667 32.5578 9.73333 35.8625 9.73333 35.8625C9.73333 35.8625 13.4 37.885 17.7333 39.9603C17.84 40.0132 18.16 40.0132 18.2667 39.9603C22.6 37.885 26.2667 35.8625 26.2667 35.8625C26.2667 35.8625 32.1333 32.5578 35.5333 30.1917C35.6533 30.1124 35.7333 29.9934 35.7333 29.848C35.7333 29.848 36 25.9484 36 20C36 14.0516 35.7333 10.152 35.7333 10.152Z" fill="url(#paint0_linear)"/>
<path d="M20.9333 11.5002H15.0667V28.4203H20.9333V11.5002Z" fill="#9FD6DE"/>
<path d="M5.4072 33.3366L20.9333 11.5004H13.4666L0.304077 30.0125C0.338802 30.0842 0.395728 30.1449 0.46661 30.1918C1.88573 31.1794 3.73459 32.3305 5.4072 33.3366Z" fill="white"/>
<path d="M35.5333 9.80846C35.5891 9.84538 35.6363 9.89082 35.6708 9.94362L22.5333 28.4205H15.0666L30.5532 6.63989C32.2362 7.65157 34.103 8.81305 35.5333 9.80846Z" fill="white"/>
<path d="M60.8607 27.7213V12.2322H58.927V24.3309L49.9804 12.2322H48V27.7213H49.9338V15.3672L58.9969 27.7213H60.8607Z" fill="black"/>
<path d="M75.5922 27.7213V26.0029H67.3446V20.6618H75.4291V18.9434H67.3446V13.9507H75.5922V12.2322H65.4108V27.7213H75.5922Z" fill="black"/>
<path d="M96.4821 27.7213L101.408 12.2322H99.2646L95.3405 25.1437L91.1101 12.2322H89.5026L85.2722 25.1437L81.3248 12.2322H79.1813L84.1073 27.7213H86.2042L90.2947 15.2279L94.3852 27.7213H96.4821Z" fill="black"/>
<path d="M109.352 28C113.462 28 115 25.701 115 23.4485C115 17.6662 105.964 19.6633 105.964 16.18C105.964 14.717 107.208 13.7184 109.072 13.7184C110.773 13.7184 112.404 14.299 113.569 15.5762L114.734 14.1597C113.429 12.7896 111.588 12 109.212 12C106.16 12 103.96 13.7417 103.96 16.2961C103.96 21.8229 112.996 19.6168 112.996 23.611C112.996 24.7954 112.111 26.2816 109.422 26.2816C107.232 26.2816 105.554 25.2134 104.529 24.0755L103.387 25.5385C104.669 26.9782 106.649 28 109.352 28Z" fill="black"/>
<path d="M130.406 27.7217C133.356 27.7217 134.911 25.8667 134.911 23.5478C134.911 21.6 133.588 20 131.939 19.7449C133.402 19.4435 134.61 18.1449 134.61 16.1971C134.61 14.1333 133.1 12.2551 130.151 12.2551H122V27.7217H130.406ZM129.431 18.4464H125.298V15.0841H129.431C130.546 15.0841 131.242 15.8029 131.242 16.7768C131.242 17.7507 130.546 18.4464 129.431 18.4464ZM129.547 24.8696H125.298V21.2754H129.547C130.848 21.2754 131.544 22.1101 131.544 23.0841C131.544 24.1971 130.801 24.8696 129.547 24.8696Z" fill="#1AA6BA"/>
<path d="M144.973 27.7217V15.1536H149.478V12.2551H137.124V15.1536H141.652V27.7217H144.973Z" fill="#1AA6BA"/>
<path d="M159.521 28C162.935 28 164.885 26.1217 166 24.1971L163.167 22.829C162.517 24.1043 161.123 25.0783 159.521 25.0783C156.711 25.0783 154.668 22.9217 154.668 20C154.668 17.0783 156.711 14.9217 159.521 14.9217C161.123 14.9217 162.517 15.9188 163.167 17.171L166 15.7797C164.909 13.8551 162.935 12 159.521 12C154.877 12 151.277 15.2464 151.277 20C151.277 24.7536 154.877 28 159.521 28Z" fill="#1AA6BA"/>
<defs>
<linearGradient id="paint0_linear" x1="4.0876" y1="6.20714" x2="31.6723" y2="34.0309" gradientUnits="userSpaceOnUse">
<stop stop-color="#18B1B4"/>
<stop offset="1" stop-color="#158CB3"/>
</linearGradient>
</defs>
</svg>
