<svg width="210" height="40" viewBox="0 0 210 40" fill="none" xmlns="http://www.w3.org/2000/svg">
<path d="M44.6062 34.0417V7H49V40H26L44.6062 34.0417Z" fill="black"/>
<path d="M4 6.96143H0V24.8624L4 22.1294V6.96143Z" fill="black"/>
<path d="M24.586 23.3778L17.3868 18.2667L0 28.5778V40L17.3868 22.6222L24.586 26.0889L32.1928 17.6444L32.555 20.3111L35 14L28.5705 16.3556L31.3777 16.7556L24.586 23.3778Z" fill="url(#paint0_linear)"/>
<path d="M16.8738 37.8922L8.5 35L4 40H23L16.8738 37.8922Z" fill="black"/>
<path d="M37.7663 28.8235V9.72851L26.1196 13.3937V5.88235L45 0V34.1176L26.1196 40V32.4887L37.7663 28.8235Z" fill="#4A90E2"/>
<path d="M16.6697 38.1304L23 40V32.7826L13.7339 30L8.00003 35.5L16.6697 38.1304Z" fill="#4A90E2"/>
<path d="M11.2337 9.72851L22.8804 13.3937V5.88235L4 0V22.4887L11.2337 18.1448V9.72851Z" fill="#4A90E2"/>
<path d="M70.0211 20.473C69.7468 18.5901 68.5127 17.5339 66.593 17.5339C63.622 17.5339 62.6622 20.5649 62.6622 23.0448C62.6622 25.4787 63.622 28.4179 66.5016 28.4179C68.6498 28.4179 69.8839 27.0402 70.2039 24.9736H74.6832C74.089 29.4742 70.9809 31.9541 66.5473 31.9541C61.4281 31.9541 58 28.326 58 23.2744C58 17.9931 61.1538 14.0895 66.6387 14.0895C70.6152 14.0895 74.2718 16.2021 74.5918 20.5189H70.0211V20.473Z" fill="black"/>
<path d="M85.9226 14.0896C91.2704 14.0896 94.6985 17.6258 94.6985 23.0448C94.6985 28.418 91.2704 31.9541 85.9226 31.9541C80.6206 31.9541 77.1925 28.418 77.1925 23.0448C77.1925 17.6258 80.6206 14.0896 85.9226 14.0896ZM85.9226 28.4639C89.0765 28.4639 90.0363 25.7544 90.0363 23.0448C90.0363 20.3353 89.0765 17.5798 85.9226 17.5798C82.7688 17.5798 81.8547 20.2894 81.8547 23.0448C81.8547 25.7544 82.8145 28.4639 85.9226 28.4639Z" fill="black"/>
<path d="M102.057 11.8576H97.3952V8H102.057V11.8576ZM97.3952 14.4753H102.057V31.4673H97.3952V14.4753Z" fill="black"/>
<path d="M105.522 14.5488H109.956V16.891H110.047C111.235 15.0081 113.247 14.0896 115.212 14.0896C120.148 14.0896 121.383 16.891 121.383 21.0701V31.4949H116.72V21.9426C116.72 19.1413 115.898 17.7635 113.749 17.7635C111.235 17.7635 110.138 19.1872 110.138 22.6315V31.5408H105.476V14.5488H105.522Z" fill="black"/>
<path d="M137.375 19.9219C136.827 17.3961 135.273 15.8347 132.622 15.8347C128.645 15.8347 126.726 19.4627 126.726 23.0448C126.726 26.6728 128.691 30.2549 132.622 30.2549C135.181 30.2549 137.284 28.2342 137.513 25.4328H139.569C139.021 29.5201 136.37 32 132.622 32C127.457 32 124.669 27.9127 124.669 23.0448C124.669 18.1768 127.457 14.0895 132.622 14.0895C136.233 14.0895 138.975 16.0184 139.432 19.9219H137.375Z" fill="black"/>
<path d="M157.747 23.0448C157.747 27.9128 154.959 32 149.794 32C144.629 32 141.841 27.9128 141.841 23.0448C141.841 18.1769 144.629 14.0896 149.794 14.0896C154.959 14.0896 157.747 18.1769 157.747 23.0448ZM143.852 23.0448C143.852 26.6728 145.818 30.2549 149.748 30.2549C153.725 30.2549 155.645 26.6269 155.645 23.0448C155.645 19.4168 153.679 15.8347 149.748 15.8347C145.818 15.8347 143.852 19.4627 143.852 23.0448Z" fill="black"/>
<path d="M175.564 31.4673H173.69V28.2526H173.644C172.776 30.4569 170.079 31.9724 167.611 31.9724C162.492 31.9724 160.023 27.7933 160.023 23.0172C160.023 18.2411 162.492 14.062 167.611 14.062C170.125 14.062 172.593 15.3479 173.461 17.7819H173.507V8H175.564V31.4673ZM167.611 30.2273C171.999 30.2273 173.507 26.5075 173.507 23.0172C173.507 19.527 171.953 15.8071 167.611 15.8071C163.68 15.8071 162.08 19.527 162.08 23.0172C162.08 26.5075 163.68 30.2273 167.611 30.2273Z" fill="black"/>
<path d="M180.263 23.5959C180.308 26.6269 181.862 30.2549 185.839 30.2549C188.856 30.2549 190.501 28.4639 191.141 25.938H193.198C192.329 29.7957 190.09 32 185.839 32C180.491 32 178.206 27.8669 178.206 23.0448C178.206 18.5902 180.446 14.0896 185.839 14.0896C191.278 14.0896 193.426 18.8657 193.244 23.5959H180.263ZM191.141 21.8967C191.05 18.7739 189.13 15.8347 185.793 15.8347C182.411 15.8347 180.583 18.7739 180.217 21.8967H191.141Z" fill="black"/>
<path d="M200.904 22.2182L194.871 14.0896H197.43L202.23 20.519L206.938 14.0896H209.497L203.418 22.2182L210 31.0356H207.395L202.093 23.9174L196.928 31.0356H194.368L200.904 22.2182Z" fill="black"/>
<defs>
<linearGradient id="paint0_linear" x1="0" y1="26.9896" x2="31.1952" y2="26.9896" gradientUnits="userSpaceOnUse">
<stop stop-color="#3B495B"/>
<stop offset="0.0826886" stop-color="#344153"/>
<stop offset="0.2384" stop-color="#2E3B4C"/>
<stop offset="0.6275" stop-color="#2C394A"/>
</linearGradient>
</defs>
</svg>
