<svg id="Twitter_icon" xmlns="http://www.w3.org/2000/svg" width="20" height="20" viewBox="0 0 20 20">
  <metadata><?xpacket begin="﻿" id="W5M0MpCehiHzreSzNTczkc9d"?>
<x:xmpmeta xmlns:x="adobe:ns:meta/" x:xmptk="Adobe XMP Core 5.6-c138 79.159824, 2016/09/14-01:09:01        ">
   <rdf:RDF xmlns:rdf="http://www.w3.org/1999/02/22-rdf-syntax-ns#">
      <rdf:Description rdf:about=""/>
   </rdf:RDF>
</x:xmpmeta>
                                                                                                    
                                                                                                    
                                                                                                    
                                                                                                    
                                                                                                    
                                                                                                    
                                                                                                    
                                                                                                    
                                                                                                    
                                                                                                    
                                                                                                    
                                                                                                    
                                                                                                    
                                                                                                    
                                                                                                    
                                                                                                    
                                                                                                    
                                                                                                    
                                                                                                    
                                                                                                    
                           
<?xpacket end="w"?></metadata>
<defs>
    <style>
      .cls-1 {
        fill: #ccc;
      }

      .cls-2 {
        fill: #fff;
        fill-rule: evenodd;
      }
    </style>
  </defs>
  <rect id="Rounded_Rectangle_522_copy" data-name="Rounded Rectangle 522 copy" class="cls-1" width="20" height="20" rx="5" ry="5"/>
  <path class="cls-2" d="M1093,3077.18a4.18,4.18,0,0,1-1.3.4,2.44,2.44,0,0,0,.99-1.4,4.258,4.258,0,0,1-1.43.62,2.152,2.152,0,0,0-1.64-.8,2.4,2.4,0,0,0-2.26,2.52,2.784,2.784,0,0,0,.06.58,6.2,6.2,0,0,1-4.65-2.64,2.681,2.681,0,0,0-.31,1.27,2.594,2.594,0,0,0,1.01,2.1,2,2,0,0,1-1.02-.31v0.03a2.461,2.461,0,0,0,1.8,2.47,2.074,2.074,0,0,1-1.01.05,2.3,2.3,0,0,0,2.1,1.75,4.2,4.2,0,0,1-2.8,1.08,4.886,4.886,0,0,1-.54-0.03,5.962,5.962,0,0,0,3.46,1.13c4.15,0,6.42-3.85,6.42-7.18,0-.11,0-0.22-0.01-0.33A4.929,4.929,0,0,0,1093,3077.18Z" transform="translate(-1077 -3071)"/>
</svg>
