<svg xmlns="http://www.w3.org/2000/svg" width="20" height="16" viewBox="0 0 20 16">
  <metadata><?xpacket begin="﻿" id="W5M0MpCehiHzreSzNTczkc9d"?>
<x:xmpmeta xmlns:x="adobe:ns:meta/" x:xmptk="Adobe XMP Core 5.6-c138 79.159824, 2016/09/14-01:09:01        ">
   <rdf:RDF xmlns:rdf="http://www.w3.org/1999/02/22-rdf-syntax-ns#">
      <rdf:Description rdf:about=""/>
   </rdf:RDF>
</x:xmpmeta>





















<?xpacket end="w"?></metadata>
<defs>
    <style>
      .cls-1 {
        fill: #ccc;
        fill-rule: evenodd;
      }
    </style>
  </defs>
  <path class="cls-1" d="M1016.81,2991.8a2.79,2.79,0,0,0-2.55-2.53c-1.57-.13-3.89-0.27-6.76-0.27-3.45,0-6.06.14-7.743,0.27a2.807,2.807,0,0,0-2.564,2.55c-0.1,1.08-.193,3.51-0.193,5.22,0,1.67.089,4.08,0.191,5.15a2.8,2.8,0,0,0,2.564,2.54c1.685,0.13,4.295.27,7.745,0.27,2.87,0,5.19-.14,6.76-0.27a2.791,2.791,0,0,0,2.55-2.54c0.1-1.07.19-3.5,0.19-5.19S1016.91,2992.88,1016.81,2991.8Zm-11.82,8.2v-6l6.02,3Z" transform="translate(-997 -2989)"/>
</svg>
